%TF.GenerationSoftware,KiCad,Pcbnew,8.0.5*%
%TF.CreationDate,2024-11-27T11:31:13-05:00*%
%TF.ProjectId,Alfond PCB,416c666f-6e64-4205-9043-422e6b696361,rev?*%
%TF.SameCoordinates,Original*%
%TF.FileFunction,Legend,Top*%
%TF.FilePolarity,Positive*%
%FSLAX46Y46*%
G04 Gerber Fmt 4.6, Leading zero omitted, Abs format (unit mm)*
G04 Created by KiCad (PCBNEW 8.0.5) date 2024-11-27 11:31:13*
%MOMM*%
%LPD*%
G01*
G04 APERTURE LIST*
G04 Aperture macros list*
%AMRoundRect*
0 Rectangle with rounded corners*
0 $1 Rounding radius*
0 $2 $3 $4 $5 $6 $7 $8 $9 X,Y pos of 4 corners*
0 Add a 4 corners polygon primitive as box body*
4,1,4,$2,$3,$4,$5,$6,$7,$8,$9,$2,$3,0*
0 Add four circle primitives for the rounded corners*
1,1,$1+$1,$2,$3*
1,1,$1+$1,$4,$5*
1,1,$1+$1,$6,$7*
1,1,$1+$1,$8,$9*
0 Add four rect primitives between the rounded corners*
20,1,$1+$1,$2,$3,$4,$5,0*
20,1,$1+$1,$4,$5,$6,$7,0*
20,1,$1+$1,$6,$7,$8,$9,0*
20,1,$1+$1,$8,$9,$2,$3,0*%
G04 Aperture macros list end*
%ADD10C,0.150000*%
%ADD11C,0.146304*%
%ADD12C,0.120000*%
%ADD13C,0.127000*%
%ADD14C,0.100000*%
%ADD15R,1.400000X1.200000*%
%ADD16RoundRect,0.160000X-0.160000X0.197500X-0.160000X-0.197500X0.160000X-0.197500X0.160000X0.197500X0*%
%ADD17RoundRect,0.100000X-0.712500X-0.100000X0.712500X-0.100000X0.712500X0.100000X-0.712500X0.100000X0*%
%ADD18RoundRect,0.075000X-0.725000X-0.075000X0.725000X-0.075000X0.725000X0.075000X-0.725000X0.075000X0*%
%ADD19RoundRect,0.075000X-0.075000X-0.725000X0.075000X-0.725000X0.075000X0.725000X-0.075000X0.725000X0*%
%ADD20RoundRect,0.155000X0.212500X0.155000X-0.212500X0.155000X-0.212500X-0.155000X0.212500X-0.155000X0*%
%ADD21R,1.700000X1.700000*%
%ADD22C,1.879600*%
%ADD23RoundRect,0.155000X0.155000X-0.212500X0.155000X0.212500X-0.155000X0.212500X-0.155000X-0.212500X0*%
%ADD24RoundRect,0.160000X-0.197500X-0.160000X0.197500X-0.160000X0.197500X0.160000X-0.197500X0.160000X0*%
%ADD25RoundRect,0.160000X0.197500X0.160000X-0.197500X0.160000X-0.197500X-0.160000X0.197500X-0.160000X0*%
%ADD26R,1.500000X1.050000*%
%ADD27O,1.500000X1.050000*%
%ADD28RoundRect,0.155000X-0.155000X0.212500X-0.155000X-0.212500X0.155000X-0.212500X0.155000X0.212500X0*%
%ADD29RoundRect,0.225000X0.225000X0.375000X-0.225000X0.375000X-0.225000X-0.375000X0.225000X-0.375000X0*%
%ADD30C,1.778000*%
%ADD31RoundRect,0.155000X-0.212500X-0.155000X0.212500X-0.155000X0.212500X0.155000X-0.212500X0.155000X0*%
%ADD32R,1.000000X0.800000*%
%ADD33C,0.900000*%
%ADD34R,0.700000X1.500000*%
%ADD35C,1.712000*%
%ADD36R,2.000000X2.000000*%
%ADD37C,2.000000*%
%ADD38C,1.700000*%
%ADD39O,0.800000X0.800000*%
%ADD40R,1.300000X0.450000*%
%ADD41O,1.800000X1.150000*%
%ADD42O,2.000000X1.450000*%
%ADD43O,1.700000X1.700000*%
%ADD44RoundRect,0.250000X-0.475000X0.337500X-0.475000X-0.337500X0.475000X-0.337500X0.475000X0.337500X0*%
%ADD45RoundRect,0.225000X0.225000X0.250000X-0.225000X0.250000X-0.225000X-0.250000X0.225000X-0.250000X0*%
%ADD46RoundRect,0.218750X-0.218750X-0.256250X0.218750X-0.256250X0.218750X0.256250X-0.218750X0.256250X0*%
%ADD47O,1.600000X2.000000*%
%ADD48RoundRect,0.250000X-0.337500X-0.475000X0.337500X-0.475000X0.337500X0.475000X-0.337500X0.475000X0*%
%ADD49RoundRect,0.075000X-0.212500X-0.075000X0.212500X-0.075000X0.212500X0.075000X-0.212500X0.075000X0*%
%ADD50RoundRect,0.243750X0.456250X-0.243750X0.456250X0.243750X-0.456250X0.243750X-0.456250X-0.243750X0*%
G04 APERTURE END LIST*
D10*
X206423809Y-76678628D02*
X206423809Y-77154819D01*
X206090476Y-76154819D02*
X206423809Y-76678628D01*
X206423809Y-76678628D02*
X206757142Y-76154819D01*
X207614285Y-77154819D02*
X207042857Y-77154819D01*
X207328571Y-77154819D02*
X207328571Y-76154819D01*
X207328571Y-76154819D02*
X207233333Y-76297676D01*
X207233333Y-76297676D02*
X207138095Y-76392914D01*
X207138095Y-76392914D02*
X207042857Y-76440533D01*
X193124819Y-54666666D02*
X192648628Y-54999999D01*
X193124819Y-55238094D02*
X192124819Y-55238094D01*
X192124819Y-55238094D02*
X192124819Y-54857142D01*
X192124819Y-54857142D02*
X192172438Y-54761904D01*
X192172438Y-54761904D02*
X192220057Y-54714285D01*
X192220057Y-54714285D02*
X192315295Y-54666666D01*
X192315295Y-54666666D02*
X192458152Y-54666666D01*
X192458152Y-54666666D02*
X192553390Y-54714285D01*
X192553390Y-54714285D02*
X192601009Y-54761904D01*
X192601009Y-54761904D02*
X192648628Y-54857142D01*
X192648628Y-54857142D02*
X192648628Y-55238094D01*
X192124819Y-54333332D02*
X192124819Y-53666666D01*
X192124819Y-53666666D02*
X193124819Y-54095237D01*
X180738095Y-85004819D02*
X180738095Y-85814342D01*
X180738095Y-85814342D02*
X180785714Y-85909580D01*
X180785714Y-85909580D02*
X180833333Y-85957200D01*
X180833333Y-85957200D02*
X180928571Y-86004819D01*
X180928571Y-86004819D02*
X181119047Y-86004819D01*
X181119047Y-86004819D02*
X181214285Y-85957200D01*
X181214285Y-85957200D02*
X181261904Y-85909580D01*
X181261904Y-85909580D02*
X181309523Y-85814342D01*
X181309523Y-85814342D02*
X181309523Y-85004819D01*
X181690476Y-85004819D02*
X182309523Y-85004819D01*
X182309523Y-85004819D02*
X181976190Y-85385771D01*
X181976190Y-85385771D02*
X182119047Y-85385771D01*
X182119047Y-85385771D02*
X182214285Y-85433390D01*
X182214285Y-85433390D02*
X182261904Y-85481009D01*
X182261904Y-85481009D02*
X182309523Y-85576247D01*
X182309523Y-85576247D02*
X182309523Y-85814342D01*
X182309523Y-85814342D02*
X182261904Y-85909580D01*
X182261904Y-85909580D02*
X182214285Y-85957200D01*
X182214285Y-85957200D02*
X182119047Y-86004819D01*
X182119047Y-86004819D02*
X181833333Y-86004819D01*
X181833333Y-86004819D02*
X181738095Y-85957200D01*
X181738095Y-85957200D02*
X181690476Y-85909580D01*
X223238095Y-64034819D02*
X223238095Y-64844342D01*
X223238095Y-64844342D02*
X223285714Y-64939580D01*
X223285714Y-64939580D02*
X223333333Y-64987200D01*
X223333333Y-64987200D02*
X223428571Y-65034819D01*
X223428571Y-65034819D02*
X223619047Y-65034819D01*
X223619047Y-65034819D02*
X223714285Y-64987200D01*
X223714285Y-64987200D02*
X223761904Y-64939580D01*
X223761904Y-64939580D02*
X223809523Y-64844342D01*
X223809523Y-64844342D02*
X223809523Y-64034819D01*
X224238095Y-64130057D02*
X224285714Y-64082438D01*
X224285714Y-64082438D02*
X224380952Y-64034819D01*
X224380952Y-64034819D02*
X224619047Y-64034819D01*
X224619047Y-64034819D02*
X224714285Y-64082438D01*
X224714285Y-64082438D02*
X224761904Y-64130057D01*
X224761904Y-64130057D02*
X224809523Y-64225295D01*
X224809523Y-64225295D02*
X224809523Y-64320533D01*
X224809523Y-64320533D02*
X224761904Y-64463390D01*
X224761904Y-64463390D02*
X224190476Y-65034819D01*
X224190476Y-65034819D02*
X224809523Y-65034819D01*
X193924642Y-67519580D02*
X193877023Y-67567200D01*
X193877023Y-67567200D02*
X193734166Y-67614819D01*
X193734166Y-67614819D02*
X193638928Y-67614819D01*
X193638928Y-67614819D02*
X193496071Y-67567200D01*
X193496071Y-67567200D02*
X193400833Y-67471961D01*
X193400833Y-67471961D02*
X193353214Y-67376723D01*
X193353214Y-67376723D02*
X193305595Y-67186247D01*
X193305595Y-67186247D02*
X193305595Y-67043390D01*
X193305595Y-67043390D02*
X193353214Y-66852914D01*
X193353214Y-66852914D02*
X193400833Y-66757676D01*
X193400833Y-66757676D02*
X193496071Y-66662438D01*
X193496071Y-66662438D02*
X193638928Y-66614819D01*
X193638928Y-66614819D02*
X193734166Y-66614819D01*
X193734166Y-66614819D02*
X193877023Y-66662438D01*
X193877023Y-66662438D02*
X193924642Y-66710057D01*
X194877023Y-67614819D02*
X194305595Y-67614819D01*
X194591309Y-67614819D02*
X194591309Y-66614819D01*
X194591309Y-66614819D02*
X194496071Y-66757676D01*
X194496071Y-66757676D02*
X194400833Y-66852914D01*
X194400833Y-66852914D02*
X194305595Y-66900533D01*
X195496071Y-66614819D02*
X195591309Y-66614819D01*
X195591309Y-66614819D02*
X195686547Y-66662438D01*
X195686547Y-66662438D02*
X195734166Y-66710057D01*
X195734166Y-66710057D02*
X195781785Y-66805295D01*
X195781785Y-66805295D02*
X195829404Y-66995771D01*
X195829404Y-66995771D02*
X195829404Y-67233866D01*
X195829404Y-67233866D02*
X195781785Y-67424342D01*
X195781785Y-67424342D02*
X195734166Y-67519580D01*
X195734166Y-67519580D02*
X195686547Y-67567200D01*
X195686547Y-67567200D02*
X195591309Y-67614819D01*
X195591309Y-67614819D02*
X195496071Y-67614819D01*
X195496071Y-67614819D02*
X195400833Y-67567200D01*
X195400833Y-67567200D02*
X195353214Y-67519580D01*
X195353214Y-67519580D02*
X195305595Y-67424342D01*
X195305595Y-67424342D02*
X195257976Y-67233866D01*
X195257976Y-67233866D02*
X195257976Y-66995771D01*
X195257976Y-66995771D02*
X195305595Y-66805295D01*
X195305595Y-66805295D02*
X195353214Y-66710057D01*
X195353214Y-66710057D02*
X195400833Y-66662438D01*
X195400833Y-66662438D02*
X195496071Y-66614819D01*
X178928572Y-75624819D02*
X178928572Y-74624819D01*
X179404762Y-75624819D02*
X179404762Y-74624819D01*
X179404762Y-74624819D02*
X179976190Y-75624819D01*
X179976190Y-75624819D02*
X179976190Y-74624819D01*
X180404762Y-75339104D02*
X180880952Y-75339104D01*
X180309524Y-75624819D02*
X180642857Y-74624819D01*
X180642857Y-74624819D02*
X180976190Y-75624819D01*
X181309524Y-75243866D02*
X182071429Y-75243866D01*
X181690476Y-75624819D02*
X181690476Y-74862914D01*
D11*
X192050528Y-94065687D02*
X192050528Y-93265687D01*
X192431480Y-94065687D02*
X192431480Y-93265687D01*
X192431480Y-93265687D02*
X192888623Y-94065687D01*
X192888623Y-94065687D02*
X192888623Y-93265687D01*
X193231479Y-93837115D02*
X193612432Y-93837115D01*
X193155289Y-94065687D02*
X193421956Y-93265687D01*
X193421956Y-93265687D02*
X193688622Y-94065687D01*
X193917193Y-93341877D02*
X193955289Y-93303782D01*
X193955289Y-93303782D02*
X194031479Y-93265687D01*
X194031479Y-93265687D02*
X194221955Y-93265687D01*
X194221955Y-93265687D02*
X194298146Y-93303782D01*
X194298146Y-93303782D02*
X194336241Y-93341877D01*
X194336241Y-93341877D02*
X194374336Y-93418068D01*
X194374336Y-93418068D02*
X194374336Y-93494258D01*
X194374336Y-93494258D02*
X194336241Y-93608544D01*
X194336241Y-93608544D02*
X193879098Y-94065687D01*
X193879098Y-94065687D02*
X194374336Y-94065687D01*
X195060051Y-93265687D02*
X194907670Y-93265687D01*
X194907670Y-93265687D02*
X194831479Y-93303782D01*
X194831479Y-93303782D02*
X194793384Y-93341877D01*
X194793384Y-93341877D02*
X194717194Y-93456163D01*
X194717194Y-93456163D02*
X194679098Y-93608544D01*
X194679098Y-93608544D02*
X194679098Y-93913306D01*
X194679098Y-93913306D02*
X194717194Y-93989496D01*
X194717194Y-93989496D02*
X194755289Y-94027592D01*
X194755289Y-94027592D02*
X194831479Y-94065687D01*
X194831479Y-94065687D02*
X194983860Y-94065687D01*
X194983860Y-94065687D02*
X195060051Y-94027592D01*
X195060051Y-94027592D02*
X195098146Y-93989496D01*
X195098146Y-93989496D02*
X195136241Y-93913306D01*
X195136241Y-93913306D02*
X195136241Y-93722830D01*
X195136241Y-93722830D02*
X195098146Y-93646639D01*
X195098146Y-93646639D02*
X195060051Y-93608544D01*
X195060051Y-93608544D02*
X194983860Y-93570449D01*
X194983860Y-93570449D02*
X194831479Y-93570449D01*
X194831479Y-93570449D02*
X194755289Y-93608544D01*
X194755289Y-93608544D02*
X194717194Y-93646639D01*
X194717194Y-93646639D02*
X194679098Y-93722830D01*
X195631480Y-93265687D02*
X195707670Y-93265687D01*
X195707670Y-93265687D02*
X195783861Y-93303782D01*
X195783861Y-93303782D02*
X195821956Y-93341877D01*
X195821956Y-93341877D02*
X195860051Y-93418068D01*
X195860051Y-93418068D02*
X195898146Y-93570449D01*
X195898146Y-93570449D02*
X195898146Y-93760925D01*
X195898146Y-93760925D02*
X195860051Y-93913306D01*
X195860051Y-93913306D02*
X195821956Y-93989496D01*
X195821956Y-93989496D02*
X195783861Y-94027592D01*
X195783861Y-94027592D02*
X195707670Y-94065687D01*
X195707670Y-94065687D02*
X195631480Y-94065687D01*
X195631480Y-94065687D02*
X195555289Y-94027592D01*
X195555289Y-94027592D02*
X195517194Y-93989496D01*
X195517194Y-93989496D02*
X195479099Y-93913306D01*
X195479099Y-93913306D02*
X195441003Y-93760925D01*
X195441003Y-93760925D02*
X195441003Y-93570449D01*
X195441003Y-93570449D02*
X195479099Y-93418068D01*
X195479099Y-93418068D02*
X195517194Y-93341877D01*
X195517194Y-93341877D02*
X195555289Y-93303782D01*
X195555289Y-93303782D02*
X195631480Y-93265687D01*
D10*
X184928572Y-75624819D02*
X184928572Y-74624819D01*
X185404762Y-75624819D02*
X185404762Y-74624819D01*
X185404762Y-74624819D02*
X185976190Y-75624819D01*
X185976190Y-75624819D02*
X185976190Y-74624819D01*
X186404762Y-75339104D02*
X186880952Y-75339104D01*
X186309524Y-75624819D02*
X186642857Y-74624819D01*
X186642857Y-74624819D02*
X186976190Y-75624819D01*
X187309524Y-75243866D02*
X188071429Y-75243866D01*
X236859580Y-69166666D02*
X236907200Y-69214285D01*
X236907200Y-69214285D02*
X236954819Y-69357142D01*
X236954819Y-69357142D02*
X236954819Y-69452380D01*
X236954819Y-69452380D02*
X236907200Y-69595237D01*
X236907200Y-69595237D02*
X236811961Y-69690475D01*
X236811961Y-69690475D02*
X236716723Y-69738094D01*
X236716723Y-69738094D02*
X236526247Y-69785713D01*
X236526247Y-69785713D02*
X236383390Y-69785713D01*
X236383390Y-69785713D02*
X236192914Y-69738094D01*
X236192914Y-69738094D02*
X236097676Y-69690475D01*
X236097676Y-69690475D02*
X236002438Y-69595237D01*
X236002438Y-69595237D02*
X235954819Y-69452380D01*
X235954819Y-69452380D02*
X235954819Y-69357142D01*
X235954819Y-69357142D02*
X236002438Y-69214285D01*
X236002438Y-69214285D02*
X236050057Y-69166666D01*
X236954819Y-68690475D02*
X236954819Y-68499999D01*
X236954819Y-68499999D02*
X236907200Y-68404761D01*
X236907200Y-68404761D02*
X236859580Y-68357142D01*
X236859580Y-68357142D02*
X236716723Y-68261904D01*
X236716723Y-68261904D02*
X236526247Y-68214285D01*
X236526247Y-68214285D02*
X236145295Y-68214285D01*
X236145295Y-68214285D02*
X236050057Y-68261904D01*
X236050057Y-68261904D02*
X236002438Y-68309523D01*
X236002438Y-68309523D02*
X235954819Y-68404761D01*
X235954819Y-68404761D02*
X235954819Y-68595237D01*
X235954819Y-68595237D02*
X236002438Y-68690475D01*
X236002438Y-68690475D02*
X236050057Y-68738094D01*
X236050057Y-68738094D02*
X236145295Y-68785713D01*
X236145295Y-68785713D02*
X236383390Y-68785713D01*
X236383390Y-68785713D02*
X236478628Y-68738094D01*
X236478628Y-68738094D02*
X236526247Y-68690475D01*
X236526247Y-68690475D02*
X236573866Y-68595237D01*
X236573866Y-68595237D02*
X236573866Y-68404761D01*
X236573866Y-68404761D02*
X236526247Y-68309523D01*
X236526247Y-68309523D02*
X236478628Y-68261904D01*
X236478628Y-68261904D02*
X236383390Y-68214285D01*
X220618333Y-62094819D02*
X220285000Y-61618628D01*
X220046905Y-62094819D02*
X220046905Y-61094819D01*
X220046905Y-61094819D02*
X220427857Y-61094819D01*
X220427857Y-61094819D02*
X220523095Y-61142438D01*
X220523095Y-61142438D02*
X220570714Y-61190057D01*
X220570714Y-61190057D02*
X220618333Y-61285295D01*
X220618333Y-61285295D02*
X220618333Y-61428152D01*
X220618333Y-61428152D02*
X220570714Y-61523390D01*
X220570714Y-61523390D02*
X220523095Y-61571009D01*
X220523095Y-61571009D02*
X220427857Y-61618628D01*
X220427857Y-61618628D02*
X220046905Y-61618628D01*
X221523095Y-61094819D02*
X221046905Y-61094819D01*
X221046905Y-61094819D02*
X220999286Y-61571009D01*
X220999286Y-61571009D02*
X221046905Y-61523390D01*
X221046905Y-61523390D02*
X221142143Y-61475771D01*
X221142143Y-61475771D02*
X221380238Y-61475771D01*
X221380238Y-61475771D02*
X221475476Y-61523390D01*
X221475476Y-61523390D02*
X221523095Y-61571009D01*
X221523095Y-61571009D02*
X221570714Y-61666247D01*
X221570714Y-61666247D02*
X221570714Y-61904342D01*
X221570714Y-61904342D02*
X221523095Y-61999580D01*
X221523095Y-61999580D02*
X221475476Y-62047200D01*
X221475476Y-62047200D02*
X221380238Y-62094819D01*
X221380238Y-62094819D02*
X221142143Y-62094819D01*
X221142143Y-62094819D02*
X221046905Y-62047200D01*
X221046905Y-62047200D02*
X220999286Y-61999580D01*
X214333333Y-91124819D02*
X214000000Y-90648628D01*
X213761905Y-91124819D02*
X213761905Y-90124819D01*
X213761905Y-90124819D02*
X214142857Y-90124819D01*
X214142857Y-90124819D02*
X214238095Y-90172438D01*
X214238095Y-90172438D02*
X214285714Y-90220057D01*
X214285714Y-90220057D02*
X214333333Y-90315295D01*
X214333333Y-90315295D02*
X214333333Y-90458152D01*
X214333333Y-90458152D02*
X214285714Y-90553390D01*
X214285714Y-90553390D02*
X214238095Y-90601009D01*
X214238095Y-90601009D02*
X214142857Y-90648628D01*
X214142857Y-90648628D02*
X213761905Y-90648628D01*
X215190476Y-90458152D02*
X215190476Y-91124819D01*
X214952381Y-90077200D02*
X214714286Y-90791485D01*
X214714286Y-90791485D02*
X215333333Y-90791485D01*
X237394819Y-85991904D02*
X238204342Y-85991904D01*
X238204342Y-85991904D02*
X238299580Y-85944285D01*
X238299580Y-85944285D02*
X238347200Y-85896666D01*
X238347200Y-85896666D02*
X238394819Y-85801428D01*
X238394819Y-85801428D02*
X238394819Y-85610952D01*
X238394819Y-85610952D02*
X238347200Y-85515714D01*
X238347200Y-85515714D02*
X238299580Y-85468095D01*
X238299580Y-85468095D02*
X238204342Y-85420476D01*
X238204342Y-85420476D02*
X237394819Y-85420476D01*
X238394819Y-84420476D02*
X238394819Y-84991904D01*
X238394819Y-84706190D02*
X237394819Y-84706190D01*
X237394819Y-84706190D02*
X237537676Y-84801428D01*
X237537676Y-84801428D02*
X237632914Y-84896666D01*
X237632914Y-84896666D02*
X237680533Y-84991904D01*
X214019580Y-70666666D02*
X214067200Y-70714285D01*
X214067200Y-70714285D02*
X214114819Y-70857142D01*
X214114819Y-70857142D02*
X214114819Y-70952380D01*
X214114819Y-70952380D02*
X214067200Y-71095237D01*
X214067200Y-71095237D02*
X213971961Y-71190475D01*
X213971961Y-71190475D02*
X213876723Y-71238094D01*
X213876723Y-71238094D02*
X213686247Y-71285713D01*
X213686247Y-71285713D02*
X213543390Y-71285713D01*
X213543390Y-71285713D02*
X213352914Y-71238094D01*
X213352914Y-71238094D02*
X213257676Y-71190475D01*
X213257676Y-71190475D02*
X213162438Y-71095237D01*
X213162438Y-71095237D02*
X213114819Y-70952380D01*
X213114819Y-70952380D02*
X213114819Y-70857142D01*
X213114819Y-70857142D02*
X213162438Y-70714285D01*
X213162438Y-70714285D02*
X213210057Y-70666666D01*
X213114819Y-69809523D02*
X213114819Y-69999999D01*
X213114819Y-69999999D02*
X213162438Y-70095237D01*
X213162438Y-70095237D02*
X213210057Y-70142856D01*
X213210057Y-70142856D02*
X213352914Y-70238094D01*
X213352914Y-70238094D02*
X213543390Y-70285713D01*
X213543390Y-70285713D02*
X213924342Y-70285713D01*
X213924342Y-70285713D02*
X214019580Y-70238094D01*
X214019580Y-70238094D02*
X214067200Y-70190475D01*
X214067200Y-70190475D02*
X214114819Y-70095237D01*
X214114819Y-70095237D02*
X214114819Y-69904761D01*
X214114819Y-69904761D02*
X214067200Y-69809523D01*
X214067200Y-69809523D02*
X214019580Y-69761904D01*
X214019580Y-69761904D02*
X213924342Y-69714285D01*
X213924342Y-69714285D02*
X213686247Y-69714285D01*
X213686247Y-69714285D02*
X213591009Y-69761904D01*
X213591009Y-69761904D02*
X213543390Y-69809523D01*
X213543390Y-69809523D02*
X213495771Y-69904761D01*
X213495771Y-69904761D02*
X213495771Y-70095237D01*
X213495771Y-70095237D02*
X213543390Y-70190475D01*
X213543390Y-70190475D02*
X213591009Y-70238094D01*
X213591009Y-70238094D02*
X213686247Y-70285713D01*
X168761905Y-91454819D02*
X168761905Y-90454819D01*
X168761905Y-90454819D02*
X169000000Y-90454819D01*
X169000000Y-90454819D02*
X169142857Y-90502438D01*
X169142857Y-90502438D02*
X169238095Y-90597676D01*
X169238095Y-90597676D02*
X169285714Y-90692914D01*
X169285714Y-90692914D02*
X169333333Y-90883390D01*
X169333333Y-90883390D02*
X169333333Y-91026247D01*
X169333333Y-91026247D02*
X169285714Y-91216723D01*
X169285714Y-91216723D02*
X169238095Y-91311961D01*
X169238095Y-91311961D02*
X169142857Y-91407200D01*
X169142857Y-91407200D02*
X169000000Y-91454819D01*
X169000000Y-91454819D02*
X168761905Y-91454819D01*
X169714286Y-90550057D02*
X169761905Y-90502438D01*
X169761905Y-90502438D02*
X169857143Y-90454819D01*
X169857143Y-90454819D02*
X170095238Y-90454819D01*
X170095238Y-90454819D02*
X170190476Y-90502438D01*
X170190476Y-90502438D02*
X170238095Y-90550057D01*
X170238095Y-90550057D02*
X170285714Y-90645295D01*
X170285714Y-90645295D02*
X170285714Y-90740533D01*
X170285714Y-90740533D02*
X170238095Y-90883390D01*
X170238095Y-90883390D02*
X169666667Y-91454819D01*
X169666667Y-91454819D02*
X170285714Y-91454819D01*
D11*
X240565687Y-63599471D02*
X239765687Y-63599471D01*
X239765687Y-63599471D02*
X240337115Y-63332805D01*
X240337115Y-63332805D02*
X239765687Y-63066138D01*
X239765687Y-63066138D02*
X240565687Y-63066138D01*
X240527592Y-62723281D02*
X240565687Y-62608995D01*
X240565687Y-62608995D02*
X240565687Y-62418519D01*
X240565687Y-62418519D02*
X240527592Y-62342328D01*
X240527592Y-62342328D02*
X240489496Y-62304233D01*
X240489496Y-62304233D02*
X240413306Y-62266138D01*
X240413306Y-62266138D02*
X240337115Y-62266138D01*
X240337115Y-62266138D02*
X240260925Y-62304233D01*
X240260925Y-62304233D02*
X240222830Y-62342328D01*
X240222830Y-62342328D02*
X240184734Y-62418519D01*
X240184734Y-62418519D02*
X240146639Y-62570900D01*
X240146639Y-62570900D02*
X240108544Y-62647090D01*
X240108544Y-62647090D02*
X240070449Y-62685185D01*
X240070449Y-62685185D02*
X239994258Y-62723281D01*
X239994258Y-62723281D02*
X239918068Y-62723281D01*
X239918068Y-62723281D02*
X239841877Y-62685185D01*
X239841877Y-62685185D02*
X239803782Y-62647090D01*
X239803782Y-62647090D02*
X239765687Y-62570900D01*
X239765687Y-62570900D02*
X239765687Y-62380423D01*
X239765687Y-62380423D02*
X239803782Y-62266138D01*
X240108544Y-61808995D02*
X240070449Y-61885185D01*
X240070449Y-61885185D02*
X240032353Y-61923280D01*
X240032353Y-61923280D02*
X239956163Y-61961376D01*
X239956163Y-61961376D02*
X239918068Y-61961376D01*
X239918068Y-61961376D02*
X239841877Y-61923280D01*
X239841877Y-61923280D02*
X239803782Y-61885185D01*
X239803782Y-61885185D02*
X239765687Y-61808995D01*
X239765687Y-61808995D02*
X239765687Y-61656614D01*
X239765687Y-61656614D02*
X239803782Y-61580423D01*
X239803782Y-61580423D02*
X239841877Y-61542328D01*
X239841877Y-61542328D02*
X239918068Y-61504233D01*
X239918068Y-61504233D02*
X239956163Y-61504233D01*
X239956163Y-61504233D02*
X240032353Y-61542328D01*
X240032353Y-61542328D02*
X240070449Y-61580423D01*
X240070449Y-61580423D02*
X240108544Y-61656614D01*
X240108544Y-61656614D02*
X240108544Y-61808995D01*
X240108544Y-61808995D02*
X240146639Y-61885185D01*
X240146639Y-61885185D02*
X240184734Y-61923280D01*
X240184734Y-61923280D02*
X240260925Y-61961376D01*
X240260925Y-61961376D02*
X240413306Y-61961376D01*
X240413306Y-61961376D02*
X240489496Y-61923280D01*
X240489496Y-61923280D02*
X240527592Y-61885185D01*
X240527592Y-61885185D02*
X240565687Y-61808995D01*
X240565687Y-61808995D02*
X240565687Y-61656614D01*
X240565687Y-61656614D02*
X240527592Y-61580423D01*
X240527592Y-61580423D02*
X240489496Y-61542328D01*
X240489496Y-61542328D02*
X240413306Y-61504233D01*
X240413306Y-61504233D02*
X240260925Y-61504233D01*
X240260925Y-61504233D02*
X240184734Y-61542328D01*
X240184734Y-61542328D02*
X240146639Y-61580423D01*
X240146639Y-61580423D02*
X240108544Y-61656614D01*
X239765687Y-60818518D02*
X239765687Y-60970899D01*
X239765687Y-60970899D02*
X239803782Y-61047090D01*
X239803782Y-61047090D02*
X239841877Y-61085185D01*
X239841877Y-61085185D02*
X239956163Y-61161375D01*
X239956163Y-61161375D02*
X240108544Y-61199471D01*
X240108544Y-61199471D02*
X240413306Y-61199471D01*
X240413306Y-61199471D02*
X240489496Y-61161375D01*
X240489496Y-61161375D02*
X240527592Y-61123280D01*
X240527592Y-61123280D02*
X240565687Y-61047090D01*
X240565687Y-61047090D02*
X240565687Y-60894709D01*
X240565687Y-60894709D02*
X240527592Y-60818518D01*
X240527592Y-60818518D02*
X240489496Y-60780423D01*
X240489496Y-60780423D02*
X240413306Y-60742328D01*
X240413306Y-60742328D02*
X240222830Y-60742328D01*
X240222830Y-60742328D02*
X240146639Y-60780423D01*
X240146639Y-60780423D02*
X240108544Y-60818518D01*
X240108544Y-60818518D02*
X240070449Y-60894709D01*
X240070449Y-60894709D02*
X240070449Y-61047090D01*
X240070449Y-61047090D02*
X240108544Y-61123280D01*
X240108544Y-61123280D02*
X240146639Y-61161375D01*
X240146639Y-61161375D02*
X240222830Y-61199471D01*
X239765687Y-60247089D02*
X239765687Y-60170899D01*
X239765687Y-60170899D02*
X239803782Y-60094708D01*
X239803782Y-60094708D02*
X239841877Y-60056613D01*
X239841877Y-60056613D02*
X239918068Y-60018518D01*
X239918068Y-60018518D02*
X240070449Y-59980423D01*
X240070449Y-59980423D02*
X240260925Y-59980423D01*
X240260925Y-59980423D02*
X240413306Y-60018518D01*
X240413306Y-60018518D02*
X240489496Y-60056613D01*
X240489496Y-60056613D02*
X240527592Y-60094708D01*
X240527592Y-60094708D02*
X240565687Y-60170899D01*
X240565687Y-60170899D02*
X240565687Y-60247089D01*
X240565687Y-60247089D02*
X240527592Y-60323280D01*
X240527592Y-60323280D02*
X240489496Y-60361375D01*
X240489496Y-60361375D02*
X240413306Y-60399470D01*
X240413306Y-60399470D02*
X240260925Y-60437566D01*
X240260925Y-60437566D02*
X240070449Y-60437566D01*
X240070449Y-60437566D02*
X239918068Y-60399470D01*
X239918068Y-60399470D02*
X239841877Y-60361375D01*
X239841877Y-60361375D02*
X239803782Y-60323280D01*
X239803782Y-60323280D02*
X239765687Y-60247089D01*
X239765687Y-59713756D02*
X239765687Y-59180422D01*
X239765687Y-59180422D02*
X240565687Y-59523280D01*
D10*
X205357142Y-83859580D02*
X205309523Y-83907200D01*
X205309523Y-83907200D02*
X205166666Y-83954819D01*
X205166666Y-83954819D02*
X205071428Y-83954819D01*
X205071428Y-83954819D02*
X204928571Y-83907200D01*
X204928571Y-83907200D02*
X204833333Y-83811961D01*
X204833333Y-83811961D02*
X204785714Y-83716723D01*
X204785714Y-83716723D02*
X204738095Y-83526247D01*
X204738095Y-83526247D02*
X204738095Y-83383390D01*
X204738095Y-83383390D02*
X204785714Y-83192914D01*
X204785714Y-83192914D02*
X204833333Y-83097676D01*
X204833333Y-83097676D02*
X204928571Y-83002438D01*
X204928571Y-83002438D02*
X205071428Y-82954819D01*
X205071428Y-82954819D02*
X205166666Y-82954819D01*
X205166666Y-82954819D02*
X205309523Y-83002438D01*
X205309523Y-83002438D02*
X205357142Y-83050057D01*
X206309523Y-83954819D02*
X205738095Y-83954819D01*
X206023809Y-83954819D02*
X206023809Y-82954819D01*
X206023809Y-82954819D02*
X205928571Y-83097676D01*
X205928571Y-83097676D02*
X205833333Y-83192914D01*
X205833333Y-83192914D02*
X205738095Y-83240533D01*
X207261904Y-83954819D02*
X206690476Y-83954819D01*
X206976190Y-83954819D02*
X206976190Y-82954819D01*
X206976190Y-82954819D02*
X206880952Y-83097676D01*
X206880952Y-83097676D02*
X206785714Y-83192914D01*
X206785714Y-83192914D02*
X206690476Y-83240533D01*
X209516667Y-53827200D02*
X209659524Y-53874819D01*
X209659524Y-53874819D02*
X209897619Y-53874819D01*
X209897619Y-53874819D02*
X209992857Y-53827200D01*
X209992857Y-53827200D02*
X210040476Y-53779580D01*
X210040476Y-53779580D02*
X210088095Y-53684342D01*
X210088095Y-53684342D02*
X210088095Y-53589104D01*
X210088095Y-53589104D02*
X210040476Y-53493866D01*
X210040476Y-53493866D02*
X209992857Y-53446247D01*
X209992857Y-53446247D02*
X209897619Y-53398628D01*
X209897619Y-53398628D02*
X209707143Y-53351009D01*
X209707143Y-53351009D02*
X209611905Y-53303390D01*
X209611905Y-53303390D02*
X209564286Y-53255771D01*
X209564286Y-53255771D02*
X209516667Y-53160533D01*
X209516667Y-53160533D02*
X209516667Y-53065295D01*
X209516667Y-53065295D02*
X209564286Y-52970057D01*
X209564286Y-52970057D02*
X209611905Y-52922438D01*
X209611905Y-52922438D02*
X209707143Y-52874819D01*
X209707143Y-52874819D02*
X209945238Y-52874819D01*
X209945238Y-52874819D02*
X210088095Y-52922438D01*
X210421429Y-52874819D02*
X210659524Y-53874819D01*
X210659524Y-53874819D02*
X210850000Y-53160533D01*
X210850000Y-53160533D02*
X211040476Y-53874819D01*
X211040476Y-53874819D02*
X211278572Y-52874819D01*
X212183333Y-53874819D02*
X211611905Y-53874819D01*
X211897619Y-53874819D02*
X211897619Y-52874819D01*
X211897619Y-52874819D02*
X211802381Y-53017676D01*
X211802381Y-53017676D02*
X211707143Y-53112914D01*
X211707143Y-53112914D02*
X211611905Y-53160533D01*
X172761905Y-81454819D02*
X172761905Y-80454819D01*
X172761905Y-80454819D02*
X173000000Y-80454819D01*
X173000000Y-80454819D02*
X173142857Y-80502438D01*
X173142857Y-80502438D02*
X173238095Y-80597676D01*
X173238095Y-80597676D02*
X173285714Y-80692914D01*
X173285714Y-80692914D02*
X173333333Y-80883390D01*
X173333333Y-80883390D02*
X173333333Y-81026247D01*
X173333333Y-81026247D02*
X173285714Y-81216723D01*
X173285714Y-81216723D02*
X173238095Y-81311961D01*
X173238095Y-81311961D02*
X173142857Y-81407200D01*
X173142857Y-81407200D02*
X173000000Y-81454819D01*
X173000000Y-81454819D02*
X172761905Y-81454819D01*
X174285714Y-81454819D02*
X173714286Y-81454819D01*
X174000000Y-81454819D02*
X174000000Y-80454819D01*
X174000000Y-80454819D02*
X173904762Y-80597676D01*
X173904762Y-80597676D02*
X173809524Y-80692914D01*
X173809524Y-80692914D02*
X173714286Y-80740533D01*
X218833333Y-85519580D02*
X218785714Y-85567200D01*
X218785714Y-85567200D02*
X218642857Y-85614819D01*
X218642857Y-85614819D02*
X218547619Y-85614819D01*
X218547619Y-85614819D02*
X218404762Y-85567200D01*
X218404762Y-85567200D02*
X218309524Y-85471961D01*
X218309524Y-85471961D02*
X218261905Y-85376723D01*
X218261905Y-85376723D02*
X218214286Y-85186247D01*
X218214286Y-85186247D02*
X218214286Y-85043390D01*
X218214286Y-85043390D02*
X218261905Y-84852914D01*
X218261905Y-84852914D02*
X218309524Y-84757676D01*
X218309524Y-84757676D02*
X218404762Y-84662438D01*
X218404762Y-84662438D02*
X218547619Y-84614819D01*
X218547619Y-84614819D02*
X218642857Y-84614819D01*
X218642857Y-84614819D02*
X218785714Y-84662438D01*
X218785714Y-84662438D02*
X218833333Y-84710057D01*
X219166667Y-84614819D02*
X219785714Y-84614819D01*
X219785714Y-84614819D02*
X219452381Y-84995771D01*
X219452381Y-84995771D02*
X219595238Y-84995771D01*
X219595238Y-84995771D02*
X219690476Y-85043390D01*
X219690476Y-85043390D02*
X219738095Y-85091009D01*
X219738095Y-85091009D02*
X219785714Y-85186247D01*
X219785714Y-85186247D02*
X219785714Y-85424342D01*
X219785714Y-85424342D02*
X219738095Y-85519580D01*
X219738095Y-85519580D02*
X219690476Y-85567200D01*
X219690476Y-85567200D02*
X219595238Y-85614819D01*
X219595238Y-85614819D02*
X219309524Y-85614819D01*
X219309524Y-85614819D02*
X219214286Y-85567200D01*
X219214286Y-85567200D02*
X219166667Y-85519580D01*
X215859580Y-66166666D02*
X215907200Y-66214285D01*
X215907200Y-66214285D02*
X215954819Y-66357142D01*
X215954819Y-66357142D02*
X215954819Y-66452380D01*
X215954819Y-66452380D02*
X215907200Y-66595237D01*
X215907200Y-66595237D02*
X215811961Y-66690475D01*
X215811961Y-66690475D02*
X215716723Y-66738094D01*
X215716723Y-66738094D02*
X215526247Y-66785713D01*
X215526247Y-66785713D02*
X215383390Y-66785713D01*
X215383390Y-66785713D02*
X215192914Y-66738094D01*
X215192914Y-66738094D02*
X215097676Y-66690475D01*
X215097676Y-66690475D02*
X215002438Y-66595237D01*
X215002438Y-66595237D02*
X214954819Y-66452380D01*
X214954819Y-66452380D02*
X214954819Y-66357142D01*
X214954819Y-66357142D02*
X215002438Y-66214285D01*
X215002438Y-66214285D02*
X215050057Y-66166666D01*
X214954819Y-65833332D02*
X214954819Y-65166666D01*
X214954819Y-65166666D02*
X215954819Y-65595237D01*
X233333333Y-66199580D02*
X233285714Y-66247200D01*
X233285714Y-66247200D02*
X233142857Y-66294819D01*
X233142857Y-66294819D02*
X233047619Y-66294819D01*
X233047619Y-66294819D02*
X232904762Y-66247200D01*
X232904762Y-66247200D02*
X232809524Y-66151961D01*
X232809524Y-66151961D02*
X232761905Y-66056723D01*
X232761905Y-66056723D02*
X232714286Y-65866247D01*
X232714286Y-65866247D02*
X232714286Y-65723390D01*
X232714286Y-65723390D02*
X232761905Y-65532914D01*
X232761905Y-65532914D02*
X232809524Y-65437676D01*
X232809524Y-65437676D02*
X232904762Y-65342438D01*
X232904762Y-65342438D02*
X233047619Y-65294819D01*
X233047619Y-65294819D02*
X233142857Y-65294819D01*
X233142857Y-65294819D02*
X233285714Y-65342438D01*
X233285714Y-65342438D02*
X233333333Y-65390057D01*
X233904762Y-65723390D02*
X233809524Y-65675771D01*
X233809524Y-65675771D02*
X233761905Y-65628152D01*
X233761905Y-65628152D02*
X233714286Y-65532914D01*
X233714286Y-65532914D02*
X233714286Y-65485295D01*
X233714286Y-65485295D02*
X233761905Y-65390057D01*
X233761905Y-65390057D02*
X233809524Y-65342438D01*
X233809524Y-65342438D02*
X233904762Y-65294819D01*
X233904762Y-65294819D02*
X234095238Y-65294819D01*
X234095238Y-65294819D02*
X234190476Y-65342438D01*
X234190476Y-65342438D02*
X234238095Y-65390057D01*
X234238095Y-65390057D02*
X234285714Y-65485295D01*
X234285714Y-65485295D02*
X234285714Y-65532914D01*
X234285714Y-65532914D02*
X234238095Y-65628152D01*
X234238095Y-65628152D02*
X234190476Y-65675771D01*
X234190476Y-65675771D02*
X234095238Y-65723390D01*
X234095238Y-65723390D02*
X233904762Y-65723390D01*
X233904762Y-65723390D02*
X233809524Y-65771009D01*
X233809524Y-65771009D02*
X233761905Y-65818628D01*
X233761905Y-65818628D02*
X233714286Y-65913866D01*
X233714286Y-65913866D02*
X233714286Y-66104342D01*
X233714286Y-66104342D02*
X233761905Y-66199580D01*
X233761905Y-66199580D02*
X233809524Y-66247200D01*
X233809524Y-66247200D02*
X233904762Y-66294819D01*
X233904762Y-66294819D02*
X234095238Y-66294819D01*
X234095238Y-66294819D02*
X234190476Y-66247200D01*
X234190476Y-66247200D02*
X234238095Y-66199580D01*
X234238095Y-66199580D02*
X234285714Y-66104342D01*
X234285714Y-66104342D02*
X234285714Y-65913866D01*
X234285714Y-65913866D02*
X234238095Y-65818628D01*
X234238095Y-65818628D02*
X234190476Y-65771009D01*
X234190476Y-65771009D02*
X234095238Y-65723390D01*
X208357142Y-75199580D02*
X208309523Y-75247200D01*
X208309523Y-75247200D02*
X208166666Y-75294819D01*
X208166666Y-75294819D02*
X208071428Y-75294819D01*
X208071428Y-75294819D02*
X207928571Y-75247200D01*
X207928571Y-75247200D02*
X207833333Y-75151961D01*
X207833333Y-75151961D02*
X207785714Y-75056723D01*
X207785714Y-75056723D02*
X207738095Y-74866247D01*
X207738095Y-74866247D02*
X207738095Y-74723390D01*
X207738095Y-74723390D02*
X207785714Y-74532914D01*
X207785714Y-74532914D02*
X207833333Y-74437676D01*
X207833333Y-74437676D02*
X207928571Y-74342438D01*
X207928571Y-74342438D02*
X208071428Y-74294819D01*
X208071428Y-74294819D02*
X208166666Y-74294819D01*
X208166666Y-74294819D02*
X208309523Y-74342438D01*
X208309523Y-74342438D02*
X208357142Y-74390057D01*
X209309523Y-75294819D02*
X208738095Y-75294819D01*
X209023809Y-75294819D02*
X209023809Y-74294819D01*
X209023809Y-74294819D02*
X208928571Y-74437676D01*
X208928571Y-74437676D02*
X208833333Y-74532914D01*
X208833333Y-74532914D02*
X208738095Y-74580533D01*
X209690476Y-74390057D02*
X209738095Y-74342438D01*
X209738095Y-74342438D02*
X209833333Y-74294819D01*
X209833333Y-74294819D02*
X210071428Y-74294819D01*
X210071428Y-74294819D02*
X210166666Y-74342438D01*
X210166666Y-74342438D02*
X210214285Y-74390057D01*
X210214285Y-74390057D02*
X210261904Y-74485295D01*
X210261904Y-74485295D02*
X210261904Y-74580533D01*
X210261904Y-74580533D02*
X210214285Y-74723390D01*
X210214285Y-74723390D02*
X209642857Y-75294819D01*
X209642857Y-75294819D02*
X210261904Y-75294819D01*
X169761306Y-87455194D02*
X169761306Y-86454383D01*
X169761306Y-86454383D02*
X170142567Y-86454383D01*
X170142567Y-86454383D02*
X170237883Y-86502041D01*
X170237883Y-86502041D02*
X170285540Y-86549699D01*
X170285540Y-86549699D02*
X170333198Y-86645014D01*
X170333198Y-86645014D02*
X170333198Y-86787987D01*
X170333198Y-86787987D02*
X170285540Y-86883302D01*
X170285540Y-86883302D02*
X170237883Y-86930960D01*
X170237883Y-86930960D02*
X170142567Y-86978618D01*
X170142567Y-86978618D02*
X169761306Y-86978618D01*
X171286351Y-87455194D02*
X170714459Y-87455194D01*
X171000405Y-87455194D02*
X171000405Y-86454383D01*
X171000405Y-86454383D02*
X170905090Y-86597356D01*
X170905090Y-86597356D02*
X170809775Y-86692672D01*
X170809775Y-86692672D02*
X170714459Y-86740329D01*
X222238095Y-52937200D02*
X222380952Y-52984819D01*
X222380952Y-52984819D02*
X222619047Y-52984819D01*
X222619047Y-52984819D02*
X222714285Y-52937200D01*
X222714285Y-52937200D02*
X222761904Y-52889580D01*
X222761904Y-52889580D02*
X222809523Y-52794342D01*
X222809523Y-52794342D02*
X222809523Y-52699104D01*
X222809523Y-52699104D02*
X222761904Y-52603866D01*
X222761904Y-52603866D02*
X222714285Y-52556247D01*
X222714285Y-52556247D02*
X222619047Y-52508628D01*
X222619047Y-52508628D02*
X222428571Y-52461009D01*
X222428571Y-52461009D02*
X222333333Y-52413390D01*
X222333333Y-52413390D02*
X222285714Y-52365771D01*
X222285714Y-52365771D02*
X222238095Y-52270533D01*
X222238095Y-52270533D02*
X222238095Y-52175295D01*
X222238095Y-52175295D02*
X222285714Y-52080057D01*
X222285714Y-52080057D02*
X222333333Y-52032438D01*
X222333333Y-52032438D02*
X222428571Y-51984819D01*
X222428571Y-51984819D02*
X222666666Y-51984819D01*
X222666666Y-51984819D02*
X222809523Y-52032438D01*
X223761904Y-52984819D02*
X223190476Y-52984819D01*
X223476190Y-52984819D02*
X223476190Y-51984819D01*
X223476190Y-51984819D02*
X223380952Y-52127676D01*
X223380952Y-52127676D02*
X223285714Y-52222914D01*
X223285714Y-52222914D02*
X223190476Y-52270533D01*
X160464819Y-63333332D02*
X159464819Y-63333332D01*
X159464819Y-63333332D02*
X160179104Y-62999999D01*
X160179104Y-62999999D02*
X159464819Y-62666666D01*
X159464819Y-62666666D02*
X160464819Y-62666666D01*
X159464819Y-61999999D02*
X159464819Y-61809523D01*
X159464819Y-61809523D02*
X159512438Y-61714285D01*
X159512438Y-61714285D02*
X159607676Y-61619047D01*
X159607676Y-61619047D02*
X159798152Y-61571428D01*
X159798152Y-61571428D02*
X160131485Y-61571428D01*
X160131485Y-61571428D02*
X160321961Y-61619047D01*
X160321961Y-61619047D02*
X160417200Y-61714285D01*
X160417200Y-61714285D02*
X160464819Y-61809523D01*
X160464819Y-61809523D02*
X160464819Y-61999999D01*
X160464819Y-61999999D02*
X160417200Y-62095237D01*
X160417200Y-62095237D02*
X160321961Y-62190475D01*
X160321961Y-62190475D02*
X160131485Y-62238094D01*
X160131485Y-62238094D02*
X159798152Y-62238094D01*
X159798152Y-62238094D02*
X159607676Y-62190475D01*
X159607676Y-62190475D02*
X159512438Y-62095237D01*
X159512438Y-62095237D02*
X159464819Y-61999999D01*
X160464819Y-61142856D02*
X159464819Y-61142856D01*
X159464819Y-61142856D02*
X159464819Y-60904761D01*
X159464819Y-60904761D02*
X159512438Y-60761904D01*
X159512438Y-60761904D02*
X159607676Y-60666666D01*
X159607676Y-60666666D02*
X159702914Y-60619047D01*
X159702914Y-60619047D02*
X159893390Y-60571428D01*
X159893390Y-60571428D02*
X160036247Y-60571428D01*
X160036247Y-60571428D02*
X160226723Y-60619047D01*
X160226723Y-60619047D02*
X160321961Y-60666666D01*
X160321961Y-60666666D02*
X160417200Y-60761904D01*
X160417200Y-60761904D02*
X160464819Y-60904761D01*
X160464819Y-60904761D02*
X160464819Y-61142856D01*
X160464819Y-59619047D02*
X160464819Y-60190475D01*
X160464819Y-59904761D02*
X159464819Y-59904761D01*
X159464819Y-59904761D02*
X159607676Y-59999999D01*
X159607676Y-59999999D02*
X159702914Y-60095237D01*
X159702914Y-60095237D02*
X159750533Y-60190475D01*
X167954819Y-80833333D02*
X168669104Y-80833333D01*
X168669104Y-80833333D02*
X168811961Y-80880952D01*
X168811961Y-80880952D02*
X168907200Y-80976190D01*
X168907200Y-80976190D02*
X168954819Y-81119047D01*
X168954819Y-81119047D02*
X168954819Y-81214285D01*
X167954819Y-79880952D02*
X167954819Y-80357142D01*
X167954819Y-80357142D02*
X168431009Y-80404761D01*
X168431009Y-80404761D02*
X168383390Y-80357142D01*
X168383390Y-80357142D02*
X168335771Y-80261904D01*
X168335771Y-80261904D02*
X168335771Y-80023809D01*
X168335771Y-80023809D02*
X168383390Y-79928571D01*
X168383390Y-79928571D02*
X168431009Y-79880952D01*
X168431009Y-79880952D02*
X168526247Y-79833333D01*
X168526247Y-79833333D02*
X168764342Y-79833333D01*
X168764342Y-79833333D02*
X168859580Y-79880952D01*
X168859580Y-79880952D02*
X168907200Y-79928571D01*
X168907200Y-79928571D02*
X168954819Y-80023809D01*
X168954819Y-80023809D02*
X168954819Y-80261904D01*
X168954819Y-80261904D02*
X168907200Y-80357142D01*
X168907200Y-80357142D02*
X168859580Y-80404761D01*
X235324819Y-50833333D02*
X236039104Y-50833333D01*
X236039104Y-50833333D02*
X236181961Y-50880952D01*
X236181961Y-50880952D02*
X236277200Y-50976190D01*
X236277200Y-50976190D02*
X236324819Y-51119047D01*
X236324819Y-51119047D02*
X236324819Y-51214285D01*
X235324819Y-50452380D02*
X235324819Y-49833333D01*
X235324819Y-49833333D02*
X235705771Y-50166666D01*
X235705771Y-50166666D02*
X235705771Y-50023809D01*
X235705771Y-50023809D02*
X235753390Y-49928571D01*
X235753390Y-49928571D02*
X235801009Y-49880952D01*
X235801009Y-49880952D02*
X235896247Y-49833333D01*
X235896247Y-49833333D02*
X236134342Y-49833333D01*
X236134342Y-49833333D02*
X236229580Y-49880952D01*
X236229580Y-49880952D02*
X236277200Y-49928571D01*
X236277200Y-49928571D02*
X236324819Y-50023809D01*
X236324819Y-50023809D02*
X236324819Y-50309523D01*
X236324819Y-50309523D02*
X236277200Y-50404761D01*
X236277200Y-50404761D02*
X236229580Y-50452380D01*
X212699580Y-78666666D02*
X212747200Y-78714285D01*
X212747200Y-78714285D02*
X212794819Y-78857142D01*
X212794819Y-78857142D02*
X212794819Y-78952380D01*
X212794819Y-78952380D02*
X212747200Y-79095237D01*
X212747200Y-79095237D02*
X212651961Y-79190475D01*
X212651961Y-79190475D02*
X212556723Y-79238094D01*
X212556723Y-79238094D02*
X212366247Y-79285713D01*
X212366247Y-79285713D02*
X212223390Y-79285713D01*
X212223390Y-79285713D02*
X212032914Y-79238094D01*
X212032914Y-79238094D02*
X211937676Y-79190475D01*
X211937676Y-79190475D02*
X211842438Y-79095237D01*
X211842438Y-79095237D02*
X211794819Y-78952380D01*
X211794819Y-78952380D02*
X211794819Y-78857142D01*
X211794819Y-78857142D02*
X211842438Y-78714285D01*
X211842438Y-78714285D02*
X211890057Y-78666666D01*
X212128152Y-77809523D02*
X212794819Y-77809523D01*
X211747200Y-78047618D02*
X212461485Y-78285713D01*
X212461485Y-78285713D02*
X212461485Y-77666666D01*
X176039580Y-89642857D02*
X176087200Y-89690476D01*
X176087200Y-89690476D02*
X176134819Y-89833333D01*
X176134819Y-89833333D02*
X176134819Y-89928571D01*
X176134819Y-89928571D02*
X176087200Y-90071428D01*
X176087200Y-90071428D02*
X175991961Y-90166666D01*
X175991961Y-90166666D02*
X175896723Y-90214285D01*
X175896723Y-90214285D02*
X175706247Y-90261904D01*
X175706247Y-90261904D02*
X175563390Y-90261904D01*
X175563390Y-90261904D02*
X175372914Y-90214285D01*
X175372914Y-90214285D02*
X175277676Y-90166666D01*
X175277676Y-90166666D02*
X175182438Y-90071428D01*
X175182438Y-90071428D02*
X175134819Y-89928571D01*
X175134819Y-89928571D02*
X175134819Y-89833333D01*
X175134819Y-89833333D02*
X175182438Y-89690476D01*
X175182438Y-89690476D02*
X175230057Y-89642857D01*
X176134819Y-88690476D02*
X176134819Y-89261904D01*
X176134819Y-88976190D02*
X175134819Y-88976190D01*
X175134819Y-88976190D02*
X175277676Y-89071428D01*
X175277676Y-89071428D02*
X175372914Y-89166666D01*
X175372914Y-89166666D02*
X175420533Y-89261904D01*
X175134819Y-88357142D02*
X175134819Y-87738095D01*
X175134819Y-87738095D02*
X175515771Y-88071428D01*
X175515771Y-88071428D02*
X175515771Y-87928571D01*
X175515771Y-87928571D02*
X175563390Y-87833333D01*
X175563390Y-87833333D02*
X175611009Y-87785714D01*
X175611009Y-87785714D02*
X175706247Y-87738095D01*
X175706247Y-87738095D02*
X175944342Y-87738095D01*
X175944342Y-87738095D02*
X176039580Y-87785714D01*
X176039580Y-87785714D02*
X176087200Y-87833333D01*
X176087200Y-87833333D02*
X176134819Y-87928571D01*
X176134819Y-87928571D02*
X176134819Y-88214285D01*
X176134819Y-88214285D02*
X176087200Y-88309523D01*
X176087200Y-88309523D02*
X176039580Y-88357142D01*
X223833333Y-91289580D02*
X223785714Y-91337200D01*
X223785714Y-91337200D02*
X223642857Y-91384819D01*
X223642857Y-91384819D02*
X223547619Y-91384819D01*
X223547619Y-91384819D02*
X223404762Y-91337200D01*
X223404762Y-91337200D02*
X223309524Y-91241961D01*
X223309524Y-91241961D02*
X223261905Y-91146723D01*
X223261905Y-91146723D02*
X223214286Y-90956247D01*
X223214286Y-90956247D02*
X223214286Y-90813390D01*
X223214286Y-90813390D02*
X223261905Y-90622914D01*
X223261905Y-90622914D02*
X223309524Y-90527676D01*
X223309524Y-90527676D02*
X223404762Y-90432438D01*
X223404762Y-90432438D02*
X223547619Y-90384819D01*
X223547619Y-90384819D02*
X223642857Y-90384819D01*
X223642857Y-90384819D02*
X223785714Y-90432438D01*
X223785714Y-90432438D02*
X223833333Y-90480057D01*
X224785714Y-91384819D02*
X224214286Y-91384819D01*
X224500000Y-91384819D02*
X224500000Y-90384819D01*
X224500000Y-90384819D02*
X224404762Y-90527676D01*
X224404762Y-90527676D02*
X224309524Y-90622914D01*
X224309524Y-90622914D02*
X224214286Y-90670533D01*
X191845833Y-85914819D02*
X191512500Y-85438628D01*
X191274405Y-85914819D02*
X191274405Y-84914819D01*
X191274405Y-84914819D02*
X191655357Y-84914819D01*
X191655357Y-84914819D02*
X191750595Y-84962438D01*
X191750595Y-84962438D02*
X191798214Y-85010057D01*
X191798214Y-85010057D02*
X191845833Y-85105295D01*
X191845833Y-85105295D02*
X191845833Y-85248152D01*
X191845833Y-85248152D02*
X191798214Y-85343390D01*
X191798214Y-85343390D02*
X191750595Y-85391009D01*
X191750595Y-85391009D02*
X191655357Y-85438628D01*
X191655357Y-85438628D02*
X191274405Y-85438628D01*
X192702976Y-84914819D02*
X192512500Y-84914819D01*
X192512500Y-84914819D02*
X192417262Y-84962438D01*
X192417262Y-84962438D02*
X192369643Y-85010057D01*
X192369643Y-85010057D02*
X192274405Y-85152914D01*
X192274405Y-85152914D02*
X192226786Y-85343390D01*
X192226786Y-85343390D02*
X192226786Y-85724342D01*
X192226786Y-85724342D02*
X192274405Y-85819580D01*
X192274405Y-85819580D02*
X192322024Y-85867200D01*
X192322024Y-85867200D02*
X192417262Y-85914819D01*
X192417262Y-85914819D02*
X192607738Y-85914819D01*
X192607738Y-85914819D02*
X192702976Y-85867200D01*
X192702976Y-85867200D02*
X192750595Y-85819580D01*
X192750595Y-85819580D02*
X192798214Y-85724342D01*
X192798214Y-85724342D02*
X192798214Y-85486247D01*
X192798214Y-85486247D02*
X192750595Y-85391009D01*
X192750595Y-85391009D02*
X192702976Y-85343390D01*
X192702976Y-85343390D02*
X192607738Y-85295771D01*
X192607738Y-85295771D02*
X192417262Y-85295771D01*
X192417262Y-85295771D02*
X192322024Y-85343390D01*
X192322024Y-85343390D02*
X192274405Y-85391009D01*
X192274405Y-85391009D02*
X192226786Y-85486247D01*
X214235833Y-86284819D02*
X213902500Y-85808628D01*
X213664405Y-86284819D02*
X213664405Y-85284819D01*
X213664405Y-85284819D02*
X214045357Y-85284819D01*
X214045357Y-85284819D02*
X214140595Y-85332438D01*
X214140595Y-85332438D02*
X214188214Y-85380057D01*
X214188214Y-85380057D02*
X214235833Y-85475295D01*
X214235833Y-85475295D02*
X214235833Y-85618152D01*
X214235833Y-85618152D02*
X214188214Y-85713390D01*
X214188214Y-85713390D02*
X214140595Y-85761009D01*
X214140595Y-85761009D02*
X214045357Y-85808628D01*
X214045357Y-85808628D02*
X213664405Y-85808628D01*
X214569167Y-85284819D02*
X215188214Y-85284819D01*
X215188214Y-85284819D02*
X214854881Y-85665771D01*
X214854881Y-85665771D02*
X214997738Y-85665771D01*
X214997738Y-85665771D02*
X215092976Y-85713390D01*
X215092976Y-85713390D02*
X215140595Y-85761009D01*
X215140595Y-85761009D02*
X215188214Y-85856247D01*
X215188214Y-85856247D02*
X215188214Y-86094342D01*
X215188214Y-86094342D02*
X215140595Y-86189580D01*
X215140595Y-86189580D02*
X215092976Y-86237200D01*
X215092976Y-86237200D02*
X214997738Y-86284819D01*
X214997738Y-86284819D02*
X214712024Y-86284819D01*
X214712024Y-86284819D02*
X214616786Y-86237200D01*
X214616786Y-86237200D02*
X214569167Y-86189580D01*
X238124819Y-88666666D02*
X237648628Y-88999999D01*
X238124819Y-89238094D02*
X237124819Y-89238094D01*
X237124819Y-89238094D02*
X237124819Y-88857142D01*
X237124819Y-88857142D02*
X237172438Y-88761904D01*
X237172438Y-88761904D02*
X237220057Y-88714285D01*
X237220057Y-88714285D02*
X237315295Y-88666666D01*
X237315295Y-88666666D02*
X237458152Y-88666666D01*
X237458152Y-88666666D02*
X237553390Y-88714285D01*
X237553390Y-88714285D02*
X237601009Y-88761904D01*
X237601009Y-88761904D02*
X237648628Y-88857142D01*
X237648628Y-88857142D02*
X237648628Y-89238094D01*
X238124819Y-87714285D02*
X238124819Y-88285713D01*
X238124819Y-87999999D02*
X237124819Y-87999999D01*
X237124819Y-87999999D02*
X237267676Y-88095237D01*
X237267676Y-88095237D02*
X237362914Y-88190475D01*
X237362914Y-88190475D02*
X237410533Y-88285713D01*
X191261905Y-88524819D02*
X191261905Y-87524819D01*
X191261905Y-87524819D02*
X191500000Y-87524819D01*
X191500000Y-87524819D02*
X191642857Y-87572438D01*
X191642857Y-87572438D02*
X191738095Y-87667676D01*
X191738095Y-87667676D02*
X191785714Y-87762914D01*
X191785714Y-87762914D02*
X191833333Y-87953390D01*
X191833333Y-87953390D02*
X191833333Y-88096247D01*
X191833333Y-88096247D02*
X191785714Y-88286723D01*
X191785714Y-88286723D02*
X191738095Y-88381961D01*
X191738095Y-88381961D02*
X191642857Y-88477200D01*
X191642857Y-88477200D02*
X191500000Y-88524819D01*
X191500000Y-88524819D02*
X191261905Y-88524819D01*
X192166667Y-87524819D02*
X192785714Y-87524819D01*
X192785714Y-87524819D02*
X192452381Y-87905771D01*
X192452381Y-87905771D02*
X192595238Y-87905771D01*
X192595238Y-87905771D02*
X192690476Y-87953390D01*
X192690476Y-87953390D02*
X192738095Y-88001009D01*
X192738095Y-88001009D02*
X192785714Y-88096247D01*
X192785714Y-88096247D02*
X192785714Y-88334342D01*
X192785714Y-88334342D02*
X192738095Y-88429580D01*
X192738095Y-88429580D02*
X192690476Y-88477200D01*
X192690476Y-88477200D02*
X192595238Y-88524819D01*
X192595238Y-88524819D02*
X192309524Y-88524819D01*
X192309524Y-88524819D02*
X192214286Y-88477200D01*
X192214286Y-88477200D02*
X192166667Y-88429580D01*
X173333333Y-105285009D02*
X173476190Y-105332628D01*
X173476190Y-105332628D02*
X173523809Y-105380247D01*
X173523809Y-105380247D02*
X173571428Y-105475485D01*
X173571428Y-105475485D02*
X173571428Y-105618342D01*
X173571428Y-105618342D02*
X173523809Y-105713580D01*
X173523809Y-105713580D02*
X173476190Y-105761200D01*
X173476190Y-105761200D02*
X173380952Y-105808819D01*
X173380952Y-105808819D02*
X173000000Y-105808819D01*
X173000000Y-105808819D02*
X173000000Y-104808819D01*
X173000000Y-104808819D02*
X173333333Y-104808819D01*
X173333333Y-104808819D02*
X173428571Y-104856438D01*
X173428571Y-104856438D02*
X173476190Y-104904057D01*
X173476190Y-104904057D02*
X173523809Y-104999295D01*
X173523809Y-104999295D02*
X173523809Y-105094533D01*
X173523809Y-105094533D02*
X173476190Y-105189771D01*
X173476190Y-105189771D02*
X173428571Y-105237390D01*
X173428571Y-105237390D02*
X173333333Y-105285009D01*
X173333333Y-105285009D02*
X173000000Y-105285009D01*
X174000000Y-105808819D02*
X174000000Y-105142152D01*
X174000000Y-105332628D02*
X174047619Y-105237390D01*
X174047619Y-105237390D02*
X174095238Y-105189771D01*
X174095238Y-105189771D02*
X174190476Y-105142152D01*
X174190476Y-105142152D02*
X174285714Y-105142152D01*
X175047619Y-105808819D02*
X175047619Y-104808819D01*
X175047619Y-105761200D02*
X174952381Y-105808819D01*
X174952381Y-105808819D02*
X174761905Y-105808819D01*
X174761905Y-105808819D02*
X174666667Y-105761200D01*
X174666667Y-105761200D02*
X174619048Y-105713580D01*
X174619048Y-105713580D02*
X174571429Y-105618342D01*
X174571429Y-105618342D02*
X174571429Y-105332628D01*
X174571429Y-105332628D02*
X174619048Y-105237390D01*
X174619048Y-105237390D02*
X174666667Y-105189771D01*
X174666667Y-105189771D02*
X174761905Y-105142152D01*
X174761905Y-105142152D02*
X174952381Y-105142152D01*
X174952381Y-105142152D02*
X175047619Y-105189771D01*
X176047619Y-105808819D02*
X175476191Y-105808819D01*
X175761905Y-105808819D02*
X175761905Y-104808819D01*
X175761905Y-104808819D02*
X175666667Y-104951676D01*
X175666667Y-104951676D02*
X175571429Y-105046914D01*
X175571429Y-105046914D02*
X175476191Y-105094533D01*
X196238095Y-73437200D02*
X196380952Y-73484819D01*
X196380952Y-73484819D02*
X196619047Y-73484819D01*
X196619047Y-73484819D02*
X196714285Y-73437200D01*
X196714285Y-73437200D02*
X196761904Y-73389580D01*
X196761904Y-73389580D02*
X196809523Y-73294342D01*
X196809523Y-73294342D02*
X196809523Y-73199104D01*
X196809523Y-73199104D02*
X196761904Y-73103866D01*
X196761904Y-73103866D02*
X196714285Y-73056247D01*
X196714285Y-73056247D02*
X196619047Y-73008628D01*
X196619047Y-73008628D02*
X196428571Y-72961009D01*
X196428571Y-72961009D02*
X196333333Y-72913390D01*
X196333333Y-72913390D02*
X196285714Y-72865771D01*
X196285714Y-72865771D02*
X196238095Y-72770533D01*
X196238095Y-72770533D02*
X196238095Y-72675295D01*
X196238095Y-72675295D02*
X196285714Y-72580057D01*
X196285714Y-72580057D02*
X196333333Y-72532438D01*
X196333333Y-72532438D02*
X196428571Y-72484819D01*
X196428571Y-72484819D02*
X196666666Y-72484819D01*
X196666666Y-72484819D02*
X196809523Y-72532438D01*
X197190476Y-72580057D02*
X197238095Y-72532438D01*
X197238095Y-72532438D02*
X197333333Y-72484819D01*
X197333333Y-72484819D02*
X197571428Y-72484819D01*
X197571428Y-72484819D02*
X197666666Y-72532438D01*
X197666666Y-72532438D02*
X197714285Y-72580057D01*
X197714285Y-72580057D02*
X197761904Y-72675295D01*
X197761904Y-72675295D02*
X197761904Y-72770533D01*
X197761904Y-72770533D02*
X197714285Y-72913390D01*
X197714285Y-72913390D02*
X197142857Y-73484819D01*
X197142857Y-73484819D02*
X197761904Y-73484819D01*
X186107142Y-85679580D02*
X186059523Y-85727200D01*
X186059523Y-85727200D02*
X185916666Y-85774819D01*
X185916666Y-85774819D02*
X185821428Y-85774819D01*
X185821428Y-85774819D02*
X185678571Y-85727200D01*
X185678571Y-85727200D02*
X185583333Y-85631961D01*
X185583333Y-85631961D02*
X185535714Y-85536723D01*
X185535714Y-85536723D02*
X185488095Y-85346247D01*
X185488095Y-85346247D02*
X185488095Y-85203390D01*
X185488095Y-85203390D02*
X185535714Y-85012914D01*
X185535714Y-85012914D02*
X185583333Y-84917676D01*
X185583333Y-84917676D02*
X185678571Y-84822438D01*
X185678571Y-84822438D02*
X185821428Y-84774819D01*
X185821428Y-84774819D02*
X185916666Y-84774819D01*
X185916666Y-84774819D02*
X186059523Y-84822438D01*
X186059523Y-84822438D02*
X186107142Y-84870057D01*
X187059523Y-85774819D02*
X186488095Y-85774819D01*
X186773809Y-85774819D02*
X186773809Y-84774819D01*
X186773809Y-84774819D02*
X186678571Y-84917676D01*
X186678571Y-84917676D02*
X186583333Y-85012914D01*
X186583333Y-85012914D02*
X186488095Y-85060533D01*
X187964285Y-84774819D02*
X187488095Y-84774819D01*
X187488095Y-84774819D02*
X187440476Y-85251009D01*
X187440476Y-85251009D02*
X187488095Y-85203390D01*
X187488095Y-85203390D02*
X187583333Y-85155771D01*
X187583333Y-85155771D02*
X187821428Y-85155771D01*
X187821428Y-85155771D02*
X187916666Y-85203390D01*
X187916666Y-85203390D02*
X187964285Y-85251009D01*
X187964285Y-85251009D02*
X188011904Y-85346247D01*
X188011904Y-85346247D02*
X188011904Y-85584342D01*
X188011904Y-85584342D02*
X187964285Y-85679580D01*
X187964285Y-85679580D02*
X187916666Y-85727200D01*
X187916666Y-85727200D02*
X187821428Y-85774819D01*
X187821428Y-85774819D02*
X187583333Y-85774819D01*
X187583333Y-85774819D02*
X187488095Y-85727200D01*
X187488095Y-85727200D02*
X187440476Y-85679580D01*
X213857142Y-92359580D02*
X213809523Y-92407200D01*
X213809523Y-92407200D02*
X213666666Y-92454819D01*
X213666666Y-92454819D02*
X213571428Y-92454819D01*
X213571428Y-92454819D02*
X213428571Y-92407200D01*
X213428571Y-92407200D02*
X213333333Y-92311961D01*
X213333333Y-92311961D02*
X213285714Y-92216723D01*
X213285714Y-92216723D02*
X213238095Y-92026247D01*
X213238095Y-92026247D02*
X213238095Y-91883390D01*
X213238095Y-91883390D02*
X213285714Y-91692914D01*
X213285714Y-91692914D02*
X213333333Y-91597676D01*
X213333333Y-91597676D02*
X213428571Y-91502438D01*
X213428571Y-91502438D02*
X213571428Y-91454819D01*
X213571428Y-91454819D02*
X213666666Y-91454819D01*
X213666666Y-91454819D02*
X213809523Y-91502438D01*
X213809523Y-91502438D02*
X213857142Y-91550057D01*
X214809523Y-92454819D02*
X214238095Y-92454819D01*
X214523809Y-92454819D02*
X214523809Y-91454819D01*
X214523809Y-91454819D02*
X214428571Y-91597676D01*
X214428571Y-91597676D02*
X214333333Y-91692914D01*
X214333333Y-91692914D02*
X214238095Y-91740533D01*
X215666666Y-91788152D02*
X215666666Y-92454819D01*
X215428571Y-91407200D02*
X215190476Y-92121485D01*
X215190476Y-92121485D02*
X215809523Y-92121485D01*
X229833333Y-86019580D02*
X229785714Y-86067200D01*
X229785714Y-86067200D02*
X229642857Y-86114819D01*
X229642857Y-86114819D02*
X229547619Y-86114819D01*
X229547619Y-86114819D02*
X229404762Y-86067200D01*
X229404762Y-86067200D02*
X229309524Y-85971961D01*
X229309524Y-85971961D02*
X229261905Y-85876723D01*
X229261905Y-85876723D02*
X229214286Y-85686247D01*
X229214286Y-85686247D02*
X229214286Y-85543390D01*
X229214286Y-85543390D02*
X229261905Y-85352914D01*
X229261905Y-85352914D02*
X229309524Y-85257676D01*
X229309524Y-85257676D02*
X229404762Y-85162438D01*
X229404762Y-85162438D02*
X229547619Y-85114819D01*
X229547619Y-85114819D02*
X229642857Y-85114819D01*
X229642857Y-85114819D02*
X229785714Y-85162438D01*
X229785714Y-85162438D02*
X229833333Y-85210057D01*
X230214286Y-85210057D02*
X230261905Y-85162438D01*
X230261905Y-85162438D02*
X230357143Y-85114819D01*
X230357143Y-85114819D02*
X230595238Y-85114819D01*
X230595238Y-85114819D02*
X230690476Y-85162438D01*
X230690476Y-85162438D02*
X230738095Y-85210057D01*
X230738095Y-85210057D02*
X230785714Y-85305295D01*
X230785714Y-85305295D02*
X230785714Y-85400533D01*
X230785714Y-85400533D02*
X230738095Y-85543390D01*
X230738095Y-85543390D02*
X230166667Y-86114819D01*
X230166667Y-86114819D02*
X230785714Y-86114819D01*
X190304819Y-52238094D02*
X189304819Y-52238094D01*
X189304819Y-52238094D02*
X189304819Y-51999999D01*
X189304819Y-51999999D02*
X189352438Y-51857142D01*
X189352438Y-51857142D02*
X189447676Y-51761904D01*
X189447676Y-51761904D02*
X189542914Y-51714285D01*
X189542914Y-51714285D02*
X189733390Y-51666666D01*
X189733390Y-51666666D02*
X189876247Y-51666666D01*
X189876247Y-51666666D02*
X190066723Y-51714285D01*
X190066723Y-51714285D02*
X190161961Y-51761904D01*
X190161961Y-51761904D02*
X190257200Y-51857142D01*
X190257200Y-51857142D02*
X190304819Y-51999999D01*
X190304819Y-51999999D02*
X190304819Y-52238094D01*
X189638152Y-50809523D02*
X190304819Y-50809523D01*
X189257200Y-51047618D02*
X189971485Y-51285713D01*
X189971485Y-51285713D02*
X189971485Y-50666666D01*
X212199580Y-73234166D02*
X212247200Y-73281785D01*
X212247200Y-73281785D02*
X212294819Y-73424642D01*
X212294819Y-73424642D02*
X212294819Y-73519880D01*
X212294819Y-73519880D02*
X212247200Y-73662737D01*
X212247200Y-73662737D02*
X212151961Y-73757975D01*
X212151961Y-73757975D02*
X212056723Y-73805594D01*
X212056723Y-73805594D02*
X211866247Y-73853213D01*
X211866247Y-73853213D02*
X211723390Y-73853213D01*
X211723390Y-73853213D02*
X211532914Y-73805594D01*
X211532914Y-73805594D02*
X211437676Y-73757975D01*
X211437676Y-73757975D02*
X211342438Y-73662737D01*
X211342438Y-73662737D02*
X211294819Y-73519880D01*
X211294819Y-73519880D02*
X211294819Y-73424642D01*
X211294819Y-73424642D02*
X211342438Y-73281785D01*
X211342438Y-73281785D02*
X211390057Y-73234166D01*
X211294819Y-72329404D02*
X211294819Y-72805594D01*
X211294819Y-72805594D02*
X211771009Y-72853213D01*
X211771009Y-72853213D02*
X211723390Y-72805594D01*
X211723390Y-72805594D02*
X211675771Y-72710356D01*
X211675771Y-72710356D02*
X211675771Y-72472261D01*
X211675771Y-72472261D02*
X211723390Y-72377023D01*
X211723390Y-72377023D02*
X211771009Y-72329404D01*
X211771009Y-72329404D02*
X211866247Y-72281785D01*
X211866247Y-72281785D02*
X212104342Y-72281785D01*
X212104342Y-72281785D02*
X212199580Y-72329404D01*
X212199580Y-72329404D02*
X212247200Y-72377023D01*
X212247200Y-72377023D02*
X212294819Y-72472261D01*
X212294819Y-72472261D02*
X212294819Y-72710356D01*
X212294819Y-72710356D02*
X212247200Y-72805594D01*
X212247200Y-72805594D02*
X212199580Y-72853213D01*
D12*
%TO.C,Y1*%
X204900000Y-77500000D02*
X204900000Y-80800000D01*
X204900000Y-80800000D02*
X208900000Y-80800000D01*
%TO.C,R7*%
X191120000Y-54332379D02*
X191120000Y-54667621D01*
X191880000Y-54332379D02*
X191880000Y-54667621D01*
%TO.C,U3*%
X181500000Y-86390000D02*
X180000000Y-86390000D01*
X181500000Y-86390000D02*
X183000000Y-86390000D01*
X181500000Y-89610000D02*
X180000000Y-89610000D01*
X181500000Y-89610000D02*
X183000000Y-89610000D01*
X179287500Y-86565000D02*
X179047500Y-86235000D01*
X179527500Y-86235000D01*
X179287500Y-86565000D01*
G36*
X179287500Y-86565000D02*
G01*
X179047500Y-86235000D01*
X179527500Y-86235000D01*
X179287500Y-86565000D01*
G37*
%TO.C,U2*%
X216890000Y-66890000D02*
X216890000Y-67590000D01*
X216890000Y-81110000D02*
X216890000Y-80410000D01*
X217590000Y-66890000D02*
X216890000Y-66890000D01*
X217590000Y-81110000D02*
X216890000Y-81110000D01*
X230410000Y-66890000D02*
X231110000Y-66890000D01*
X230410000Y-81110000D02*
X231110000Y-81110000D01*
X231110000Y-66890000D02*
X231110000Y-67590000D01*
X231110000Y-81110000D02*
X231110000Y-80410000D01*
X216262500Y-67590000D02*
X215922500Y-67120000D01*
X216602500Y-67120000D01*
X216262500Y-67590000D01*
G36*
X216262500Y-67590000D02*
G01*
X215922500Y-67120000D01*
X216602500Y-67120000D01*
X216262500Y-67590000D01*
G37*
%TO.C,C10*%
X194683335Y-65640000D02*
X194451665Y-65640000D01*
X194683335Y-66360000D02*
X194451665Y-66360000D01*
%TO.C,INA+*%
X179170000Y-76170000D02*
X180500000Y-76170000D01*
X179170000Y-77500000D02*
X179170000Y-76170000D01*
X179170000Y-78770000D02*
X179170000Y-78830000D01*
X179170000Y-78770000D02*
X181830000Y-78770000D01*
X179170000Y-78830000D02*
X181830000Y-78830000D01*
X181830000Y-78770000D02*
X181830000Y-78830000D01*
%TO.C,INA-*%
X185170000Y-76170000D02*
X186500000Y-76170000D01*
X185170000Y-77500000D02*
X185170000Y-76170000D01*
X185170000Y-78770000D02*
X185170000Y-78830000D01*
X185170000Y-78770000D02*
X187830000Y-78770000D01*
X185170000Y-78830000D02*
X187830000Y-78830000D01*
X187830000Y-78770000D02*
X187830000Y-78830000D01*
%TO.C,C9*%
X234640000Y-69115835D02*
X234640000Y-68884165D01*
X235360000Y-69115835D02*
X235360000Y-68884165D01*
%TO.C,R5*%
X220832379Y-62620000D02*
X221167621Y-62620000D01*
X220832379Y-63380000D02*
X221167621Y-63380000D01*
%TO.C,R4*%
X214667621Y-89120000D02*
X214332379Y-89120000D01*
X214667621Y-89880000D02*
X214332379Y-89880000D01*
%TO.C,U1*%
X243350000Y-87030000D02*
X243350000Y-83430000D01*
X238900000Y-85230000D02*
G75*
G02*
X243338478Y-83391522I2600000J0D01*
G01*
X243338478Y-87068478D02*
G75*
G02*
X238899999Y-85230000I-1838478J1838478D01*
G01*
%TO.C,C6*%
X212140000Y-70384165D02*
X212140000Y-70615835D01*
X212860000Y-70384165D02*
X212860000Y-70615835D01*
%TO.C,D2*%
X171860000Y-88000000D02*
X167850000Y-88000000D01*
X171860000Y-90000000D02*
X167850000Y-90000000D01*
X171860000Y-90000000D02*
X171860000Y-88000000D01*
%TO.C,C11*%
X205951665Y-81640000D02*
X206183335Y-81640000D01*
X205951665Y-82360000D02*
X206183335Y-82360000D01*
%TO.C,SW1*%
X207400000Y-49500000D02*
X207400000Y-50290000D01*
X209450000Y-51340000D02*
X209250000Y-51340000D01*
X210950000Y-47200000D02*
X210950000Y-48490000D01*
X210950000Y-47200000D02*
X211150000Y-46990000D01*
X212050000Y-46990000D02*
X211150000Y-46990000D01*
X212250000Y-47200000D02*
X212050000Y-46990000D01*
X212250000Y-48490000D02*
X212250000Y-47200000D01*
X212450000Y-51340000D02*
X210750000Y-51340000D01*
X213700000Y-48490000D02*
X208000000Y-48490000D01*
X214300000Y-50290000D02*
X214300000Y-49500000D01*
%TO.C,D1*%
X175860000Y-78000000D02*
X171850000Y-78000000D01*
X175860000Y-80000000D02*
X171850000Y-80000000D01*
X175860000Y-80000000D02*
X175860000Y-78000000D01*
%TO.C,C3*%
X219115835Y-83640000D02*
X218884165Y-83640000D01*
X219115835Y-84360000D02*
X218884165Y-84360000D01*
%TO.C,C7*%
X213640000Y-66384165D02*
X213640000Y-66615835D01*
X214360000Y-66384165D02*
X214360000Y-66615835D01*
%TO.C,C8*%
X233384165Y-66640000D02*
X233615835Y-66640000D01*
X233384165Y-67360000D02*
X233615835Y-67360000D01*
%TO.C,C12*%
X208884165Y-75640000D02*
X209115835Y-75640000D01*
X208884165Y-76360000D02*
X209115835Y-76360000D01*
D13*
%TO.C,P1*%
X161250000Y-86100000D02*
X165750000Y-86100000D01*
X161250000Y-91900000D02*
X161250000Y-86100000D01*
X165750000Y-86100000D02*
X165750000Y-91900000D01*
X165750000Y-91900000D02*
X161250000Y-91900000D01*
D14*
%TO.C,S1*%
X219900000Y-57000000D02*
X219900000Y-56100000D01*
X219900000Y-57000000D02*
X219900000Y-57900000D01*
X222100000Y-53900000D02*
X223900000Y-53900000D01*
X222100000Y-60100000D02*
X223800000Y-60100000D01*
X226100000Y-57000000D02*
X226100000Y-56100000D01*
X226100000Y-57000000D02*
X226100000Y-57900000D01*
%TO.C,MOD1*%
X161400000Y-56700000D02*
X161400000Y-57200000D01*
X161400000Y-56700000D02*
X161800000Y-56300000D01*
X161400000Y-66300000D02*
X161400000Y-65800000D01*
X161400000Y-66300000D02*
X161800000Y-66700000D01*
X169000000Y-49100000D02*
X168600000Y-49500000D01*
X169000000Y-49100000D02*
X169500000Y-49100000D01*
X169000000Y-73900000D02*
X168600000Y-73500000D01*
X169000000Y-73900000D02*
X169500000Y-73900000D01*
X178500000Y-49100000D02*
X182300000Y-49100000D01*
X178500000Y-73900000D02*
X182300000Y-73900000D01*
X189200000Y-49150000D02*
X188700000Y-49150000D01*
X189200000Y-49150000D02*
X189200000Y-49650000D01*
X189200000Y-73850000D02*
X188700000Y-73850000D01*
X189200000Y-73850000D02*
X189200000Y-73350000D01*
D10*
%TO.C,J5*%
X161250000Y-84350000D02*
X161700000Y-84350000D01*
X161700000Y-76350000D02*
X161700000Y-76650000D01*
X161700000Y-76650000D02*
X161250000Y-76650000D01*
X161700000Y-84350000D02*
X161700000Y-84650000D01*
X161700000Y-84650000D02*
X161850000Y-84650000D01*
X161850000Y-76350000D02*
X161700000Y-76350000D01*
X164250000Y-84650000D02*
X165650000Y-84650000D01*
X165650000Y-76350000D02*
X164250000Y-76350000D01*
X167400000Y-78700000D02*
X167400000Y-77700000D01*
X167400000Y-82300000D02*
X167400000Y-83300000D01*
X167825000Y-78700000D02*
X167400000Y-78700000D01*
X167825000Y-79425000D02*
X167825000Y-78700000D01*
D12*
%TO.C,J3*%
X222050000Y-49170000D02*
X222050000Y-51830000D01*
X232270000Y-49170000D02*
X222050000Y-49170000D01*
X232270000Y-49170000D02*
X232270000Y-51830000D01*
X232270000Y-51830000D02*
X222050000Y-51830000D01*
X233540000Y-49170000D02*
X234870000Y-49170000D01*
X234870000Y-49170000D02*
X234870000Y-50500000D01*
%TO.C,C4*%
X213140000Y-78615835D02*
X213140000Y-78384165D01*
X213860000Y-78615835D02*
X213860000Y-78384165D01*
%TO.C,C13*%
X173265000Y-88738748D02*
X173265000Y-89261252D01*
X174735000Y-88738748D02*
X174735000Y-89261252D01*
%TO.C,C1*%
X224140580Y-88990000D02*
X223859420Y-88990000D01*
X224140580Y-90010000D02*
X223859420Y-90010000D01*
%TO.C,R6*%
X191844879Y-86250000D02*
X192180121Y-86250000D01*
X191844879Y-87010000D02*
X192180121Y-87010000D01*
%TO.C,R3*%
X214234879Y-86620000D02*
X214570121Y-86620000D01*
X214234879Y-87380000D02*
X214570121Y-87380000D01*
%TO.C,R1*%
X236120000Y-88332379D02*
X236120000Y-88667621D01*
X236880000Y-88332379D02*
X236880000Y-88667621D01*
%TO.C,D3*%
X190515000Y-88765000D02*
X190515000Y-90235000D01*
X190515000Y-90235000D02*
X192800000Y-90235000D01*
X192800000Y-88765000D02*
X190515000Y-88765000D01*
%TO.C,Brd1*%
X161100000Y-92800000D02*
X188500000Y-92800000D01*
X161100000Y-120100000D02*
X161100000Y-92800000D01*
X161522000Y-96095000D02*
X184622000Y-96095000D01*
X161522000Y-112695000D02*
X161522000Y-96095000D01*
X169801000Y-93289000D02*
X169801000Y-95702000D01*
X169801000Y-93289000D02*
X179580000Y-93289000D01*
X179580000Y-93289000D02*
X179580000Y-95702000D01*
X179580000Y-95702000D02*
X169801000Y-95702000D01*
X184622000Y-96095000D02*
X187708000Y-96095000D01*
X184622000Y-112695000D02*
X161522000Y-112695000D01*
X184622000Y-112695000D02*
X187962000Y-112720000D01*
X187962000Y-96083000D02*
X187708000Y-96095000D01*
X187962000Y-112720000D02*
X187962000Y-96083000D01*
X188500000Y-92800000D02*
X188500000Y-120100000D01*
X188500000Y-120100000D02*
X161100000Y-120100000D01*
D14*
%TO.C,S2*%
X193900000Y-77500000D02*
X193900000Y-76600000D01*
X193900000Y-77500000D02*
X193900000Y-78400000D01*
X196100000Y-74400000D02*
X197900000Y-74400000D01*
X196100000Y-80600000D02*
X197800000Y-80600000D01*
X200100000Y-77500000D02*
X200100000Y-76600000D01*
X200100000Y-77500000D02*
X200100000Y-78400000D01*
D12*
%TO.C,C15*%
X186488748Y-86265000D02*
X187011252Y-86265000D01*
X186488748Y-87735000D02*
X187011252Y-87735000D01*
%TO.C,C2*%
X230115835Y-84140000D02*
X229884165Y-84140000D01*
X230115835Y-84860000D02*
X229884165Y-84860000D01*
%TO.C,D4*%
X190540000Y-50500000D02*
X190540000Y-53185000D01*
X190540000Y-53185000D02*
X192460000Y-53185000D01*
X192460000Y-53185000D02*
X192460000Y-50500000D01*
%TO.C,C5*%
X212640000Y-73183335D02*
X212640000Y-72951665D01*
X213360000Y-73183335D02*
X213360000Y-72951665D01*
%TD*%
%LPC*%
D15*
%TO.C,Y1*%
X205800000Y-80000000D03*
X208000000Y-80000000D03*
X208000000Y-78300000D03*
X205800000Y-78300000D03*
%TD*%
D16*
%TO.C,R7*%
X191500000Y-53902500D03*
X191500000Y-55097500D03*
%TD*%
D17*
%TO.C,U3*%
X179387500Y-87025000D03*
X179387500Y-87675000D03*
X179387500Y-88325000D03*
X179387500Y-88975000D03*
X183612500Y-88975000D03*
X183612500Y-88325000D03*
X183612500Y-87675000D03*
X183612500Y-87025000D03*
%TD*%
D18*
%TO.C,U2*%
X216325000Y-68000000D03*
X216325000Y-68500000D03*
X216325000Y-69000000D03*
X216325000Y-69500000D03*
X216325000Y-70000000D03*
X216325000Y-70500000D03*
X216325000Y-71000000D03*
X216325000Y-71500000D03*
X216325000Y-72000000D03*
X216325000Y-72500000D03*
X216325000Y-73000000D03*
X216325000Y-73500000D03*
X216325000Y-74000000D03*
X216325000Y-74500000D03*
X216325000Y-75000000D03*
X216325000Y-75500000D03*
X216325000Y-76000000D03*
X216325000Y-76500000D03*
X216325000Y-77000000D03*
X216325000Y-77500000D03*
X216325000Y-78000000D03*
X216325000Y-78500000D03*
X216325000Y-79000000D03*
X216325000Y-79500000D03*
X216325000Y-80000000D03*
D19*
X218000000Y-81675000D03*
X218500000Y-81675000D03*
X219000000Y-81675000D03*
X219500000Y-81675000D03*
X220000000Y-81675000D03*
X220500000Y-81675000D03*
X221000000Y-81675000D03*
X221500000Y-81675000D03*
X222000000Y-81675000D03*
X222500000Y-81675000D03*
X223000000Y-81675000D03*
X223500000Y-81675000D03*
X224000000Y-81675000D03*
X224500000Y-81675000D03*
X225000000Y-81675000D03*
X225500000Y-81675000D03*
X226000000Y-81675000D03*
X226500000Y-81675000D03*
X227000000Y-81675000D03*
X227500000Y-81675000D03*
X228000000Y-81675000D03*
X228500000Y-81675000D03*
X229000000Y-81675000D03*
X229500000Y-81675000D03*
X230000000Y-81675000D03*
D18*
X231675000Y-80000000D03*
X231675000Y-79500000D03*
X231675000Y-79000000D03*
X231675000Y-78500000D03*
X231675000Y-78000000D03*
X231675000Y-77500000D03*
X231675000Y-77000000D03*
X231675000Y-76500000D03*
X231675000Y-76000000D03*
X231675000Y-75500000D03*
X231675000Y-75000000D03*
X231675000Y-74500000D03*
X231675000Y-74000000D03*
X231675000Y-73500000D03*
X231675000Y-73000000D03*
X231675000Y-72500000D03*
X231675000Y-72000000D03*
X231675000Y-71500000D03*
X231675000Y-71000000D03*
X231675000Y-70500000D03*
X231675000Y-70000000D03*
X231675000Y-69500000D03*
X231675000Y-69000000D03*
X231675000Y-68500000D03*
X231675000Y-68000000D03*
D19*
X230000000Y-66325000D03*
X229500000Y-66325000D03*
X229000000Y-66325000D03*
X228500000Y-66325000D03*
X228000000Y-66325000D03*
X227500000Y-66325000D03*
X227000000Y-66325000D03*
X226500000Y-66325000D03*
X226000000Y-66325000D03*
X225500000Y-66325000D03*
X225000000Y-66325000D03*
X224500000Y-66325000D03*
X224000000Y-66325000D03*
X223500000Y-66325000D03*
X223000000Y-66325000D03*
X222500000Y-66325000D03*
X222000000Y-66325000D03*
X221500000Y-66325000D03*
X221000000Y-66325000D03*
X220500000Y-66325000D03*
X220000000Y-66325000D03*
X219500000Y-66325000D03*
X219000000Y-66325000D03*
X218500000Y-66325000D03*
X218000000Y-66325000D03*
%TD*%
D20*
%TO.C,C10*%
X195135000Y-66000000D03*
X194000000Y-66000000D03*
%TD*%
D21*
%TO.C,INA+*%
X180500000Y-77500000D03*
%TD*%
D22*
%TO.C,INA260*%
X198190000Y-96000000D03*
X200730000Y-96000000D03*
X203270000Y-96000000D03*
X205810000Y-96000000D03*
X208350000Y-96000000D03*
X210890000Y-96000000D03*
X193110000Y-96000000D03*
X195650000Y-96000000D03*
%TD*%
D21*
%TO.C,INA-*%
X186500000Y-77500000D03*
%TD*%
D23*
%TO.C,C9*%
X235000000Y-69567500D03*
X235000000Y-68432500D03*
%TD*%
D24*
%TO.C,R5*%
X220402500Y-63000000D03*
X221597500Y-63000000D03*
%TD*%
D25*
%TO.C,R4*%
X215097500Y-89500000D03*
X213902500Y-89500000D03*
%TD*%
D26*
%TO.C,U1*%
X241500000Y-86500000D03*
D27*
X241500000Y-85230000D03*
X241500000Y-83960000D03*
%TD*%
D28*
%TO.C,C6*%
X212500000Y-69932500D03*
X212500000Y-71067500D03*
%TD*%
D29*
%TO.C,D2*%
X171150000Y-89000000D03*
X167850000Y-89000000D03*
%TD*%
D30*
%TO.C,MS8607*%
X242500000Y-62540000D03*
X242500000Y-60000000D03*
X242500000Y-57460000D03*
X242500000Y-54920000D03*
X242500000Y-52380000D03*
%TD*%
D31*
%TO.C,C11*%
X205500000Y-82000000D03*
X206635000Y-82000000D03*
%TD*%
D32*
%TO.C,SW1*%
X214500000Y-51000000D03*
X214500000Y-48790000D03*
D33*
X212350000Y-49890000D03*
X209350000Y-49890000D03*
D32*
X207200000Y-51000000D03*
X207200000Y-48790000D03*
D34*
X213100000Y-51650000D03*
X210100000Y-51650000D03*
X208600000Y-51650000D03*
%TD*%
D29*
%TO.C,D1*%
X175150000Y-79000000D03*
X171850000Y-79000000D03*
%TD*%
D20*
%TO.C,C3*%
X219567500Y-84000000D03*
X218432500Y-84000000D03*
%TD*%
D28*
%TO.C,C7*%
X214000000Y-65932500D03*
X214000000Y-67067500D03*
%TD*%
D31*
%TO.C,C8*%
X232932500Y-67000000D03*
X234067500Y-67000000D03*
%TD*%
%TO.C,C12*%
X208432500Y-76000000D03*
X209567500Y-76000000D03*
%TD*%
D35*
%TO.C,P1*%
X163500000Y-88000000D03*
X163500000Y-90000000D03*
%TD*%
D36*
%TO.C,S1*%
X219750000Y-54750000D03*
D37*
X226250000Y-54750000D03*
X219750000Y-59250000D03*
X226250000Y-59250000D03*
%TD*%
D38*
%TO.C,MOD1*%
X169500000Y-72500000D03*
X171500000Y-72500000D03*
X173500000Y-72500000D03*
X175500000Y-72500000D03*
X177500000Y-72500000D03*
X179500000Y-72500000D03*
X181500000Y-72500000D03*
X183500000Y-72500000D03*
X185500000Y-72500000D03*
X187500000Y-72500000D03*
X187500000Y-50500000D03*
X185500000Y-50500000D03*
X183500000Y-50500000D03*
X181500000Y-50500000D03*
X179500000Y-50500000D03*
X177500000Y-50500000D03*
X175500000Y-50500000D03*
X173500000Y-50500000D03*
X171500000Y-50500000D03*
X169500000Y-50500000D03*
%TD*%
D39*
%TO.C,J5*%
X165800000Y-78000000D03*
X165800000Y-83000000D03*
D40*
X166900000Y-79200000D03*
X166900000Y-79850000D03*
X166900000Y-80500000D03*
X166900000Y-81150000D03*
X166900000Y-81800000D03*
D41*
X163050000Y-76625000D03*
D42*
X166850000Y-76775000D03*
X166850000Y-84225000D03*
D41*
X163050000Y-84375000D03*
%TD*%
D21*
%TO.C,J3*%
X233540000Y-50500000D03*
D43*
X231000000Y-50500000D03*
X228460000Y-50500000D03*
X225920000Y-50500000D03*
X223380000Y-50500000D03*
%TD*%
D23*
%TO.C,C4*%
X213500000Y-79067500D03*
X213500000Y-77932500D03*
%TD*%
D44*
%TO.C,C13*%
X174000000Y-87962500D03*
X174000000Y-90037500D03*
%TD*%
D45*
%TO.C,C1*%
X224775000Y-89500000D03*
X223225000Y-89500000D03*
%TD*%
D24*
%TO.C,R6*%
X191415000Y-86630000D03*
X192610000Y-86630000D03*
%TD*%
%TO.C,R3*%
X213805000Y-87000000D03*
X215000000Y-87000000D03*
%TD*%
D16*
%TO.C,R1*%
X236500000Y-87902500D03*
X236500000Y-89097500D03*
%TD*%
D46*
%TO.C,D3*%
X191212500Y-89500000D03*
X192787500Y-89500000D03*
%TD*%
D47*
%TO.C,Brd1*%
X170880000Y-94500000D03*
X173420000Y-94500000D03*
X175960000Y-94500000D03*
X178500000Y-94500000D03*
%TD*%
D36*
%TO.C,S2*%
X193750000Y-75250000D03*
D37*
X200250000Y-75250000D03*
X193750000Y-79750000D03*
X200250000Y-79750000D03*
%TD*%
D48*
%TO.C,C15*%
X185712500Y-87000000D03*
X187787500Y-87000000D03*
%TD*%
D49*
%TO.C,C14*%
X214162500Y-93000000D03*
X214837500Y-93000000D03*
%TD*%
D20*
%TO.C,C2*%
X230567500Y-84500000D03*
X229432500Y-84500000D03*
%TD*%
D50*
%TO.C,D4*%
X191500000Y-52437500D03*
X191500000Y-50562500D03*
%TD*%
D23*
%TO.C,C5*%
X213000000Y-73635000D03*
X213000000Y-72500000D03*
%TD*%
%LPD*%
M02*
