%TF.GenerationSoftware,KiCad,Pcbnew,8.0.5*%
%TF.CreationDate,2024-11-27T11:31:13-05:00*%
%TF.ProjectId,Alfond PCB,416c666f-6e64-4205-9043-422e6b696361,rev?*%
%TF.SameCoordinates,Original*%
%TF.FileFunction,Copper,L1,Top*%
%TF.FilePolarity,Positive*%
%FSLAX46Y46*%
G04 Gerber Fmt 4.6, Leading zero omitted, Abs format (unit mm)*
G04 Created by KiCad (PCBNEW 8.0.5) date 2024-11-27 11:31:13*
%MOMM*%
%LPD*%
G01*
G04 APERTURE LIST*
G04 Aperture macros list*
%AMRoundRect*
0 Rectangle with rounded corners*
0 $1 Rounding radius*
0 $2 $3 $4 $5 $6 $7 $8 $9 X,Y pos of 4 corners*
0 Add a 4 corners polygon primitive as box body*
4,1,4,$2,$3,$4,$5,$6,$7,$8,$9,$2,$3,0*
0 Add four circle primitives for the rounded corners*
1,1,$1+$1,$2,$3*
1,1,$1+$1,$4,$5*
1,1,$1+$1,$6,$7*
1,1,$1+$1,$8,$9*
0 Add four rect primitives between the rounded corners*
20,1,$1+$1,$2,$3,$4,$5,0*
20,1,$1+$1,$4,$5,$6,$7,0*
20,1,$1+$1,$6,$7,$8,$9,0*
20,1,$1+$1,$8,$9,$2,$3,0*%
G04 Aperture macros list end*
%TA.AperFunction,SMDPad,CuDef*%
%ADD10R,1.400000X1.200000*%
%TD*%
%TA.AperFunction,SMDPad,CuDef*%
%ADD11RoundRect,0.160000X-0.160000X0.197500X-0.160000X-0.197500X0.160000X-0.197500X0.160000X0.197500X0*%
%TD*%
%TA.AperFunction,SMDPad,CuDef*%
%ADD12RoundRect,0.100000X-0.712500X-0.100000X0.712500X-0.100000X0.712500X0.100000X-0.712500X0.100000X0*%
%TD*%
%TA.AperFunction,SMDPad,CuDef*%
%ADD13RoundRect,0.075000X-0.725000X-0.075000X0.725000X-0.075000X0.725000X0.075000X-0.725000X0.075000X0*%
%TD*%
%TA.AperFunction,SMDPad,CuDef*%
%ADD14RoundRect,0.075000X-0.075000X-0.725000X0.075000X-0.725000X0.075000X0.725000X-0.075000X0.725000X0*%
%TD*%
%TA.AperFunction,SMDPad,CuDef*%
%ADD15RoundRect,0.155000X0.212500X0.155000X-0.212500X0.155000X-0.212500X-0.155000X0.212500X-0.155000X0*%
%TD*%
%TA.AperFunction,ComponentPad*%
%ADD16R,1.700000X1.700000*%
%TD*%
%TA.AperFunction,ComponentPad*%
%ADD17C,1.778000*%
%TD*%
%TA.AperFunction,SMDPad,CuDef*%
%ADD18RoundRect,0.155000X0.155000X-0.212500X0.155000X0.212500X-0.155000X0.212500X-0.155000X-0.212500X0*%
%TD*%
%TA.AperFunction,SMDPad,CuDef*%
%ADD19RoundRect,0.160000X-0.197500X-0.160000X0.197500X-0.160000X0.197500X0.160000X-0.197500X0.160000X0*%
%TD*%
%TA.AperFunction,SMDPad,CuDef*%
%ADD20RoundRect,0.160000X0.197500X0.160000X-0.197500X0.160000X-0.197500X-0.160000X0.197500X-0.160000X0*%
%TD*%
%TA.AperFunction,ComponentPad*%
%ADD21R,1.500000X1.050000*%
%TD*%
%TA.AperFunction,ComponentPad*%
%ADD22O,1.500000X1.050000*%
%TD*%
%TA.AperFunction,SMDPad,CuDef*%
%ADD23RoundRect,0.155000X-0.155000X0.212500X-0.155000X-0.212500X0.155000X-0.212500X0.155000X0.212500X0*%
%TD*%
%TA.AperFunction,SMDPad,CuDef*%
%ADD24RoundRect,0.225000X0.225000X0.375000X-0.225000X0.375000X-0.225000X-0.375000X0.225000X-0.375000X0*%
%TD*%
%TA.AperFunction,ComponentPad*%
%ADD25C,1.676400*%
%TD*%
%TA.AperFunction,SMDPad,CuDef*%
%ADD26RoundRect,0.155000X-0.212500X-0.155000X0.212500X-0.155000X0.212500X0.155000X-0.212500X0.155000X0*%
%TD*%
%TA.AperFunction,SMDPad,CuDef*%
%ADD27R,1.000000X0.800000*%
%TD*%
%TA.AperFunction,SMDPad,CuDef*%
%ADD28R,0.700000X1.500000*%
%TD*%
%TA.AperFunction,ComponentPad*%
%ADD29C,1.508000*%
%TD*%
%TA.AperFunction,ComponentPad*%
%ADD30R,2.000000X2.000000*%
%TD*%
%TA.AperFunction,ComponentPad*%
%ADD31C,2.000000*%
%TD*%
%TA.AperFunction,ComponentPad*%
%ADD32C,1.700000*%
%TD*%
%TA.AperFunction,SMDPad,CuDef*%
%ADD33R,1.300000X0.450000*%
%TD*%
%TA.AperFunction,ComponentPad*%
%ADD34O,1.800000X1.150000*%
%TD*%
%TA.AperFunction,ComponentPad*%
%ADD35O,2.000000X1.450000*%
%TD*%
%TA.AperFunction,ComponentPad*%
%ADD36O,1.700000X1.700000*%
%TD*%
%TA.AperFunction,SMDPad,CuDef*%
%ADD37RoundRect,0.250000X-0.475000X0.337500X-0.475000X-0.337500X0.475000X-0.337500X0.475000X0.337500X0*%
%TD*%
%TA.AperFunction,SMDPad,CuDef*%
%ADD38RoundRect,0.225000X0.225000X0.250000X-0.225000X0.250000X-0.225000X-0.250000X0.225000X-0.250000X0*%
%TD*%
%TA.AperFunction,SMDPad,CuDef*%
%ADD39RoundRect,0.218750X-0.218750X-0.256250X0.218750X-0.256250X0.218750X0.256250X-0.218750X0.256250X0*%
%TD*%
%TA.AperFunction,ComponentPad*%
%ADD40O,1.600000X2.000000*%
%TD*%
%TA.AperFunction,SMDPad,CuDef*%
%ADD41RoundRect,0.250000X-0.337500X-0.475000X0.337500X-0.475000X0.337500X0.475000X-0.337500X0.475000X0*%
%TD*%
%TA.AperFunction,SMDPad,CuDef*%
%ADD42RoundRect,0.075000X-0.212500X-0.075000X0.212500X-0.075000X0.212500X0.075000X-0.212500X0.075000X0*%
%TD*%
%TA.AperFunction,SMDPad,CuDef*%
%ADD43RoundRect,0.243750X0.456250X-0.243750X0.456250X0.243750X-0.456250X0.243750X-0.456250X-0.243750X0*%
%TD*%
%TA.AperFunction,ViaPad*%
%ADD44C,0.700000*%
%TD*%
%TA.AperFunction,Conductor*%
%ADD45C,0.200000*%
%TD*%
G04 APERTURE END LIST*
D10*
%TO.P,Y1,1,1*%
%TO.N,/HSE_OUT*%
X205800000Y-80000000D03*
%TO.P,Y1,2,2*%
%TO.N,GND*%
X208000000Y-80000000D03*
%TO.P,Y1,3,3*%
%TO.N,/HSE_IN*%
X208000000Y-78300000D03*
%TO.P,Y1,4,4*%
%TO.N,GND*%
X205800000Y-78300000D03*
%TD*%
D11*
%TO.P,R7,1*%
%TO.N,/PWR_LED_K2*%
X191500000Y-53902500D03*
%TO.P,R7,2*%
%TO.N,GND*%
X191500000Y-55097500D03*
%TD*%
D12*
%TO.P,U3,1,EN*%
%TO.N,Net-(D1-K)*%
X179387500Y-87025000D03*
%TO.P,U3,2,IN*%
X179387500Y-87675000D03*
%TO.P,U3,3,OUT*%
%TO.N,+3.3V*%
X179387500Y-88325000D03*
%TO.P,U3,4,BP*%
%TO.N,unconnected-(U3-BP-Pad4)*%
X179387500Y-88975000D03*
%TO.P,U3,5,GND*%
%TO.N,GND*%
X183612500Y-88975000D03*
%TO.P,U3,6,GND*%
X183612500Y-88325000D03*
%TO.P,U3,7,GND*%
X183612500Y-87675000D03*
%TO.P,U3,8,GND*%
X183612500Y-87025000D03*
%TD*%
D13*
%TO.P,U2,1,PE2*%
%TO.N,unconnected-(U2-PE2-Pad1)*%
X216325000Y-68000000D03*
%TO.P,U2,2,PE3*%
%TO.N,unconnected-(U2-PE3-Pad2)*%
X216325000Y-68500000D03*
%TO.P,U2,3,PE4*%
%TO.N,unconnected-(U2-PE4-Pad3)*%
X216325000Y-69000000D03*
%TO.P,U2,4,PE5*%
%TO.N,unconnected-(U2-PE5-Pad4)*%
X216325000Y-69500000D03*
%TO.P,U2,5,PE6*%
%TO.N,unconnected-(U2-PE6-Pad5)*%
X216325000Y-70000000D03*
%TO.P,U2,6,VBAT*%
%TO.N,+3.3V*%
X216325000Y-70500000D03*
%TO.P,U2,7,PC13*%
%TO.N,unconnected-(U2-PC13-Pad7)*%
X216325000Y-71000000D03*
%TO.P,U2,8,PC14*%
%TO.N,unconnected-(U2-PC14-Pad8)*%
X216325000Y-71500000D03*
%TO.P,U2,9,PC15*%
%TO.N,unconnected-(U2-PC15-Pad9)*%
X216325000Y-72000000D03*
%TO.P,U2,10,VSS*%
%TO.N,GND*%
X216325000Y-72500000D03*
%TO.P,U2,11,VDD*%
%TO.N,+3.3V*%
X216325000Y-73000000D03*
%TO.P,U2,12,PH0*%
%TO.N,/HSE_IN*%
X216325000Y-73500000D03*
%TO.P,U2,13,PH1*%
%TO.N,/HSE_OUT*%
X216325000Y-74000000D03*
%TO.P,U2,14,NRST*%
%TO.N,/NRST*%
X216325000Y-74500000D03*
%TO.P,U2,15,PC0*%
%TO.N,/I2C3_SCL*%
X216325000Y-75000000D03*
%TO.P,U2,16,PC1*%
%TO.N,/I2C3_SDA*%
X216325000Y-75500000D03*
%TO.P,U2,17,PC2*%
%TO.N,unconnected-(U2-PC2-Pad17)*%
X216325000Y-76000000D03*
%TO.P,U2,18,PC3*%
%TO.N,unconnected-(U2-PC3-Pad18)*%
X216325000Y-76500000D03*
%TO.P,U2,19,VSSA*%
%TO.N,GND*%
X216325000Y-77000000D03*
%TO.P,U2,20,VREF-*%
%TO.N,unconnected-(U2-VREF--Pad20)*%
X216325000Y-77500000D03*
%TO.P,U2,21,VREF+*%
%TO.N,unconnected-(U2-VREF+-Pad21)*%
X216325000Y-78000000D03*
%TO.P,U2,22,VDDA*%
%TO.N,+3.3V*%
X216325000Y-78500000D03*
%TO.P,U2,23,PA0*%
%TO.N,/UART4_TX*%
X216325000Y-79000000D03*
%TO.P,U2,24,PA1*%
%TO.N,unconnected-(U2-PA1-Pad24)*%
X216325000Y-79500000D03*
%TO.P,U2,25,PA2*%
%TO.N,unconnected-(U2-PA2-Pad25)*%
X216325000Y-80000000D03*
D14*
%TO.P,U2,26,PA3*%
%TO.N,/GPIO_INPUT_Button*%
X218000000Y-81675000D03*
%TO.P,U2,27,VSS*%
%TO.N,GND*%
X218500000Y-81675000D03*
%TO.P,U2,28,VDD*%
%TO.N,+3.3V*%
X219000000Y-81675000D03*
%TO.P,U2,29,PA4*%
%TO.N,unconnected-(U2-PA4-Pad29)*%
X219500000Y-81675000D03*
%TO.P,U2,30,PA5*%
%TO.N,unconnected-(U2-PA5-Pad30)*%
X220000000Y-81675000D03*
%TO.P,U2,31,PA6*%
%TO.N,unconnected-(U2-PA6-Pad31)*%
X220500000Y-81675000D03*
%TO.P,U2,32,PA7*%
%TO.N,unconnected-(U2-PA7-Pad32)*%
X221000000Y-81675000D03*
%TO.P,U2,33,PC4*%
%TO.N,unconnected-(U2-PC4-Pad33)*%
X221500000Y-81675000D03*
%TO.P,U2,34,PC5*%
%TO.N,unconnected-(U2-PC5-Pad34)*%
X222000000Y-81675000D03*
%TO.P,U2,35,PB0*%
%TO.N,unconnected-(U2-PB0-Pad35)*%
X222500000Y-81675000D03*
%TO.P,U2,36,PB1*%
%TO.N,unconnected-(U2-PB1-Pad36)*%
X223000000Y-81675000D03*
%TO.P,U2,37,PB2*%
%TO.N,unconnected-(U2-PB2-Pad37)*%
X223500000Y-81675000D03*
%TO.P,U2,38,PE7*%
%TO.N,unconnected-(U2-PE7-Pad38)*%
X224000000Y-81675000D03*
%TO.P,U2,39,PE8*%
%TO.N,unconnected-(U2-PE8-Pad39)*%
X224500000Y-81675000D03*
%TO.P,U2,40,PE9*%
%TO.N,unconnected-(U2-PE9-Pad40)*%
X225000000Y-81675000D03*
%TO.P,U2,41,PE10*%
%TO.N,unconnected-(U2-PE10-Pad41)*%
X225500000Y-81675000D03*
%TO.P,U2,42,PE11*%
%TO.N,unconnected-(U2-PE11-Pad42)*%
X226000000Y-81675000D03*
%TO.P,U2,43,PE12*%
%TO.N,unconnected-(U2-PE12-Pad43)*%
X226500000Y-81675000D03*
%TO.P,U2,44,PE13*%
%TO.N,unconnected-(U2-PE13-Pad44)*%
X227000000Y-81675000D03*
%TO.P,U2,45,PE14*%
%TO.N,unconnected-(U2-PE14-Pad45)*%
X227500000Y-81675000D03*
%TO.P,U2,46,PE15*%
%TO.N,unconnected-(U2-PE15-Pad46)*%
X228000000Y-81675000D03*
%TO.P,U2,47,PB10*%
%TO.N,/I2C2_SDA*%
X228500000Y-81675000D03*
%TO.P,U2,48,VCAP*%
%TO.N,unconnected-(U2-VCAP-Pad48)*%
X229000000Y-81675000D03*
%TO.P,U2,49,VSS*%
%TO.N,GND*%
X229500000Y-81675000D03*
%TO.P,U2,50,VDD*%
%TO.N,+3.3V*%
X230000000Y-81675000D03*
D13*
%TO.P,U2,51,PB12*%
%TO.N,unconnected-(U2-PB12-Pad51)*%
X231675000Y-80000000D03*
%TO.P,U2,52,PB13*%
%TO.N,unconnected-(U2-PB13-Pad52)*%
X231675000Y-79500000D03*
%TO.P,U2,53,PB14*%
%TO.N,/I2C2_SCL*%
X231675000Y-79000000D03*
%TO.P,U2,54,PB15*%
%TO.N,unconnected-(U2-PB15-Pad54)*%
X231675000Y-78500000D03*
%TO.P,U2,55,PD8*%
%TO.N,unconnected-(U2-PD8-Pad55)*%
X231675000Y-78000000D03*
%TO.P,U2,56,PD9*%
%TO.N,unconnected-(U2-PD9-Pad56)*%
X231675000Y-77500000D03*
%TO.P,U2,57,PD10*%
%TO.N,unconnected-(U2-PD10-Pad57)*%
X231675000Y-77000000D03*
%TO.P,U2,58,PD11*%
%TO.N,unconnected-(U2-PD11-Pad58)*%
X231675000Y-76500000D03*
%TO.P,U2,59,PD12*%
%TO.N,unconnected-(U2-PD12-Pad59)*%
X231675000Y-76000000D03*
%TO.P,U2,60,PD13*%
%TO.N,unconnected-(U2-PD13-Pad60)*%
X231675000Y-75500000D03*
%TO.P,U2,61,PD14*%
%TO.N,unconnected-(U2-PD14-Pad61)*%
X231675000Y-75000000D03*
%TO.P,U2,62,PD15*%
%TO.N,unconnected-(U2-PD15-Pad62)*%
X231675000Y-74500000D03*
%TO.P,U2,63,PC6*%
%TO.N,unconnected-(U2-PC6-Pad63)*%
X231675000Y-74000000D03*
%TO.P,U2,64,PC7*%
%TO.N,unconnected-(U2-PC7-Pad64)*%
X231675000Y-73500000D03*
%TO.P,U2,65,PC8*%
%TO.N,unconnected-(U2-PC8-Pad65)*%
X231675000Y-73000000D03*
%TO.P,U2,66,PC9*%
%TO.N,unconnected-(U2-PC9-Pad66)*%
X231675000Y-72500000D03*
%TO.P,U2,67,PA8*%
%TO.N,unconnected-(U2-PA8-Pad67)*%
X231675000Y-72000000D03*
%TO.P,U2,68,PA9*%
%TO.N,unconnected-(U2-PA9-Pad68)*%
X231675000Y-71500000D03*
%TO.P,U2,69,PA10*%
%TO.N,unconnected-(U2-PA10-Pad69)*%
X231675000Y-71000000D03*
%TO.P,U2,70,PA11*%
%TO.N,unconnected-(U2-PA11-Pad70)*%
X231675000Y-70500000D03*
%TO.P,U2,71,PA12*%
%TO.N,unconnected-(U2-PA12-Pad71)*%
X231675000Y-70000000D03*
%TO.P,U2,72,PA13*%
%TO.N,/SWD_DIO*%
X231675000Y-69500000D03*
%TO.P,U2,73,VDDUSB*%
%TO.N,+3.3V*%
X231675000Y-69000000D03*
%TO.P,U2,74,VSS*%
%TO.N,GND*%
X231675000Y-68500000D03*
%TO.P,U2,75,VDD*%
%TO.N,+3.3V*%
X231675000Y-68000000D03*
D14*
%TO.P,U2,76,PA14*%
%TO.N,/SWD_CLK*%
X230000000Y-66325000D03*
%TO.P,U2,77,PA15*%
%TO.N,unconnected-(U2-PA15-Pad77)*%
X229500000Y-66325000D03*
%TO.P,U2,78,PC10*%
%TO.N,unconnected-(U2-PC10-Pad78)*%
X229000000Y-66325000D03*
%TO.P,U2,79,PC11*%
%TO.N,/GPIO_SLEEP_XBEE*%
X228500000Y-66325000D03*
%TO.P,U2,80,PC12*%
%TO.N,/UART5_TX*%
X228000000Y-66325000D03*
%TO.P,U2,81,PD0*%
%TO.N,unconnected-(U2-PD0-Pad81)*%
X227500000Y-66325000D03*
%TO.P,U2,82,PD1*%
%TO.N,unconnected-(U2-PD1-Pad82)*%
X227000000Y-66325000D03*
%TO.P,U2,83,PD2*%
%TO.N,/UART5_RX*%
X226500000Y-66325000D03*
%TO.P,U2,84,PD3*%
%TO.N,unconnected-(U2-PD3-Pad84)*%
X226000000Y-66325000D03*
%TO.P,U2,85,PD4*%
%TO.N,unconnected-(U2-PD4-Pad85)*%
X225500000Y-66325000D03*
%TO.P,U2,86,PD5*%
%TO.N,unconnected-(U2-PD5-Pad86)*%
X225000000Y-66325000D03*
%TO.P,U2,87,PD6*%
%TO.N,unconnected-(U2-PD6-Pad87)*%
X224500000Y-66325000D03*
%TO.P,U2,88,PD7*%
%TO.N,unconnected-(U2-PD7-Pad88)*%
X224000000Y-66325000D03*
%TO.P,U2,89,PB3*%
%TO.N,unconnected-(U2-PB3-Pad89)*%
X223500000Y-66325000D03*
%TO.P,U2,90,PB4*%
%TO.N,unconnected-(U2-PB4-Pad90)*%
X223000000Y-66325000D03*
%TO.P,U2,91,PB5*%
%TO.N,unconnected-(U2-PB5-Pad91)*%
X222500000Y-66325000D03*
%TO.P,U2,92,PB6*%
%TO.N,unconnected-(U2-PB6-Pad92)*%
X222000000Y-66325000D03*
%TO.P,U2,93,PB7*%
%TO.N,unconnected-(U2-PB7-Pad93)*%
X221500000Y-66325000D03*
%TO.P,U2,94,PH3*%
%TO.N,/BOOT0*%
X221000000Y-66325000D03*
%TO.P,U2,95,PB8*%
%TO.N,/I2C1_SDA*%
X220500000Y-66325000D03*
%TO.P,U2,96,PB9*%
%TO.N,/I2C1_SCL*%
X220000000Y-66325000D03*
%TO.P,U2,97,PE0*%
%TO.N,unconnected-(U2-PE0-Pad97)*%
X219500000Y-66325000D03*
%TO.P,U2,98,PE1*%
%TO.N,unconnected-(U2-PE1-Pad98)*%
X219000000Y-66325000D03*
%TO.P,U2,99,VSS*%
%TO.N,GND*%
X218500000Y-66325000D03*
%TO.P,U2,100,VDD*%
%TO.N,+3.3V*%
X218000000Y-66325000D03*
%TD*%
D15*
%TO.P,C10,1*%
%TO.N,/NRST*%
X195135000Y-66000000D03*
%TO.P,C10,2*%
%TO.N,GND*%
X194000000Y-66000000D03*
%TD*%
D16*
%TO.P,INA+,1*%
%TO.N,/INA+*%
X180500000Y-77500000D03*
%TD*%
D17*
%TO.P,INA260,3*%
%TO.N,VBus*%
X198190000Y-96000000D03*
%TO.P,INA260,4*%
%TO.N,Alert*%
X200730000Y-96000000D03*
%TO.P,INA260,5*%
%TO.N,/I2C3_SDA*%
X203270000Y-96000000D03*
%TO.P,INA260,6*%
%TO.N,/I2C3_SCL*%
X205810000Y-96000000D03*
%TO.P,INA260,7*%
%TO.N,GND*%
X208350000Y-96000000D03*
%TO.P,INA260,8*%
%TO.N,+3.3V*%
X210890000Y-96000000D03*
%TO.P,INA260,Vin+*%
X193110000Y-96000000D03*
%TO.P,INA260,Vin-*%
X195650000Y-96000000D03*
%TD*%
D16*
%TO.P,INA-,1*%
%TO.N,/INA-*%
X186500000Y-77500000D03*
%TD*%
D18*
%TO.P,C9,1*%
%TO.N,+3.3V*%
X235000000Y-69567500D03*
%TO.P,C9,2*%
%TO.N,GND*%
X235000000Y-68432500D03*
%TD*%
D19*
%TO.P,R5,1*%
%TO.N,Net-(SW1-B)*%
X220402500Y-63000000D03*
%TO.P,R5,2*%
%TO.N,/BOOT0*%
X221597500Y-63000000D03*
%TD*%
D20*
%TO.P,R4,1*%
%TO.N,+3.3V*%
X215097500Y-89500000D03*
%TO.P,R4,2*%
%TO.N,/GPIO_INPUT_Button*%
X213902500Y-89500000D03*
%TD*%
D21*
%TO.P,U1,1,GND*%
%TO.N,GND*%
X241500000Y-86500000D03*
D22*
%TO.P,U1,2,DQ*%
%TO.N,/UART4_TX*%
X241500000Y-85230000D03*
%TO.P,U1,3,V_{DD}*%
%TO.N,+3.3V*%
X241500000Y-83960000D03*
%TD*%
D23*
%TO.P,C6,1*%
%TO.N,+3.3V*%
X212500000Y-69932500D03*
%TO.P,C6,2*%
%TO.N,GND*%
X212500000Y-71067500D03*
%TD*%
D24*
%TO.P,D2,1,K*%
%TO.N,Net-(D1-K)*%
X171150000Y-89000000D03*
%TO.P,D2,2,A*%
%TO.N,/INA-*%
X167850000Y-89000000D03*
%TD*%
D25*
%TO.P,MS8607,1*%
%TO.N,/I2C2_SDA*%
X242500000Y-62540000D03*
%TO.P,MS8607,2*%
%TO.N,/I2C2_SCL*%
X242500000Y-60000000D03*
%TO.P,MS8607,3*%
%TO.N,GND*%
X242500000Y-57460000D03*
%TO.P,MS8607,4*%
%TO.N,N/C*%
X242500000Y-54920000D03*
%TO.P,MS8607,5*%
%TO.N,+3.3V*%
X242500000Y-52380000D03*
%TD*%
D26*
%TO.P,C11,1*%
%TO.N,/HSE_OUT*%
X205500000Y-82000000D03*
%TO.P,C11,2*%
%TO.N,GND*%
X206635000Y-82000000D03*
%TD*%
D27*
%TO.P,SW1,*%
%TO.N,*%
X214500000Y-51000000D03*
X214500000Y-48790000D03*
X207200000Y-51000000D03*
X207200000Y-48790000D03*
D28*
%TO.P,SW1,1,A*%
%TO.N,GND*%
X213100000Y-51650000D03*
%TO.P,SW1,2,B*%
%TO.N,Net-(SW1-B)*%
X210100000Y-51650000D03*
%TO.P,SW1,3,C*%
%TO.N,+3.3V*%
X208600000Y-51650000D03*
%TD*%
D24*
%TO.P,D1,1,K*%
%TO.N,Net-(D1-K)*%
X175150000Y-79000000D03*
%TO.P,D1,2,A*%
%TO.N,/V_USB*%
X171850000Y-79000000D03*
%TD*%
D15*
%TO.P,C3,1*%
%TO.N,+3.3V*%
X219567500Y-84000000D03*
%TO.P,C3,2*%
%TO.N,GND*%
X218432500Y-84000000D03*
%TD*%
D23*
%TO.P,C7,1*%
%TO.N,+3.3V*%
X214000000Y-65932500D03*
%TO.P,C7,2*%
%TO.N,GND*%
X214000000Y-67067500D03*
%TD*%
D26*
%TO.P,C8,1*%
%TO.N,+3.3V*%
X232932500Y-67000000D03*
%TO.P,C8,2*%
%TO.N,GND*%
X234067500Y-67000000D03*
%TD*%
%TO.P,C12,1*%
%TO.N,/HSE_IN*%
X208432500Y-76000000D03*
%TO.P,C12,2*%
%TO.N,GND*%
X209567500Y-76000000D03*
%TD*%
D29*
%TO.P,P1,1,1*%
%TO.N,GND*%
X163500000Y-88000000D03*
%TO.P,P1,2,2*%
%TO.N,/INA+*%
X163500000Y-90000000D03*
%TD*%
D30*
%TO.P,S1,1*%
%TO.N,GND*%
X219750000Y-54750000D03*
D31*
%TO.P,S1,2*%
X226250000Y-54750000D03*
%TO.P,S1,3*%
%TO.N,/NRST*%
X219750000Y-59250000D03*
%TO.P,S1,4*%
X226250000Y-59250000D03*
%TD*%
D32*
%TO.P,MOD1,1,Vcc*%
%TO.N,+3.3V*%
X169500000Y-72500000D03*
%TO.P,MOD1,2,DOUT*%
%TO.N,/UART5_RX*%
X171500000Y-72500000D03*
%TO.P,MOD1,3,DIN/~{Config}*%
%TO.N,/UART5_TX*%
X173500000Y-72500000D03*
%TO.P,MOD1,4,DO8*%
%TO.N,unconnected-(MOD1-DO8-Pad4)*%
X175500000Y-72500000D03*
%TO.P,MOD1,5,~{Reset}*%
%TO.N,unconnected-(MOD1-~{Reset}-Pad5)*%
X177500000Y-72500000D03*
%TO.P,MOD1,6,PWM0/RSSI*%
%TO.N,unconnected-(MOD1-PWM0{slash}RSSI-Pad6)*%
X179500000Y-72500000D03*
%TO.P,MOD1,7,PWM1*%
%TO.N,unconnected-(MOD1-PWM1-Pad7)*%
X181500000Y-72500000D03*
%TO.P,MOD1,8,Reserved*%
%TO.N,unconnected-(MOD1-Reserved-Pad8)*%
X183500000Y-72500000D03*
%TO.P,MOD1,9,~{DTR}/SLRQ/DI8*%
%TO.N,/GPIO_SLEEP_XBEE*%
X185500000Y-72500000D03*
%TO.P,MOD1,10,GND*%
%TO.N,GND*%
X187500000Y-72500000D03*
%TO.P,MOD1,11,AD4/DIO4*%
%TO.N,unconnected-(MOD1-AD4{slash}DIO4-Pad11)*%
X187500000Y-50500000D03*
%TO.P,MOD1,12,DIO7/~{CTS}*%
%TO.N,unconnected-(MOD1-DIO7{slash}~{CTS}-Pad12)*%
X185500000Y-50500000D03*
%TO.P,MOD1,13,ON/~{SLEEP}*%
%TO.N,Net-(D4-A)*%
X183500000Y-50500000D03*
%TO.P,MOD1,14,VREF*%
%TO.N,unconnected-(MOD1-VREF-Pad14)*%
X181500000Y-50500000D03*
%TO.P,MOD1,15,AD5/DIO5*%
%TO.N,unconnected-(MOD1-AD5{slash}DIO5-Pad15)*%
X179500000Y-50500000D03*
%TO.P,MOD1,16,AD6/DIO6/~{RTS}*%
%TO.N,unconnected-(MOD1-AD6{slash}DIO6{slash}~{RTS}-Pad16)*%
X177500000Y-50500000D03*
%TO.P,MOD1,17,AD3/DIO3*%
%TO.N,unconnected-(MOD1-AD3{slash}DIO3-Pad17)*%
X175500000Y-50500000D03*
%TO.P,MOD1,18,AD2/DIO2*%
%TO.N,unconnected-(MOD1-AD2{slash}DIO2-Pad18)*%
X173500000Y-50500000D03*
%TO.P,MOD1,19,AD1/DIO1*%
%TO.N,unconnected-(MOD1-AD1{slash}DIO1-Pad19)*%
X171500000Y-50500000D03*
%TO.P,MOD1,20,AD0/DIO0*%
%TO.N,unconnected-(MOD1-AD0{slash}DIO0-Pad20)*%
X169500000Y-50500000D03*
%TD*%
D33*
%TO.P,J5,1,VBUS*%
%TO.N,/V_USB*%
X166900000Y-79200000D03*
%TO.P,J5,2,D-*%
%TO.N,unconnected-(J5-D--Pad2)*%
X166900000Y-79850000D03*
%TO.P,J5,3,D+*%
%TO.N,unconnected-(J5-D+-Pad3)*%
X166900000Y-80500000D03*
%TO.P,J5,4,ID*%
%TO.N,unconnected-(J5-ID-Pad4)*%
X166900000Y-81150000D03*
%TO.P,J5,5,GND*%
%TO.N,GND*%
X166900000Y-81800000D03*
D34*
%TO.P,J5,6,Shield*%
%TO.N,unconnected-(J5-Shield-Pad6)_2*%
X163050000Y-76625000D03*
D35*
%TO.N,unconnected-(J5-Shield-Pad6)_3*%
X166850000Y-76775000D03*
%TO.N,unconnected-(J5-Shield-Pad6)_1*%
X166850000Y-84225000D03*
D34*
%TO.N,unconnected-(J5-Shield-Pad6)*%
X163050000Y-84375000D03*
%TD*%
D16*
%TO.P,J3,1,Pin_1*%
%TO.N,+3.3V*%
X233540000Y-50500000D03*
D36*
%TO.P,J3,2,Pin_2*%
%TO.N,/SWD_DIO*%
X231000000Y-50500000D03*
%TO.P,J3,3,Pin_3*%
%TO.N,/SWD_CLK*%
X228460000Y-50500000D03*
%TO.P,J3,4,Pin_4*%
%TO.N,/NRST*%
X225920000Y-50500000D03*
%TO.P,J3,5,Pin_5*%
%TO.N,GND*%
X223380000Y-50500000D03*
%TD*%
D18*
%TO.P,C4,1*%
%TO.N,+3.3V*%
X213500000Y-79067500D03*
%TO.P,C4,2*%
%TO.N,GND*%
X213500000Y-77932500D03*
%TD*%
D37*
%TO.P,C13,1*%
%TO.N,Net-(D1-K)*%
X174000000Y-87962500D03*
%TO.P,C13,2*%
%TO.N,GND*%
X174000000Y-90037500D03*
%TD*%
D38*
%TO.P,C1,1*%
%TO.N,+3.3V*%
X224775000Y-89500000D03*
%TO.P,C1,2*%
%TO.N,GND*%
X223225000Y-89500000D03*
%TD*%
D19*
%TO.P,R6,1*%
%TO.N,/PWR_LED_K*%
X191415000Y-86630000D03*
%TO.P,R6,2*%
%TO.N,GND*%
X192610000Y-86630000D03*
%TD*%
%TO.P,R3,1*%
%TO.N,Net-(R3-Pad1)*%
X213805000Y-87000000D03*
%TO.P,R3,2*%
%TO.N,/GPIO_INPUT_Button*%
X215000000Y-87000000D03*
%TD*%
D11*
%TO.P,R1,1*%
%TO.N,+3.3V*%
X236500000Y-87902500D03*
%TO.P,R1,2*%
%TO.N,/UART4_TX*%
X236500000Y-89097500D03*
%TD*%
D39*
%TO.P,D3,1,K*%
%TO.N,/PWR_LED_K*%
X191212500Y-89500000D03*
%TO.P,D3,2,A*%
%TO.N,+3.3V*%
X192787500Y-89500000D03*
%TD*%
D40*
%TO.P,Brd1,1,GND*%
%TO.N,GND*%
X170880000Y-94500000D03*
%TO.P,Brd1,2,VCC*%
%TO.N,+3.3V*%
X173420000Y-94500000D03*
%TO.P,Brd1,3,SCL*%
%TO.N,/I2C1_SCL*%
X175960000Y-94500000D03*
%TO.P,Brd1,4,SDA*%
%TO.N,/I2C1_SDA*%
X178500000Y-94500000D03*
%TD*%
D30*
%TO.P,S2,1*%
%TO.N,GND*%
X193750000Y-75250000D03*
D31*
%TO.P,S2,2*%
X200250000Y-75250000D03*
%TO.P,S2,3*%
%TO.N,Net-(R3-Pad1)*%
X193750000Y-79750000D03*
%TO.P,S2,4*%
X200250000Y-79750000D03*
%TD*%
D41*
%TO.P,C15,1*%
%TO.N,+3.3V*%
X185712500Y-87000000D03*
%TO.P,C15,2*%
%TO.N,GND*%
X187787500Y-87000000D03*
%TD*%
D42*
%TO.P,C14,1*%
%TO.N,/GPIO_INPUT_Button*%
X214162500Y-93000000D03*
%TO.P,C14,2*%
%TO.N,GND*%
X214837500Y-93000000D03*
%TD*%
D15*
%TO.P,C2,1*%
%TO.N,+3.3V*%
X230567500Y-84500000D03*
%TO.P,C2,2*%
%TO.N,GND*%
X229432500Y-84500000D03*
%TD*%
D43*
%TO.P,D4,1,K*%
%TO.N,/PWR_LED_K2*%
X191500000Y-52437500D03*
%TO.P,D4,2,A*%
%TO.N,Net-(D4-A)*%
X191500000Y-50562500D03*
%TD*%
D18*
%TO.P,C5,1*%
%TO.N,+3.3V*%
X213000000Y-73635000D03*
%TO.P,C5,2*%
%TO.N,GND*%
X213000000Y-72500000D03*
%TD*%
D44*
%TO.N,/I2C1_SCL*%
X219500000Y-64500000D03*
X212500000Y-65500000D03*
X191000000Y-72000000D03*
%TO.N,GND*%
X194000000Y-58500000D03*
X229175736Y-88675736D03*
X226500000Y-53000000D03*
X237000000Y-59000000D03*
X215500000Y-55000000D03*
X178250000Y-90250000D03*
X220500000Y-76000000D03*
X173000000Y-92000000D03*
X176500000Y-90000000D03*
X216500000Y-62000000D03*
X218000000Y-80000000D03*
X219000000Y-77500000D03*
%TO.N,/I2C1_SDA*%
X209500000Y-67500000D03*
X192000000Y-72000000D03*
X221000000Y-64000000D03*
%TO.N,+3.3V*%
X227000000Y-89500000D03*
X236750000Y-55250000D03*
X218250000Y-75250000D03*
X186000000Y-89000000D03*
X216250000Y-90250000D03*
X217828705Y-69828705D03*
X231500000Y-90000000D03*
X225750000Y-91250000D03*
X177500000Y-91000000D03*
X187500000Y-90000000D03*
X215000000Y-96000000D03*
%TO.N,/HSE_OUT*%
X207000000Y-75000000D03*
X209500000Y-74500000D03*
%TO.N,/NRST*%
X211000000Y-75000000D03*
X208500000Y-65000000D03*
X216950000Y-59500000D03*
X213500000Y-60000000D03*
%TO.N,/INA-*%
X174500000Y-83500000D03*
X183500000Y-79500000D03*
%TO.N,Net-(D4-A)*%
X183000000Y-55000000D03*
%TO.N,/I2C2_SCL*%
X236500000Y-79000000D03*
%TO.N,/I2C2_SDA*%
X228500000Y-88000000D03*
%TO.N,/I2C3_SDA*%
X212000000Y-77000000D03*
X208100000Y-91170000D03*
X208000000Y-84000000D03*
X210000000Y-83500000D03*
%TO.N,/INA+*%
X181000000Y-81000000D03*
X167000000Y-91500000D03*
X172000000Y-91000000D03*
%TO.N,/I2C3_SCL*%
X209000000Y-92810000D03*
X210955841Y-76152990D03*
%TO.N,/UART5_TX*%
X211500000Y-58000000D03*
X224253705Y-61746295D03*
X217012873Y-61012873D03*
%TO.N,/UART5_RX*%
X210500000Y-57000000D03*
%TO.N,/GPIO_SLEEP_XBEE*%
X212500000Y-59000000D03*
X219000000Y-61000000D03*
X215500000Y-58500000D03*
%TO.N,/UART4_TX*%
X219000000Y-91000000D03*
X214000000Y-81000000D03*
%TO.N,Net-(SW1-B)*%
X210000000Y-54000000D03*
X219000000Y-62900000D03*
%TO.N,/SWD_DIO*%
X237500000Y-71000000D03*
%TO.N,/SWD_CLK*%
X230000000Y-62500000D03*
%TO.N,Net-(R3-Pad1)*%
X207250000Y-86750000D03*
%TD*%
D45*
%TO.N,/I2C1_SCL*%
X211500000Y-66500000D02*
X196500000Y-66500000D01*
X196500000Y-66500000D02*
X191000000Y-72000000D01*
X212500000Y-65500000D02*
X211500000Y-66500000D01*
X220000000Y-65492590D02*
X219500000Y-64992590D01*
X219500000Y-64992590D02*
X219500000Y-64500000D01*
X220000000Y-66325000D02*
X220000000Y-65492590D01*
%TO.N,GND*%
X210500000Y-76932500D02*
X209567500Y-76000000D01*
X218432500Y-89067500D02*
X218432500Y-84000000D01*
X206635000Y-82000000D02*
X206025000Y-82610000D01*
X174000000Y-90037500D02*
X174000000Y-91000000D01*
X194000000Y-58000000D02*
X191500000Y-55500000D01*
X217578705Y-72078705D02*
X217157410Y-72500000D01*
X214000000Y-67067500D02*
X214000000Y-68390000D01*
X204610000Y-82610000D02*
X203300000Y-81300000D01*
X203300000Y-81300000D02*
X203300000Y-78300000D01*
X211067500Y-77932500D02*
X213500000Y-77932500D01*
X214560090Y-77932500D02*
X215492590Y-77000000D01*
X212734000Y-93734000D02*
X213000000Y-94000000D01*
X208000000Y-80000000D02*
X209000000Y-80000000D01*
X223225000Y-89500000D02*
X218865000Y-89500000D01*
X208350000Y-96000000D02*
X210616000Y-93734000D01*
X216325000Y-77000000D02*
X218500000Y-77000000D01*
X227134314Y-90717157D02*
X227134314Y-91214215D01*
X169000000Y-86500000D02*
X165000000Y-86500000D01*
X218500000Y-81675000D02*
X218500000Y-80842590D01*
X208000000Y-80000000D02*
X206635000Y-81365000D01*
X168800000Y-81800000D02*
X169500000Y-82500000D01*
X234932500Y-68500000D02*
X231675000Y-68500000D01*
X209000000Y-80000000D02*
X211067500Y-77932500D01*
X191500000Y-55500000D02*
X191500000Y-55097500D01*
X217578705Y-72078705D02*
X220500000Y-75000000D01*
X211567500Y-71067500D02*
X212500000Y-71067500D01*
X166900000Y-81800000D02*
X168800000Y-81800000D01*
X213000000Y-94000000D02*
X216000000Y-94000000D01*
X211500000Y-71000000D02*
X211567500Y-71067500D01*
X186412500Y-90037500D02*
X187950000Y-88500000D01*
X226248529Y-92100000D02*
X224100000Y-92100000D01*
X218500000Y-80842590D02*
X218000000Y-80342590D01*
X234067500Y-61932500D02*
X236000000Y-60000000D01*
X213890000Y-68500000D02*
X212500000Y-68500000D01*
X185615625Y-89653125D02*
X185268750Y-90000000D01*
X229500000Y-81675000D02*
X229500000Y-84432500D01*
X214000000Y-68390000D02*
X213890000Y-68500000D01*
X235848529Y-53000000D02*
X226500000Y-53000000D01*
X229175736Y-88675736D02*
X229175735Y-88675736D01*
X217157410Y-72500000D02*
X216325000Y-72500000D01*
X187950000Y-88500000D02*
X190000000Y-88500000D01*
X229432500Y-84500000D02*
X229432500Y-88418971D01*
X192450000Y-86470000D02*
X192450000Y-84000000D01*
X211500000Y-69500000D02*
X211500000Y-71000000D01*
X232567500Y-68500000D02*
X231675000Y-68500000D01*
X234067500Y-67000000D02*
X232567500Y-68500000D01*
X190000000Y-88500000D02*
X189450000Y-87950000D01*
X194000000Y-58500000D02*
X194000000Y-58000000D01*
X219000000Y-70657410D02*
X217578705Y-72078705D01*
X183612500Y-88325000D02*
X183612500Y-87675000D01*
X218500000Y-64000000D02*
X218500000Y-66325000D01*
X183612500Y-88975000D02*
X183612500Y-88325000D01*
X216000000Y-91500000D02*
X218432500Y-89067500D01*
X210500000Y-77365000D02*
X211067500Y-77932500D01*
X213100000Y-51650000D02*
X213100000Y-52600000D01*
X176462500Y-90037500D02*
X176500000Y-90000000D01*
X213100000Y-52600000D02*
X215500000Y-55000000D01*
X216000000Y-93000000D02*
X214837500Y-93000000D01*
X184937500Y-88975000D02*
X185731250Y-89768750D01*
X218000000Y-80342590D02*
X218000000Y-80000000D01*
X174000000Y-90037500D02*
X176462500Y-90037500D01*
X229175735Y-88675736D02*
X227134314Y-90717157D01*
X218500000Y-67157410D02*
X219000000Y-67657410D01*
X216500000Y-62000000D02*
X218500000Y-64000000D01*
X187787500Y-87000000D02*
X189450000Y-87000000D01*
X229432500Y-88418971D02*
X229175736Y-88675735D01*
X237600000Y-58400000D02*
X237600000Y-54751471D01*
X205800000Y-78300000D02*
X203300000Y-78300000D01*
X210616000Y-93734000D02*
X212734000Y-93734000D01*
X237600000Y-54751471D02*
X235848529Y-53000000D01*
X169500000Y-86000000D02*
X169000000Y-86500000D01*
X219000000Y-67657410D02*
X219000000Y-70657410D01*
X234067500Y-67000000D02*
X234067500Y-61932500D01*
X229500000Y-84432500D02*
X229432500Y-84500000D01*
X213000000Y-71567500D02*
X212500000Y-71067500D01*
X216325000Y-72500000D02*
X213000000Y-72500000D01*
X224100000Y-92100000D02*
X223225000Y-91225000D01*
X216000000Y-94000000D02*
X216000000Y-93000000D01*
X223225000Y-91225000D02*
X223225000Y-89500000D01*
X215492590Y-77000000D02*
X216325000Y-77000000D01*
X216000000Y-93000000D02*
X216000000Y-91500000D01*
X236000000Y-60000000D02*
X237600000Y-58400000D01*
X206025000Y-82610000D02*
X204610000Y-82610000D01*
X213500000Y-77932500D02*
X214560090Y-77932500D01*
X210500000Y-76932500D02*
X210500000Y-77365000D01*
X183612500Y-88975000D02*
X184937500Y-88975000D01*
X229175736Y-88675735D02*
X229175736Y-88675736D01*
X185268750Y-90000000D02*
X178500000Y-90000000D01*
X192450000Y-84000000D02*
X192000000Y-83550000D01*
X203300000Y-78300000D02*
X200250000Y-75250000D01*
X165000000Y-86500000D02*
X163500000Y-88000000D01*
X189450000Y-87950000D02*
X189450000Y-87000000D01*
X192610000Y-86630000D02*
X192450000Y-86470000D01*
X192000000Y-83550000D02*
X192000000Y-77000000D01*
X178500000Y-90000000D02*
X178250000Y-90250000D01*
X218432500Y-84000000D02*
X218500000Y-83932500D01*
X236000000Y-60000000D02*
X237000000Y-59000000D01*
X169500000Y-82500000D02*
X169500000Y-86000000D01*
X192000000Y-77000000D02*
X193750000Y-75250000D01*
X212500000Y-68500000D02*
X211500000Y-69500000D01*
X218500000Y-77000000D02*
X219000000Y-77500000D01*
X185731250Y-89768750D02*
X186000000Y-90037500D01*
X174000000Y-91000000D02*
X173000000Y-92000000D01*
X218865000Y-89500000D02*
X218432500Y-89067500D01*
X213000000Y-72500000D02*
X213000000Y-71567500D01*
X218500000Y-66325000D02*
X218500000Y-67157410D01*
X189450000Y-87000000D02*
X192450000Y-84000000D01*
X206635000Y-81365000D02*
X206635000Y-82000000D01*
X186000000Y-90037500D02*
X186412500Y-90037500D01*
X220500000Y-75000000D02*
X220500000Y-76000000D01*
X218500000Y-83932500D02*
X218500000Y-81675000D01*
X194000000Y-66000000D02*
X194000000Y-58500000D01*
X183612500Y-87025000D02*
X183612500Y-87675000D01*
X227134314Y-91214215D02*
X226248529Y-92100000D01*
X235000000Y-68432500D02*
X234932500Y-68500000D01*
%TO.N,/I2C1_SDA*%
X209500000Y-67500000D02*
X208500000Y-68500000D01*
X220500000Y-64500000D02*
X221000000Y-64000000D01*
X195500000Y-68500000D02*
X192000000Y-72000000D01*
X208500000Y-68500000D02*
X195500000Y-68500000D01*
X220500000Y-66325000D02*
X220500000Y-64500000D01*
%TO.N,+3.3V*%
X220500000Y-78307410D02*
X220500000Y-77500000D01*
X218000000Y-66325000D02*
X216607500Y-64932500D01*
X214000000Y-65932500D02*
X215607500Y-65932500D01*
X175212500Y-76500000D02*
X173500000Y-76500000D01*
X230000000Y-83932500D02*
X230567500Y-84500000D01*
X234432500Y-69000000D02*
X231675000Y-69000000D01*
X185712500Y-88712500D02*
X186000000Y-89000000D01*
X220500000Y-77500000D02*
X218250000Y-75250000D01*
X230421295Y-68421295D02*
X230421295Y-69421295D01*
X213500000Y-79067500D02*
X214067500Y-78500000D01*
X195650000Y-96000000D02*
X193110000Y-96000000D01*
X231675000Y-68000000D02*
X231932500Y-68000000D01*
X216325000Y-78500000D02*
X217157410Y-78500000D01*
X214500000Y-70500000D02*
X216325000Y-70500000D01*
X219000000Y-83432500D02*
X219000000Y-81675000D01*
X235000000Y-69567500D02*
X234432500Y-69000000D01*
X197150000Y-97500000D02*
X195650000Y-96000000D01*
X214000000Y-73635000D02*
X213000000Y-73635000D01*
X224775000Y-89500000D02*
X227000000Y-89500000D01*
X214067500Y-78500000D02*
X216325000Y-78500000D01*
X210890000Y-96000000D02*
X215000000Y-96000000D01*
X230842590Y-68000000D02*
X230421295Y-68421295D01*
X219000000Y-79807410D02*
X217425000Y-78232410D01*
X219000000Y-81675000D02*
X219000000Y-79807410D01*
X185712500Y-87000000D02*
X175212500Y-76500000D01*
X208600000Y-51650000D02*
X208600000Y-56167500D01*
X191787500Y-90500000D02*
X188000000Y-90500000D01*
X231932500Y-68000000D02*
X232932500Y-67000000D01*
X210890000Y-96000000D02*
X209390000Y-97500000D01*
X217157410Y-73000000D02*
X216325000Y-73000000D01*
X218250000Y-75250000D02*
X217425000Y-74425000D01*
X230000000Y-81675000D02*
X230000000Y-69842590D01*
X225750000Y-91250000D02*
X224775000Y-90275000D01*
X215500000Y-89500000D02*
X215097500Y-89500000D01*
X216325000Y-73000000D02*
X214635000Y-73000000D01*
X236750000Y-55250000D02*
X232932500Y-59067500D01*
X214500000Y-70500000D02*
X213932500Y-69932500D01*
X216250000Y-90250000D02*
X215500000Y-89500000D01*
X173500000Y-76500000D02*
X169500000Y-72500000D01*
X230842590Y-69000000D02*
X231675000Y-69000000D01*
X230000000Y-69842590D02*
X230421295Y-69421295D01*
X177500000Y-89481544D02*
X177500000Y-91000000D01*
X218000000Y-69657410D02*
X218000000Y-66325000D01*
X215500000Y-63825000D02*
X216607500Y-64932500D01*
X193110000Y-91822500D02*
X193110000Y-96000000D01*
X217157410Y-70500000D02*
X217828705Y-69828705D01*
X231500000Y-90000000D02*
X233597500Y-87902500D01*
X219000000Y-79807410D02*
X220500000Y-78307410D01*
X208600000Y-56167500D02*
X215500000Y-63067500D01*
X231500000Y-90000000D02*
X230567500Y-89067500D01*
X215500000Y-63067500D02*
X215500000Y-63825000D01*
X230421295Y-69421295D02*
X230842590Y-69000000D01*
X213932500Y-69932500D02*
X212500000Y-69932500D01*
X214635000Y-73000000D02*
X214000000Y-73635000D01*
X224775000Y-89500000D02*
X224775000Y-89207500D01*
X231675000Y-68000000D02*
X230842590Y-68000000D01*
X224775000Y-89207500D02*
X219567500Y-84000000D01*
X179387500Y-88325000D02*
X178656544Y-88325000D01*
X217425000Y-74425000D02*
X217425000Y-73267590D01*
X217425000Y-73267590D02*
X217157410Y-73000000D01*
X230000000Y-81675000D02*
X230000000Y-83932500D01*
X191787500Y-90500000D02*
X193110000Y-91822500D01*
X233597500Y-87902500D02*
X236500000Y-87902500D01*
X219567500Y-84000000D02*
X219000000Y-83432500D01*
X217828705Y-69828705D02*
X218000000Y-69657410D01*
X178656544Y-88325000D02*
X177500000Y-89481544D01*
X192787500Y-89500000D02*
X191787500Y-90500000D01*
X216607500Y-64932500D02*
X215607500Y-65932500D01*
X216325000Y-70500000D02*
X217157410Y-70500000D01*
X188000000Y-90500000D02*
X187500000Y-90000000D01*
X232932500Y-59067500D02*
X232932500Y-67000000D01*
X217157410Y-78500000D02*
X217425000Y-78232410D01*
X230567500Y-89067500D02*
X230567500Y-84500000D01*
X224775000Y-90275000D02*
X224775000Y-89500000D01*
X185712500Y-87000000D02*
X185712500Y-88712500D01*
X209390000Y-97500000D02*
X197150000Y-97500000D01*
%TO.N,/GPIO_INPUT_Button*%
X213902500Y-89500000D02*
X212500000Y-90902500D01*
X212500000Y-90902500D02*
X212500000Y-92500000D01*
X215000000Y-87000000D02*
X215000000Y-84675000D01*
X215000000Y-88402500D02*
X213902500Y-89500000D01*
X215000000Y-84675000D02*
X218000000Y-81675000D01*
X215000000Y-87000000D02*
X215000000Y-88402500D01*
X212500000Y-92500000D02*
X213000000Y-93000000D01*
X213000000Y-93000000D02*
X214162500Y-93000000D01*
%TO.N,/HSE_OUT*%
X206000000Y-80000000D02*
X207000000Y-79000000D01*
X212334314Y-74900000D02*
X213866372Y-74900000D01*
X214766372Y-74000000D02*
X216325000Y-74000000D01*
X209500000Y-74500000D02*
X210000000Y-74000000D01*
X205500000Y-81500000D02*
X205800000Y-81200000D01*
X205500000Y-82000000D02*
X205500000Y-81500000D01*
X213866372Y-74900000D02*
X214766372Y-74000000D01*
X211434314Y-74000000D02*
X212334314Y-74900000D01*
X207000000Y-79000000D02*
X207000000Y-75000000D01*
X210000000Y-74000000D02*
X211434314Y-74000000D01*
X205800000Y-80000000D02*
X206000000Y-80000000D01*
X205800000Y-81200000D02*
X205800000Y-80000000D01*
%TO.N,/HSE_IN*%
X212302500Y-74302500D02*
X213898186Y-74302500D01*
X214700686Y-73500000D02*
X216325000Y-73500000D01*
X209000000Y-73500000D02*
X211500000Y-73500000D01*
X208432500Y-74067500D02*
X209000000Y-73500000D01*
X211500000Y-73500000D02*
X212302500Y-74302500D01*
X208432500Y-76000000D02*
X208432500Y-77867500D01*
X213898186Y-74302500D02*
X214700686Y-73500000D01*
X208432500Y-77867500D02*
X208000000Y-78300000D01*
X208432500Y-76000000D02*
X208432500Y-74067500D01*
%TO.N,/NRST*%
X216950000Y-59500000D02*
X214000000Y-59500000D01*
X206500000Y-65500000D02*
X208000000Y-65500000D01*
X206000000Y-66000000D02*
X206500000Y-65500000D01*
X214000000Y-59500000D02*
X213500000Y-60000000D01*
X211500000Y-75500000D02*
X214000000Y-75500000D01*
X195135000Y-66000000D02*
X206000000Y-66000000D01*
X215000000Y-74500000D02*
X216325000Y-74500000D01*
X208000000Y-65500000D02*
X208500000Y-65000000D01*
X214000000Y-75500000D02*
X215000000Y-74500000D01*
X211000000Y-75000000D02*
X211500000Y-75500000D01*
%TO.N,/PWR_LED_K*%
X191415000Y-86630000D02*
X191415000Y-89297500D01*
X191415000Y-89297500D02*
X191212500Y-89500000D01*
%TO.N,/V_USB*%
X171650000Y-79200000D02*
X171850000Y-79000000D01*
X166900000Y-79200000D02*
X171650000Y-79200000D01*
%TO.N,/INA-*%
X186000000Y-78000000D02*
X185000000Y-78000000D01*
X167382843Y-86900000D02*
X169165686Y-86900000D01*
X186500000Y-77500000D02*
X186000000Y-78000000D01*
X167850000Y-89000000D02*
X167000000Y-89000000D01*
X172500000Y-83565686D02*
X172500000Y-83500000D01*
X166500000Y-88500000D02*
X166500000Y-87782843D01*
X185000000Y-78000000D02*
X183500000Y-79500000D01*
X167000000Y-89000000D02*
X166500000Y-88500000D01*
X169165686Y-86900000D02*
X172500000Y-83565686D01*
X166500000Y-87782843D02*
X167382843Y-86900000D01*
X172500000Y-83500000D02*
X174500000Y-83500000D01*
%TO.N,/PWR_LED_K2*%
X191500000Y-53902500D02*
X191500000Y-52437500D01*
%TO.N,Net-(D4-A)*%
X191500000Y-50562500D02*
X187062500Y-55000000D01*
X187062500Y-55000000D02*
X183000000Y-55000000D01*
%TO.N,/I2C2_SCL*%
X231675000Y-79000000D02*
X236500000Y-79000000D01*
%TO.N,/I2C2_SDA*%
X228500000Y-81675000D02*
X228500000Y-88000000D01*
%TO.N,/I2C3_SDA*%
X215492590Y-75500000D02*
X216325000Y-75500000D01*
X209000000Y-84000000D02*
X208000000Y-84000000D01*
X212500000Y-76500000D02*
X214492590Y-76500000D01*
X212000000Y-77000000D02*
X212500000Y-76500000D01*
X214492590Y-76500000D02*
X215492590Y-75500000D01*
X209500000Y-83500000D02*
X209000000Y-84000000D01*
X203270000Y-96000000D02*
X208100000Y-91170000D01*
X210000000Y-83500000D02*
X209500000Y-83500000D01*
%TO.N,/INA+*%
X167000000Y-91500000D02*
X171500000Y-91500000D01*
X171500000Y-91500000D02*
X172000000Y-91000000D01*
X182500000Y-80500000D02*
X182000000Y-81000000D01*
X182500000Y-79000000D02*
X182500000Y-80500000D01*
X183000000Y-78500000D02*
X182500000Y-79000000D01*
X183000000Y-78000000D02*
X183000000Y-78500000D01*
X182000000Y-81000000D02*
X181000000Y-81000000D01*
X180500000Y-77500000D02*
X182500000Y-77500000D01*
X182500000Y-77500000D02*
X183000000Y-78000000D01*
%TO.N,/I2C3_SCL*%
X205810000Y-96000000D02*
X207810000Y-94000000D01*
X215065686Y-75000000D02*
X216325000Y-75000000D01*
X209000000Y-93000000D02*
X209000000Y-92810000D01*
X211748529Y-76100000D02*
X211948529Y-75900000D01*
X208000000Y-94000000D02*
X209000000Y-93000000D01*
X211948529Y-75900000D02*
X214165686Y-75900000D01*
X211008831Y-76100000D02*
X211748529Y-76100000D01*
X207810000Y-94000000D02*
X208000000Y-94000000D01*
X214165686Y-75900000D02*
X215065686Y-75000000D01*
X210955841Y-76152990D02*
X211008831Y-76100000D01*
%TO.N,/UART5_TX*%
X217600000Y-57600000D02*
X217500000Y-57500000D01*
X211500000Y-57565686D02*
X211500000Y-58000000D01*
X217600000Y-60425746D02*
X217600000Y-57600000D01*
X228000000Y-65492590D02*
X228000000Y-66325000D01*
X217500000Y-57500000D02*
X217434314Y-57565686D01*
X224253705Y-61746295D02*
X228000000Y-65492590D01*
X217012873Y-61012873D02*
X217600000Y-60425746D01*
X217434314Y-57565686D02*
X211500000Y-57565686D01*
%TO.N,/UART5_RX*%
X223138784Y-62131374D02*
X226500000Y-65492590D01*
X218231373Y-62165687D02*
X223104471Y-62165687D01*
X223104471Y-62165687D02*
X223138784Y-62131374D01*
X218000000Y-61934314D02*
X218231373Y-62165687D01*
X210500000Y-57000000D02*
X210500000Y-56565686D01*
X210565686Y-56500000D02*
X218000000Y-56500000D01*
X210500000Y-56565686D02*
X210565686Y-56500000D01*
X218000000Y-56500000D02*
X218000000Y-61934314D01*
X226500000Y-65492590D02*
X226500000Y-66325000D01*
%TO.N,/GPIO_SLEEP_XBEE*%
X219000000Y-61000000D02*
X219200000Y-60800000D01*
X219200000Y-60800000D02*
X222800000Y-60800000D01*
X222800000Y-60800000D02*
X223000000Y-61000000D01*
X215500000Y-58500000D02*
X215000000Y-58000000D01*
X213500000Y-58000000D02*
X212500000Y-59000000D01*
X228500000Y-64500000D02*
X228500000Y-66325000D01*
X225000000Y-61000000D02*
X228500000Y-64500000D01*
X215000000Y-58000000D02*
X213500000Y-58000000D01*
X223000000Y-61000000D02*
X225000000Y-61000000D01*
%TO.N,/UART4_TX*%
X220500000Y-92500000D02*
X219000000Y-91000000D01*
X233097500Y-92500000D02*
X220500000Y-92500000D01*
X216325000Y-79000000D02*
X215492590Y-79000000D01*
X215492590Y-79000000D02*
X214000000Y-80492590D01*
X236500000Y-89097500D02*
X240367500Y-85230000D01*
X214000000Y-80492590D02*
X214000000Y-81000000D01*
X236500000Y-89097500D02*
X233097500Y-92500000D01*
X240367500Y-85230000D02*
X241500000Y-85230000D01*
%TO.N,Net-(SW1-B)*%
X219802500Y-62900000D02*
X219000000Y-62900000D01*
X210100000Y-51650000D02*
X210100000Y-53900000D01*
X220402500Y-63000000D02*
X219902500Y-63000000D01*
X210100000Y-53900000D02*
X210000000Y-54000000D01*
X219902500Y-63000000D02*
X219802500Y-62900000D01*
%TO.N,/BOOT0*%
X221000000Y-65492590D02*
X221992590Y-64500000D01*
X222500000Y-63000000D02*
X221597500Y-63000000D01*
X221992590Y-64500000D02*
X222500000Y-64500000D01*
X221000000Y-66325000D02*
X221000000Y-65492590D01*
X222500000Y-64500000D02*
X222500000Y-63000000D01*
%TO.N,/SWD_DIO*%
X233000000Y-69500000D02*
X234500000Y-71000000D01*
X231675000Y-69500000D02*
X233000000Y-69500000D01*
X234500000Y-71000000D02*
X237500000Y-71000000D01*
%TO.N,/SWD_CLK*%
X230000000Y-66325000D02*
X230000000Y-62500000D01*
%TO.N,Net-(D1-K)*%
X176287500Y-87675000D02*
X176000000Y-87962500D01*
X172962500Y-89000000D02*
X174000000Y-87962500D01*
X176000000Y-87962500D02*
X174000000Y-87962500D01*
X179387500Y-87675000D02*
X179387500Y-87025000D01*
X175150000Y-82787500D02*
X179387500Y-87025000D01*
X176287500Y-87675000D02*
X179387500Y-87675000D01*
X171150000Y-89000000D02*
X172962500Y-89000000D01*
X175150000Y-79000000D02*
X175150000Y-82787500D01*
%TO.N,Net-(R3-Pad1)*%
X213805000Y-87000000D02*
X207500000Y-87000000D01*
X207500000Y-87000000D02*
X207250000Y-86750000D01*
%TD*%
M02*
