%TF.GenerationSoftware,KiCad,Pcbnew,8.0.5*%
%TF.CreationDate,2024-11-27T11:34:08-05:00*%
%TF.ProjectId,Alfond PCB,416c666f-6e64-4205-9043-422e6b696361,rev?*%
%TF.SameCoordinates,Original*%
%TF.FileFunction,Drillmap*%
%TF.FilePolarity,Positive*%
%FSLAX45Y45*%
G04 Gerber Fmt 4.5, Leading zero omitted, Abs format (unit mm)*
G04 Created by KiCad (PCBNEW 8.0.5) date 2024-11-27 11:34:08*
%MOMM*%
%LPD*%
G01*
G04 APERTURE LIST*
%ADD10C,0.100000*%
%ADD11C,0.200000*%
G04 APERTURE END LIST*
D10*
X16100000Y-4800000D02*
X24550000Y-4800000D01*
X24550000Y-9800000D01*
X16100000Y-9800000D01*
X16100000Y-4800000D01*
D11*
D10*
X16685000Y-9135000D02*
X16715000Y-9165000D01*
X16715000Y-9135000D02*
X16685000Y-9165000D01*
X17185000Y-9085000D02*
X17215000Y-9115000D01*
X17215000Y-9085000D02*
X17185000Y-9115000D01*
X17285000Y-9185000D02*
X17315000Y-9215000D01*
X17315000Y-9185000D02*
X17285000Y-9215000D01*
X17435000Y-8335000D02*
X17465000Y-8365000D01*
X17465000Y-8335000D02*
X17435000Y-8365000D01*
X17635000Y-8985000D02*
X17665000Y-9015000D01*
X17665000Y-8985000D02*
X17635000Y-9015000D01*
X17735000Y-9085000D02*
X17765000Y-9115000D01*
X17765000Y-9085000D02*
X17735000Y-9115000D01*
X17810000Y-9010000D02*
X17840000Y-9040000D01*
X17840000Y-9010000D02*
X17810000Y-9040000D01*
X18085000Y-8085000D02*
X18115000Y-8115000D01*
X18115000Y-8085000D02*
X18085000Y-8115000D01*
X18285000Y-5485000D02*
X18315000Y-5515000D01*
X18315000Y-5485000D02*
X18285000Y-5515000D01*
X18335000Y-7935000D02*
X18365000Y-7965000D01*
X18365000Y-7935000D02*
X18335000Y-7965000D01*
X18585000Y-8885000D02*
X18615000Y-8915000D01*
X18615000Y-8885000D02*
X18585000Y-8915000D01*
X18735000Y-8985000D02*
X18765000Y-9015000D01*
X18765000Y-8985000D02*
X18735000Y-9015000D01*
X19085000Y-7185000D02*
X19115000Y-7215000D01*
X19115000Y-7185000D02*
X19085000Y-7215000D01*
X19185000Y-7185000D02*
X19215000Y-7215000D01*
X19215000Y-7185000D02*
X19185000Y-7215000D01*
X19385000Y-5835000D02*
X19415000Y-5865000D01*
X19415000Y-5835000D02*
X19385000Y-5865000D01*
X20685000Y-7485000D02*
X20715000Y-7515000D01*
X20715000Y-7485000D02*
X20685000Y-7515000D01*
X20710000Y-8660000D02*
X20740000Y-8690000D01*
X20740000Y-8660000D02*
X20710000Y-8690000D01*
X20785000Y-8385000D02*
X20815000Y-8415000D01*
X20815000Y-8385000D02*
X20785000Y-8415000D01*
X20795000Y-9102000D02*
X20825000Y-9132000D01*
X20825000Y-9102000D02*
X20795000Y-9132000D01*
X20835000Y-6485000D02*
X20865000Y-6515000D01*
X20865000Y-6485000D02*
X20835000Y-6515000D01*
X20885000Y-9266000D02*
X20915000Y-9296000D01*
X20915000Y-9266000D02*
X20885000Y-9296000D01*
X20935000Y-6735000D02*
X20965000Y-6765000D01*
X20965000Y-6735000D02*
X20935000Y-6765000D01*
X20935000Y-7435000D02*
X20965000Y-7465000D01*
X20965000Y-7435000D02*
X20935000Y-7465000D01*
X20985000Y-5385000D02*
X21015000Y-5415000D01*
X21015000Y-5385000D02*
X20985000Y-5415000D01*
X20985000Y-8335000D02*
X21015000Y-8365000D01*
X21015000Y-8335000D02*
X20985000Y-8365000D01*
X21035000Y-5685000D02*
X21065000Y-5715000D01*
X21065000Y-5685000D02*
X21035000Y-5715000D01*
X21080584Y-7600299D02*
X21110584Y-7630299D01*
X21110584Y-7600299D02*
X21080584Y-7630299D01*
X21085000Y-7485000D02*
X21115000Y-7515000D01*
X21115000Y-7485000D02*
X21085000Y-7515000D01*
X21135000Y-5785000D02*
X21165000Y-5815000D01*
X21165000Y-5785000D02*
X21135000Y-5815000D01*
X21185000Y-7685000D02*
X21215000Y-7715000D01*
X21215000Y-7685000D02*
X21185000Y-7715000D01*
X21235000Y-5885000D02*
X21265000Y-5915000D01*
X21265000Y-5885000D02*
X21235000Y-5915000D01*
X21235000Y-6535000D02*
X21265000Y-6565000D01*
X21265000Y-6535000D02*
X21235000Y-6565000D01*
X21335000Y-5985000D02*
X21365000Y-6015000D01*
X21365000Y-5985000D02*
X21335000Y-6015000D01*
X21385000Y-8085000D02*
X21415000Y-8115000D01*
X21415000Y-8085000D02*
X21385000Y-8115000D01*
X21485000Y-9585000D02*
X21515000Y-9615000D01*
X21515000Y-9585000D02*
X21485000Y-9615000D01*
X21535000Y-5485000D02*
X21565000Y-5515000D01*
X21565000Y-5485000D02*
X21535000Y-5515000D01*
X21535000Y-5835000D02*
X21565000Y-5865000D01*
X21565000Y-5835000D02*
X21535000Y-5865000D01*
X21610000Y-9010000D02*
X21640000Y-9040000D01*
X21640000Y-9010000D02*
X21610000Y-9040000D01*
X21635000Y-6185000D02*
X21665000Y-6215000D01*
X21665000Y-6185000D02*
X21635000Y-6215000D01*
X21680000Y-5935000D02*
X21710000Y-5965000D01*
X21710000Y-5935000D02*
X21680000Y-5965000D01*
X21686287Y-6086287D02*
X21716287Y-6116287D01*
X21716287Y-6086287D02*
X21686287Y-6116287D01*
X21767871Y-6967870D02*
X21797871Y-6997870D01*
X21797871Y-6967870D02*
X21767871Y-6997870D01*
X21785000Y-7985000D02*
X21815000Y-8015000D01*
X21815000Y-7985000D02*
X21785000Y-8015000D01*
X21810000Y-7510000D02*
X21840000Y-7540000D01*
X21840000Y-7510000D02*
X21810000Y-7540000D01*
X21885000Y-6085000D02*
X21915000Y-6115000D01*
X21915000Y-6085000D02*
X21885000Y-6115000D01*
X21885000Y-6275000D02*
X21915000Y-6305000D01*
X21915000Y-6275000D02*
X21885000Y-6305000D01*
X21885000Y-7735000D02*
X21915000Y-7765000D01*
X21915000Y-7735000D02*
X21885000Y-7765000D01*
X21885000Y-9085000D02*
X21915000Y-9115000D01*
X21915000Y-9085000D02*
X21885000Y-9115000D01*
X21935000Y-6435000D02*
X21965000Y-6465000D01*
X21965000Y-6435000D02*
X21935000Y-6465000D01*
X22035000Y-7585000D02*
X22065000Y-7615000D01*
X22065000Y-7585000D02*
X22035000Y-7615000D01*
X22085000Y-6385000D02*
X22115000Y-6415000D01*
X22115000Y-6385000D02*
X22085000Y-6415000D01*
X22410370Y-6159629D02*
X22440370Y-6189629D01*
X22440370Y-6159629D02*
X22410370Y-6189629D01*
X22560000Y-9110000D02*
X22590000Y-9140000D01*
X22590000Y-9110000D02*
X22560000Y-9140000D01*
X22635000Y-5285000D02*
X22665000Y-5315000D01*
X22665000Y-5285000D02*
X22635000Y-5315000D01*
X22685000Y-8935000D02*
X22715000Y-8965000D01*
X22715000Y-8935000D02*
X22685000Y-8965000D01*
X22835000Y-8785000D02*
X22865000Y-8815000D01*
X22865000Y-8785000D02*
X22835000Y-8815000D01*
X22902574Y-8852574D02*
X22932574Y-8882574D01*
X22932574Y-8852574D02*
X22902574Y-8882574D01*
X22985000Y-6235000D02*
X23015000Y-6265000D01*
X23015000Y-6235000D02*
X22985000Y-6265000D01*
X23135000Y-8985000D02*
X23165000Y-9015000D01*
X23165000Y-8985000D02*
X23135000Y-9015000D01*
X23635000Y-7885000D02*
X23665000Y-7915000D01*
X23665000Y-7885000D02*
X23635000Y-7915000D01*
X23660000Y-5510000D02*
X23690000Y-5540000D01*
X23690000Y-5510000D02*
X23660000Y-5540000D01*
X23685000Y-5885000D02*
X23715000Y-5915000D01*
X23715000Y-5885000D02*
X23685000Y-5915000D01*
X23735000Y-7085000D02*
X23765000Y-7115000D01*
X23765000Y-7085000D02*
X23735000Y-7115000D01*
X16332500Y-7662500D02*
G75*
G02*
X16277500Y-7662500I-27500J0D01*
G01*
X16277500Y-7662500D02*
G75*
G02*
X16332500Y-7662500I27500J0D01*
G01*
X16337500Y-7635000D02*
X16272500Y-7635000D01*
X16272500Y-7690000D02*
G75*
G02*
X16272500Y-7635000I0J27500D01*
G01*
X16272500Y-7690000D02*
X16337500Y-7690000D01*
X16337500Y-7690000D02*
G75*
G03*
X16337500Y-7635000I0J27500D01*
G01*
X16332500Y-8437500D02*
G75*
G02*
X16277500Y-8437500I-27500J0D01*
G01*
X16277500Y-8437500D02*
G75*
G02*
X16332500Y-8437500I27500J0D01*
G01*
X16337500Y-8410000D02*
X16272500Y-8410000D01*
X16272500Y-8465000D02*
G75*
G02*
X16272500Y-8410000I0J27500D01*
G01*
X16272500Y-8465000D02*
X16337500Y-8465000D01*
X16337500Y-8465000D02*
G75*
G03*
X16337500Y-8410000I0J27500D01*
G01*
X16950000Y-5015000D02*
X16950000Y-5085000D01*
X16915000Y-5050000D02*
X16985000Y-5050000D01*
X16950000Y-7215000D02*
X16950000Y-7285000D01*
X16915000Y-7250000D02*
X16985000Y-7250000D01*
X17150000Y-5015000D02*
X17150000Y-5085000D01*
X17115000Y-5050000D02*
X17185000Y-5050000D01*
X17150000Y-7215000D02*
X17150000Y-7285000D01*
X17115000Y-7250000D02*
X17185000Y-7250000D01*
X17350000Y-5015000D02*
X17350000Y-5085000D01*
X17315000Y-5050000D02*
X17385000Y-5050000D01*
X17350000Y-7215000D02*
X17350000Y-7285000D01*
X17315000Y-7250000D02*
X17385000Y-7250000D01*
X17550000Y-5015000D02*
X17550000Y-5085000D01*
X17515000Y-5050000D02*
X17585000Y-5050000D01*
X17550000Y-7215000D02*
X17550000Y-7285000D01*
X17515000Y-7250000D02*
X17585000Y-7250000D01*
X17750000Y-5015000D02*
X17750000Y-5085000D01*
X17715000Y-5050000D02*
X17785000Y-5050000D01*
X17750000Y-7215000D02*
X17750000Y-7285000D01*
X17715000Y-7250000D02*
X17785000Y-7250000D01*
X17950000Y-5015000D02*
X17950000Y-5085000D01*
X17915000Y-5050000D02*
X17985000Y-5050000D01*
X17950000Y-7215000D02*
X17950000Y-7285000D01*
X17915000Y-7250000D02*
X17985000Y-7250000D01*
X18150000Y-5015000D02*
X18150000Y-5085000D01*
X18115000Y-5050000D02*
X18185000Y-5050000D01*
X18150000Y-7215000D02*
X18150000Y-7285000D01*
X18115000Y-7250000D02*
X18185000Y-7250000D01*
X18350000Y-5015000D02*
X18350000Y-5085000D01*
X18315000Y-5050000D02*
X18385000Y-5050000D01*
X18350000Y-7215000D02*
X18350000Y-7285000D01*
X18315000Y-7250000D02*
X18385000Y-7250000D01*
X18550000Y-5015000D02*
X18550000Y-5085000D01*
X18515000Y-5050000D02*
X18585000Y-5050000D01*
X18550000Y-7215000D02*
X18550000Y-7285000D01*
X18515000Y-7250000D02*
X18585000Y-7250000D01*
X18750000Y-5015000D02*
X18750000Y-5085000D01*
X18715000Y-5050000D02*
X18785000Y-5050000D01*
X18750000Y-7215000D02*
X18750000Y-7285000D01*
X18715000Y-7250000D02*
X18785000Y-7250000D01*
X24176517Y-8422517D02*
X24176517Y-8369483D01*
X24123483Y-8369483D01*
X24123483Y-8422517D01*
X24176517Y-8422517D01*
X24176517Y-8549517D02*
X24176517Y-8496483D01*
X24123483Y-8496483D01*
X24123483Y-8549517D01*
X24176517Y-8549517D01*
X24176517Y-8676517D02*
X24176517Y-8623483D01*
X24123483Y-8623483D01*
X24123483Y-8676517D01*
X24176517Y-8676517D01*
X16685000Y-7720000D02*
X16727500Y-7677500D01*
X16685000Y-7635000D01*
X16642500Y-7677500D01*
X16685000Y-7720000D01*
X16712500Y-7635000D02*
X16657500Y-7635000D01*
X16657500Y-7720000D02*
G75*
G02*
X16657500Y-7635000I0J42500D01*
G01*
X16657500Y-7720000D02*
X16712500Y-7720000D01*
X16712500Y-7720000D02*
G75*
G03*
X16712500Y-7635000I0J42500D01*
G01*
X16685000Y-8465000D02*
X16727500Y-8422500D01*
X16685000Y-8380000D01*
X16642500Y-8422500D01*
X16685000Y-8465000D01*
X16712500Y-8380000D02*
X16657500Y-8380000D01*
X16657500Y-8465000D02*
G75*
G02*
X16657500Y-8380000I0J42500D01*
G01*
X16657500Y-8465000D02*
X16712500Y-8465000D01*
X16712500Y-8465000D02*
G75*
G03*
X16712500Y-8380000I0J42500D01*
G01*
X16300000Y-8750000D02*
X16400000Y-8850000D01*
X16400000Y-8750000D02*
X16300000Y-8850000D01*
X16400000Y-8800000D02*
G75*
G02*
X16300000Y-8800000I-50000J0D01*
G01*
X16300000Y-8800000D02*
G75*
G02*
X16400000Y-8800000I50000J0D01*
G01*
X16300000Y-8950000D02*
X16400000Y-9050000D01*
X16400000Y-8950000D02*
X16300000Y-9050000D01*
X16400000Y-9000000D02*
G75*
G02*
X16300000Y-9000000I-50000J0D01*
G01*
X16300000Y-9000000D02*
G75*
G02*
X16400000Y-9000000I50000J0D01*
G01*
X17038000Y-9400000D02*
X17138000Y-9500000D01*
X17138000Y-9400000D02*
X17038000Y-9500000D01*
X17138000Y-9450000D02*
G75*
G02*
X17038000Y-9450000I-50000J0D01*
G01*
X17038000Y-9450000D02*
G75*
G02*
X17138000Y-9450000I50000J0D01*
G01*
X17292000Y-9400000D02*
X17392000Y-9500000D01*
X17392000Y-9400000D02*
X17292000Y-9500000D01*
X17392000Y-9450000D02*
G75*
G02*
X17292000Y-9450000I-50000J0D01*
G01*
X17292000Y-9450000D02*
G75*
G02*
X17392000Y-9450000I50000J0D01*
G01*
X17546000Y-9400000D02*
X17646000Y-9500000D01*
X17646000Y-9400000D02*
X17546000Y-9500000D01*
X17646000Y-9450000D02*
G75*
G02*
X17546000Y-9450000I-50000J0D01*
G01*
X17546000Y-9450000D02*
G75*
G02*
X17646000Y-9450000I50000J0D01*
G01*
X17800000Y-9400000D02*
X17900000Y-9500000D01*
X17900000Y-9400000D02*
X17800000Y-9500000D01*
X17900000Y-9450000D02*
G75*
G02*
X17800000Y-9450000I-50000J0D01*
G01*
X17800000Y-9450000D02*
G75*
G02*
X17900000Y-9450000I50000J0D01*
G01*
X18000000Y-7700000D02*
X18100000Y-7800000D01*
X18100000Y-7700000D02*
X18000000Y-7800000D01*
X18100000Y-7750000D02*
G75*
G02*
X18000000Y-7750000I-50000J0D01*
G01*
X18000000Y-7750000D02*
G75*
G02*
X18100000Y-7750000I50000J0D01*
G01*
X18600000Y-7700000D02*
X18700000Y-7800000D01*
X18700000Y-7700000D02*
X18600000Y-7800000D01*
X18700000Y-7750000D02*
G75*
G02*
X18600000Y-7750000I-50000J0D01*
G01*
X18600000Y-7750000D02*
G75*
G02*
X18700000Y-7750000I50000J0D01*
G01*
X19261000Y-9550000D02*
X19361000Y-9650000D01*
X19361000Y-9550000D02*
X19261000Y-9650000D01*
X19361000Y-9600000D02*
G75*
G02*
X19261000Y-9600000I-50000J0D01*
G01*
X19261000Y-9600000D02*
G75*
G02*
X19361000Y-9600000I50000J0D01*
G01*
X19325000Y-7475000D02*
X19425000Y-7575000D01*
X19425000Y-7475000D02*
X19325000Y-7575000D01*
X19425000Y-7525000D02*
G75*
G02*
X19325000Y-7525000I-50000J0D01*
G01*
X19325000Y-7525000D02*
G75*
G02*
X19425000Y-7525000I50000J0D01*
G01*
X19325000Y-7925000D02*
X19425000Y-8025000D01*
X19425000Y-7925000D02*
X19325000Y-8025000D01*
X19425000Y-7975000D02*
G75*
G02*
X19325000Y-7975000I-50000J0D01*
G01*
X19325000Y-7975000D02*
G75*
G02*
X19425000Y-7975000I50000J0D01*
G01*
X19515000Y-9550000D02*
X19615000Y-9650000D01*
X19615000Y-9550000D02*
X19515000Y-9650000D01*
X19615000Y-9600000D02*
G75*
G02*
X19515000Y-9600000I-50000J0D01*
G01*
X19515000Y-9600000D02*
G75*
G02*
X19615000Y-9600000I50000J0D01*
G01*
X19769000Y-9550000D02*
X19869000Y-9650000D01*
X19869000Y-9550000D02*
X19769000Y-9650000D01*
X19869000Y-9600000D02*
G75*
G02*
X19769000Y-9600000I-50000J0D01*
G01*
X19769000Y-9600000D02*
G75*
G02*
X19869000Y-9600000I50000J0D01*
G01*
X19975000Y-7475000D02*
X20075000Y-7575000D01*
X20075000Y-7475000D02*
X19975000Y-7575000D01*
X20075000Y-7525000D02*
G75*
G02*
X19975000Y-7525000I-50000J0D01*
G01*
X19975000Y-7525000D02*
G75*
G02*
X20075000Y-7525000I50000J0D01*
G01*
X19975000Y-7925000D02*
X20075000Y-8025000D01*
X20075000Y-7925000D02*
X19975000Y-8025000D01*
X20075000Y-7975000D02*
G75*
G02*
X19975000Y-7975000I-50000J0D01*
G01*
X19975000Y-7975000D02*
G75*
G02*
X20075000Y-7975000I50000J0D01*
G01*
X20023000Y-9550000D02*
X20123000Y-9650000D01*
X20123000Y-9550000D02*
X20023000Y-9650000D01*
X20123000Y-9600000D02*
G75*
G02*
X20023000Y-9600000I-50000J0D01*
G01*
X20023000Y-9600000D02*
G75*
G02*
X20123000Y-9600000I50000J0D01*
G01*
X20277000Y-9550000D02*
X20377000Y-9650000D01*
X20377000Y-9550000D02*
X20277000Y-9650000D01*
X20377000Y-9600000D02*
G75*
G02*
X20277000Y-9600000I-50000J0D01*
G01*
X20277000Y-9600000D02*
G75*
G02*
X20377000Y-9600000I50000J0D01*
G01*
X20531000Y-9550000D02*
X20631000Y-9650000D01*
X20631000Y-9550000D02*
X20531000Y-9650000D01*
X20631000Y-9600000D02*
G75*
G02*
X20531000Y-9600000I-50000J0D01*
G01*
X20531000Y-9600000D02*
G75*
G02*
X20631000Y-9600000I50000J0D01*
G01*
X20785000Y-9550000D02*
X20885000Y-9650000D01*
X20885000Y-9550000D02*
X20785000Y-9650000D01*
X20885000Y-9600000D02*
G75*
G02*
X20785000Y-9600000I-50000J0D01*
G01*
X20785000Y-9600000D02*
G75*
G02*
X20885000Y-9600000I50000J0D01*
G01*
X21039000Y-9550000D02*
X21139000Y-9650000D01*
X21139000Y-9550000D02*
X21039000Y-9650000D01*
X21139000Y-9600000D02*
G75*
G02*
X21039000Y-9600000I-50000J0D01*
G01*
X21039000Y-9600000D02*
G75*
G02*
X21139000Y-9600000I50000J0D01*
G01*
X21925000Y-5425000D02*
X22025000Y-5525000D01*
X22025000Y-5425000D02*
X21925000Y-5525000D01*
X22025000Y-5475000D02*
G75*
G02*
X21925000Y-5475000I-50000J0D01*
G01*
X21925000Y-5475000D02*
G75*
G02*
X22025000Y-5475000I50000J0D01*
G01*
X21925000Y-5875000D02*
X22025000Y-5975000D01*
X22025000Y-5875000D02*
X21925000Y-5975000D01*
X22025000Y-5925000D02*
G75*
G02*
X21925000Y-5925000I-50000J0D01*
G01*
X21925000Y-5925000D02*
G75*
G02*
X22025000Y-5925000I50000J0D01*
G01*
X22288000Y-5000000D02*
X22388000Y-5100000D01*
X22388000Y-5000000D02*
X22288000Y-5100000D01*
X22388000Y-5050000D02*
G75*
G02*
X22288000Y-5050000I-50000J0D01*
G01*
X22288000Y-5050000D02*
G75*
G02*
X22388000Y-5050000I50000J0D01*
G01*
X22542000Y-5000000D02*
X22642000Y-5100000D01*
X22642000Y-5000000D02*
X22542000Y-5100000D01*
X22642000Y-5050000D02*
G75*
G02*
X22542000Y-5050000I-50000J0D01*
G01*
X22542000Y-5050000D02*
G75*
G02*
X22642000Y-5050000I50000J0D01*
G01*
X22575000Y-5425000D02*
X22675000Y-5525000D01*
X22675000Y-5425000D02*
X22575000Y-5525000D01*
X22675000Y-5475000D02*
G75*
G02*
X22575000Y-5475000I-50000J0D01*
G01*
X22575000Y-5475000D02*
G75*
G02*
X22675000Y-5475000I50000J0D01*
G01*
X22575000Y-5875000D02*
X22675000Y-5975000D01*
X22675000Y-5875000D02*
X22575000Y-5975000D01*
X22675000Y-5925000D02*
G75*
G02*
X22575000Y-5925000I-50000J0D01*
G01*
X22575000Y-5925000D02*
G75*
G02*
X22675000Y-5925000I50000J0D01*
G01*
X22796000Y-5000000D02*
X22896000Y-5100000D01*
X22896000Y-5000000D02*
X22796000Y-5100000D01*
X22896000Y-5050000D02*
G75*
G02*
X22796000Y-5050000I-50000J0D01*
G01*
X22796000Y-5050000D02*
G75*
G02*
X22896000Y-5050000I50000J0D01*
G01*
X23050000Y-5000000D02*
X23150000Y-5100000D01*
X23150000Y-5000000D02*
X23050000Y-5100000D01*
X23150000Y-5050000D02*
G75*
G02*
X23050000Y-5050000I-50000J0D01*
G01*
X23050000Y-5050000D02*
G75*
G02*
X23150000Y-5050000I50000J0D01*
G01*
X23304000Y-5000000D02*
X23404000Y-5100000D01*
X23404000Y-5000000D02*
X23304000Y-5100000D01*
X23404000Y-5050000D02*
G75*
G02*
X23304000Y-5050000I-50000J0D01*
G01*
X23304000Y-5050000D02*
G75*
G02*
X23404000Y-5050000I50000J0D01*
G01*
X24200000Y-5188000D02*
X24300000Y-5288000D01*
X24300000Y-5188000D02*
X24200000Y-5288000D01*
X24300000Y-5238000D02*
G75*
G02*
X24200000Y-5238000I-50000J0D01*
G01*
X24200000Y-5238000D02*
G75*
G02*
X24300000Y-5238000I50000J0D01*
G01*
X24200000Y-5442000D02*
X24300000Y-5542000D01*
X24300000Y-5442000D02*
X24200000Y-5542000D01*
X24300000Y-5492000D02*
G75*
G02*
X24200000Y-5492000I-50000J0D01*
G01*
X24200000Y-5492000D02*
G75*
G02*
X24300000Y-5492000I50000J0D01*
G01*
X24200000Y-5696000D02*
X24300000Y-5796000D01*
X24300000Y-5696000D02*
X24200000Y-5796000D01*
X24300000Y-5746000D02*
G75*
G02*
X24200000Y-5746000I-50000J0D01*
G01*
X24200000Y-5746000D02*
G75*
G02*
X24300000Y-5746000I50000J0D01*
G01*
X24200000Y-5950000D02*
X24300000Y-6050000D01*
X24300000Y-5950000D02*
X24200000Y-6050000D01*
X24300000Y-6000000D02*
G75*
G02*
X24200000Y-6000000I-50000J0D01*
G01*
X24200000Y-6000000D02*
G75*
G02*
X24300000Y-6000000I50000J0D01*
G01*
X24200000Y-6204000D02*
X24300000Y-6304000D01*
X24300000Y-6204000D02*
X24200000Y-6304000D01*
X24300000Y-6254000D02*
G75*
G02*
X24200000Y-6254000I-50000J0D01*
G01*
X24200000Y-6254000D02*
G75*
G02*
X24300000Y-6254000I50000J0D01*
G01*
D11*
X16355777Y-10116484D02*
X16355777Y-9916484D01*
X16355777Y-9916484D02*
X16403396Y-9916484D01*
X16403396Y-9916484D02*
X16431967Y-9926008D01*
X16431967Y-9926008D02*
X16451015Y-9945055D01*
X16451015Y-9945055D02*
X16460539Y-9964103D01*
X16460539Y-9964103D02*
X16470062Y-10002198D01*
X16470062Y-10002198D02*
X16470062Y-10030770D01*
X16470062Y-10030770D02*
X16460539Y-10068865D01*
X16460539Y-10068865D02*
X16451015Y-10087912D01*
X16451015Y-10087912D02*
X16431967Y-10106960D01*
X16431967Y-10106960D02*
X16403396Y-10116484D01*
X16403396Y-10116484D02*
X16355777Y-10116484D01*
X16555777Y-10116484D02*
X16555777Y-9983150D01*
X16555777Y-10021246D02*
X16565301Y-10002198D01*
X16565301Y-10002198D02*
X16574824Y-9992674D01*
X16574824Y-9992674D02*
X16593872Y-9983150D01*
X16593872Y-9983150D02*
X16612920Y-9983150D01*
X16679586Y-10116484D02*
X16679586Y-9983150D01*
X16679586Y-9916484D02*
X16670062Y-9926008D01*
X16670062Y-9926008D02*
X16679586Y-9935531D01*
X16679586Y-9935531D02*
X16689110Y-9926008D01*
X16689110Y-9926008D02*
X16679586Y-9916484D01*
X16679586Y-9916484D02*
X16679586Y-9935531D01*
X16803396Y-10116484D02*
X16784348Y-10106960D01*
X16784348Y-10106960D02*
X16774824Y-10087912D01*
X16774824Y-10087912D02*
X16774824Y-9916484D01*
X16908158Y-10116484D02*
X16889110Y-10106960D01*
X16889110Y-10106960D02*
X16879586Y-10087912D01*
X16879586Y-10087912D02*
X16879586Y-9916484D01*
X17136729Y-10116484D02*
X17136729Y-9916484D01*
X17136729Y-9916484D02*
X17203396Y-10059341D01*
X17203396Y-10059341D02*
X17270063Y-9916484D01*
X17270063Y-9916484D02*
X17270063Y-10116484D01*
X17451015Y-10116484D02*
X17451015Y-10011722D01*
X17451015Y-10011722D02*
X17441491Y-9992674D01*
X17441491Y-9992674D02*
X17422444Y-9983150D01*
X17422444Y-9983150D02*
X17384348Y-9983150D01*
X17384348Y-9983150D02*
X17365301Y-9992674D01*
X17451015Y-10106960D02*
X17431967Y-10116484D01*
X17431967Y-10116484D02*
X17384348Y-10116484D01*
X17384348Y-10116484D02*
X17365301Y-10106960D01*
X17365301Y-10106960D02*
X17355777Y-10087912D01*
X17355777Y-10087912D02*
X17355777Y-10068865D01*
X17355777Y-10068865D02*
X17365301Y-10049817D01*
X17365301Y-10049817D02*
X17384348Y-10040293D01*
X17384348Y-10040293D02*
X17431967Y-10040293D01*
X17431967Y-10040293D02*
X17451015Y-10030770D01*
X17546253Y-9983150D02*
X17546253Y-10183150D01*
X17546253Y-9992674D02*
X17565301Y-9983150D01*
X17565301Y-9983150D02*
X17603396Y-9983150D01*
X17603396Y-9983150D02*
X17622444Y-9992674D01*
X17622444Y-9992674D02*
X17631967Y-10002198D01*
X17631967Y-10002198D02*
X17641491Y-10021246D01*
X17641491Y-10021246D02*
X17641491Y-10078389D01*
X17641491Y-10078389D02*
X17631967Y-10097436D01*
X17631967Y-10097436D02*
X17622444Y-10106960D01*
X17622444Y-10106960D02*
X17603396Y-10116484D01*
X17603396Y-10116484D02*
X17565301Y-10116484D01*
X17565301Y-10116484D02*
X17546253Y-10106960D01*
X17727205Y-10097436D02*
X17736729Y-10106960D01*
X17736729Y-10106960D02*
X17727205Y-10116484D01*
X17727205Y-10116484D02*
X17717682Y-10106960D01*
X17717682Y-10106960D02*
X17727205Y-10097436D01*
X17727205Y-10097436D02*
X17727205Y-10116484D01*
X17727205Y-9992674D02*
X17736729Y-10002198D01*
X17736729Y-10002198D02*
X17727205Y-10011722D01*
X17727205Y-10011722D02*
X17717682Y-10002198D01*
X17717682Y-10002198D02*
X17727205Y-9992674D01*
X17727205Y-9992674D02*
X17727205Y-10011722D01*
D10*
X16065000Y-10430000D02*
X16095000Y-10460000D01*
X16095000Y-10430000D02*
X16065000Y-10460000D01*
D11*
X16393872Y-10336484D02*
X16412920Y-10336484D01*
X16412920Y-10336484D02*
X16431967Y-10346008D01*
X16431967Y-10346008D02*
X16441491Y-10355531D01*
X16441491Y-10355531D02*
X16451015Y-10374579D01*
X16451015Y-10374579D02*
X16460539Y-10412674D01*
X16460539Y-10412674D02*
X16460539Y-10460293D01*
X16460539Y-10460293D02*
X16451015Y-10498389D01*
X16451015Y-10498389D02*
X16441491Y-10517436D01*
X16441491Y-10517436D02*
X16431967Y-10526960D01*
X16431967Y-10526960D02*
X16412920Y-10536484D01*
X16412920Y-10536484D02*
X16393872Y-10536484D01*
X16393872Y-10536484D02*
X16374824Y-10526960D01*
X16374824Y-10526960D02*
X16365301Y-10517436D01*
X16365301Y-10517436D02*
X16355777Y-10498389D01*
X16355777Y-10498389D02*
X16346253Y-10460293D01*
X16346253Y-10460293D02*
X16346253Y-10412674D01*
X16346253Y-10412674D02*
X16355777Y-10374579D01*
X16355777Y-10374579D02*
X16365301Y-10355531D01*
X16365301Y-10355531D02*
X16374824Y-10346008D01*
X16374824Y-10346008D02*
X16393872Y-10336484D01*
X16546253Y-10517436D02*
X16555777Y-10526960D01*
X16555777Y-10526960D02*
X16546253Y-10536484D01*
X16546253Y-10536484D02*
X16536729Y-10526960D01*
X16536729Y-10526960D02*
X16546253Y-10517436D01*
X16546253Y-10517436D02*
X16546253Y-10536484D01*
X16622443Y-10336484D02*
X16746253Y-10336484D01*
X16746253Y-10336484D02*
X16679586Y-10412674D01*
X16679586Y-10412674D02*
X16708158Y-10412674D01*
X16708158Y-10412674D02*
X16727205Y-10422198D01*
X16727205Y-10422198D02*
X16736729Y-10431722D01*
X16736729Y-10431722D02*
X16746253Y-10450770D01*
X16746253Y-10450770D02*
X16746253Y-10498389D01*
X16746253Y-10498389D02*
X16736729Y-10517436D01*
X16736729Y-10517436D02*
X16727205Y-10526960D01*
X16727205Y-10526960D02*
X16708158Y-10536484D01*
X16708158Y-10536484D02*
X16651015Y-10536484D01*
X16651015Y-10536484D02*
X16631967Y-10526960D01*
X16631967Y-10526960D02*
X16622443Y-10517436D01*
X16870063Y-10336484D02*
X16889110Y-10336484D01*
X16889110Y-10336484D02*
X16908158Y-10346008D01*
X16908158Y-10346008D02*
X16917682Y-10355531D01*
X16917682Y-10355531D02*
X16927205Y-10374579D01*
X16927205Y-10374579D02*
X16936729Y-10412674D01*
X16936729Y-10412674D02*
X16936729Y-10460293D01*
X16936729Y-10460293D02*
X16927205Y-10498389D01*
X16927205Y-10498389D02*
X16917682Y-10517436D01*
X16917682Y-10517436D02*
X16908158Y-10526960D01*
X16908158Y-10526960D02*
X16889110Y-10536484D01*
X16889110Y-10536484D02*
X16870063Y-10536484D01*
X16870063Y-10536484D02*
X16851015Y-10526960D01*
X16851015Y-10526960D02*
X16841491Y-10517436D01*
X16841491Y-10517436D02*
X16831967Y-10498389D01*
X16831967Y-10498389D02*
X16822444Y-10460293D01*
X16822444Y-10460293D02*
X16822444Y-10412674D01*
X16822444Y-10412674D02*
X16831967Y-10374579D01*
X16831967Y-10374579D02*
X16841491Y-10355531D01*
X16841491Y-10355531D02*
X16851015Y-10346008D01*
X16851015Y-10346008D02*
X16870063Y-10336484D01*
X17060539Y-10336484D02*
X17079586Y-10336484D01*
X17079586Y-10336484D02*
X17098634Y-10346008D01*
X17098634Y-10346008D02*
X17108158Y-10355531D01*
X17108158Y-10355531D02*
X17117682Y-10374579D01*
X17117682Y-10374579D02*
X17127205Y-10412674D01*
X17127205Y-10412674D02*
X17127205Y-10460293D01*
X17127205Y-10460293D02*
X17117682Y-10498389D01*
X17117682Y-10498389D02*
X17108158Y-10517436D01*
X17108158Y-10517436D02*
X17098634Y-10526960D01*
X17098634Y-10526960D02*
X17079586Y-10536484D01*
X17079586Y-10536484D02*
X17060539Y-10536484D01*
X17060539Y-10536484D02*
X17041491Y-10526960D01*
X17041491Y-10526960D02*
X17031967Y-10517436D01*
X17031967Y-10517436D02*
X17022444Y-10498389D01*
X17022444Y-10498389D02*
X17012920Y-10460293D01*
X17012920Y-10460293D02*
X17012920Y-10412674D01*
X17012920Y-10412674D02*
X17022444Y-10374579D01*
X17022444Y-10374579D02*
X17031967Y-10355531D01*
X17031967Y-10355531D02*
X17041491Y-10346008D01*
X17041491Y-10346008D02*
X17060539Y-10336484D01*
X17212920Y-10536484D02*
X17212920Y-10403150D01*
X17212920Y-10422198D02*
X17222444Y-10412674D01*
X17222444Y-10412674D02*
X17241491Y-10403150D01*
X17241491Y-10403150D02*
X17270063Y-10403150D01*
X17270063Y-10403150D02*
X17289110Y-10412674D01*
X17289110Y-10412674D02*
X17298634Y-10431722D01*
X17298634Y-10431722D02*
X17298634Y-10536484D01*
X17298634Y-10431722D02*
X17308158Y-10412674D01*
X17308158Y-10412674D02*
X17327205Y-10403150D01*
X17327205Y-10403150D02*
X17355777Y-10403150D01*
X17355777Y-10403150D02*
X17374825Y-10412674D01*
X17374825Y-10412674D02*
X17384348Y-10431722D01*
X17384348Y-10431722D02*
X17384348Y-10536484D01*
X17479586Y-10536484D02*
X17479586Y-10403150D01*
X17479586Y-10422198D02*
X17489110Y-10412674D01*
X17489110Y-10412674D02*
X17508158Y-10403150D01*
X17508158Y-10403150D02*
X17536729Y-10403150D01*
X17536729Y-10403150D02*
X17555777Y-10412674D01*
X17555777Y-10412674D02*
X17565301Y-10431722D01*
X17565301Y-10431722D02*
X17565301Y-10536484D01*
X17565301Y-10431722D02*
X17574825Y-10412674D01*
X17574825Y-10412674D02*
X17593872Y-10403150D01*
X17593872Y-10403150D02*
X17622444Y-10403150D01*
X17622444Y-10403150D02*
X17641491Y-10412674D01*
X17641491Y-10412674D02*
X17651015Y-10431722D01*
X17651015Y-10431722D02*
X17651015Y-10536484D01*
X18041491Y-10326960D02*
X17870063Y-10584103D01*
X18298634Y-10336484D02*
X18317682Y-10336484D01*
X18317682Y-10336484D02*
X18336729Y-10346008D01*
X18336729Y-10346008D02*
X18346253Y-10355531D01*
X18346253Y-10355531D02*
X18355777Y-10374579D01*
X18355777Y-10374579D02*
X18365301Y-10412674D01*
X18365301Y-10412674D02*
X18365301Y-10460293D01*
X18365301Y-10460293D02*
X18355777Y-10498389D01*
X18355777Y-10498389D02*
X18346253Y-10517436D01*
X18346253Y-10517436D02*
X18336729Y-10526960D01*
X18336729Y-10526960D02*
X18317682Y-10536484D01*
X18317682Y-10536484D02*
X18298634Y-10536484D01*
X18298634Y-10536484D02*
X18279587Y-10526960D01*
X18279587Y-10526960D02*
X18270063Y-10517436D01*
X18270063Y-10517436D02*
X18260539Y-10498389D01*
X18260539Y-10498389D02*
X18251015Y-10460293D01*
X18251015Y-10460293D02*
X18251015Y-10412674D01*
X18251015Y-10412674D02*
X18260539Y-10374579D01*
X18260539Y-10374579D02*
X18270063Y-10355531D01*
X18270063Y-10355531D02*
X18279587Y-10346008D01*
X18279587Y-10346008D02*
X18298634Y-10336484D01*
X18451015Y-10517436D02*
X18460539Y-10526960D01*
X18460539Y-10526960D02*
X18451015Y-10536484D01*
X18451015Y-10536484D02*
X18441491Y-10526960D01*
X18441491Y-10526960D02*
X18451015Y-10517436D01*
X18451015Y-10517436D02*
X18451015Y-10536484D01*
X18584348Y-10336484D02*
X18603396Y-10336484D01*
X18603396Y-10336484D02*
X18622444Y-10346008D01*
X18622444Y-10346008D02*
X18631968Y-10355531D01*
X18631968Y-10355531D02*
X18641491Y-10374579D01*
X18641491Y-10374579D02*
X18651015Y-10412674D01*
X18651015Y-10412674D02*
X18651015Y-10460293D01*
X18651015Y-10460293D02*
X18641491Y-10498389D01*
X18641491Y-10498389D02*
X18631968Y-10517436D01*
X18631968Y-10517436D02*
X18622444Y-10526960D01*
X18622444Y-10526960D02*
X18603396Y-10536484D01*
X18603396Y-10536484D02*
X18584348Y-10536484D01*
X18584348Y-10536484D02*
X18565301Y-10526960D01*
X18565301Y-10526960D02*
X18555777Y-10517436D01*
X18555777Y-10517436D02*
X18546253Y-10498389D01*
X18546253Y-10498389D02*
X18536729Y-10460293D01*
X18536729Y-10460293D02*
X18536729Y-10412674D01*
X18536729Y-10412674D02*
X18546253Y-10374579D01*
X18546253Y-10374579D02*
X18555777Y-10355531D01*
X18555777Y-10355531D02*
X18565301Y-10346008D01*
X18565301Y-10346008D02*
X18584348Y-10336484D01*
X18841491Y-10536484D02*
X18727206Y-10536484D01*
X18784348Y-10536484D02*
X18784348Y-10336484D01*
X18784348Y-10336484D02*
X18765301Y-10365055D01*
X18765301Y-10365055D02*
X18746253Y-10384103D01*
X18746253Y-10384103D02*
X18727206Y-10393627D01*
X19031968Y-10536484D02*
X18917682Y-10536484D01*
X18974825Y-10536484D02*
X18974825Y-10336484D01*
X18974825Y-10336484D02*
X18955777Y-10365055D01*
X18955777Y-10365055D02*
X18936729Y-10384103D01*
X18936729Y-10384103D02*
X18917682Y-10393627D01*
X19146253Y-10422198D02*
X19127206Y-10412674D01*
X19127206Y-10412674D02*
X19117682Y-10403150D01*
X19117682Y-10403150D02*
X19108158Y-10384103D01*
X19108158Y-10384103D02*
X19108158Y-10374579D01*
X19108158Y-10374579D02*
X19117682Y-10355531D01*
X19117682Y-10355531D02*
X19127206Y-10346008D01*
X19127206Y-10346008D02*
X19146253Y-10336484D01*
X19146253Y-10336484D02*
X19184349Y-10336484D01*
X19184349Y-10336484D02*
X19203396Y-10346008D01*
X19203396Y-10346008D02*
X19212920Y-10355531D01*
X19212920Y-10355531D02*
X19222444Y-10374579D01*
X19222444Y-10374579D02*
X19222444Y-10384103D01*
X19222444Y-10384103D02*
X19212920Y-10403150D01*
X19212920Y-10403150D02*
X19203396Y-10412674D01*
X19203396Y-10412674D02*
X19184349Y-10422198D01*
X19184349Y-10422198D02*
X19146253Y-10422198D01*
X19146253Y-10422198D02*
X19127206Y-10431722D01*
X19127206Y-10431722D02*
X19117682Y-10441246D01*
X19117682Y-10441246D02*
X19108158Y-10460293D01*
X19108158Y-10460293D02*
X19108158Y-10498389D01*
X19108158Y-10498389D02*
X19117682Y-10517436D01*
X19117682Y-10517436D02*
X19127206Y-10526960D01*
X19127206Y-10526960D02*
X19146253Y-10536484D01*
X19146253Y-10536484D02*
X19184349Y-10536484D01*
X19184349Y-10536484D02*
X19203396Y-10526960D01*
X19203396Y-10526960D02*
X19212920Y-10517436D01*
X19212920Y-10517436D02*
X19222444Y-10498389D01*
X19222444Y-10498389D02*
X19222444Y-10460293D01*
X19222444Y-10460293D02*
X19212920Y-10441246D01*
X19212920Y-10441246D02*
X19203396Y-10431722D01*
X19203396Y-10431722D02*
X19184349Y-10422198D01*
X19298634Y-10336484D02*
X19298634Y-10374579D01*
X19374825Y-10336484D02*
X19374825Y-10374579D01*
X19670063Y-10612674D02*
X19660539Y-10603150D01*
X19660539Y-10603150D02*
X19641491Y-10574579D01*
X19641491Y-10574579D02*
X19631968Y-10555531D01*
X19631968Y-10555531D02*
X19622444Y-10526960D01*
X19622444Y-10526960D02*
X19612920Y-10479341D01*
X19612920Y-10479341D02*
X19612920Y-10441246D01*
X19612920Y-10441246D02*
X19622444Y-10393627D01*
X19622444Y-10393627D02*
X19631968Y-10365055D01*
X19631968Y-10365055D02*
X19641491Y-10346008D01*
X19641491Y-10346008D02*
X19660539Y-10317436D01*
X19660539Y-10317436D02*
X19670063Y-10307912D01*
X19831968Y-10336484D02*
X19793872Y-10336484D01*
X19793872Y-10336484D02*
X19774825Y-10346008D01*
X19774825Y-10346008D02*
X19765301Y-10355531D01*
X19765301Y-10355531D02*
X19746253Y-10384103D01*
X19746253Y-10384103D02*
X19736730Y-10422198D01*
X19736730Y-10422198D02*
X19736730Y-10498389D01*
X19736730Y-10498389D02*
X19746253Y-10517436D01*
X19746253Y-10517436D02*
X19755777Y-10526960D01*
X19755777Y-10526960D02*
X19774825Y-10536484D01*
X19774825Y-10536484D02*
X19812920Y-10536484D01*
X19812920Y-10536484D02*
X19831968Y-10526960D01*
X19831968Y-10526960D02*
X19841491Y-10517436D01*
X19841491Y-10517436D02*
X19851015Y-10498389D01*
X19851015Y-10498389D02*
X19851015Y-10450770D01*
X19851015Y-10450770D02*
X19841491Y-10431722D01*
X19841491Y-10431722D02*
X19831968Y-10422198D01*
X19831968Y-10422198D02*
X19812920Y-10412674D01*
X19812920Y-10412674D02*
X19774825Y-10412674D01*
X19774825Y-10412674D02*
X19755777Y-10422198D01*
X19755777Y-10422198D02*
X19746253Y-10431722D01*
X19746253Y-10431722D02*
X19736730Y-10450770D01*
X19917682Y-10336484D02*
X20041491Y-10336484D01*
X20041491Y-10336484D02*
X19974825Y-10412674D01*
X19974825Y-10412674D02*
X20003396Y-10412674D01*
X20003396Y-10412674D02*
X20022444Y-10422198D01*
X20022444Y-10422198D02*
X20031968Y-10431722D01*
X20031968Y-10431722D02*
X20041491Y-10450770D01*
X20041491Y-10450770D02*
X20041491Y-10498389D01*
X20041491Y-10498389D02*
X20031968Y-10517436D01*
X20031968Y-10517436D02*
X20022444Y-10526960D01*
X20022444Y-10526960D02*
X20003396Y-10536484D01*
X20003396Y-10536484D02*
X19946253Y-10536484D01*
X19946253Y-10536484D02*
X19927206Y-10526960D01*
X19927206Y-10526960D02*
X19917682Y-10517436D01*
X20279587Y-10536484D02*
X20279587Y-10336484D01*
X20365301Y-10536484D02*
X20365301Y-10431722D01*
X20365301Y-10431722D02*
X20355777Y-10412674D01*
X20355777Y-10412674D02*
X20336730Y-10403150D01*
X20336730Y-10403150D02*
X20308158Y-10403150D01*
X20308158Y-10403150D02*
X20289111Y-10412674D01*
X20289111Y-10412674D02*
X20279587Y-10422198D01*
X20489111Y-10536484D02*
X20470063Y-10526960D01*
X20470063Y-10526960D02*
X20460539Y-10517436D01*
X20460539Y-10517436D02*
X20451015Y-10498389D01*
X20451015Y-10498389D02*
X20451015Y-10441246D01*
X20451015Y-10441246D02*
X20460539Y-10422198D01*
X20460539Y-10422198D02*
X20470063Y-10412674D01*
X20470063Y-10412674D02*
X20489111Y-10403150D01*
X20489111Y-10403150D02*
X20517682Y-10403150D01*
X20517682Y-10403150D02*
X20536730Y-10412674D01*
X20536730Y-10412674D02*
X20546253Y-10422198D01*
X20546253Y-10422198D02*
X20555777Y-10441246D01*
X20555777Y-10441246D02*
X20555777Y-10498389D01*
X20555777Y-10498389D02*
X20546253Y-10517436D01*
X20546253Y-10517436D02*
X20536730Y-10526960D01*
X20536730Y-10526960D02*
X20517682Y-10536484D01*
X20517682Y-10536484D02*
X20489111Y-10536484D01*
X20670063Y-10536484D02*
X20651015Y-10526960D01*
X20651015Y-10526960D02*
X20641492Y-10507912D01*
X20641492Y-10507912D02*
X20641492Y-10336484D01*
X20822444Y-10526960D02*
X20803396Y-10536484D01*
X20803396Y-10536484D02*
X20765301Y-10536484D01*
X20765301Y-10536484D02*
X20746253Y-10526960D01*
X20746253Y-10526960D02*
X20736730Y-10507912D01*
X20736730Y-10507912D02*
X20736730Y-10431722D01*
X20736730Y-10431722D02*
X20746253Y-10412674D01*
X20746253Y-10412674D02*
X20765301Y-10403150D01*
X20765301Y-10403150D02*
X20803396Y-10403150D01*
X20803396Y-10403150D02*
X20822444Y-10412674D01*
X20822444Y-10412674D02*
X20831968Y-10431722D01*
X20831968Y-10431722D02*
X20831968Y-10450770D01*
X20831968Y-10450770D02*
X20736730Y-10469817D01*
X20908158Y-10526960D02*
X20927206Y-10536484D01*
X20927206Y-10536484D02*
X20965301Y-10536484D01*
X20965301Y-10536484D02*
X20984349Y-10526960D01*
X20984349Y-10526960D02*
X20993873Y-10507912D01*
X20993873Y-10507912D02*
X20993873Y-10498389D01*
X20993873Y-10498389D02*
X20984349Y-10479341D01*
X20984349Y-10479341D02*
X20965301Y-10469817D01*
X20965301Y-10469817D02*
X20936730Y-10469817D01*
X20936730Y-10469817D02*
X20917682Y-10460293D01*
X20917682Y-10460293D02*
X20908158Y-10441246D01*
X20908158Y-10441246D02*
X20908158Y-10431722D01*
X20908158Y-10431722D02*
X20917682Y-10412674D01*
X20917682Y-10412674D02*
X20936730Y-10403150D01*
X20936730Y-10403150D02*
X20965301Y-10403150D01*
X20965301Y-10403150D02*
X20984349Y-10412674D01*
X21060539Y-10612674D02*
X21070063Y-10603150D01*
X21070063Y-10603150D02*
X21089111Y-10574579D01*
X21089111Y-10574579D02*
X21098634Y-10555531D01*
X21098634Y-10555531D02*
X21108158Y-10526960D01*
X21108158Y-10526960D02*
X21117682Y-10479341D01*
X21117682Y-10479341D02*
X21117682Y-10441246D01*
X21117682Y-10441246D02*
X21108158Y-10393627D01*
X21108158Y-10393627D02*
X21098634Y-10365055D01*
X21098634Y-10365055D02*
X21089111Y-10346008D01*
X21089111Y-10346008D02*
X21070063Y-10317436D01*
X21070063Y-10317436D02*
X21060539Y-10307912D01*
D10*
X16095000Y-10709000D02*
G75*
G02*
X16040000Y-10709000I-27500J0D01*
G01*
X16040000Y-10709000D02*
G75*
G02*
X16095000Y-10709000I27500J0D01*
G01*
D11*
X16393872Y-10600484D02*
X16412920Y-10600484D01*
X16412920Y-10600484D02*
X16431967Y-10610008D01*
X16431967Y-10610008D02*
X16441491Y-10619531D01*
X16441491Y-10619531D02*
X16451015Y-10638579D01*
X16451015Y-10638579D02*
X16460539Y-10676674D01*
X16460539Y-10676674D02*
X16460539Y-10724293D01*
X16460539Y-10724293D02*
X16451015Y-10762389D01*
X16451015Y-10762389D02*
X16441491Y-10781436D01*
X16441491Y-10781436D02*
X16431967Y-10790960D01*
X16431967Y-10790960D02*
X16412920Y-10800484D01*
X16412920Y-10800484D02*
X16393872Y-10800484D01*
X16393872Y-10800484D02*
X16374824Y-10790960D01*
X16374824Y-10790960D02*
X16365301Y-10781436D01*
X16365301Y-10781436D02*
X16355777Y-10762389D01*
X16355777Y-10762389D02*
X16346253Y-10724293D01*
X16346253Y-10724293D02*
X16346253Y-10676674D01*
X16346253Y-10676674D02*
X16355777Y-10638579D01*
X16355777Y-10638579D02*
X16365301Y-10619531D01*
X16365301Y-10619531D02*
X16374824Y-10610008D01*
X16374824Y-10610008D02*
X16393872Y-10600484D01*
X16546253Y-10781436D02*
X16555777Y-10790960D01*
X16555777Y-10790960D02*
X16546253Y-10800484D01*
X16546253Y-10800484D02*
X16536729Y-10790960D01*
X16536729Y-10790960D02*
X16546253Y-10781436D01*
X16546253Y-10781436D02*
X16546253Y-10800484D01*
X16736729Y-10600484D02*
X16641491Y-10600484D01*
X16641491Y-10600484D02*
X16631967Y-10695722D01*
X16631967Y-10695722D02*
X16641491Y-10686198D01*
X16641491Y-10686198D02*
X16660539Y-10676674D01*
X16660539Y-10676674D02*
X16708158Y-10676674D01*
X16708158Y-10676674D02*
X16727205Y-10686198D01*
X16727205Y-10686198D02*
X16736729Y-10695722D01*
X16736729Y-10695722D02*
X16746253Y-10714770D01*
X16746253Y-10714770D02*
X16746253Y-10762389D01*
X16746253Y-10762389D02*
X16736729Y-10781436D01*
X16736729Y-10781436D02*
X16727205Y-10790960D01*
X16727205Y-10790960D02*
X16708158Y-10800484D01*
X16708158Y-10800484D02*
X16660539Y-10800484D01*
X16660539Y-10800484D02*
X16641491Y-10790960D01*
X16641491Y-10790960D02*
X16631967Y-10781436D01*
X16927205Y-10600484D02*
X16831967Y-10600484D01*
X16831967Y-10600484D02*
X16822444Y-10695722D01*
X16822444Y-10695722D02*
X16831967Y-10686198D01*
X16831967Y-10686198D02*
X16851015Y-10676674D01*
X16851015Y-10676674D02*
X16898634Y-10676674D01*
X16898634Y-10676674D02*
X16917682Y-10686198D01*
X16917682Y-10686198D02*
X16927205Y-10695722D01*
X16927205Y-10695722D02*
X16936729Y-10714770D01*
X16936729Y-10714770D02*
X16936729Y-10762389D01*
X16936729Y-10762389D02*
X16927205Y-10781436D01*
X16927205Y-10781436D02*
X16917682Y-10790960D01*
X16917682Y-10790960D02*
X16898634Y-10800484D01*
X16898634Y-10800484D02*
X16851015Y-10800484D01*
X16851015Y-10800484D02*
X16831967Y-10790960D01*
X16831967Y-10790960D02*
X16822444Y-10781436D01*
X17060539Y-10600484D02*
X17079586Y-10600484D01*
X17079586Y-10600484D02*
X17098634Y-10610008D01*
X17098634Y-10610008D02*
X17108158Y-10619531D01*
X17108158Y-10619531D02*
X17117682Y-10638579D01*
X17117682Y-10638579D02*
X17127205Y-10676674D01*
X17127205Y-10676674D02*
X17127205Y-10724293D01*
X17127205Y-10724293D02*
X17117682Y-10762389D01*
X17117682Y-10762389D02*
X17108158Y-10781436D01*
X17108158Y-10781436D02*
X17098634Y-10790960D01*
X17098634Y-10790960D02*
X17079586Y-10800484D01*
X17079586Y-10800484D02*
X17060539Y-10800484D01*
X17060539Y-10800484D02*
X17041491Y-10790960D01*
X17041491Y-10790960D02*
X17031967Y-10781436D01*
X17031967Y-10781436D02*
X17022444Y-10762389D01*
X17022444Y-10762389D02*
X17012920Y-10724293D01*
X17012920Y-10724293D02*
X17012920Y-10676674D01*
X17012920Y-10676674D02*
X17022444Y-10638579D01*
X17022444Y-10638579D02*
X17031967Y-10619531D01*
X17031967Y-10619531D02*
X17041491Y-10610008D01*
X17041491Y-10610008D02*
X17060539Y-10600484D01*
X17212920Y-10800484D02*
X17212920Y-10667150D01*
X17212920Y-10686198D02*
X17222444Y-10676674D01*
X17222444Y-10676674D02*
X17241491Y-10667150D01*
X17241491Y-10667150D02*
X17270063Y-10667150D01*
X17270063Y-10667150D02*
X17289110Y-10676674D01*
X17289110Y-10676674D02*
X17298634Y-10695722D01*
X17298634Y-10695722D02*
X17298634Y-10800484D01*
X17298634Y-10695722D02*
X17308158Y-10676674D01*
X17308158Y-10676674D02*
X17327205Y-10667150D01*
X17327205Y-10667150D02*
X17355777Y-10667150D01*
X17355777Y-10667150D02*
X17374825Y-10676674D01*
X17374825Y-10676674D02*
X17384348Y-10695722D01*
X17384348Y-10695722D02*
X17384348Y-10800484D01*
X17479586Y-10800484D02*
X17479586Y-10667150D01*
X17479586Y-10686198D02*
X17489110Y-10676674D01*
X17489110Y-10676674D02*
X17508158Y-10667150D01*
X17508158Y-10667150D02*
X17536729Y-10667150D01*
X17536729Y-10667150D02*
X17555777Y-10676674D01*
X17555777Y-10676674D02*
X17565301Y-10695722D01*
X17565301Y-10695722D02*
X17565301Y-10800484D01*
X17565301Y-10695722D02*
X17574825Y-10676674D01*
X17574825Y-10676674D02*
X17593872Y-10667150D01*
X17593872Y-10667150D02*
X17622444Y-10667150D01*
X17622444Y-10667150D02*
X17641491Y-10676674D01*
X17641491Y-10676674D02*
X17651015Y-10695722D01*
X17651015Y-10695722D02*
X17651015Y-10800484D01*
X18041491Y-10590960D02*
X17870063Y-10848103D01*
X18298634Y-10600484D02*
X18317682Y-10600484D01*
X18317682Y-10600484D02*
X18336729Y-10610008D01*
X18336729Y-10610008D02*
X18346253Y-10619531D01*
X18346253Y-10619531D02*
X18355777Y-10638579D01*
X18355777Y-10638579D02*
X18365301Y-10676674D01*
X18365301Y-10676674D02*
X18365301Y-10724293D01*
X18365301Y-10724293D02*
X18355777Y-10762389D01*
X18355777Y-10762389D02*
X18346253Y-10781436D01*
X18346253Y-10781436D02*
X18336729Y-10790960D01*
X18336729Y-10790960D02*
X18317682Y-10800484D01*
X18317682Y-10800484D02*
X18298634Y-10800484D01*
X18298634Y-10800484D02*
X18279587Y-10790960D01*
X18279587Y-10790960D02*
X18270063Y-10781436D01*
X18270063Y-10781436D02*
X18260539Y-10762389D01*
X18260539Y-10762389D02*
X18251015Y-10724293D01*
X18251015Y-10724293D02*
X18251015Y-10676674D01*
X18251015Y-10676674D02*
X18260539Y-10638579D01*
X18260539Y-10638579D02*
X18270063Y-10619531D01*
X18270063Y-10619531D02*
X18279587Y-10610008D01*
X18279587Y-10610008D02*
X18298634Y-10600484D01*
X18451015Y-10781436D02*
X18460539Y-10790960D01*
X18460539Y-10790960D02*
X18451015Y-10800484D01*
X18451015Y-10800484D02*
X18441491Y-10790960D01*
X18441491Y-10790960D02*
X18451015Y-10781436D01*
X18451015Y-10781436D02*
X18451015Y-10800484D01*
X18584348Y-10600484D02*
X18603396Y-10600484D01*
X18603396Y-10600484D02*
X18622444Y-10610008D01*
X18622444Y-10610008D02*
X18631968Y-10619531D01*
X18631968Y-10619531D02*
X18641491Y-10638579D01*
X18641491Y-10638579D02*
X18651015Y-10676674D01*
X18651015Y-10676674D02*
X18651015Y-10724293D01*
X18651015Y-10724293D02*
X18641491Y-10762389D01*
X18641491Y-10762389D02*
X18631968Y-10781436D01*
X18631968Y-10781436D02*
X18622444Y-10790960D01*
X18622444Y-10790960D02*
X18603396Y-10800484D01*
X18603396Y-10800484D02*
X18584348Y-10800484D01*
X18584348Y-10800484D02*
X18565301Y-10790960D01*
X18565301Y-10790960D02*
X18555777Y-10781436D01*
X18555777Y-10781436D02*
X18546253Y-10762389D01*
X18546253Y-10762389D02*
X18536729Y-10724293D01*
X18536729Y-10724293D02*
X18536729Y-10676674D01*
X18536729Y-10676674D02*
X18546253Y-10638579D01*
X18546253Y-10638579D02*
X18555777Y-10619531D01*
X18555777Y-10619531D02*
X18565301Y-10610008D01*
X18565301Y-10610008D02*
X18584348Y-10600484D01*
X18727206Y-10619531D02*
X18736729Y-10610008D01*
X18736729Y-10610008D02*
X18755777Y-10600484D01*
X18755777Y-10600484D02*
X18803396Y-10600484D01*
X18803396Y-10600484D02*
X18822444Y-10610008D01*
X18822444Y-10610008D02*
X18831968Y-10619531D01*
X18831968Y-10619531D02*
X18841491Y-10638579D01*
X18841491Y-10638579D02*
X18841491Y-10657627D01*
X18841491Y-10657627D02*
X18831968Y-10686198D01*
X18831968Y-10686198D02*
X18717682Y-10800484D01*
X18717682Y-10800484D02*
X18841491Y-10800484D01*
X19031968Y-10800484D02*
X18917682Y-10800484D01*
X18974825Y-10800484D02*
X18974825Y-10600484D01*
X18974825Y-10600484D02*
X18955777Y-10629055D01*
X18955777Y-10629055D02*
X18936729Y-10648103D01*
X18936729Y-10648103D02*
X18917682Y-10657627D01*
X19098634Y-10600484D02*
X19231968Y-10600484D01*
X19231968Y-10600484D02*
X19146253Y-10800484D01*
X19298634Y-10600484D02*
X19298634Y-10638579D01*
X19374825Y-10600484D02*
X19374825Y-10638579D01*
X19670063Y-10876674D02*
X19660539Y-10867150D01*
X19660539Y-10867150D02*
X19641491Y-10838579D01*
X19641491Y-10838579D02*
X19631968Y-10819531D01*
X19631968Y-10819531D02*
X19622444Y-10790960D01*
X19622444Y-10790960D02*
X19612920Y-10743341D01*
X19612920Y-10743341D02*
X19612920Y-10705246D01*
X19612920Y-10705246D02*
X19622444Y-10657627D01*
X19622444Y-10657627D02*
X19631968Y-10629055D01*
X19631968Y-10629055D02*
X19641491Y-10610008D01*
X19641491Y-10610008D02*
X19660539Y-10581436D01*
X19660539Y-10581436D02*
X19670063Y-10571912D01*
X19784349Y-10600484D02*
X19803396Y-10600484D01*
X19803396Y-10600484D02*
X19822444Y-10610008D01*
X19822444Y-10610008D02*
X19831968Y-10619531D01*
X19831968Y-10619531D02*
X19841491Y-10638579D01*
X19841491Y-10638579D02*
X19851015Y-10676674D01*
X19851015Y-10676674D02*
X19851015Y-10724293D01*
X19851015Y-10724293D02*
X19841491Y-10762389D01*
X19841491Y-10762389D02*
X19831968Y-10781436D01*
X19831968Y-10781436D02*
X19822444Y-10790960D01*
X19822444Y-10790960D02*
X19803396Y-10800484D01*
X19803396Y-10800484D02*
X19784349Y-10800484D01*
X19784349Y-10800484D02*
X19765301Y-10790960D01*
X19765301Y-10790960D02*
X19755777Y-10781436D01*
X19755777Y-10781436D02*
X19746253Y-10762389D01*
X19746253Y-10762389D02*
X19736730Y-10724293D01*
X19736730Y-10724293D02*
X19736730Y-10676674D01*
X19736730Y-10676674D02*
X19746253Y-10638579D01*
X19746253Y-10638579D02*
X19755777Y-10619531D01*
X19755777Y-10619531D02*
X19765301Y-10610008D01*
X19765301Y-10610008D02*
X19784349Y-10600484D01*
X20089111Y-10800484D02*
X20089111Y-10600484D01*
X20174825Y-10800484D02*
X20174825Y-10695722D01*
X20174825Y-10695722D02*
X20165301Y-10676674D01*
X20165301Y-10676674D02*
X20146253Y-10667150D01*
X20146253Y-10667150D02*
X20117682Y-10667150D01*
X20117682Y-10667150D02*
X20098634Y-10676674D01*
X20098634Y-10676674D02*
X20089111Y-10686198D01*
X20298634Y-10800484D02*
X20279587Y-10790960D01*
X20279587Y-10790960D02*
X20270063Y-10781436D01*
X20270063Y-10781436D02*
X20260539Y-10762389D01*
X20260539Y-10762389D02*
X20260539Y-10705246D01*
X20260539Y-10705246D02*
X20270063Y-10686198D01*
X20270063Y-10686198D02*
X20279587Y-10676674D01*
X20279587Y-10676674D02*
X20298634Y-10667150D01*
X20298634Y-10667150D02*
X20327206Y-10667150D01*
X20327206Y-10667150D02*
X20346253Y-10676674D01*
X20346253Y-10676674D02*
X20355777Y-10686198D01*
X20355777Y-10686198D02*
X20365301Y-10705246D01*
X20365301Y-10705246D02*
X20365301Y-10762389D01*
X20365301Y-10762389D02*
X20355777Y-10781436D01*
X20355777Y-10781436D02*
X20346253Y-10790960D01*
X20346253Y-10790960D02*
X20327206Y-10800484D01*
X20327206Y-10800484D02*
X20298634Y-10800484D01*
X20479587Y-10800484D02*
X20460539Y-10790960D01*
X20460539Y-10790960D02*
X20451015Y-10771912D01*
X20451015Y-10771912D02*
X20451015Y-10600484D01*
X20631968Y-10790960D02*
X20612920Y-10800484D01*
X20612920Y-10800484D02*
X20574825Y-10800484D01*
X20574825Y-10800484D02*
X20555777Y-10790960D01*
X20555777Y-10790960D02*
X20546253Y-10771912D01*
X20546253Y-10771912D02*
X20546253Y-10695722D01*
X20546253Y-10695722D02*
X20555777Y-10676674D01*
X20555777Y-10676674D02*
X20574825Y-10667150D01*
X20574825Y-10667150D02*
X20612920Y-10667150D01*
X20612920Y-10667150D02*
X20631968Y-10676674D01*
X20631968Y-10676674D02*
X20641492Y-10695722D01*
X20641492Y-10695722D02*
X20641492Y-10714770D01*
X20641492Y-10714770D02*
X20546253Y-10733817D01*
X20717682Y-10790960D02*
X20736730Y-10800484D01*
X20736730Y-10800484D02*
X20774825Y-10800484D01*
X20774825Y-10800484D02*
X20793873Y-10790960D01*
X20793873Y-10790960D02*
X20803396Y-10771912D01*
X20803396Y-10771912D02*
X20803396Y-10762389D01*
X20803396Y-10762389D02*
X20793873Y-10743341D01*
X20793873Y-10743341D02*
X20774825Y-10733817D01*
X20774825Y-10733817D02*
X20746253Y-10733817D01*
X20746253Y-10733817D02*
X20727206Y-10724293D01*
X20727206Y-10724293D02*
X20717682Y-10705246D01*
X20717682Y-10705246D02*
X20717682Y-10695722D01*
X20717682Y-10695722D02*
X20727206Y-10676674D01*
X20727206Y-10676674D02*
X20746253Y-10667150D01*
X20746253Y-10667150D02*
X20774825Y-10667150D01*
X20774825Y-10667150D02*
X20793873Y-10676674D01*
X21041492Y-10724293D02*
X21193873Y-10724293D01*
X21117682Y-10800484D02*
X21117682Y-10648103D01*
X21431968Y-10619531D02*
X21441492Y-10610008D01*
X21441492Y-10610008D02*
X21460539Y-10600484D01*
X21460539Y-10600484D02*
X21508158Y-10600484D01*
X21508158Y-10600484D02*
X21527206Y-10610008D01*
X21527206Y-10610008D02*
X21536730Y-10619531D01*
X21536730Y-10619531D02*
X21546254Y-10638579D01*
X21546254Y-10638579D02*
X21546254Y-10657627D01*
X21546254Y-10657627D02*
X21536730Y-10686198D01*
X21536730Y-10686198D02*
X21422444Y-10800484D01*
X21422444Y-10800484D02*
X21546254Y-10800484D01*
X21774825Y-10790960D02*
X21793873Y-10800484D01*
X21793873Y-10800484D02*
X21831968Y-10800484D01*
X21831968Y-10800484D02*
X21851016Y-10790960D01*
X21851016Y-10790960D02*
X21860539Y-10771912D01*
X21860539Y-10771912D02*
X21860539Y-10762389D01*
X21860539Y-10762389D02*
X21851016Y-10743341D01*
X21851016Y-10743341D02*
X21831968Y-10733817D01*
X21831968Y-10733817D02*
X21803396Y-10733817D01*
X21803396Y-10733817D02*
X21784349Y-10724293D01*
X21784349Y-10724293D02*
X21774825Y-10705246D01*
X21774825Y-10705246D02*
X21774825Y-10695722D01*
X21774825Y-10695722D02*
X21784349Y-10676674D01*
X21784349Y-10676674D02*
X21803396Y-10667150D01*
X21803396Y-10667150D02*
X21831968Y-10667150D01*
X21831968Y-10667150D02*
X21851016Y-10676674D01*
X21974825Y-10800484D02*
X21955777Y-10790960D01*
X21955777Y-10790960D02*
X21946254Y-10771912D01*
X21946254Y-10771912D02*
X21946254Y-10600484D01*
X22079587Y-10800484D02*
X22060539Y-10790960D01*
X22060539Y-10790960D02*
X22051016Y-10781436D01*
X22051016Y-10781436D02*
X22041492Y-10762389D01*
X22041492Y-10762389D02*
X22041492Y-10705246D01*
X22041492Y-10705246D02*
X22051016Y-10686198D01*
X22051016Y-10686198D02*
X22060539Y-10676674D01*
X22060539Y-10676674D02*
X22079587Y-10667150D01*
X22079587Y-10667150D02*
X22108158Y-10667150D01*
X22108158Y-10667150D02*
X22127206Y-10676674D01*
X22127206Y-10676674D02*
X22136730Y-10686198D01*
X22136730Y-10686198D02*
X22146254Y-10705246D01*
X22146254Y-10705246D02*
X22146254Y-10762389D01*
X22146254Y-10762389D02*
X22136730Y-10781436D01*
X22136730Y-10781436D02*
X22127206Y-10790960D01*
X22127206Y-10790960D02*
X22108158Y-10800484D01*
X22108158Y-10800484D02*
X22079587Y-10800484D01*
X22203397Y-10667150D02*
X22279587Y-10667150D01*
X22231968Y-10600484D02*
X22231968Y-10771912D01*
X22231968Y-10771912D02*
X22241492Y-10790960D01*
X22241492Y-10790960D02*
X22260539Y-10800484D01*
X22260539Y-10800484D02*
X22279587Y-10800484D01*
X22336730Y-10790960D02*
X22355777Y-10800484D01*
X22355777Y-10800484D02*
X22393873Y-10800484D01*
X22393873Y-10800484D02*
X22412920Y-10790960D01*
X22412920Y-10790960D02*
X22422444Y-10771912D01*
X22422444Y-10771912D02*
X22422444Y-10762389D01*
X22422444Y-10762389D02*
X22412920Y-10743341D01*
X22412920Y-10743341D02*
X22393873Y-10733817D01*
X22393873Y-10733817D02*
X22365301Y-10733817D01*
X22365301Y-10733817D02*
X22346254Y-10724293D01*
X22346254Y-10724293D02*
X22336730Y-10705246D01*
X22336730Y-10705246D02*
X22336730Y-10695722D01*
X22336730Y-10695722D02*
X22346254Y-10676674D01*
X22346254Y-10676674D02*
X22365301Y-10667150D01*
X22365301Y-10667150D02*
X22393873Y-10667150D01*
X22393873Y-10667150D02*
X22412920Y-10676674D01*
X22489111Y-10876674D02*
X22498635Y-10867150D01*
X22498635Y-10867150D02*
X22517682Y-10838579D01*
X22517682Y-10838579D02*
X22527206Y-10819531D01*
X22527206Y-10819531D02*
X22536730Y-10790960D01*
X22536730Y-10790960D02*
X22546254Y-10743341D01*
X22546254Y-10743341D02*
X22546254Y-10705246D01*
X22546254Y-10705246D02*
X22536730Y-10657627D01*
X22536730Y-10657627D02*
X22527206Y-10629055D01*
X22527206Y-10629055D02*
X22517682Y-10610008D01*
X22517682Y-10610008D02*
X22498635Y-10581436D01*
X22498635Y-10581436D02*
X22489111Y-10571912D01*
D10*
X16060000Y-10938000D02*
X16060000Y-11008000D01*
X16025000Y-10973000D02*
X16095000Y-10973000D01*
D11*
X16393872Y-10864484D02*
X16412920Y-10864484D01*
X16412920Y-10864484D02*
X16431967Y-10874008D01*
X16431967Y-10874008D02*
X16441491Y-10883531D01*
X16441491Y-10883531D02*
X16451015Y-10902579D01*
X16451015Y-10902579D02*
X16460539Y-10940674D01*
X16460539Y-10940674D02*
X16460539Y-10988293D01*
X16460539Y-10988293D02*
X16451015Y-11026389D01*
X16451015Y-11026389D02*
X16441491Y-11045436D01*
X16441491Y-11045436D02*
X16431967Y-11054960D01*
X16431967Y-11054960D02*
X16412920Y-11064484D01*
X16412920Y-11064484D02*
X16393872Y-11064484D01*
X16393872Y-11064484D02*
X16374824Y-11054960D01*
X16374824Y-11054960D02*
X16365301Y-11045436D01*
X16365301Y-11045436D02*
X16355777Y-11026389D01*
X16355777Y-11026389D02*
X16346253Y-10988293D01*
X16346253Y-10988293D02*
X16346253Y-10940674D01*
X16346253Y-10940674D02*
X16355777Y-10902579D01*
X16355777Y-10902579D02*
X16365301Y-10883531D01*
X16365301Y-10883531D02*
X16374824Y-10874008D01*
X16374824Y-10874008D02*
X16393872Y-10864484D01*
X16546253Y-11045436D02*
X16555777Y-11054960D01*
X16555777Y-11054960D02*
X16546253Y-11064484D01*
X16546253Y-11064484D02*
X16536729Y-11054960D01*
X16536729Y-11054960D02*
X16546253Y-11045436D01*
X16546253Y-11045436D02*
X16546253Y-11064484D01*
X16622443Y-10864484D02*
X16755777Y-10864484D01*
X16755777Y-10864484D02*
X16670062Y-11064484D01*
X16870063Y-10864484D02*
X16889110Y-10864484D01*
X16889110Y-10864484D02*
X16908158Y-10874008D01*
X16908158Y-10874008D02*
X16917682Y-10883531D01*
X16917682Y-10883531D02*
X16927205Y-10902579D01*
X16927205Y-10902579D02*
X16936729Y-10940674D01*
X16936729Y-10940674D02*
X16936729Y-10988293D01*
X16936729Y-10988293D02*
X16927205Y-11026389D01*
X16927205Y-11026389D02*
X16917682Y-11045436D01*
X16917682Y-11045436D02*
X16908158Y-11054960D01*
X16908158Y-11054960D02*
X16889110Y-11064484D01*
X16889110Y-11064484D02*
X16870063Y-11064484D01*
X16870063Y-11064484D02*
X16851015Y-11054960D01*
X16851015Y-11054960D02*
X16841491Y-11045436D01*
X16841491Y-11045436D02*
X16831967Y-11026389D01*
X16831967Y-11026389D02*
X16822444Y-10988293D01*
X16822444Y-10988293D02*
X16822444Y-10940674D01*
X16822444Y-10940674D02*
X16831967Y-10902579D01*
X16831967Y-10902579D02*
X16841491Y-10883531D01*
X16841491Y-10883531D02*
X16851015Y-10874008D01*
X16851015Y-10874008D02*
X16870063Y-10864484D01*
X17060539Y-10864484D02*
X17079586Y-10864484D01*
X17079586Y-10864484D02*
X17098634Y-10874008D01*
X17098634Y-10874008D02*
X17108158Y-10883531D01*
X17108158Y-10883531D02*
X17117682Y-10902579D01*
X17117682Y-10902579D02*
X17127205Y-10940674D01*
X17127205Y-10940674D02*
X17127205Y-10988293D01*
X17127205Y-10988293D02*
X17117682Y-11026389D01*
X17117682Y-11026389D02*
X17108158Y-11045436D01*
X17108158Y-11045436D02*
X17098634Y-11054960D01*
X17098634Y-11054960D02*
X17079586Y-11064484D01*
X17079586Y-11064484D02*
X17060539Y-11064484D01*
X17060539Y-11064484D02*
X17041491Y-11054960D01*
X17041491Y-11054960D02*
X17031967Y-11045436D01*
X17031967Y-11045436D02*
X17022444Y-11026389D01*
X17022444Y-11026389D02*
X17012920Y-10988293D01*
X17012920Y-10988293D02*
X17012920Y-10940674D01*
X17012920Y-10940674D02*
X17022444Y-10902579D01*
X17022444Y-10902579D02*
X17031967Y-10883531D01*
X17031967Y-10883531D02*
X17041491Y-10874008D01*
X17041491Y-10874008D02*
X17060539Y-10864484D01*
X17212920Y-11064484D02*
X17212920Y-10931150D01*
X17212920Y-10950198D02*
X17222444Y-10940674D01*
X17222444Y-10940674D02*
X17241491Y-10931150D01*
X17241491Y-10931150D02*
X17270063Y-10931150D01*
X17270063Y-10931150D02*
X17289110Y-10940674D01*
X17289110Y-10940674D02*
X17298634Y-10959722D01*
X17298634Y-10959722D02*
X17298634Y-11064484D01*
X17298634Y-10959722D02*
X17308158Y-10940674D01*
X17308158Y-10940674D02*
X17327205Y-10931150D01*
X17327205Y-10931150D02*
X17355777Y-10931150D01*
X17355777Y-10931150D02*
X17374825Y-10940674D01*
X17374825Y-10940674D02*
X17384348Y-10959722D01*
X17384348Y-10959722D02*
X17384348Y-11064484D01*
X17479586Y-11064484D02*
X17479586Y-10931150D01*
X17479586Y-10950198D02*
X17489110Y-10940674D01*
X17489110Y-10940674D02*
X17508158Y-10931150D01*
X17508158Y-10931150D02*
X17536729Y-10931150D01*
X17536729Y-10931150D02*
X17555777Y-10940674D01*
X17555777Y-10940674D02*
X17565301Y-10959722D01*
X17565301Y-10959722D02*
X17565301Y-11064484D01*
X17565301Y-10959722D02*
X17574825Y-10940674D01*
X17574825Y-10940674D02*
X17593872Y-10931150D01*
X17593872Y-10931150D02*
X17622444Y-10931150D01*
X17622444Y-10931150D02*
X17641491Y-10940674D01*
X17641491Y-10940674D02*
X17651015Y-10959722D01*
X17651015Y-10959722D02*
X17651015Y-11064484D01*
X18041491Y-10854960D02*
X17870063Y-11112103D01*
X18298634Y-10864484D02*
X18317682Y-10864484D01*
X18317682Y-10864484D02*
X18336729Y-10874008D01*
X18336729Y-10874008D02*
X18346253Y-10883531D01*
X18346253Y-10883531D02*
X18355777Y-10902579D01*
X18355777Y-10902579D02*
X18365301Y-10940674D01*
X18365301Y-10940674D02*
X18365301Y-10988293D01*
X18365301Y-10988293D02*
X18355777Y-11026389D01*
X18355777Y-11026389D02*
X18346253Y-11045436D01*
X18346253Y-11045436D02*
X18336729Y-11054960D01*
X18336729Y-11054960D02*
X18317682Y-11064484D01*
X18317682Y-11064484D02*
X18298634Y-11064484D01*
X18298634Y-11064484D02*
X18279587Y-11054960D01*
X18279587Y-11054960D02*
X18270063Y-11045436D01*
X18270063Y-11045436D02*
X18260539Y-11026389D01*
X18260539Y-11026389D02*
X18251015Y-10988293D01*
X18251015Y-10988293D02*
X18251015Y-10940674D01*
X18251015Y-10940674D02*
X18260539Y-10902579D01*
X18260539Y-10902579D02*
X18270063Y-10883531D01*
X18270063Y-10883531D02*
X18279587Y-10874008D01*
X18279587Y-10874008D02*
X18298634Y-10864484D01*
X18451015Y-11045436D02*
X18460539Y-11054960D01*
X18460539Y-11054960D02*
X18451015Y-11064484D01*
X18451015Y-11064484D02*
X18441491Y-11054960D01*
X18441491Y-11054960D02*
X18451015Y-11045436D01*
X18451015Y-11045436D02*
X18451015Y-11064484D01*
X18584348Y-10864484D02*
X18603396Y-10864484D01*
X18603396Y-10864484D02*
X18622444Y-10874008D01*
X18622444Y-10874008D02*
X18631968Y-10883531D01*
X18631968Y-10883531D02*
X18641491Y-10902579D01*
X18641491Y-10902579D02*
X18651015Y-10940674D01*
X18651015Y-10940674D02*
X18651015Y-10988293D01*
X18651015Y-10988293D02*
X18641491Y-11026389D01*
X18641491Y-11026389D02*
X18631968Y-11045436D01*
X18631968Y-11045436D02*
X18622444Y-11054960D01*
X18622444Y-11054960D02*
X18603396Y-11064484D01*
X18603396Y-11064484D02*
X18584348Y-11064484D01*
X18584348Y-11064484D02*
X18565301Y-11054960D01*
X18565301Y-11054960D02*
X18555777Y-11045436D01*
X18555777Y-11045436D02*
X18546253Y-11026389D01*
X18546253Y-11026389D02*
X18536729Y-10988293D01*
X18536729Y-10988293D02*
X18536729Y-10940674D01*
X18536729Y-10940674D02*
X18546253Y-10902579D01*
X18546253Y-10902579D02*
X18555777Y-10883531D01*
X18555777Y-10883531D02*
X18565301Y-10874008D01*
X18565301Y-10874008D02*
X18584348Y-10864484D01*
X18727206Y-10883531D02*
X18736729Y-10874008D01*
X18736729Y-10874008D02*
X18755777Y-10864484D01*
X18755777Y-10864484D02*
X18803396Y-10864484D01*
X18803396Y-10864484D02*
X18822444Y-10874008D01*
X18822444Y-10874008D02*
X18831968Y-10883531D01*
X18831968Y-10883531D02*
X18841491Y-10902579D01*
X18841491Y-10902579D02*
X18841491Y-10921627D01*
X18841491Y-10921627D02*
X18831968Y-10950198D01*
X18831968Y-10950198D02*
X18717682Y-11064484D01*
X18717682Y-11064484D02*
X18841491Y-11064484D01*
X18908158Y-10864484D02*
X19041491Y-10864484D01*
X19041491Y-10864484D02*
X18955777Y-11064484D01*
X19203396Y-10864484D02*
X19165301Y-10864484D01*
X19165301Y-10864484D02*
X19146253Y-10874008D01*
X19146253Y-10874008D02*
X19136729Y-10883531D01*
X19136729Y-10883531D02*
X19117682Y-10912103D01*
X19117682Y-10912103D02*
X19108158Y-10950198D01*
X19108158Y-10950198D02*
X19108158Y-11026389D01*
X19108158Y-11026389D02*
X19117682Y-11045436D01*
X19117682Y-11045436D02*
X19127206Y-11054960D01*
X19127206Y-11054960D02*
X19146253Y-11064484D01*
X19146253Y-11064484D02*
X19184349Y-11064484D01*
X19184349Y-11064484D02*
X19203396Y-11054960D01*
X19203396Y-11054960D02*
X19212920Y-11045436D01*
X19212920Y-11045436D02*
X19222444Y-11026389D01*
X19222444Y-11026389D02*
X19222444Y-10978770D01*
X19222444Y-10978770D02*
X19212920Y-10959722D01*
X19212920Y-10959722D02*
X19203396Y-10950198D01*
X19203396Y-10950198D02*
X19184349Y-10940674D01*
X19184349Y-10940674D02*
X19146253Y-10940674D01*
X19146253Y-10940674D02*
X19127206Y-10950198D01*
X19127206Y-10950198D02*
X19117682Y-10959722D01*
X19117682Y-10959722D02*
X19108158Y-10978770D01*
X19298634Y-10864484D02*
X19298634Y-10902579D01*
X19374825Y-10864484D02*
X19374825Y-10902579D01*
X19670063Y-11140674D02*
X19660539Y-11131150D01*
X19660539Y-11131150D02*
X19641491Y-11102579D01*
X19641491Y-11102579D02*
X19631968Y-11083531D01*
X19631968Y-11083531D02*
X19622444Y-11054960D01*
X19622444Y-11054960D02*
X19612920Y-11007341D01*
X19612920Y-11007341D02*
X19612920Y-10969246D01*
X19612920Y-10969246D02*
X19622444Y-10921627D01*
X19622444Y-10921627D02*
X19631968Y-10893055D01*
X19631968Y-10893055D02*
X19641491Y-10874008D01*
X19641491Y-10874008D02*
X19660539Y-10845436D01*
X19660539Y-10845436D02*
X19670063Y-10835912D01*
X19736730Y-10883531D02*
X19746253Y-10874008D01*
X19746253Y-10874008D02*
X19765301Y-10864484D01*
X19765301Y-10864484D02*
X19812920Y-10864484D01*
X19812920Y-10864484D02*
X19831968Y-10874008D01*
X19831968Y-10874008D02*
X19841491Y-10883531D01*
X19841491Y-10883531D02*
X19851015Y-10902579D01*
X19851015Y-10902579D02*
X19851015Y-10921627D01*
X19851015Y-10921627D02*
X19841491Y-10950198D01*
X19841491Y-10950198D02*
X19727206Y-11064484D01*
X19727206Y-11064484D02*
X19851015Y-11064484D01*
X19974825Y-10864484D02*
X19993872Y-10864484D01*
X19993872Y-10864484D02*
X20012920Y-10874008D01*
X20012920Y-10874008D02*
X20022444Y-10883531D01*
X20022444Y-10883531D02*
X20031968Y-10902579D01*
X20031968Y-10902579D02*
X20041491Y-10940674D01*
X20041491Y-10940674D02*
X20041491Y-10988293D01*
X20041491Y-10988293D02*
X20031968Y-11026389D01*
X20031968Y-11026389D02*
X20022444Y-11045436D01*
X20022444Y-11045436D02*
X20012920Y-11054960D01*
X20012920Y-11054960D02*
X19993872Y-11064484D01*
X19993872Y-11064484D02*
X19974825Y-11064484D01*
X19974825Y-11064484D02*
X19955777Y-11054960D01*
X19955777Y-11054960D02*
X19946253Y-11045436D01*
X19946253Y-11045436D02*
X19936730Y-11026389D01*
X19936730Y-11026389D02*
X19927206Y-10988293D01*
X19927206Y-10988293D02*
X19927206Y-10940674D01*
X19927206Y-10940674D02*
X19936730Y-10902579D01*
X19936730Y-10902579D02*
X19946253Y-10883531D01*
X19946253Y-10883531D02*
X19955777Y-10874008D01*
X19955777Y-10874008D02*
X19974825Y-10864484D01*
X20279587Y-11064484D02*
X20279587Y-10864484D01*
X20365301Y-11064484D02*
X20365301Y-10959722D01*
X20365301Y-10959722D02*
X20355777Y-10940674D01*
X20355777Y-10940674D02*
X20336730Y-10931150D01*
X20336730Y-10931150D02*
X20308158Y-10931150D01*
X20308158Y-10931150D02*
X20289111Y-10940674D01*
X20289111Y-10940674D02*
X20279587Y-10950198D01*
X20489111Y-11064484D02*
X20470063Y-11054960D01*
X20470063Y-11054960D02*
X20460539Y-11045436D01*
X20460539Y-11045436D02*
X20451015Y-11026389D01*
X20451015Y-11026389D02*
X20451015Y-10969246D01*
X20451015Y-10969246D02*
X20460539Y-10950198D01*
X20460539Y-10950198D02*
X20470063Y-10940674D01*
X20470063Y-10940674D02*
X20489111Y-10931150D01*
X20489111Y-10931150D02*
X20517682Y-10931150D01*
X20517682Y-10931150D02*
X20536730Y-10940674D01*
X20536730Y-10940674D02*
X20546253Y-10950198D01*
X20546253Y-10950198D02*
X20555777Y-10969246D01*
X20555777Y-10969246D02*
X20555777Y-11026389D01*
X20555777Y-11026389D02*
X20546253Y-11045436D01*
X20546253Y-11045436D02*
X20536730Y-11054960D01*
X20536730Y-11054960D02*
X20517682Y-11064484D01*
X20517682Y-11064484D02*
X20489111Y-11064484D01*
X20670063Y-11064484D02*
X20651015Y-11054960D01*
X20651015Y-11054960D02*
X20641492Y-11035912D01*
X20641492Y-11035912D02*
X20641492Y-10864484D01*
X20822444Y-11054960D02*
X20803396Y-11064484D01*
X20803396Y-11064484D02*
X20765301Y-11064484D01*
X20765301Y-11064484D02*
X20746253Y-11054960D01*
X20746253Y-11054960D02*
X20736730Y-11035912D01*
X20736730Y-11035912D02*
X20736730Y-10959722D01*
X20736730Y-10959722D02*
X20746253Y-10940674D01*
X20746253Y-10940674D02*
X20765301Y-10931150D01*
X20765301Y-10931150D02*
X20803396Y-10931150D01*
X20803396Y-10931150D02*
X20822444Y-10940674D01*
X20822444Y-10940674D02*
X20831968Y-10959722D01*
X20831968Y-10959722D02*
X20831968Y-10978770D01*
X20831968Y-10978770D02*
X20736730Y-10997817D01*
X20908158Y-11054960D02*
X20927206Y-11064484D01*
X20927206Y-11064484D02*
X20965301Y-11064484D01*
X20965301Y-11064484D02*
X20984349Y-11054960D01*
X20984349Y-11054960D02*
X20993873Y-11035912D01*
X20993873Y-11035912D02*
X20993873Y-11026389D01*
X20993873Y-11026389D02*
X20984349Y-11007341D01*
X20984349Y-11007341D02*
X20965301Y-10997817D01*
X20965301Y-10997817D02*
X20936730Y-10997817D01*
X20936730Y-10997817D02*
X20917682Y-10988293D01*
X20917682Y-10988293D02*
X20908158Y-10969246D01*
X20908158Y-10969246D02*
X20908158Y-10959722D01*
X20908158Y-10959722D02*
X20917682Y-10940674D01*
X20917682Y-10940674D02*
X20936730Y-10931150D01*
X20936730Y-10931150D02*
X20965301Y-10931150D01*
X20965301Y-10931150D02*
X20984349Y-10940674D01*
X21060539Y-11140674D02*
X21070063Y-11131150D01*
X21070063Y-11131150D02*
X21089111Y-11102579D01*
X21089111Y-11102579D02*
X21098634Y-11083531D01*
X21098634Y-11083531D02*
X21108158Y-11054960D01*
X21108158Y-11054960D02*
X21117682Y-11007341D01*
X21117682Y-11007341D02*
X21117682Y-10969246D01*
X21117682Y-10969246D02*
X21108158Y-10921627D01*
X21108158Y-10921627D02*
X21098634Y-10893055D01*
X21098634Y-10893055D02*
X21089111Y-10874008D01*
X21089111Y-10874008D02*
X21070063Y-10845436D01*
X21070063Y-10845436D02*
X21060539Y-10835912D01*
D10*
X16084017Y-11263517D02*
X16084017Y-11210483D01*
X16030983Y-11210483D01*
X16030983Y-11263517D01*
X16084017Y-11263517D01*
D11*
X16393872Y-11128484D02*
X16412920Y-11128484D01*
X16412920Y-11128484D02*
X16431967Y-11138008D01*
X16431967Y-11138008D02*
X16441491Y-11147531D01*
X16441491Y-11147531D02*
X16451015Y-11166579D01*
X16451015Y-11166579D02*
X16460539Y-11204674D01*
X16460539Y-11204674D02*
X16460539Y-11252293D01*
X16460539Y-11252293D02*
X16451015Y-11290388D01*
X16451015Y-11290388D02*
X16441491Y-11309436D01*
X16441491Y-11309436D02*
X16431967Y-11318960D01*
X16431967Y-11318960D02*
X16412920Y-11328484D01*
X16412920Y-11328484D02*
X16393872Y-11328484D01*
X16393872Y-11328484D02*
X16374824Y-11318960D01*
X16374824Y-11318960D02*
X16365301Y-11309436D01*
X16365301Y-11309436D02*
X16355777Y-11290388D01*
X16355777Y-11290388D02*
X16346253Y-11252293D01*
X16346253Y-11252293D02*
X16346253Y-11204674D01*
X16346253Y-11204674D02*
X16355777Y-11166579D01*
X16355777Y-11166579D02*
X16365301Y-11147531D01*
X16365301Y-11147531D02*
X16374824Y-11138008D01*
X16374824Y-11138008D02*
X16393872Y-11128484D01*
X16546253Y-11309436D02*
X16555777Y-11318960D01*
X16555777Y-11318960D02*
X16546253Y-11328484D01*
X16546253Y-11328484D02*
X16536729Y-11318960D01*
X16536729Y-11318960D02*
X16546253Y-11309436D01*
X16546253Y-11309436D02*
X16546253Y-11328484D01*
X16622443Y-11128484D02*
X16755777Y-11128484D01*
X16755777Y-11128484D02*
X16670062Y-11328484D01*
X16927205Y-11128484D02*
X16831967Y-11128484D01*
X16831967Y-11128484D02*
X16822444Y-11223722D01*
X16822444Y-11223722D02*
X16831967Y-11214198D01*
X16831967Y-11214198D02*
X16851015Y-11204674D01*
X16851015Y-11204674D02*
X16898634Y-11204674D01*
X16898634Y-11204674D02*
X16917682Y-11214198D01*
X16917682Y-11214198D02*
X16927205Y-11223722D01*
X16927205Y-11223722D02*
X16936729Y-11242769D01*
X16936729Y-11242769D02*
X16936729Y-11290388D01*
X16936729Y-11290388D02*
X16927205Y-11309436D01*
X16927205Y-11309436D02*
X16917682Y-11318960D01*
X16917682Y-11318960D02*
X16898634Y-11328484D01*
X16898634Y-11328484D02*
X16851015Y-11328484D01*
X16851015Y-11328484D02*
X16831967Y-11318960D01*
X16831967Y-11318960D02*
X16822444Y-11309436D01*
X17060539Y-11128484D02*
X17079586Y-11128484D01*
X17079586Y-11128484D02*
X17098634Y-11138008D01*
X17098634Y-11138008D02*
X17108158Y-11147531D01*
X17108158Y-11147531D02*
X17117682Y-11166579D01*
X17117682Y-11166579D02*
X17127205Y-11204674D01*
X17127205Y-11204674D02*
X17127205Y-11252293D01*
X17127205Y-11252293D02*
X17117682Y-11290388D01*
X17117682Y-11290388D02*
X17108158Y-11309436D01*
X17108158Y-11309436D02*
X17098634Y-11318960D01*
X17098634Y-11318960D02*
X17079586Y-11328484D01*
X17079586Y-11328484D02*
X17060539Y-11328484D01*
X17060539Y-11328484D02*
X17041491Y-11318960D01*
X17041491Y-11318960D02*
X17031967Y-11309436D01*
X17031967Y-11309436D02*
X17022444Y-11290388D01*
X17022444Y-11290388D02*
X17012920Y-11252293D01*
X17012920Y-11252293D02*
X17012920Y-11204674D01*
X17012920Y-11204674D02*
X17022444Y-11166579D01*
X17022444Y-11166579D02*
X17031967Y-11147531D01*
X17031967Y-11147531D02*
X17041491Y-11138008D01*
X17041491Y-11138008D02*
X17060539Y-11128484D01*
X17212920Y-11328484D02*
X17212920Y-11195150D01*
X17212920Y-11214198D02*
X17222444Y-11204674D01*
X17222444Y-11204674D02*
X17241491Y-11195150D01*
X17241491Y-11195150D02*
X17270063Y-11195150D01*
X17270063Y-11195150D02*
X17289110Y-11204674D01*
X17289110Y-11204674D02*
X17298634Y-11223722D01*
X17298634Y-11223722D02*
X17298634Y-11328484D01*
X17298634Y-11223722D02*
X17308158Y-11204674D01*
X17308158Y-11204674D02*
X17327205Y-11195150D01*
X17327205Y-11195150D02*
X17355777Y-11195150D01*
X17355777Y-11195150D02*
X17374825Y-11204674D01*
X17374825Y-11204674D02*
X17384348Y-11223722D01*
X17384348Y-11223722D02*
X17384348Y-11328484D01*
X17479586Y-11328484D02*
X17479586Y-11195150D01*
X17479586Y-11214198D02*
X17489110Y-11204674D01*
X17489110Y-11204674D02*
X17508158Y-11195150D01*
X17508158Y-11195150D02*
X17536729Y-11195150D01*
X17536729Y-11195150D02*
X17555777Y-11204674D01*
X17555777Y-11204674D02*
X17565301Y-11223722D01*
X17565301Y-11223722D02*
X17565301Y-11328484D01*
X17565301Y-11223722D02*
X17574825Y-11204674D01*
X17574825Y-11204674D02*
X17593872Y-11195150D01*
X17593872Y-11195150D02*
X17622444Y-11195150D01*
X17622444Y-11195150D02*
X17641491Y-11204674D01*
X17641491Y-11204674D02*
X17651015Y-11223722D01*
X17651015Y-11223722D02*
X17651015Y-11328484D01*
X18041491Y-11118960D02*
X17870063Y-11376103D01*
X18298634Y-11128484D02*
X18317682Y-11128484D01*
X18317682Y-11128484D02*
X18336729Y-11138008D01*
X18336729Y-11138008D02*
X18346253Y-11147531D01*
X18346253Y-11147531D02*
X18355777Y-11166579D01*
X18355777Y-11166579D02*
X18365301Y-11204674D01*
X18365301Y-11204674D02*
X18365301Y-11252293D01*
X18365301Y-11252293D02*
X18355777Y-11290388D01*
X18355777Y-11290388D02*
X18346253Y-11309436D01*
X18346253Y-11309436D02*
X18336729Y-11318960D01*
X18336729Y-11318960D02*
X18317682Y-11328484D01*
X18317682Y-11328484D02*
X18298634Y-11328484D01*
X18298634Y-11328484D02*
X18279587Y-11318960D01*
X18279587Y-11318960D02*
X18270063Y-11309436D01*
X18270063Y-11309436D02*
X18260539Y-11290388D01*
X18260539Y-11290388D02*
X18251015Y-11252293D01*
X18251015Y-11252293D02*
X18251015Y-11204674D01*
X18251015Y-11204674D02*
X18260539Y-11166579D01*
X18260539Y-11166579D02*
X18270063Y-11147531D01*
X18270063Y-11147531D02*
X18279587Y-11138008D01*
X18279587Y-11138008D02*
X18298634Y-11128484D01*
X18451015Y-11309436D02*
X18460539Y-11318960D01*
X18460539Y-11318960D02*
X18451015Y-11328484D01*
X18451015Y-11328484D02*
X18441491Y-11318960D01*
X18441491Y-11318960D02*
X18451015Y-11309436D01*
X18451015Y-11309436D02*
X18451015Y-11328484D01*
X18584348Y-11128484D02*
X18603396Y-11128484D01*
X18603396Y-11128484D02*
X18622444Y-11138008D01*
X18622444Y-11138008D02*
X18631968Y-11147531D01*
X18631968Y-11147531D02*
X18641491Y-11166579D01*
X18641491Y-11166579D02*
X18651015Y-11204674D01*
X18651015Y-11204674D02*
X18651015Y-11252293D01*
X18651015Y-11252293D02*
X18641491Y-11290388D01*
X18641491Y-11290388D02*
X18631968Y-11309436D01*
X18631968Y-11309436D02*
X18622444Y-11318960D01*
X18622444Y-11318960D02*
X18603396Y-11328484D01*
X18603396Y-11328484D02*
X18584348Y-11328484D01*
X18584348Y-11328484D02*
X18565301Y-11318960D01*
X18565301Y-11318960D02*
X18555777Y-11309436D01*
X18555777Y-11309436D02*
X18546253Y-11290388D01*
X18546253Y-11290388D02*
X18536729Y-11252293D01*
X18536729Y-11252293D02*
X18536729Y-11204674D01*
X18536729Y-11204674D02*
X18546253Y-11166579D01*
X18546253Y-11166579D02*
X18555777Y-11147531D01*
X18555777Y-11147531D02*
X18565301Y-11138008D01*
X18565301Y-11138008D02*
X18584348Y-11128484D01*
X18727206Y-11147531D02*
X18736729Y-11138008D01*
X18736729Y-11138008D02*
X18755777Y-11128484D01*
X18755777Y-11128484D02*
X18803396Y-11128484D01*
X18803396Y-11128484D02*
X18822444Y-11138008D01*
X18822444Y-11138008D02*
X18831968Y-11147531D01*
X18831968Y-11147531D02*
X18841491Y-11166579D01*
X18841491Y-11166579D02*
X18841491Y-11185627D01*
X18841491Y-11185627D02*
X18831968Y-11214198D01*
X18831968Y-11214198D02*
X18717682Y-11328484D01*
X18717682Y-11328484D02*
X18841491Y-11328484D01*
X18936729Y-11328484D02*
X18974825Y-11328484D01*
X18974825Y-11328484D02*
X18993872Y-11318960D01*
X18993872Y-11318960D02*
X19003396Y-11309436D01*
X19003396Y-11309436D02*
X19022444Y-11280865D01*
X19022444Y-11280865D02*
X19031968Y-11242769D01*
X19031968Y-11242769D02*
X19031968Y-11166579D01*
X19031968Y-11166579D02*
X19022444Y-11147531D01*
X19022444Y-11147531D02*
X19012920Y-11138008D01*
X19012920Y-11138008D02*
X18993872Y-11128484D01*
X18993872Y-11128484D02*
X18955777Y-11128484D01*
X18955777Y-11128484D02*
X18936729Y-11138008D01*
X18936729Y-11138008D02*
X18927206Y-11147531D01*
X18927206Y-11147531D02*
X18917682Y-11166579D01*
X18917682Y-11166579D02*
X18917682Y-11214198D01*
X18917682Y-11214198D02*
X18927206Y-11233246D01*
X18927206Y-11233246D02*
X18936729Y-11242769D01*
X18936729Y-11242769D02*
X18955777Y-11252293D01*
X18955777Y-11252293D02*
X18993872Y-11252293D01*
X18993872Y-11252293D02*
X19012920Y-11242769D01*
X19012920Y-11242769D02*
X19022444Y-11233246D01*
X19022444Y-11233246D02*
X19031968Y-11214198D01*
X19212920Y-11128484D02*
X19117682Y-11128484D01*
X19117682Y-11128484D02*
X19108158Y-11223722D01*
X19108158Y-11223722D02*
X19117682Y-11214198D01*
X19117682Y-11214198D02*
X19136729Y-11204674D01*
X19136729Y-11204674D02*
X19184349Y-11204674D01*
X19184349Y-11204674D02*
X19203396Y-11214198D01*
X19203396Y-11214198D02*
X19212920Y-11223722D01*
X19212920Y-11223722D02*
X19222444Y-11242769D01*
X19222444Y-11242769D02*
X19222444Y-11290388D01*
X19222444Y-11290388D02*
X19212920Y-11309436D01*
X19212920Y-11309436D02*
X19203396Y-11318960D01*
X19203396Y-11318960D02*
X19184349Y-11328484D01*
X19184349Y-11328484D02*
X19136729Y-11328484D01*
X19136729Y-11328484D02*
X19117682Y-11318960D01*
X19117682Y-11318960D02*
X19108158Y-11309436D01*
X19298634Y-11128484D02*
X19298634Y-11166579D01*
X19374825Y-11128484D02*
X19374825Y-11166579D01*
X19670063Y-11404674D02*
X19660539Y-11395150D01*
X19660539Y-11395150D02*
X19641491Y-11366579D01*
X19641491Y-11366579D02*
X19631968Y-11347531D01*
X19631968Y-11347531D02*
X19622444Y-11318960D01*
X19622444Y-11318960D02*
X19612920Y-11271341D01*
X19612920Y-11271341D02*
X19612920Y-11233246D01*
X19612920Y-11233246D02*
X19622444Y-11185627D01*
X19622444Y-11185627D02*
X19631968Y-11157055D01*
X19631968Y-11157055D02*
X19641491Y-11138008D01*
X19641491Y-11138008D02*
X19660539Y-11109436D01*
X19660539Y-11109436D02*
X19670063Y-11099912D01*
X19727206Y-11128484D02*
X19851015Y-11128484D01*
X19851015Y-11128484D02*
X19784349Y-11204674D01*
X19784349Y-11204674D02*
X19812920Y-11204674D01*
X19812920Y-11204674D02*
X19831968Y-11214198D01*
X19831968Y-11214198D02*
X19841491Y-11223722D01*
X19841491Y-11223722D02*
X19851015Y-11242769D01*
X19851015Y-11242769D02*
X19851015Y-11290388D01*
X19851015Y-11290388D02*
X19841491Y-11309436D01*
X19841491Y-11309436D02*
X19831968Y-11318960D01*
X19831968Y-11318960D02*
X19812920Y-11328484D01*
X19812920Y-11328484D02*
X19755777Y-11328484D01*
X19755777Y-11328484D02*
X19736730Y-11318960D01*
X19736730Y-11318960D02*
X19727206Y-11309436D01*
X20089111Y-11328484D02*
X20089111Y-11128484D01*
X20174825Y-11328484D02*
X20174825Y-11223722D01*
X20174825Y-11223722D02*
X20165301Y-11204674D01*
X20165301Y-11204674D02*
X20146253Y-11195150D01*
X20146253Y-11195150D02*
X20117682Y-11195150D01*
X20117682Y-11195150D02*
X20098634Y-11204674D01*
X20098634Y-11204674D02*
X20089111Y-11214198D01*
X20298634Y-11328484D02*
X20279587Y-11318960D01*
X20279587Y-11318960D02*
X20270063Y-11309436D01*
X20270063Y-11309436D02*
X20260539Y-11290388D01*
X20260539Y-11290388D02*
X20260539Y-11233246D01*
X20260539Y-11233246D02*
X20270063Y-11214198D01*
X20270063Y-11214198D02*
X20279587Y-11204674D01*
X20279587Y-11204674D02*
X20298634Y-11195150D01*
X20298634Y-11195150D02*
X20327206Y-11195150D01*
X20327206Y-11195150D02*
X20346253Y-11204674D01*
X20346253Y-11204674D02*
X20355777Y-11214198D01*
X20355777Y-11214198D02*
X20365301Y-11233246D01*
X20365301Y-11233246D02*
X20365301Y-11290388D01*
X20365301Y-11290388D02*
X20355777Y-11309436D01*
X20355777Y-11309436D02*
X20346253Y-11318960D01*
X20346253Y-11318960D02*
X20327206Y-11328484D01*
X20327206Y-11328484D02*
X20298634Y-11328484D01*
X20479587Y-11328484D02*
X20460539Y-11318960D01*
X20460539Y-11318960D02*
X20451015Y-11299912D01*
X20451015Y-11299912D02*
X20451015Y-11128484D01*
X20631968Y-11318960D02*
X20612920Y-11328484D01*
X20612920Y-11328484D02*
X20574825Y-11328484D01*
X20574825Y-11328484D02*
X20555777Y-11318960D01*
X20555777Y-11318960D02*
X20546253Y-11299912D01*
X20546253Y-11299912D02*
X20546253Y-11223722D01*
X20546253Y-11223722D02*
X20555777Y-11204674D01*
X20555777Y-11204674D02*
X20574825Y-11195150D01*
X20574825Y-11195150D02*
X20612920Y-11195150D01*
X20612920Y-11195150D02*
X20631968Y-11204674D01*
X20631968Y-11204674D02*
X20641492Y-11223722D01*
X20641492Y-11223722D02*
X20641492Y-11242769D01*
X20641492Y-11242769D02*
X20546253Y-11261817D01*
X20717682Y-11318960D02*
X20736730Y-11328484D01*
X20736730Y-11328484D02*
X20774825Y-11328484D01*
X20774825Y-11328484D02*
X20793873Y-11318960D01*
X20793873Y-11318960D02*
X20803396Y-11299912D01*
X20803396Y-11299912D02*
X20803396Y-11290388D01*
X20803396Y-11290388D02*
X20793873Y-11271341D01*
X20793873Y-11271341D02*
X20774825Y-11261817D01*
X20774825Y-11261817D02*
X20746253Y-11261817D01*
X20746253Y-11261817D02*
X20727206Y-11252293D01*
X20727206Y-11252293D02*
X20717682Y-11233246D01*
X20717682Y-11233246D02*
X20717682Y-11223722D01*
X20717682Y-11223722D02*
X20727206Y-11204674D01*
X20727206Y-11204674D02*
X20746253Y-11195150D01*
X20746253Y-11195150D02*
X20774825Y-11195150D01*
X20774825Y-11195150D02*
X20793873Y-11204674D01*
X20870063Y-11404674D02*
X20879587Y-11395150D01*
X20879587Y-11395150D02*
X20898634Y-11366579D01*
X20898634Y-11366579D02*
X20908158Y-11347531D01*
X20908158Y-11347531D02*
X20917682Y-11318960D01*
X20917682Y-11318960D02*
X20927206Y-11271341D01*
X20927206Y-11271341D02*
X20927206Y-11233246D01*
X20927206Y-11233246D02*
X20917682Y-11185627D01*
X20917682Y-11185627D02*
X20908158Y-11157055D01*
X20908158Y-11157055D02*
X20898634Y-11138008D01*
X20898634Y-11138008D02*
X20879587Y-11109436D01*
X20879587Y-11109436D02*
X20870063Y-11099912D01*
D10*
X16052500Y-11543500D02*
X16095000Y-11501000D01*
X16052500Y-11458500D01*
X16010000Y-11501000D01*
X16052500Y-11543500D01*
D11*
X16393872Y-11392484D02*
X16412920Y-11392484D01*
X16412920Y-11392484D02*
X16431967Y-11402008D01*
X16431967Y-11402008D02*
X16441491Y-11411531D01*
X16441491Y-11411531D02*
X16451015Y-11430579D01*
X16451015Y-11430579D02*
X16460539Y-11468674D01*
X16460539Y-11468674D02*
X16460539Y-11516293D01*
X16460539Y-11516293D02*
X16451015Y-11554388D01*
X16451015Y-11554388D02*
X16441491Y-11573436D01*
X16441491Y-11573436D02*
X16431967Y-11582960D01*
X16431967Y-11582960D02*
X16412920Y-11592484D01*
X16412920Y-11592484D02*
X16393872Y-11592484D01*
X16393872Y-11592484D02*
X16374824Y-11582960D01*
X16374824Y-11582960D02*
X16365301Y-11573436D01*
X16365301Y-11573436D02*
X16355777Y-11554388D01*
X16355777Y-11554388D02*
X16346253Y-11516293D01*
X16346253Y-11516293D02*
X16346253Y-11468674D01*
X16346253Y-11468674D02*
X16355777Y-11430579D01*
X16355777Y-11430579D02*
X16365301Y-11411531D01*
X16365301Y-11411531D02*
X16374824Y-11402008D01*
X16374824Y-11402008D02*
X16393872Y-11392484D01*
X16546253Y-11573436D02*
X16555777Y-11582960D01*
X16555777Y-11582960D02*
X16546253Y-11592484D01*
X16546253Y-11592484D02*
X16536729Y-11582960D01*
X16536729Y-11582960D02*
X16546253Y-11573436D01*
X16546253Y-11573436D02*
X16546253Y-11592484D01*
X16670062Y-11478198D02*
X16651015Y-11468674D01*
X16651015Y-11468674D02*
X16641491Y-11459150D01*
X16641491Y-11459150D02*
X16631967Y-11440103D01*
X16631967Y-11440103D02*
X16631967Y-11430579D01*
X16631967Y-11430579D02*
X16641491Y-11411531D01*
X16641491Y-11411531D02*
X16651015Y-11402008D01*
X16651015Y-11402008D02*
X16670062Y-11392484D01*
X16670062Y-11392484D02*
X16708158Y-11392484D01*
X16708158Y-11392484D02*
X16727205Y-11402008D01*
X16727205Y-11402008D02*
X16736729Y-11411531D01*
X16736729Y-11411531D02*
X16746253Y-11430579D01*
X16746253Y-11430579D02*
X16746253Y-11440103D01*
X16746253Y-11440103D02*
X16736729Y-11459150D01*
X16736729Y-11459150D02*
X16727205Y-11468674D01*
X16727205Y-11468674D02*
X16708158Y-11478198D01*
X16708158Y-11478198D02*
X16670062Y-11478198D01*
X16670062Y-11478198D02*
X16651015Y-11487722D01*
X16651015Y-11487722D02*
X16641491Y-11497246D01*
X16641491Y-11497246D02*
X16631967Y-11516293D01*
X16631967Y-11516293D02*
X16631967Y-11554388D01*
X16631967Y-11554388D02*
X16641491Y-11573436D01*
X16641491Y-11573436D02*
X16651015Y-11582960D01*
X16651015Y-11582960D02*
X16670062Y-11592484D01*
X16670062Y-11592484D02*
X16708158Y-11592484D01*
X16708158Y-11592484D02*
X16727205Y-11582960D01*
X16727205Y-11582960D02*
X16736729Y-11573436D01*
X16736729Y-11573436D02*
X16746253Y-11554388D01*
X16746253Y-11554388D02*
X16746253Y-11516293D01*
X16746253Y-11516293D02*
X16736729Y-11497246D01*
X16736729Y-11497246D02*
X16727205Y-11487722D01*
X16727205Y-11487722D02*
X16708158Y-11478198D01*
X16927205Y-11392484D02*
X16831967Y-11392484D01*
X16831967Y-11392484D02*
X16822444Y-11487722D01*
X16822444Y-11487722D02*
X16831967Y-11478198D01*
X16831967Y-11478198D02*
X16851015Y-11468674D01*
X16851015Y-11468674D02*
X16898634Y-11468674D01*
X16898634Y-11468674D02*
X16917682Y-11478198D01*
X16917682Y-11478198D02*
X16927205Y-11487722D01*
X16927205Y-11487722D02*
X16936729Y-11506769D01*
X16936729Y-11506769D02*
X16936729Y-11554388D01*
X16936729Y-11554388D02*
X16927205Y-11573436D01*
X16927205Y-11573436D02*
X16917682Y-11582960D01*
X16917682Y-11582960D02*
X16898634Y-11592484D01*
X16898634Y-11592484D02*
X16851015Y-11592484D01*
X16851015Y-11592484D02*
X16831967Y-11582960D01*
X16831967Y-11582960D02*
X16822444Y-11573436D01*
X17060539Y-11392484D02*
X17079586Y-11392484D01*
X17079586Y-11392484D02*
X17098634Y-11402008D01*
X17098634Y-11402008D02*
X17108158Y-11411531D01*
X17108158Y-11411531D02*
X17117682Y-11430579D01*
X17117682Y-11430579D02*
X17127205Y-11468674D01*
X17127205Y-11468674D02*
X17127205Y-11516293D01*
X17127205Y-11516293D02*
X17117682Y-11554388D01*
X17117682Y-11554388D02*
X17108158Y-11573436D01*
X17108158Y-11573436D02*
X17098634Y-11582960D01*
X17098634Y-11582960D02*
X17079586Y-11592484D01*
X17079586Y-11592484D02*
X17060539Y-11592484D01*
X17060539Y-11592484D02*
X17041491Y-11582960D01*
X17041491Y-11582960D02*
X17031967Y-11573436D01*
X17031967Y-11573436D02*
X17022444Y-11554388D01*
X17022444Y-11554388D02*
X17012920Y-11516293D01*
X17012920Y-11516293D02*
X17012920Y-11468674D01*
X17012920Y-11468674D02*
X17022444Y-11430579D01*
X17022444Y-11430579D02*
X17031967Y-11411531D01*
X17031967Y-11411531D02*
X17041491Y-11402008D01*
X17041491Y-11402008D02*
X17060539Y-11392484D01*
X17212920Y-11592484D02*
X17212920Y-11459150D01*
X17212920Y-11478198D02*
X17222444Y-11468674D01*
X17222444Y-11468674D02*
X17241491Y-11459150D01*
X17241491Y-11459150D02*
X17270063Y-11459150D01*
X17270063Y-11459150D02*
X17289110Y-11468674D01*
X17289110Y-11468674D02*
X17298634Y-11487722D01*
X17298634Y-11487722D02*
X17298634Y-11592484D01*
X17298634Y-11487722D02*
X17308158Y-11468674D01*
X17308158Y-11468674D02*
X17327205Y-11459150D01*
X17327205Y-11459150D02*
X17355777Y-11459150D01*
X17355777Y-11459150D02*
X17374825Y-11468674D01*
X17374825Y-11468674D02*
X17384348Y-11487722D01*
X17384348Y-11487722D02*
X17384348Y-11592484D01*
X17479586Y-11592484D02*
X17479586Y-11459150D01*
X17479586Y-11478198D02*
X17489110Y-11468674D01*
X17489110Y-11468674D02*
X17508158Y-11459150D01*
X17508158Y-11459150D02*
X17536729Y-11459150D01*
X17536729Y-11459150D02*
X17555777Y-11468674D01*
X17555777Y-11468674D02*
X17565301Y-11487722D01*
X17565301Y-11487722D02*
X17565301Y-11592484D01*
X17565301Y-11487722D02*
X17574825Y-11468674D01*
X17574825Y-11468674D02*
X17593872Y-11459150D01*
X17593872Y-11459150D02*
X17622444Y-11459150D01*
X17622444Y-11459150D02*
X17641491Y-11468674D01*
X17641491Y-11468674D02*
X17651015Y-11487722D01*
X17651015Y-11487722D02*
X17651015Y-11592484D01*
X18041491Y-11382960D02*
X17870063Y-11640103D01*
X18298634Y-11392484D02*
X18317682Y-11392484D01*
X18317682Y-11392484D02*
X18336729Y-11402008D01*
X18336729Y-11402008D02*
X18346253Y-11411531D01*
X18346253Y-11411531D02*
X18355777Y-11430579D01*
X18355777Y-11430579D02*
X18365301Y-11468674D01*
X18365301Y-11468674D02*
X18365301Y-11516293D01*
X18365301Y-11516293D02*
X18355777Y-11554388D01*
X18355777Y-11554388D02*
X18346253Y-11573436D01*
X18346253Y-11573436D02*
X18336729Y-11582960D01*
X18336729Y-11582960D02*
X18317682Y-11592484D01*
X18317682Y-11592484D02*
X18298634Y-11592484D01*
X18298634Y-11592484D02*
X18279587Y-11582960D01*
X18279587Y-11582960D02*
X18270063Y-11573436D01*
X18270063Y-11573436D02*
X18260539Y-11554388D01*
X18260539Y-11554388D02*
X18251015Y-11516293D01*
X18251015Y-11516293D02*
X18251015Y-11468674D01*
X18251015Y-11468674D02*
X18260539Y-11430579D01*
X18260539Y-11430579D02*
X18270063Y-11411531D01*
X18270063Y-11411531D02*
X18279587Y-11402008D01*
X18279587Y-11402008D02*
X18298634Y-11392484D01*
X18451015Y-11573436D02*
X18460539Y-11582960D01*
X18460539Y-11582960D02*
X18451015Y-11592484D01*
X18451015Y-11592484D02*
X18441491Y-11582960D01*
X18441491Y-11582960D02*
X18451015Y-11573436D01*
X18451015Y-11573436D02*
X18451015Y-11592484D01*
X18584348Y-11392484D02*
X18603396Y-11392484D01*
X18603396Y-11392484D02*
X18622444Y-11402008D01*
X18622444Y-11402008D02*
X18631968Y-11411531D01*
X18631968Y-11411531D02*
X18641491Y-11430579D01*
X18641491Y-11430579D02*
X18651015Y-11468674D01*
X18651015Y-11468674D02*
X18651015Y-11516293D01*
X18651015Y-11516293D02*
X18641491Y-11554388D01*
X18641491Y-11554388D02*
X18631968Y-11573436D01*
X18631968Y-11573436D02*
X18622444Y-11582960D01*
X18622444Y-11582960D02*
X18603396Y-11592484D01*
X18603396Y-11592484D02*
X18584348Y-11592484D01*
X18584348Y-11592484D02*
X18565301Y-11582960D01*
X18565301Y-11582960D02*
X18555777Y-11573436D01*
X18555777Y-11573436D02*
X18546253Y-11554388D01*
X18546253Y-11554388D02*
X18536729Y-11516293D01*
X18536729Y-11516293D02*
X18536729Y-11468674D01*
X18536729Y-11468674D02*
X18546253Y-11430579D01*
X18546253Y-11430579D02*
X18555777Y-11411531D01*
X18555777Y-11411531D02*
X18565301Y-11402008D01*
X18565301Y-11402008D02*
X18584348Y-11392484D01*
X18717682Y-11392484D02*
X18841491Y-11392484D01*
X18841491Y-11392484D02*
X18774825Y-11468674D01*
X18774825Y-11468674D02*
X18803396Y-11468674D01*
X18803396Y-11468674D02*
X18822444Y-11478198D01*
X18822444Y-11478198D02*
X18831968Y-11487722D01*
X18831968Y-11487722D02*
X18841491Y-11506769D01*
X18841491Y-11506769D02*
X18841491Y-11554388D01*
X18841491Y-11554388D02*
X18831968Y-11573436D01*
X18831968Y-11573436D02*
X18822444Y-11582960D01*
X18822444Y-11582960D02*
X18803396Y-11592484D01*
X18803396Y-11592484D02*
X18746253Y-11592484D01*
X18746253Y-11592484D02*
X18727206Y-11582960D01*
X18727206Y-11582960D02*
X18717682Y-11573436D01*
X18908158Y-11392484D02*
X19031968Y-11392484D01*
X19031968Y-11392484D02*
X18965301Y-11468674D01*
X18965301Y-11468674D02*
X18993872Y-11468674D01*
X18993872Y-11468674D02*
X19012920Y-11478198D01*
X19012920Y-11478198D02*
X19022444Y-11487722D01*
X19022444Y-11487722D02*
X19031968Y-11506769D01*
X19031968Y-11506769D02*
X19031968Y-11554388D01*
X19031968Y-11554388D02*
X19022444Y-11573436D01*
X19022444Y-11573436D02*
X19012920Y-11582960D01*
X19012920Y-11582960D02*
X18993872Y-11592484D01*
X18993872Y-11592484D02*
X18936729Y-11592484D01*
X18936729Y-11592484D02*
X18917682Y-11582960D01*
X18917682Y-11582960D02*
X18908158Y-11573436D01*
X19212920Y-11392484D02*
X19117682Y-11392484D01*
X19117682Y-11392484D02*
X19108158Y-11487722D01*
X19108158Y-11487722D02*
X19117682Y-11478198D01*
X19117682Y-11478198D02*
X19136729Y-11468674D01*
X19136729Y-11468674D02*
X19184349Y-11468674D01*
X19184349Y-11468674D02*
X19203396Y-11478198D01*
X19203396Y-11478198D02*
X19212920Y-11487722D01*
X19212920Y-11487722D02*
X19222444Y-11506769D01*
X19222444Y-11506769D02*
X19222444Y-11554388D01*
X19222444Y-11554388D02*
X19212920Y-11573436D01*
X19212920Y-11573436D02*
X19203396Y-11582960D01*
X19203396Y-11582960D02*
X19184349Y-11592484D01*
X19184349Y-11592484D02*
X19136729Y-11592484D01*
X19136729Y-11592484D02*
X19117682Y-11582960D01*
X19117682Y-11582960D02*
X19108158Y-11573436D01*
X19298634Y-11392484D02*
X19298634Y-11430579D01*
X19374825Y-11392484D02*
X19374825Y-11430579D01*
X19670063Y-11668674D02*
X19660539Y-11659150D01*
X19660539Y-11659150D02*
X19641491Y-11630579D01*
X19641491Y-11630579D02*
X19631968Y-11611531D01*
X19631968Y-11611531D02*
X19622444Y-11582960D01*
X19622444Y-11582960D02*
X19612920Y-11535341D01*
X19612920Y-11535341D02*
X19612920Y-11497246D01*
X19612920Y-11497246D02*
X19622444Y-11449627D01*
X19622444Y-11449627D02*
X19631968Y-11421055D01*
X19631968Y-11421055D02*
X19641491Y-11402008D01*
X19641491Y-11402008D02*
X19660539Y-11373436D01*
X19660539Y-11373436D02*
X19670063Y-11363912D01*
X19784349Y-11392484D02*
X19803396Y-11392484D01*
X19803396Y-11392484D02*
X19822444Y-11402008D01*
X19822444Y-11402008D02*
X19831968Y-11411531D01*
X19831968Y-11411531D02*
X19841491Y-11430579D01*
X19841491Y-11430579D02*
X19851015Y-11468674D01*
X19851015Y-11468674D02*
X19851015Y-11516293D01*
X19851015Y-11516293D02*
X19841491Y-11554388D01*
X19841491Y-11554388D02*
X19831968Y-11573436D01*
X19831968Y-11573436D02*
X19822444Y-11582960D01*
X19822444Y-11582960D02*
X19803396Y-11592484D01*
X19803396Y-11592484D02*
X19784349Y-11592484D01*
X19784349Y-11592484D02*
X19765301Y-11582960D01*
X19765301Y-11582960D02*
X19755777Y-11573436D01*
X19755777Y-11573436D02*
X19746253Y-11554388D01*
X19746253Y-11554388D02*
X19736730Y-11516293D01*
X19736730Y-11516293D02*
X19736730Y-11468674D01*
X19736730Y-11468674D02*
X19746253Y-11430579D01*
X19746253Y-11430579D02*
X19755777Y-11411531D01*
X19755777Y-11411531D02*
X19765301Y-11402008D01*
X19765301Y-11402008D02*
X19784349Y-11392484D01*
X20089111Y-11592484D02*
X20089111Y-11392484D01*
X20174825Y-11592484D02*
X20174825Y-11487722D01*
X20174825Y-11487722D02*
X20165301Y-11468674D01*
X20165301Y-11468674D02*
X20146253Y-11459150D01*
X20146253Y-11459150D02*
X20117682Y-11459150D01*
X20117682Y-11459150D02*
X20098634Y-11468674D01*
X20098634Y-11468674D02*
X20089111Y-11478198D01*
X20298634Y-11592484D02*
X20279587Y-11582960D01*
X20279587Y-11582960D02*
X20270063Y-11573436D01*
X20270063Y-11573436D02*
X20260539Y-11554388D01*
X20260539Y-11554388D02*
X20260539Y-11497246D01*
X20260539Y-11497246D02*
X20270063Y-11478198D01*
X20270063Y-11478198D02*
X20279587Y-11468674D01*
X20279587Y-11468674D02*
X20298634Y-11459150D01*
X20298634Y-11459150D02*
X20327206Y-11459150D01*
X20327206Y-11459150D02*
X20346253Y-11468674D01*
X20346253Y-11468674D02*
X20355777Y-11478198D01*
X20355777Y-11478198D02*
X20365301Y-11497246D01*
X20365301Y-11497246D02*
X20365301Y-11554388D01*
X20365301Y-11554388D02*
X20355777Y-11573436D01*
X20355777Y-11573436D02*
X20346253Y-11582960D01*
X20346253Y-11582960D02*
X20327206Y-11592484D01*
X20327206Y-11592484D02*
X20298634Y-11592484D01*
X20479587Y-11592484D02*
X20460539Y-11582960D01*
X20460539Y-11582960D02*
X20451015Y-11563912D01*
X20451015Y-11563912D02*
X20451015Y-11392484D01*
X20631968Y-11582960D02*
X20612920Y-11592484D01*
X20612920Y-11592484D02*
X20574825Y-11592484D01*
X20574825Y-11592484D02*
X20555777Y-11582960D01*
X20555777Y-11582960D02*
X20546253Y-11563912D01*
X20546253Y-11563912D02*
X20546253Y-11487722D01*
X20546253Y-11487722D02*
X20555777Y-11468674D01*
X20555777Y-11468674D02*
X20574825Y-11459150D01*
X20574825Y-11459150D02*
X20612920Y-11459150D01*
X20612920Y-11459150D02*
X20631968Y-11468674D01*
X20631968Y-11468674D02*
X20641492Y-11487722D01*
X20641492Y-11487722D02*
X20641492Y-11506769D01*
X20641492Y-11506769D02*
X20546253Y-11525817D01*
X20717682Y-11582960D02*
X20736730Y-11592484D01*
X20736730Y-11592484D02*
X20774825Y-11592484D01*
X20774825Y-11592484D02*
X20793873Y-11582960D01*
X20793873Y-11582960D02*
X20803396Y-11563912D01*
X20803396Y-11563912D02*
X20803396Y-11554388D01*
X20803396Y-11554388D02*
X20793873Y-11535341D01*
X20793873Y-11535341D02*
X20774825Y-11525817D01*
X20774825Y-11525817D02*
X20746253Y-11525817D01*
X20746253Y-11525817D02*
X20727206Y-11516293D01*
X20727206Y-11516293D02*
X20717682Y-11497246D01*
X20717682Y-11497246D02*
X20717682Y-11487722D01*
X20717682Y-11487722D02*
X20727206Y-11468674D01*
X20727206Y-11468674D02*
X20746253Y-11459150D01*
X20746253Y-11459150D02*
X20774825Y-11459150D01*
X20774825Y-11459150D02*
X20793873Y-11468674D01*
X21041492Y-11516293D02*
X21193873Y-11516293D01*
X21117682Y-11592484D02*
X21117682Y-11440103D01*
X21431968Y-11411531D02*
X21441492Y-11402008D01*
X21441492Y-11402008D02*
X21460539Y-11392484D01*
X21460539Y-11392484D02*
X21508158Y-11392484D01*
X21508158Y-11392484D02*
X21527206Y-11402008D01*
X21527206Y-11402008D02*
X21536730Y-11411531D01*
X21536730Y-11411531D02*
X21546254Y-11430579D01*
X21546254Y-11430579D02*
X21546254Y-11449627D01*
X21546254Y-11449627D02*
X21536730Y-11478198D01*
X21536730Y-11478198D02*
X21422444Y-11592484D01*
X21422444Y-11592484D02*
X21546254Y-11592484D01*
X21774825Y-11582960D02*
X21793873Y-11592484D01*
X21793873Y-11592484D02*
X21831968Y-11592484D01*
X21831968Y-11592484D02*
X21851016Y-11582960D01*
X21851016Y-11582960D02*
X21860539Y-11563912D01*
X21860539Y-11563912D02*
X21860539Y-11554388D01*
X21860539Y-11554388D02*
X21851016Y-11535341D01*
X21851016Y-11535341D02*
X21831968Y-11525817D01*
X21831968Y-11525817D02*
X21803396Y-11525817D01*
X21803396Y-11525817D02*
X21784349Y-11516293D01*
X21784349Y-11516293D02*
X21774825Y-11497246D01*
X21774825Y-11497246D02*
X21774825Y-11487722D01*
X21774825Y-11487722D02*
X21784349Y-11468674D01*
X21784349Y-11468674D02*
X21803396Y-11459150D01*
X21803396Y-11459150D02*
X21831968Y-11459150D01*
X21831968Y-11459150D02*
X21851016Y-11468674D01*
X21974825Y-11592484D02*
X21955777Y-11582960D01*
X21955777Y-11582960D02*
X21946254Y-11563912D01*
X21946254Y-11563912D02*
X21946254Y-11392484D01*
X22079587Y-11592484D02*
X22060539Y-11582960D01*
X22060539Y-11582960D02*
X22051016Y-11573436D01*
X22051016Y-11573436D02*
X22041492Y-11554388D01*
X22041492Y-11554388D02*
X22041492Y-11497246D01*
X22041492Y-11497246D02*
X22051016Y-11478198D01*
X22051016Y-11478198D02*
X22060539Y-11468674D01*
X22060539Y-11468674D02*
X22079587Y-11459150D01*
X22079587Y-11459150D02*
X22108158Y-11459150D01*
X22108158Y-11459150D02*
X22127206Y-11468674D01*
X22127206Y-11468674D02*
X22136730Y-11478198D01*
X22136730Y-11478198D02*
X22146254Y-11497246D01*
X22146254Y-11497246D02*
X22146254Y-11554388D01*
X22146254Y-11554388D02*
X22136730Y-11573436D01*
X22136730Y-11573436D02*
X22127206Y-11582960D01*
X22127206Y-11582960D02*
X22108158Y-11592484D01*
X22108158Y-11592484D02*
X22079587Y-11592484D01*
X22203397Y-11459150D02*
X22279587Y-11459150D01*
X22231968Y-11392484D02*
X22231968Y-11563912D01*
X22231968Y-11563912D02*
X22241492Y-11582960D01*
X22241492Y-11582960D02*
X22260539Y-11592484D01*
X22260539Y-11592484D02*
X22279587Y-11592484D01*
X22336730Y-11582960D02*
X22355777Y-11592484D01*
X22355777Y-11592484D02*
X22393873Y-11592484D01*
X22393873Y-11592484D02*
X22412920Y-11582960D01*
X22412920Y-11582960D02*
X22422444Y-11563912D01*
X22422444Y-11563912D02*
X22422444Y-11554388D01*
X22422444Y-11554388D02*
X22412920Y-11535341D01*
X22412920Y-11535341D02*
X22393873Y-11525817D01*
X22393873Y-11525817D02*
X22365301Y-11525817D01*
X22365301Y-11525817D02*
X22346254Y-11516293D01*
X22346254Y-11516293D02*
X22336730Y-11497246D01*
X22336730Y-11497246D02*
X22336730Y-11487722D01*
X22336730Y-11487722D02*
X22346254Y-11468674D01*
X22346254Y-11468674D02*
X22365301Y-11459150D01*
X22365301Y-11459150D02*
X22393873Y-11459150D01*
X22393873Y-11459150D02*
X22412920Y-11468674D01*
X22489111Y-11668674D02*
X22498635Y-11659150D01*
X22498635Y-11659150D02*
X22517682Y-11630579D01*
X22517682Y-11630579D02*
X22527206Y-11611531D01*
X22527206Y-11611531D02*
X22536730Y-11582960D01*
X22536730Y-11582960D02*
X22546254Y-11535341D01*
X22546254Y-11535341D02*
X22546254Y-11497246D01*
X22546254Y-11497246D02*
X22536730Y-11449627D01*
X22536730Y-11449627D02*
X22527206Y-11421055D01*
X22527206Y-11421055D02*
X22517682Y-11402008D01*
X22517682Y-11402008D02*
X22498635Y-11373436D01*
X22498635Y-11373436D02*
X22489111Y-11363912D01*
D10*
X15995000Y-11715000D02*
X16095000Y-11815000D01*
X16095000Y-11715000D02*
X15995000Y-11815000D01*
X16095000Y-11765000D02*
G75*
G02*
X15995000Y-11765000I-50000J0D01*
G01*
X15995000Y-11765000D02*
G75*
G02*
X16095000Y-11765000I50000J0D01*
G01*
D11*
X16460539Y-11856484D02*
X16346253Y-11856484D01*
X16403396Y-11856484D02*
X16403396Y-11656484D01*
X16403396Y-11656484D02*
X16384348Y-11685055D01*
X16384348Y-11685055D02*
X16365301Y-11704103D01*
X16365301Y-11704103D02*
X16346253Y-11713627D01*
X16546253Y-11837436D02*
X16555777Y-11846960D01*
X16555777Y-11846960D02*
X16546253Y-11856484D01*
X16546253Y-11856484D02*
X16536729Y-11846960D01*
X16536729Y-11846960D02*
X16546253Y-11837436D01*
X16546253Y-11837436D02*
X16546253Y-11856484D01*
X16679586Y-11656484D02*
X16698634Y-11656484D01*
X16698634Y-11656484D02*
X16717682Y-11666008D01*
X16717682Y-11666008D02*
X16727205Y-11675531D01*
X16727205Y-11675531D02*
X16736729Y-11694579D01*
X16736729Y-11694579D02*
X16746253Y-11732674D01*
X16746253Y-11732674D02*
X16746253Y-11780293D01*
X16746253Y-11780293D02*
X16736729Y-11818388D01*
X16736729Y-11818388D02*
X16727205Y-11837436D01*
X16727205Y-11837436D02*
X16717682Y-11846960D01*
X16717682Y-11846960D02*
X16698634Y-11856484D01*
X16698634Y-11856484D02*
X16679586Y-11856484D01*
X16679586Y-11856484D02*
X16660539Y-11846960D01*
X16660539Y-11846960D02*
X16651015Y-11837436D01*
X16651015Y-11837436D02*
X16641491Y-11818388D01*
X16641491Y-11818388D02*
X16631967Y-11780293D01*
X16631967Y-11780293D02*
X16631967Y-11732674D01*
X16631967Y-11732674D02*
X16641491Y-11694579D01*
X16641491Y-11694579D02*
X16651015Y-11675531D01*
X16651015Y-11675531D02*
X16660539Y-11666008D01*
X16660539Y-11666008D02*
X16679586Y-11656484D01*
X16870063Y-11656484D02*
X16889110Y-11656484D01*
X16889110Y-11656484D02*
X16908158Y-11666008D01*
X16908158Y-11666008D02*
X16917682Y-11675531D01*
X16917682Y-11675531D02*
X16927205Y-11694579D01*
X16927205Y-11694579D02*
X16936729Y-11732674D01*
X16936729Y-11732674D02*
X16936729Y-11780293D01*
X16936729Y-11780293D02*
X16927205Y-11818388D01*
X16927205Y-11818388D02*
X16917682Y-11837436D01*
X16917682Y-11837436D02*
X16908158Y-11846960D01*
X16908158Y-11846960D02*
X16889110Y-11856484D01*
X16889110Y-11856484D02*
X16870063Y-11856484D01*
X16870063Y-11856484D02*
X16851015Y-11846960D01*
X16851015Y-11846960D02*
X16841491Y-11837436D01*
X16841491Y-11837436D02*
X16831967Y-11818388D01*
X16831967Y-11818388D02*
X16822444Y-11780293D01*
X16822444Y-11780293D02*
X16822444Y-11732674D01*
X16822444Y-11732674D02*
X16831967Y-11694579D01*
X16831967Y-11694579D02*
X16841491Y-11675531D01*
X16841491Y-11675531D02*
X16851015Y-11666008D01*
X16851015Y-11666008D02*
X16870063Y-11656484D01*
X17060539Y-11656484D02*
X17079586Y-11656484D01*
X17079586Y-11656484D02*
X17098634Y-11666008D01*
X17098634Y-11666008D02*
X17108158Y-11675531D01*
X17108158Y-11675531D02*
X17117682Y-11694579D01*
X17117682Y-11694579D02*
X17127205Y-11732674D01*
X17127205Y-11732674D02*
X17127205Y-11780293D01*
X17127205Y-11780293D02*
X17117682Y-11818388D01*
X17117682Y-11818388D02*
X17108158Y-11837436D01*
X17108158Y-11837436D02*
X17098634Y-11846960D01*
X17098634Y-11846960D02*
X17079586Y-11856484D01*
X17079586Y-11856484D02*
X17060539Y-11856484D01*
X17060539Y-11856484D02*
X17041491Y-11846960D01*
X17041491Y-11846960D02*
X17031967Y-11837436D01*
X17031967Y-11837436D02*
X17022444Y-11818388D01*
X17022444Y-11818388D02*
X17012920Y-11780293D01*
X17012920Y-11780293D02*
X17012920Y-11732674D01*
X17012920Y-11732674D02*
X17022444Y-11694579D01*
X17022444Y-11694579D02*
X17031967Y-11675531D01*
X17031967Y-11675531D02*
X17041491Y-11666008D01*
X17041491Y-11666008D02*
X17060539Y-11656484D01*
X17212920Y-11856484D02*
X17212920Y-11723150D01*
X17212920Y-11742198D02*
X17222444Y-11732674D01*
X17222444Y-11732674D02*
X17241491Y-11723150D01*
X17241491Y-11723150D02*
X17270063Y-11723150D01*
X17270063Y-11723150D02*
X17289110Y-11732674D01*
X17289110Y-11732674D02*
X17298634Y-11751722D01*
X17298634Y-11751722D02*
X17298634Y-11856484D01*
X17298634Y-11751722D02*
X17308158Y-11732674D01*
X17308158Y-11732674D02*
X17327205Y-11723150D01*
X17327205Y-11723150D02*
X17355777Y-11723150D01*
X17355777Y-11723150D02*
X17374825Y-11732674D01*
X17374825Y-11732674D02*
X17384348Y-11751722D01*
X17384348Y-11751722D02*
X17384348Y-11856484D01*
X17479586Y-11856484D02*
X17479586Y-11723150D01*
X17479586Y-11742198D02*
X17489110Y-11732674D01*
X17489110Y-11732674D02*
X17508158Y-11723150D01*
X17508158Y-11723150D02*
X17536729Y-11723150D01*
X17536729Y-11723150D02*
X17555777Y-11732674D01*
X17555777Y-11732674D02*
X17565301Y-11751722D01*
X17565301Y-11751722D02*
X17565301Y-11856484D01*
X17565301Y-11751722D02*
X17574825Y-11732674D01*
X17574825Y-11732674D02*
X17593872Y-11723150D01*
X17593872Y-11723150D02*
X17622444Y-11723150D01*
X17622444Y-11723150D02*
X17641491Y-11732674D01*
X17641491Y-11732674D02*
X17651015Y-11751722D01*
X17651015Y-11751722D02*
X17651015Y-11856484D01*
X18041491Y-11646960D02*
X17870063Y-11904103D01*
X18298634Y-11656484D02*
X18317682Y-11656484D01*
X18317682Y-11656484D02*
X18336729Y-11666008D01*
X18336729Y-11666008D02*
X18346253Y-11675531D01*
X18346253Y-11675531D02*
X18355777Y-11694579D01*
X18355777Y-11694579D02*
X18365301Y-11732674D01*
X18365301Y-11732674D02*
X18365301Y-11780293D01*
X18365301Y-11780293D02*
X18355777Y-11818388D01*
X18355777Y-11818388D02*
X18346253Y-11837436D01*
X18346253Y-11837436D02*
X18336729Y-11846960D01*
X18336729Y-11846960D02*
X18317682Y-11856484D01*
X18317682Y-11856484D02*
X18298634Y-11856484D01*
X18298634Y-11856484D02*
X18279587Y-11846960D01*
X18279587Y-11846960D02*
X18270063Y-11837436D01*
X18270063Y-11837436D02*
X18260539Y-11818388D01*
X18260539Y-11818388D02*
X18251015Y-11780293D01*
X18251015Y-11780293D02*
X18251015Y-11732674D01*
X18251015Y-11732674D02*
X18260539Y-11694579D01*
X18260539Y-11694579D02*
X18270063Y-11675531D01*
X18270063Y-11675531D02*
X18279587Y-11666008D01*
X18279587Y-11666008D02*
X18298634Y-11656484D01*
X18451015Y-11837436D02*
X18460539Y-11846960D01*
X18460539Y-11846960D02*
X18451015Y-11856484D01*
X18451015Y-11856484D02*
X18441491Y-11846960D01*
X18441491Y-11846960D02*
X18451015Y-11837436D01*
X18451015Y-11837436D02*
X18451015Y-11856484D01*
X18584348Y-11656484D02*
X18603396Y-11656484D01*
X18603396Y-11656484D02*
X18622444Y-11666008D01*
X18622444Y-11666008D02*
X18631968Y-11675531D01*
X18631968Y-11675531D02*
X18641491Y-11694579D01*
X18641491Y-11694579D02*
X18651015Y-11732674D01*
X18651015Y-11732674D02*
X18651015Y-11780293D01*
X18651015Y-11780293D02*
X18641491Y-11818388D01*
X18641491Y-11818388D02*
X18631968Y-11837436D01*
X18631968Y-11837436D02*
X18622444Y-11846960D01*
X18622444Y-11846960D02*
X18603396Y-11856484D01*
X18603396Y-11856484D02*
X18584348Y-11856484D01*
X18584348Y-11856484D02*
X18565301Y-11846960D01*
X18565301Y-11846960D02*
X18555777Y-11837436D01*
X18555777Y-11837436D02*
X18546253Y-11818388D01*
X18546253Y-11818388D02*
X18536729Y-11780293D01*
X18536729Y-11780293D02*
X18536729Y-11732674D01*
X18536729Y-11732674D02*
X18546253Y-11694579D01*
X18546253Y-11694579D02*
X18555777Y-11675531D01*
X18555777Y-11675531D02*
X18565301Y-11666008D01*
X18565301Y-11666008D02*
X18584348Y-11656484D01*
X18717682Y-11656484D02*
X18841491Y-11656484D01*
X18841491Y-11656484D02*
X18774825Y-11732674D01*
X18774825Y-11732674D02*
X18803396Y-11732674D01*
X18803396Y-11732674D02*
X18822444Y-11742198D01*
X18822444Y-11742198D02*
X18831968Y-11751722D01*
X18831968Y-11751722D02*
X18841491Y-11770769D01*
X18841491Y-11770769D02*
X18841491Y-11818388D01*
X18841491Y-11818388D02*
X18831968Y-11837436D01*
X18831968Y-11837436D02*
X18822444Y-11846960D01*
X18822444Y-11846960D02*
X18803396Y-11856484D01*
X18803396Y-11856484D02*
X18746253Y-11856484D01*
X18746253Y-11856484D02*
X18727206Y-11846960D01*
X18727206Y-11846960D02*
X18717682Y-11837436D01*
X18936729Y-11856484D02*
X18974825Y-11856484D01*
X18974825Y-11856484D02*
X18993872Y-11846960D01*
X18993872Y-11846960D02*
X19003396Y-11837436D01*
X19003396Y-11837436D02*
X19022444Y-11808865D01*
X19022444Y-11808865D02*
X19031968Y-11770769D01*
X19031968Y-11770769D02*
X19031968Y-11694579D01*
X19031968Y-11694579D02*
X19022444Y-11675531D01*
X19022444Y-11675531D02*
X19012920Y-11666008D01*
X19012920Y-11666008D02*
X18993872Y-11656484D01*
X18993872Y-11656484D02*
X18955777Y-11656484D01*
X18955777Y-11656484D02*
X18936729Y-11666008D01*
X18936729Y-11666008D02*
X18927206Y-11675531D01*
X18927206Y-11675531D02*
X18917682Y-11694579D01*
X18917682Y-11694579D02*
X18917682Y-11742198D01*
X18917682Y-11742198D02*
X18927206Y-11761246D01*
X18927206Y-11761246D02*
X18936729Y-11770769D01*
X18936729Y-11770769D02*
X18955777Y-11780293D01*
X18955777Y-11780293D02*
X18993872Y-11780293D01*
X18993872Y-11780293D02*
X19012920Y-11770769D01*
X19012920Y-11770769D02*
X19022444Y-11761246D01*
X19022444Y-11761246D02*
X19031968Y-11742198D01*
X19203396Y-11723150D02*
X19203396Y-11856484D01*
X19155777Y-11646960D02*
X19108158Y-11789817D01*
X19108158Y-11789817D02*
X19231968Y-11789817D01*
X19298634Y-11656484D02*
X19298634Y-11694579D01*
X19374825Y-11656484D02*
X19374825Y-11694579D01*
X19670063Y-11932674D02*
X19660539Y-11923150D01*
X19660539Y-11923150D02*
X19641491Y-11894579D01*
X19641491Y-11894579D02*
X19631968Y-11875531D01*
X19631968Y-11875531D02*
X19622444Y-11846960D01*
X19622444Y-11846960D02*
X19612920Y-11799341D01*
X19612920Y-11799341D02*
X19612920Y-11761246D01*
X19612920Y-11761246D02*
X19622444Y-11713627D01*
X19622444Y-11713627D02*
X19631968Y-11685055D01*
X19631968Y-11685055D02*
X19641491Y-11666008D01*
X19641491Y-11666008D02*
X19660539Y-11637436D01*
X19660539Y-11637436D02*
X19670063Y-11627912D01*
X19727206Y-11656484D02*
X19851015Y-11656484D01*
X19851015Y-11656484D02*
X19784349Y-11732674D01*
X19784349Y-11732674D02*
X19812920Y-11732674D01*
X19812920Y-11732674D02*
X19831968Y-11742198D01*
X19831968Y-11742198D02*
X19841491Y-11751722D01*
X19841491Y-11751722D02*
X19851015Y-11770769D01*
X19851015Y-11770769D02*
X19851015Y-11818388D01*
X19851015Y-11818388D02*
X19841491Y-11837436D01*
X19841491Y-11837436D02*
X19831968Y-11846960D01*
X19831968Y-11846960D02*
X19812920Y-11856484D01*
X19812920Y-11856484D02*
X19755777Y-11856484D01*
X19755777Y-11856484D02*
X19736730Y-11846960D01*
X19736730Y-11846960D02*
X19727206Y-11837436D01*
X20022444Y-11723150D02*
X20022444Y-11856484D01*
X19974825Y-11646960D02*
X19927206Y-11789817D01*
X19927206Y-11789817D02*
X20051015Y-11789817D01*
X20279587Y-11856484D02*
X20279587Y-11656484D01*
X20365301Y-11856484D02*
X20365301Y-11751722D01*
X20365301Y-11751722D02*
X20355777Y-11732674D01*
X20355777Y-11732674D02*
X20336730Y-11723150D01*
X20336730Y-11723150D02*
X20308158Y-11723150D01*
X20308158Y-11723150D02*
X20289111Y-11732674D01*
X20289111Y-11732674D02*
X20279587Y-11742198D01*
X20489111Y-11856484D02*
X20470063Y-11846960D01*
X20470063Y-11846960D02*
X20460539Y-11837436D01*
X20460539Y-11837436D02*
X20451015Y-11818388D01*
X20451015Y-11818388D02*
X20451015Y-11761246D01*
X20451015Y-11761246D02*
X20460539Y-11742198D01*
X20460539Y-11742198D02*
X20470063Y-11732674D01*
X20470063Y-11732674D02*
X20489111Y-11723150D01*
X20489111Y-11723150D02*
X20517682Y-11723150D01*
X20517682Y-11723150D02*
X20536730Y-11732674D01*
X20536730Y-11732674D02*
X20546253Y-11742198D01*
X20546253Y-11742198D02*
X20555777Y-11761246D01*
X20555777Y-11761246D02*
X20555777Y-11818388D01*
X20555777Y-11818388D02*
X20546253Y-11837436D01*
X20546253Y-11837436D02*
X20536730Y-11846960D01*
X20536730Y-11846960D02*
X20517682Y-11856484D01*
X20517682Y-11856484D02*
X20489111Y-11856484D01*
X20670063Y-11856484D02*
X20651015Y-11846960D01*
X20651015Y-11846960D02*
X20641492Y-11827912D01*
X20641492Y-11827912D02*
X20641492Y-11656484D01*
X20822444Y-11846960D02*
X20803396Y-11856484D01*
X20803396Y-11856484D02*
X20765301Y-11856484D01*
X20765301Y-11856484D02*
X20746253Y-11846960D01*
X20746253Y-11846960D02*
X20736730Y-11827912D01*
X20736730Y-11827912D02*
X20736730Y-11751722D01*
X20736730Y-11751722D02*
X20746253Y-11732674D01*
X20746253Y-11732674D02*
X20765301Y-11723150D01*
X20765301Y-11723150D02*
X20803396Y-11723150D01*
X20803396Y-11723150D02*
X20822444Y-11732674D01*
X20822444Y-11732674D02*
X20831968Y-11751722D01*
X20831968Y-11751722D02*
X20831968Y-11770769D01*
X20831968Y-11770769D02*
X20736730Y-11789817D01*
X20908158Y-11846960D02*
X20927206Y-11856484D01*
X20927206Y-11856484D02*
X20965301Y-11856484D01*
X20965301Y-11856484D02*
X20984349Y-11846960D01*
X20984349Y-11846960D02*
X20993873Y-11827912D01*
X20993873Y-11827912D02*
X20993873Y-11818388D01*
X20993873Y-11818388D02*
X20984349Y-11799341D01*
X20984349Y-11799341D02*
X20965301Y-11789817D01*
X20965301Y-11789817D02*
X20936730Y-11789817D01*
X20936730Y-11789817D02*
X20917682Y-11780293D01*
X20917682Y-11780293D02*
X20908158Y-11761246D01*
X20908158Y-11761246D02*
X20908158Y-11751722D01*
X20908158Y-11751722D02*
X20917682Y-11732674D01*
X20917682Y-11732674D02*
X20936730Y-11723150D01*
X20936730Y-11723150D02*
X20965301Y-11723150D01*
X20965301Y-11723150D02*
X20984349Y-11732674D01*
X21060539Y-11932674D02*
X21070063Y-11923150D01*
X21070063Y-11923150D02*
X21089111Y-11894579D01*
X21089111Y-11894579D02*
X21098634Y-11875531D01*
X21098634Y-11875531D02*
X21108158Y-11846960D01*
X21108158Y-11846960D02*
X21117682Y-11799341D01*
X21117682Y-11799341D02*
X21117682Y-11761246D01*
X21117682Y-11761246D02*
X21108158Y-11713627D01*
X21108158Y-11713627D02*
X21098634Y-11685055D01*
X21098634Y-11685055D02*
X21089111Y-11666008D01*
X21089111Y-11666008D02*
X21070063Y-11637436D01*
X21070063Y-11637436D02*
X21060539Y-11627912D01*
M02*
