%TF.GenerationSoftware,KiCad,Pcbnew,8.0.5*%
%TF.CreationDate,2024-11-27T11:31:13-05:00*%
%TF.ProjectId,Alfond PCB,416c666f-6e64-4205-9043-422e6b696361,rev?*%
%TF.SameCoordinates,Original*%
%TF.FileFunction,Soldermask,Top*%
%TF.FilePolarity,Negative*%
%FSLAX46Y46*%
G04 Gerber Fmt 4.6, Leading zero omitted, Abs format (unit mm)*
G04 Created by KiCad (PCBNEW 8.0.5) date 2024-11-27 11:31:13*
%MOMM*%
%LPD*%
G01*
G04 APERTURE LIST*
G04 Aperture macros list*
%AMRoundRect*
0 Rectangle with rounded corners*
0 $1 Rounding radius*
0 $2 $3 $4 $5 $6 $7 $8 $9 X,Y pos of 4 corners*
0 Add a 4 corners polygon primitive as box body*
4,1,4,$2,$3,$4,$5,$6,$7,$8,$9,$2,$3,0*
0 Add four circle primitives for the rounded corners*
1,1,$1+$1,$2,$3*
1,1,$1+$1,$4,$5*
1,1,$1+$1,$6,$7*
1,1,$1+$1,$8,$9*
0 Add four rect primitives between the rounded corners*
20,1,$1+$1,$2,$3,$4,$5,0*
20,1,$1+$1,$4,$5,$6,$7,0*
20,1,$1+$1,$6,$7,$8,$9,0*
20,1,$1+$1,$8,$9,$2,$3,0*%
G04 Aperture macros list end*
%ADD10R,1.400000X1.200000*%
%ADD11RoundRect,0.160000X-0.160000X0.197500X-0.160000X-0.197500X0.160000X-0.197500X0.160000X0.197500X0*%
%ADD12RoundRect,0.100000X-0.712500X-0.100000X0.712500X-0.100000X0.712500X0.100000X-0.712500X0.100000X0*%
%ADD13RoundRect,0.075000X-0.725000X-0.075000X0.725000X-0.075000X0.725000X0.075000X-0.725000X0.075000X0*%
%ADD14RoundRect,0.075000X-0.075000X-0.725000X0.075000X-0.725000X0.075000X0.725000X-0.075000X0.725000X0*%
%ADD15RoundRect,0.155000X0.212500X0.155000X-0.212500X0.155000X-0.212500X-0.155000X0.212500X-0.155000X0*%
%ADD16R,1.700000X1.700000*%
%ADD17C,1.879600*%
%ADD18RoundRect,0.155000X0.155000X-0.212500X0.155000X0.212500X-0.155000X0.212500X-0.155000X-0.212500X0*%
%ADD19RoundRect,0.160000X-0.197500X-0.160000X0.197500X-0.160000X0.197500X0.160000X-0.197500X0.160000X0*%
%ADD20RoundRect,0.160000X0.197500X0.160000X-0.197500X0.160000X-0.197500X-0.160000X0.197500X-0.160000X0*%
%ADD21R,1.500000X1.050000*%
%ADD22O,1.500000X1.050000*%
%ADD23RoundRect,0.155000X-0.155000X0.212500X-0.155000X-0.212500X0.155000X-0.212500X0.155000X0.212500X0*%
%ADD24RoundRect,0.225000X0.225000X0.375000X-0.225000X0.375000X-0.225000X-0.375000X0.225000X-0.375000X0*%
%ADD25C,1.778000*%
%ADD26RoundRect,0.155000X-0.212500X-0.155000X0.212500X-0.155000X0.212500X0.155000X-0.212500X0.155000X0*%
%ADD27R,1.000000X0.800000*%
%ADD28C,0.900000*%
%ADD29R,0.700000X1.500000*%
%ADD30C,1.712000*%
%ADD31R,2.000000X2.000000*%
%ADD32C,2.000000*%
%ADD33C,1.700000*%
%ADD34O,0.800000X0.800000*%
%ADD35R,1.300000X0.450000*%
%ADD36O,1.800000X1.150000*%
%ADD37O,2.000000X1.450000*%
%ADD38O,1.700000X1.700000*%
%ADD39RoundRect,0.250000X-0.475000X0.337500X-0.475000X-0.337500X0.475000X-0.337500X0.475000X0.337500X0*%
%ADD40RoundRect,0.225000X0.225000X0.250000X-0.225000X0.250000X-0.225000X-0.250000X0.225000X-0.250000X0*%
%ADD41RoundRect,0.218750X-0.218750X-0.256250X0.218750X-0.256250X0.218750X0.256250X-0.218750X0.256250X0*%
%ADD42O,1.600000X2.000000*%
%ADD43RoundRect,0.250000X-0.337500X-0.475000X0.337500X-0.475000X0.337500X0.475000X-0.337500X0.475000X0*%
%ADD44RoundRect,0.075000X-0.212500X-0.075000X0.212500X-0.075000X0.212500X0.075000X-0.212500X0.075000X0*%
%ADD45RoundRect,0.243750X0.456250X-0.243750X0.456250X0.243750X-0.456250X0.243750X-0.456250X-0.243750X0*%
G04 APERTURE END LIST*
D10*
%TO.C,Y1*%
X205800000Y-80000000D03*
X208000000Y-80000000D03*
X208000000Y-78300000D03*
X205800000Y-78300000D03*
%TD*%
D11*
%TO.C,R7*%
X191500000Y-53902500D03*
X191500000Y-55097500D03*
%TD*%
D12*
%TO.C,U3*%
X179387500Y-87025000D03*
X179387500Y-87675000D03*
X179387500Y-88325000D03*
X179387500Y-88975000D03*
X183612500Y-88975000D03*
X183612500Y-88325000D03*
X183612500Y-87675000D03*
X183612500Y-87025000D03*
%TD*%
D13*
%TO.C,U2*%
X216325000Y-68000000D03*
X216325000Y-68500000D03*
X216325000Y-69000000D03*
X216325000Y-69500000D03*
X216325000Y-70000000D03*
X216325000Y-70500000D03*
X216325000Y-71000000D03*
X216325000Y-71500000D03*
X216325000Y-72000000D03*
X216325000Y-72500000D03*
X216325000Y-73000000D03*
X216325000Y-73500000D03*
X216325000Y-74000000D03*
X216325000Y-74500000D03*
X216325000Y-75000000D03*
X216325000Y-75500000D03*
X216325000Y-76000000D03*
X216325000Y-76500000D03*
X216325000Y-77000000D03*
X216325000Y-77500000D03*
X216325000Y-78000000D03*
X216325000Y-78500000D03*
X216325000Y-79000000D03*
X216325000Y-79500000D03*
X216325000Y-80000000D03*
D14*
X218000000Y-81675000D03*
X218500000Y-81675000D03*
X219000000Y-81675000D03*
X219500000Y-81675000D03*
X220000000Y-81675000D03*
X220500000Y-81675000D03*
X221000000Y-81675000D03*
X221500000Y-81675000D03*
X222000000Y-81675000D03*
X222500000Y-81675000D03*
X223000000Y-81675000D03*
X223500000Y-81675000D03*
X224000000Y-81675000D03*
X224500000Y-81675000D03*
X225000000Y-81675000D03*
X225500000Y-81675000D03*
X226000000Y-81675000D03*
X226500000Y-81675000D03*
X227000000Y-81675000D03*
X227500000Y-81675000D03*
X228000000Y-81675000D03*
X228500000Y-81675000D03*
X229000000Y-81675000D03*
X229500000Y-81675000D03*
X230000000Y-81675000D03*
D13*
X231675000Y-80000000D03*
X231675000Y-79500000D03*
X231675000Y-79000000D03*
X231675000Y-78500000D03*
X231675000Y-78000000D03*
X231675000Y-77500000D03*
X231675000Y-77000000D03*
X231675000Y-76500000D03*
X231675000Y-76000000D03*
X231675000Y-75500000D03*
X231675000Y-75000000D03*
X231675000Y-74500000D03*
X231675000Y-74000000D03*
X231675000Y-73500000D03*
X231675000Y-73000000D03*
X231675000Y-72500000D03*
X231675000Y-72000000D03*
X231675000Y-71500000D03*
X231675000Y-71000000D03*
X231675000Y-70500000D03*
X231675000Y-70000000D03*
X231675000Y-69500000D03*
X231675000Y-69000000D03*
X231675000Y-68500000D03*
X231675000Y-68000000D03*
D14*
X230000000Y-66325000D03*
X229500000Y-66325000D03*
X229000000Y-66325000D03*
X228500000Y-66325000D03*
X228000000Y-66325000D03*
X227500000Y-66325000D03*
X227000000Y-66325000D03*
X226500000Y-66325000D03*
X226000000Y-66325000D03*
X225500000Y-66325000D03*
X225000000Y-66325000D03*
X224500000Y-66325000D03*
X224000000Y-66325000D03*
X223500000Y-66325000D03*
X223000000Y-66325000D03*
X222500000Y-66325000D03*
X222000000Y-66325000D03*
X221500000Y-66325000D03*
X221000000Y-66325000D03*
X220500000Y-66325000D03*
X220000000Y-66325000D03*
X219500000Y-66325000D03*
X219000000Y-66325000D03*
X218500000Y-66325000D03*
X218000000Y-66325000D03*
%TD*%
D15*
%TO.C,C10*%
X195135000Y-66000000D03*
X194000000Y-66000000D03*
%TD*%
D16*
%TO.C,INA+*%
X180500000Y-77500000D03*
%TD*%
D17*
%TO.C,INA260*%
X198190000Y-96000000D03*
X200730000Y-96000000D03*
X203270000Y-96000000D03*
X205810000Y-96000000D03*
X208350000Y-96000000D03*
X210890000Y-96000000D03*
X193110000Y-96000000D03*
X195650000Y-96000000D03*
%TD*%
D16*
%TO.C,INA-*%
X186500000Y-77500000D03*
%TD*%
D18*
%TO.C,C9*%
X235000000Y-69567500D03*
X235000000Y-68432500D03*
%TD*%
D19*
%TO.C,R5*%
X220402500Y-63000000D03*
X221597500Y-63000000D03*
%TD*%
D20*
%TO.C,R4*%
X215097500Y-89500000D03*
X213902500Y-89500000D03*
%TD*%
D21*
%TO.C,U1*%
X241500000Y-86500000D03*
D22*
X241500000Y-85230000D03*
X241500000Y-83960000D03*
%TD*%
D23*
%TO.C,C6*%
X212500000Y-69932500D03*
X212500000Y-71067500D03*
%TD*%
D24*
%TO.C,D2*%
X171150000Y-89000000D03*
X167850000Y-89000000D03*
%TD*%
D25*
%TO.C,MS8607*%
X242500000Y-62540000D03*
X242500000Y-60000000D03*
X242500000Y-57460000D03*
X242500000Y-54920000D03*
X242500000Y-52380000D03*
%TD*%
D26*
%TO.C,C11*%
X205500000Y-82000000D03*
X206635000Y-82000000D03*
%TD*%
D27*
%TO.C,SW1*%
X214500000Y-51000000D03*
X214500000Y-48790000D03*
D28*
X212350000Y-49890000D03*
X209350000Y-49890000D03*
D27*
X207200000Y-51000000D03*
X207200000Y-48790000D03*
D29*
X213100000Y-51650000D03*
X210100000Y-51650000D03*
X208600000Y-51650000D03*
%TD*%
D24*
%TO.C,D1*%
X175150000Y-79000000D03*
X171850000Y-79000000D03*
%TD*%
D15*
%TO.C,C3*%
X219567500Y-84000000D03*
X218432500Y-84000000D03*
%TD*%
D23*
%TO.C,C7*%
X214000000Y-65932500D03*
X214000000Y-67067500D03*
%TD*%
D26*
%TO.C,C8*%
X232932500Y-67000000D03*
X234067500Y-67000000D03*
%TD*%
%TO.C,C12*%
X208432500Y-76000000D03*
X209567500Y-76000000D03*
%TD*%
D30*
%TO.C,P1*%
X163500000Y-88000000D03*
X163500000Y-90000000D03*
%TD*%
D31*
%TO.C,S1*%
X219750000Y-54750000D03*
D32*
X226250000Y-54750000D03*
X219750000Y-59250000D03*
X226250000Y-59250000D03*
%TD*%
D33*
%TO.C,MOD1*%
X169500000Y-72500000D03*
X171500000Y-72500000D03*
X173500000Y-72500000D03*
X175500000Y-72500000D03*
X177500000Y-72500000D03*
X179500000Y-72500000D03*
X181500000Y-72500000D03*
X183500000Y-72500000D03*
X185500000Y-72500000D03*
X187500000Y-72500000D03*
X187500000Y-50500000D03*
X185500000Y-50500000D03*
X183500000Y-50500000D03*
X181500000Y-50500000D03*
X179500000Y-50500000D03*
X177500000Y-50500000D03*
X175500000Y-50500000D03*
X173500000Y-50500000D03*
X171500000Y-50500000D03*
X169500000Y-50500000D03*
%TD*%
D34*
%TO.C,J5*%
X165800000Y-78000000D03*
X165800000Y-83000000D03*
D35*
X166900000Y-79200000D03*
X166900000Y-79850000D03*
X166900000Y-80500000D03*
X166900000Y-81150000D03*
X166900000Y-81800000D03*
D36*
X163050000Y-76625000D03*
D37*
X166850000Y-76775000D03*
X166850000Y-84225000D03*
D36*
X163050000Y-84375000D03*
%TD*%
D16*
%TO.C,J3*%
X233540000Y-50500000D03*
D38*
X231000000Y-50500000D03*
X228460000Y-50500000D03*
X225920000Y-50500000D03*
X223380000Y-50500000D03*
%TD*%
D18*
%TO.C,C4*%
X213500000Y-79067500D03*
X213500000Y-77932500D03*
%TD*%
D39*
%TO.C,C13*%
X174000000Y-87962500D03*
X174000000Y-90037500D03*
%TD*%
D40*
%TO.C,C1*%
X224775000Y-89500000D03*
X223225000Y-89500000D03*
%TD*%
D19*
%TO.C,R6*%
X191415000Y-86630000D03*
X192610000Y-86630000D03*
%TD*%
%TO.C,R3*%
X213805000Y-87000000D03*
X215000000Y-87000000D03*
%TD*%
D11*
%TO.C,R1*%
X236500000Y-87902500D03*
X236500000Y-89097500D03*
%TD*%
D41*
%TO.C,D3*%
X191212500Y-89500000D03*
X192787500Y-89500000D03*
%TD*%
D42*
%TO.C,Brd1*%
X170880000Y-94500000D03*
X173420000Y-94500000D03*
X175960000Y-94500000D03*
X178500000Y-94500000D03*
%TD*%
D31*
%TO.C,S2*%
X193750000Y-75250000D03*
D32*
X200250000Y-75250000D03*
X193750000Y-79750000D03*
X200250000Y-79750000D03*
%TD*%
D43*
%TO.C,C15*%
X185712500Y-87000000D03*
X187787500Y-87000000D03*
%TD*%
D44*
%TO.C,C14*%
X214162500Y-93000000D03*
X214837500Y-93000000D03*
%TD*%
D15*
%TO.C,C2*%
X230567500Y-84500000D03*
X229432500Y-84500000D03*
%TD*%
D45*
%TO.C,D4*%
X191500000Y-52437500D03*
X191500000Y-50562500D03*
%TD*%
D18*
%TO.C,C5*%
X213000000Y-73635000D03*
X213000000Y-72500000D03*
%TD*%
M02*
