%TF.GenerationSoftware,KiCad,Pcbnew,8.0.5*%
%TF.CreationDate,2024-11-27T11:31:13-05:00*%
%TF.ProjectId,Alfond PCB,416c666f-6e64-4205-9043-422e6b696361,rev?*%
%TF.SameCoordinates,Original*%
%TF.FileFunction,Legend,Bot*%
%TF.FilePolarity,Positive*%
%FSLAX46Y46*%
G04 Gerber Fmt 4.6, Leading zero omitted, Abs format (unit mm)*
G04 Created by KiCad (PCBNEW 8.0.5) date 2024-11-27 11:31:13*
%MOMM*%
%LPD*%
G01*
G04 APERTURE LIST*
%ADD10R,1.700000X1.700000*%
%ADD11C,1.879600*%
%ADD12R,1.500000X1.050000*%
%ADD13O,1.500000X1.050000*%
%ADD14C,1.778000*%
%ADD15C,0.900000*%
%ADD16C,1.712000*%
%ADD17R,2.000000X2.000000*%
%ADD18C,2.000000*%
%ADD19C,1.700000*%
%ADD20O,0.800000X0.800000*%
%ADD21O,1.800000X1.150000*%
%ADD22O,2.000000X1.450000*%
%ADD23O,1.700000X1.700000*%
%ADD24O,1.600000X2.000000*%
G04 APERTURE END LIST*
%LPC*%
D10*
%TO.C,INA+*%
X180500000Y-77500000D03*
%TD*%
D11*
%TO.C,INA260*%
X198190000Y-96000000D03*
X200730000Y-96000000D03*
X203270000Y-96000000D03*
X205810000Y-96000000D03*
X208350000Y-96000000D03*
X210890000Y-96000000D03*
X193110000Y-96000000D03*
X195650000Y-96000000D03*
%TD*%
D10*
%TO.C,INA-*%
X186500000Y-77500000D03*
%TD*%
D12*
%TO.C,U1*%
X241500000Y-86500000D03*
D13*
X241500000Y-85230000D03*
X241500000Y-83960000D03*
%TD*%
D14*
%TO.C,MS8607*%
X242500000Y-62540000D03*
X242500000Y-60000000D03*
X242500000Y-57460000D03*
X242500000Y-54920000D03*
X242500000Y-52380000D03*
%TD*%
D15*
%TO.C,SW1*%
X212350000Y-49890000D03*
X209350000Y-49890000D03*
%TD*%
D16*
%TO.C,P1*%
X163500000Y-88000000D03*
X163500000Y-90000000D03*
%TD*%
D17*
%TO.C,S1*%
X219750000Y-54750000D03*
D18*
X226250000Y-54750000D03*
X219750000Y-59250000D03*
X226250000Y-59250000D03*
%TD*%
D19*
%TO.C,MOD1*%
X169500000Y-72500000D03*
X171500000Y-72500000D03*
X173500000Y-72500000D03*
X175500000Y-72500000D03*
X177500000Y-72500000D03*
X179500000Y-72500000D03*
X181500000Y-72500000D03*
X183500000Y-72500000D03*
X185500000Y-72500000D03*
X187500000Y-72500000D03*
X187500000Y-50500000D03*
X185500000Y-50500000D03*
X183500000Y-50500000D03*
X181500000Y-50500000D03*
X179500000Y-50500000D03*
X177500000Y-50500000D03*
X175500000Y-50500000D03*
X173500000Y-50500000D03*
X171500000Y-50500000D03*
X169500000Y-50500000D03*
%TD*%
D20*
%TO.C,J5*%
X165800000Y-78000000D03*
X165800000Y-83000000D03*
D21*
X163050000Y-76625000D03*
D22*
X166850000Y-76775000D03*
X166850000Y-84225000D03*
D21*
X163050000Y-84375000D03*
%TD*%
D10*
%TO.C,J3*%
X233540000Y-50500000D03*
D23*
X231000000Y-50500000D03*
X228460000Y-50500000D03*
X225920000Y-50500000D03*
X223380000Y-50500000D03*
%TD*%
D24*
%TO.C,Brd1*%
X170880000Y-94500000D03*
X173420000Y-94500000D03*
X175960000Y-94500000D03*
X178500000Y-94500000D03*
%TD*%
D17*
%TO.C,S2*%
X193750000Y-75250000D03*
D18*
X200250000Y-75250000D03*
X193750000Y-79750000D03*
X200250000Y-79750000D03*
%TD*%
%LPD*%
M02*
