%TF.GenerationSoftware,KiCad,Pcbnew,8.0.5*%
%TF.CreationDate,2024-11-27T11:25:17-05:00*%
%TF.ProjectId,Alfond PCB,416c666f-6e64-4205-9043-422e6b696361,rev?*%
%TF.SameCoordinates,Original*%
%TF.FileFunction,Copper,L4,Bot*%
%TF.FilePolarity,Positive*%
%FSLAX46Y46*%
G04 Gerber Fmt 4.6, Leading zero omitted, Abs format (unit mm)*
G04 Created by KiCad (PCBNEW 8.0.5) date 2024-11-27 11:25:17*
%MOMM*%
%LPD*%
G01*
G04 APERTURE LIST*
%TA.AperFunction,ComponentPad*%
%ADD10R,1.700000X1.700000*%
%TD*%
%TA.AperFunction,ComponentPad*%
%ADD11C,1.778000*%
%TD*%
%TA.AperFunction,ComponentPad*%
%ADD12R,1.500000X1.050000*%
%TD*%
%TA.AperFunction,ComponentPad*%
%ADD13O,1.500000X1.050000*%
%TD*%
%TA.AperFunction,ComponentPad*%
%ADD14C,1.676400*%
%TD*%
%TA.AperFunction,ComponentPad*%
%ADD15C,1.508000*%
%TD*%
%TA.AperFunction,ComponentPad*%
%ADD16R,2.000000X2.000000*%
%TD*%
%TA.AperFunction,ComponentPad*%
%ADD17C,2.000000*%
%TD*%
%TA.AperFunction,ComponentPad*%
%ADD18C,1.700000*%
%TD*%
%TA.AperFunction,ComponentPad*%
%ADD19O,1.800000X1.150000*%
%TD*%
%TA.AperFunction,ComponentPad*%
%ADD20O,2.000000X1.450000*%
%TD*%
%TA.AperFunction,ComponentPad*%
%ADD21O,1.700000X1.700000*%
%TD*%
%TA.AperFunction,ComponentPad*%
%ADD22O,1.600000X2.000000*%
%TD*%
%TA.AperFunction,ViaPad*%
%ADD23C,0.700000*%
%TD*%
%TA.AperFunction,Conductor*%
%ADD24C,0.200000*%
%TD*%
G04 APERTURE END LIST*
D10*
%TO.P,INA+,1*%
%TO.N,/INA+*%
X180500000Y-77500000D03*
%TD*%
D11*
%TO.P,INA260,3*%
%TO.N,VBus*%
X198190000Y-96000000D03*
%TO.P,INA260,4*%
%TO.N,Alert*%
X200730000Y-96000000D03*
%TO.P,INA260,5*%
%TO.N,/I2C3_SDA*%
X203270000Y-96000000D03*
%TO.P,INA260,6*%
%TO.N,/I2C3_SCL*%
X205810000Y-96000000D03*
%TO.P,INA260,7*%
%TO.N,GND*%
X208350000Y-96000000D03*
%TO.P,INA260,8*%
%TO.N,+3.3V*%
X210890000Y-96000000D03*
%TO.P,INA260,Vin+*%
X193110000Y-96000000D03*
%TO.P,INA260,Vin-*%
X195650000Y-96000000D03*
%TD*%
D10*
%TO.P,INA-,1*%
%TO.N,/INA-*%
X186500000Y-77500000D03*
%TD*%
D12*
%TO.P,U1,1,GND*%
%TO.N,GND*%
X241500000Y-86500000D03*
D13*
%TO.P,U1,2,DQ*%
%TO.N,/UART4_TX*%
X241500000Y-85230000D03*
%TO.P,U1,3,V_{DD}*%
%TO.N,+3.3V*%
X241500000Y-83960000D03*
%TD*%
D14*
%TO.P,MS8607,1*%
%TO.N,/I2C2_SDA*%
X242500000Y-62540000D03*
%TO.P,MS8607,2*%
%TO.N,/I2C2_SCL*%
X242500000Y-60000000D03*
%TO.P,MS8607,3*%
%TO.N,GND*%
X242500000Y-57460000D03*
%TO.P,MS8607,4*%
%TO.N,N/C*%
X242500000Y-54920000D03*
%TO.P,MS8607,5*%
%TO.N,+3.3V*%
X242500000Y-52380000D03*
%TD*%
D15*
%TO.P,P1,1,1*%
%TO.N,GND*%
X163500000Y-88000000D03*
%TO.P,P1,2,2*%
%TO.N,/INA+*%
X163500000Y-90000000D03*
%TD*%
D16*
%TO.P,S1,1*%
%TO.N,GND*%
X219750000Y-54750000D03*
D17*
%TO.P,S1,2*%
X226250000Y-54750000D03*
%TO.P,S1,3*%
%TO.N,/NRST*%
X219750000Y-59250000D03*
%TO.P,S1,4*%
X226250000Y-59250000D03*
%TD*%
D18*
%TO.P,MOD1,1,Vcc*%
%TO.N,+3.3V*%
X169500000Y-72500000D03*
%TO.P,MOD1,2,DOUT*%
%TO.N,/UART5_RX*%
X171500000Y-72500000D03*
%TO.P,MOD1,3,DIN/~{Config}*%
%TO.N,/UART5_TX*%
X173500000Y-72500000D03*
%TO.P,MOD1,4,DO8*%
%TO.N,unconnected-(MOD1-DO8-Pad4)*%
X175500000Y-72500000D03*
%TO.P,MOD1,5,~{Reset}*%
%TO.N,unconnected-(MOD1-~{Reset}-Pad5)*%
X177500000Y-72500000D03*
%TO.P,MOD1,6,PWM0/RSSI*%
%TO.N,unconnected-(MOD1-PWM0{slash}RSSI-Pad6)*%
X179500000Y-72500000D03*
%TO.P,MOD1,7,PWM1*%
%TO.N,unconnected-(MOD1-PWM1-Pad7)*%
X181500000Y-72500000D03*
%TO.P,MOD1,8,Reserved*%
%TO.N,unconnected-(MOD1-Reserved-Pad8)*%
X183500000Y-72500000D03*
%TO.P,MOD1,9,~{DTR}/SLRQ/DI8*%
%TO.N,/GPIO_SLEEP_XBEE*%
X185500000Y-72500000D03*
%TO.P,MOD1,10,GND*%
%TO.N,GND*%
X187500000Y-72500000D03*
%TO.P,MOD1,11,AD4/DIO4*%
%TO.N,unconnected-(MOD1-AD4{slash}DIO4-Pad11)*%
X187500000Y-50500000D03*
%TO.P,MOD1,12,DIO7/~{CTS}*%
%TO.N,unconnected-(MOD1-DIO7{slash}~{CTS}-Pad12)*%
X185500000Y-50500000D03*
%TO.P,MOD1,13,ON/~{SLEEP}*%
%TO.N,Net-(D4-A)*%
X183500000Y-50500000D03*
%TO.P,MOD1,14,VREF*%
%TO.N,unconnected-(MOD1-VREF-Pad14)*%
X181500000Y-50500000D03*
%TO.P,MOD1,15,AD5/DIO5*%
%TO.N,unconnected-(MOD1-AD5{slash}DIO5-Pad15)*%
X179500000Y-50500000D03*
%TO.P,MOD1,16,AD6/DIO6/~{RTS}*%
%TO.N,unconnected-(MOD1-AD6{slash}DIO6{slash}~{RTS}-Pad16)*%
X177500000Y-50500000D03*
%TO.P,MOD1,17,AD3/DIO3*%
%TO.N,unconnected-(MOD1-AD3{slash}DIO3-Pad17)*%
X175500000Y-50500000D03*
%TO.P,MOD1,18,AD2/DIO2*%
%TO.N,unconnected-(MOD1-AD2{slash}DIO2-Pad18)*%
X173500000Y-50500000D03*
%TO.P,MOD1,19,AD1/DIO1*%
%TO.N,unconnected-(MOD1-AD1{slash}DIO1-Pad19)*%
X171500000Y-50500000D03*
%TO.P,MOD1,20,AD0/DIO0*%
%TO.N,unconnected-(MOD1-AD0{slash}DIO0-Pad20)*%
X169500000Y-50500000D03*
%TD*%
D19*
%TO.P,J5,6,Shield*%
%TO.N,unconnected-(J5-Shield-Pad6)_2*%
X163050000Y-76625000D03*
D20*
%TO.N,unconnected-(J5-Shield-Pad6)_3*%
X166850000Y-76775000D03*
%TO.N,unconnected-(J5-Shield-Pad6)_1*%
X166850000Y-84225000D03*
D19*
%TO.N,unconnected-(J5-Shield-Pad6)*%
X163050000Y-84375000D03*
%TD*%
D10*
%TO.P,J3,1,Pin_1*%
%TO.N,+3.3V*%
X233540000Y-50500000D03*
D21*
%TO.P,J3,2,Pin_2*%
%TO.N,/SWD_DIO*%
X231000000Y-50500000D03*
%TO.P,J3,3,Pin_3*%
%TO.N,/SWD_CLK*%
X228460000Y-50500000D03*
%TO.P,J3,4,Pin_4*%
%TO.N,/NRST*%
X225920000Y-50500000D03*
%TO.P,J3,5,Pin_5*%
%TO.N,GND*%
X223380000Y-50500000D03*
%TD*%
D22*
%TO.P,Brd1,1,GND*%
%TO.N,GND*%
X170880000Y-94500000D03*
%TO.P,Brd1,2,VCC*%
%TO.N,+3.3V*%
X173420000Y-94500000D03*
%TO.P,Brd1,3,SCL*%
%TO.N,/I2C1_SCL*%
X175960000Y-94500000D03*
%TO.P,Brd1,4,SDA*%
%TO.N,/I2C1_SDA*%
X178500000Y-94500000D03*
%TD*%
D16*
%TO.P,S2,1*%
%TO.N,GND*%
X193750000Y-75250000D03*
D17*
%TO.P,S2,2*%
X200250000Y-75250000D03*
%TO.P,S2,3*%
%TO.N,Net-(R3-Pad1)*%
X193750000Y-79750000D03*
%TO.P,S2,4*%
X200250000Y-79750000D03*
%TD*%
D23*
%TO.N,/I2C1_SCL*%
X219500000Y-64500000D03*
X212500000Y-65500000D03*
X191000000Y-72000000D03*
%TO.N,GND*%
X194000000Y-58500000D03*
X229175736Y-88675736D03*
X226500000Y-53000000D03*
X237000000Y-59000000D03*
X215500000Y-55000000D03*
X178250000Y-90250000D03*
X220500000Y-76000000D03*
X173000000Y-92000000D03*
X176500000Y-90000000D03*
X216500000Y-62000000D03*
X218000000Y-80000000D03*
X219000000Y-77500000D03*
%TO.N,/I2C1_SDA*%
X209500000Y-67500000D03*
X192000000Y-72000000D03*
X221000000Y-64000000D03*
%TO.N,+3.3V*%
X227000000Y-89500000D03*
X236750000Y-55250000D03*
X218250000Y-75250000D03*
X186000000Y-89000000D03*
X216250000Y-90250000D03*
X217828705Y-69828705D03*
X231500000Y-90000000D03*
X225750000Y-91250000D03*
X177500000Y-91000000D03*
X187500000Y-90000000D03*
X215000000Y-96000000D03*
%TO.N,/HSE_OUT*%
X207000000Y-75000000D03*
X209500000Y-74500000D03*
%TO.N,/NRST*%
X211000000Y-75000000D03*
X208500000Y-65000000D03*
X216950000Y-59500000D03*
X213500000Y-60000000D03*
%TO.N,/INA-*%
X174500000Y-83500000D03*
X183500000Y-79500000D03*
%TO.N,Net-(D4-A)*%
X183000000Y-55000000D03*
%TO.N,/I2C2_SCL*%
X236500000Y-79000000D03*
%TO.N,/I2C2_SDA*%
X228500000Y-88000000D03*
%TO.N,/I2C3_SDA*%
X212000000Y-77000000D03*
X208100000Y-91170000D03*
X208000000Y-84000000D03*
X210000000Y-83500000D03*
%TO.N,/INA+*%
X181000000Y-81000000D03*
X167000000Y-91500000D03*
X172000000Y-91000000D03*
%TO.N,/I2C3_SCL*%
X209000000Y-92810000D03*
X210955841Y-76152990D03*
%TO.N,/UART5_TX*%
X211500000Y-58000000D03*
X224253705Y-61746295D03*
X217012873Y-61012873D03*
%TO.N,/UART5_RX*%
X210500000Y-57000000D03*
%TO.N,/GPIO_SLEEP_XBEE*%
X212500000Y-59000000D03*
X219000000Y-61000000D03*
X215500000Y-58500000D03*
%TO.N,/UART4_TX*%
X219000000Y-91000000D03*
X214000000Y-81000000D03*
%TO.N,Net-(SW1-B)*%
X210000000Y-54000000D03*
X219000000Y-62900000D03*
%TO.N,/SWD_DIO*%
X237500000Y-71000000D03*
%TO.N,/SWD_CLK*%
X230000000Y-62500000D03*
%TO.N,Net-(R3-Pad1)*%
X207250000Y-86750000D03*
%TD*%
D24*
%TO.N,/I2C1_SCL*%
X213000000Y-64500000D02*
X213000000Y-65000000D01*
X213000000Y-65000000D02*
X212500000Y-65500000D01*
X189500000Y-81000000D02*
X189500000Y-75000000D01*
X179560000Y-90900000D02*
X193600000Y-90900000D01*
X191000000Y-73500000D02*
X191000000Y-72000000D01*
X194500000Y-86000000D02*
X189500000Y-81000000D01*
X194500000Y-90000000D02*
X194500000Y-86000000D01*
X193600000Y-90900000D02*
X194500000Y-90000000D01*
X175960000Y-94500000D02*
X179560000Y-90900000D01*
X219500000Y-64500000D02*
X213000000Y-64500000D01*
X189500000Y-75000000D02*
X191000000Y-73500000D01*
%TO.N,GND*%
X229451472Y-88400000D02*
X229175736Y-88675736D01*
X193750000Y-70750000D02*
X191500000Y-68500000D01*
X214500000Y-56000000D02*
X215500000Y-55000000D01*
X187500000Y-72500000D02*
X191500000Y-68500000D01*
X195750000Y-70750000D02*
X193750000Y-70750000D01*
X242500000Y-57460000D02*
X238540000Y-57460000D01*
X194000000Y-58500000D02*
X192500000Y-58500000D01*
X241500000Y-86500000D02*
X238000000Y-90000000D01*
X176500000Y-90000000D02*
X178000000Y-90000000D01*
X214500000Y-57934315D02*
X214500000Y-56000000D01*
X200250000Y-75250000D02*
X195750000Y-70750000D01*
X226250000Y-54750000D02*
X223380000Y-51880000D01*
X214550000Y-57984315D02*
X214500000Y-57934315D01*
X214550000Y-60484314D02*
X214550000Y-57984315D01*
X164500000Y-88000000D02*
X163500000Y-88000000D01*
X216065686Y-62000000D02*
X214550000Y-60484314D01*
X238000000Y-90000000D02*
X232848529Y-90000000D01*
X231248529Y-88400000D02*
X229451472Y-88400000D01*
X219750000Y-54750000D02*
X215750000Y-54750000D01*
X216500000Y-62000000D02*
X216065686Y-62000000D01*
X170880000Y-94380000D02*
X164500000Y-88000000D01*
X193750000Y-75250000D02*
X193750000Y-70750000D01*
X232848529Y-90000000D02*
X231248529Y-88400000D01*
X218000000Y-80000000D02*
X219000000Y-79000000D01*
X191500000Y-59500000D02*
X191500000Y-68500000D01*
X219750000Y-54130000D02*
X219750000Y-54750000D01*
X238540000Y-57460000D02*
X237000000Y-59000000D01*
X220500000Y-76000000D02*
X219000000Y-77500000D01*
X219000000Y-79000000D02*
X219000000Y-77500000D01*
X170880000Y-94500000D02*
X170880000Y-94120000D01*
X226250000Y-53250000D02*
X226500000Y-53000000D01*
X193750000Y-75250000D02*
X200250000Y-75250000D01*
X170880000Y-94500000D02*
X170880000Y-94380000D01*
X215750000Y-54750000D02*
X215500000Y-55000000D01*
X226250000Y-54750000D02*
X226250000Y-53250000D01*
X223380000Y-51880000D02*
X223380000Y-50500000D01*
X178000000Y-90000000D02*
X178250000Y-90250000D01*
X223380000Y-50500000D02*
X219750000Y-54130000D01*
X170880000Y-94120000D02*
X173000000Y-92000000D01*
X192500000Y-58500000D02*
X191500000Y-59500000D01*
%TO.N,/I2C1_SDA*%
X218730761Y-63550000D02*
X218680761Y-63500000D01*
X195000000Y-90065686D02*
X195000000Y-82838478D01*
X212650000Y-63850000D02*
X209500000Y-67000000D01*
X218680761Y-63500000D02*
X215000000Y-63500000D01*
X195000000Y-82838478D02*
X194161522Y-82000000D01*
X191000000Y-81000000D02*
X191500000Y-80500000D01*
X192000000Y-82000000D02*
X191000000Y-81000000D01*
X214650000Y-63850000D02*
X212650000Y-63850000D01*
X215000000Y-63500000D02*
X214650000Y-63850000D01*
X219319239Y-63500000D02*
X219269239Y-63550000D01*
X221000000Y-64000000D02*
X220500000Y-63500000D01*
X191500000Y-80500000D02*
X191500000Y-72500000D01*
X190565686Y-94500000D02*
X195000000Y-90065686D01*
X191500000Y-72500000D02*
X192000000Y-72000000D01*
X194161522Y-82000000D02*
X192000000Y-82000000D01*
X209500000Y-67000000D02*
X209500000Y-67500000D01*
X219269239Y-63550000D02*
X218730761Y-63550000D01*
X178500000Y-94500000D02*
X190565686Y-94500000D01*
X220500000Y-63500000D02*
X219319239Y-63500000D01*
%TO.N,+3.3V*%
X242960000Y-83960000D02*
X244500000Y-85500000D01*
X224000000Y-93000000D02*
X217500000Y-93000000D01*
X178894314Y-91000000D02*
X179394314Y-90500000D01*
X239620000Y-52380000D02*
X242500000Y-52380000D01*
X241500000Y-83960000D02*
X242960000Y-83960000D01*
X187000000Y-90000000D02*
X186000000Y-89000000D01*
X244500000Y-92500000D02*
X232000000Y-92500000D01*
X231000000Y-90000000D02*
X231500000Y-90000000D01*
X218000000Y-70000000D02*
X217828705Y-69828705D01*
X219500000Y-70500000D02*
X219000000Y-70000000D01*
X230500000Y-89500000D02*
X231000000Y-90000000D01*
X179394314Y-90500000D02*
X187000000Y-90500000D01*
X219500000Y-74000000D02*
X219500000Y-70500000D01*
X173420000Y-94500000D02*
X176920000Y-91000000D01*
X236750000Y-53710000D02*
X233540000Y-50500000D01*
X236750000Y-55250000D02*
X239620000Y-52380000D01*
X219000000Y-70000000D02*
X218000000Y-70000000D01*
X215000000Y-96000000D02*
X217500000Y-93500000D01*
X218250000Y-75250000D02*
X219500000Y-74000000D01*
X236750000Y-55250000D02*
X236750000Y-53710000D01*
X227000000Y-89500000D02*
X230500000Y-89500000D01*
X217500000Y-91500000D02*
X217500000Y-93000000D01*
X187000000Y-90500000D02*
X187500000Y-90000000D01*
X217500000Y-93000000D02*
X217500000Y-93500000D01*
X244500000Y-85500000D02*
X244500000Y-92500000D01*
X177500000Y-91000000D02*
X178894314Y-91000000D01*
X216250000Y-90250000D02*
X217500000Y-91500000D01*
X176920000Y-91000000D02*
X177500000Y-91000000D01*
X232000000Y-92500000D02*
X230500000Y-91000000D01*
X187500000Y-90000000D02*
X187000000Y-90000000D01*
X230500000Y-91000000D02*
X230500000Y-89500000D01*
X225750000Y-91250000D02*
X224000000Y-93000000D01*
%TO.N,/HSE_OUT*%
X209000000Y-75000000D02*
X209500000Y-74500000D01*
X207000000Y-75000000D02*
X209000000Y-75000000D01*
%TO.N,/NRST*%
X228000000Y-53500000D02*
X228000000Y-57500000D01*
X216950000Y-59500000D02*
X217200000Y-59250000D01*
X208500000Y-72500000D02*
X208500000Y-65000000D01*
X226250000Y-59250000D02*
X228000000Y-57500000D01*
X208500000Y-65000000D02*
X213500000Y-60000000D01*
X225920000Y-50500000D02*
X228000000Y-52580000D01*
X226250000Y-59250000D02*
X219750000Y-59250000D01*
X228000000Y-52580000D02*
X228000000Y-53500000D01*
X217200000Y-59250000D02*
X219750000Y-59250000D01*
X211000000Y-75000000D02*
X208500000Y-72500000D01*
%TO.N,/INA-*%
X176500000Y-84000000D02*
X180500000Y-80000000D01*
X174500000Y-84000000D02*
X176500000Y-84000000D01*
X183000000Y-80000000D02*
X183500000Y-79500000D01*
X180500000Y-80000000D02*
X183000000Y-80000000D01*
X174500000Y-83500000D02*
X174500000Y-84000000D01*
%TO.N,Net-(D4-A)*%
X183500000Y-54500000D02*
X183000000Y-55000000D01*
X183500000Y-50500000D02*
X183500000Y-54500000D01*
%TO.N,/I2C2_SCL*%
X238500000Y-77000000D02*
X236500000Y-79000000D01*
X242500000Y-60000000D02*
X238500000Y-60000000D01*
X238500000Y-60000000D02*
X238500000Y-77000000D01*
%TO.N,/I2C2_SDA*%
X237500000Y-83000000D02*
X237000000Y-83500000D01*
X242500000Y-62540000D02*
X242500000Y-81000000D01*
X237000000Y-83500000D02*
X235000000Y-83500000D01*
X235000000Y-83500000D02*
X230500000Y-88000000D01*
X242500000Y-81000000D02*
X242000000Y-81500000D01*
X239000000Y-81500000D02*
X237500000Y-83000000D01*
X230500000Y-88000000D02*
X228500000Y-88000000D01*
X242000000Y-81500000D02*
X239000000Y-81500000D01*
%TO.N,/I2C3_SDA*%
X208100000Y-84100000D02*
X208000000Y-84000000D01*
X208100000Y-91170000D02*
X208100000Y-84100000D01*
X212000000Y-77000000D02*
X211500000Y-77500000D01*
X211500000Y-77500000D02*
X211500000Y-82000000D01*
X211500000Y-82000000D02*
X210000000Y-83500000D01*
%TO.N,/INA+*%
X172500000Y-86000000D02*
X176000000Y-86000000D01*
X172000000Y-91000000D02*
X172000000Y-90500000D01*
X166500000Y-92000000D02*
X167000000Y-91500000D01*
X172000000Y-90500000D02*
X172500000Y-90000000D01*
X176000000Y-86000000D02*
X181000000Y-81000000D01*
X163500000Y-90000000D02*
X165500000Y-92000000D01*
X165500000Y-92000000D02*
X166500000Y-92000000D01*
X172500000Y-90000000D02*
X172500000Y-86000000D01*
%TO.N,/I2C3_SCL*%
X209500000Y-81000000D02*
X209000000Y-81500000D01*
X210955841Y-76152990D02*
X209500000Y-77608831D01*
X209500000Y-77608831D02*
X209500000Y-81000000D01*
X209000000Y-81500000D02*
X209000000Y-92810000D01*
%TO.N,/UART5_TX*%
X218000000Y-62000000D02*
X217012873Y-61012873D01*
X196500000Y-57000000D02*
X206934314Y-57000000D01*
X189000000Y-57000000D02*
X196500000Y-57000000D01*
X173500000Y-72500000D02*
X189000000Y-57000000D01*
X224000000Y-62000000D02*
X218000000Y-62000000D01*
X211000000Y-58500000D02*
X211500000Y-58000000D01*
X206934314Y-57000000D02*
X208434314Y-58500000D01*
X224253705Y-61746295D02*
X224000000Y-62000000D01*
X208434314Y-58500000D02*
X208500000Y-58500000D01*
X208500000Y-58500000D02*
X211000000Y-58500000D01*
%TO.N,/UART5_RX*%
X171500000Y-72500000D02*
X187500000Y-56500000D01*
X207000000Y-56500000D02*
X208500000Y-58000000D01*
X196500000Y-56500000D02*
X207000000Y-56500000D01*
X209500000Y-58000000D02*
X210500000Y-57000000D01*
X208500000Y-58000000D02*
X209500000Y-58000000D01*
X187500000Y-56500000D02*
X196500000Y-56500000D01*
%TO.N,/GPIO_SLEEP_XBEE*%
X215500000Y-58500000D02*
X215500000Y-59614898D01*
X208000000Y-59000000D02*
X211000000Y-59000000D01*
X218000000Y-60000000D02*
X219000000Y-61000000D01*
X196900000Y-57400000D02*
X206400000Y-57400000D01*
X206400000Y-57400000D02*
X208000000Y-59000000D01*
X217369239Y-60000000D02*
X218000000Y-60000000D01*
X185500000Y-72500000D02*
X185500000Y-64934314D01*
X215500000Y-59614898D02*
X216035102Y-60150000D01*
X216035102Y-60150000D02*
X217219239Y-60150000D01*
X193034314Y-57400000D02*
X196900000Y-57400000D01*
X217219239Y-60150000D02*
X217369239Y-60000000D01*
X211000000Y-59000000D02*
X212500000Y-59000000D01*
X185500000Y-64934314D02*
X193034314Y-57400000D01*
%TO.N,/UART4_TX*%
X219000000Y-91000000D02*
X216500000Y-88500000D01*
X216500000Y-88500000D02*
X216500000Y-86000000D01*
X216500000Y-86000000D02*
X216500000Y-83500000D01*
X216500000Y-83500000D02*
X214000000Y-81000000D01*
%TO.N,Net-(SW1-B)*%
X214150000Y-58150000D02*
X210000000Y-54000000D01*
X219000000Y-62900000D02*
X216400000Y-62900000D01*
X216400000Y-62900000D02*
X214150000Y-60650000D01*
X214150000Y-60650000D02*
X214150000Y-58150000D01*
%TO.N,/SWD_DIO*%
X231000000Y-50500000D02*
X231000000Y-59500000D01*
X237500000Y-68000000D02*
X237500000Y-71000000D01*
X231000000Y-59500000D02*
X236500000Y-65000000D01*
X236500000Y-67000000D02*
X237500000Y-68000000D01*
X236500000Y-65000000D02*
X236500000Y-67000000D01*
%TO.N,/SWD_CLK*%
X228460000Y-50500000D02*
X228460000Y-60960000D01*
X228460000Y-60960000D02*
X230000000Y-62500000D01*
%TO.N,Net-(R3-Pad1)*%
X207250000Y-86750000D02*
X200250000Y-79750000D01*
X193750000Y-79750000D02*
X200250000Y-79750000D01*
%TD*%
M02*
