M48
; DRILL file {KiCad 8.0.5} date 2024-11-27T11:33:46-0500
; FORMAT={-:-/ absolute / metric / decimal}
; #@! TF.CreationDate,2024-11-27T11:33:46-05:00
; #@! TF.GenerationSoftware,Kicad,Pcbnew,8.0.5
; #@! TF.FileFunction,Plated,1,4,PTH
FMAT,2
METRIC
; #@! TA.AperFunction,Plated,PTH,ViaDrill
T1C0.300
; #@! TA.AperFunction,Plated,PTH,ComponentDrill
T2C0.550
; #@! TA.AperFunction,Plated,PTH,ComponentDrill
T3C0.700
; #@! TA.AperFunction,Plated,PTH,ComponentDrill
T4C0.750
; #@! TA.AperFunction,Plated,PTH,ComponentDrill
T5C0.850
; #@! TA.AperFunction,Plated,PTH,ComponentDrill
T6C1.000
%
G90
G05
T1
X167.0Y-91.5
X172.0Y-91.0
X173.0Y-92.0
X174.5Y-83.5
X176.5Y-90.0
X177.5Y-91.0
X178.25Y-90.25
X181.0Y-81.0
X183.0Y-55.0
X183.5Y-79.5
X186.0Y-89.0
X187.5Y-90.0
X191.0Y-72.0
X192.0Y-72.0
X194.0Y-58.5
X207.0Y-75.0
X207.25Y-86.75
X208.0Y-84.0
X208.1Y-91.17
X208.5Y-65.0
X209.0Y-92.81
X209.5Y-67.5
X209.5Y-74.5
X210.0Y-54.0
X210.0Y-83.5
X210.5Y-57.0
X210.956Y-76.153
X211.0Y-75.0
X211.5Y-58.0
X212.0Y-77.0
X212.5Y-59.0
X212.5Y-65.5
X213.5Y-60.0
X214.0Y-81.0
X215.0Y-96.0
X215.5Y-55.0
X215.5Y-58.5
X216.25Y-90.25
X216.5Y-62.0
X216.95Y-59.5
X217.013Y-61.013
X217.829Y-69.829
X218.0Y-80.0
X218.25Y-75.25
X219.0Y-61.0
X219.0Y-62.9
X219.0Y-77.5
X219.0Y-91.0
X219.5Y-64.5
X220.5Y-76.0
X221.0Y-64.0
X224.254Y-61.746
X225.75Y-91.25
X226.5Y-53.0
X227.0Y-89.5
X228.5Y-88.0
X229.176Y-88.676
X230.0Y-62.5
X231.5Y-90.0
X236.5Y-79.0
X236.75Y-55.25
X237.0Y-59.0
X237.5Y-71.0
T3
X169.5Y-50.5
X169.5Y-72.5
X171.5Y-50.5
X171.5Y-72.5
X173.5Y-50.5
X173.5Y-72.5
X175.5Y-50.5
X175.5Y-72.5
X177.5Y-50.5
X177.5Y-72.5
X179.5Y-50.5
X179.5Y-72.5
X181.5Y-50.5
X181.5Y-72.5
X183.5Y-50.5
X183.5Y-72.5
X185.5Y-50.5
X185.5Y-72.5
X187.5Y-50.5
X187.5Y-72.5
T4
X241.5Y-83.96
X241.5Y-85.23
X241.5Y-86.5
T6
X163.5Y-88.0
X163.5Y-90.0
X170.88Y-94.5
X173.42Y-94.5
X175.96Y-94.5
X178.5Y-94.5
X180.5Y-77.5
X186.5Y-77.5
X193.11Y-96.0
X193.75Y-75.25
X193.75Y-79.75
X195.65Y-96.0
X198.19Y-96.0
X200.25Y-75.25
X200.25Y-79.75
X200.73Y-96.0
X203.27Y-96.0
X205.81Y-96.0
X208.35Y-96.0
X210.89Y-96.0
X219.75Y-54.75
X219.75Y-59.25
X223.38Y-50.5
X225.92Y-50.5
X226.25Y-54.75
X226.25Y-59.25
X228.46Y-50.5
X231.0Y-50.5
X233.54Y-50.5
X242.5Y-52.38
X242.5Y-54.92
X242.5Y-57.46
X242.5Y-60.0
X242.5Y-62.54
T2
X163.375Y-76.625G85X162.725Y-76.625
G05
X163.375Y-84.375G85X162.725Y-84.375
G05
T5
X167.125Y-76.775G85X166.575Y-76.775
G05
X167.125Y-84.225G85X166.575Y-84.225
G05
M30
