%TF.GenerationSoftware,KiCad,Pcbnew,8.0.5*%
%TF.CreationDate,2024-11-27T11:25:17-05:00*%
%TF.ProjectId,Alfond PCB,416c666f-6e64-4205-9043-422e6b696361,rev?*%
%TF.SameCoordinates,Original*%
%TF.FileFunction,Paste,Top*%
%TF.FilePolarity,Positive*%
%FSLAX46Y46*%
G04 Gerber Fmt 4.6, Leading zero omitted, Abs format (unit mm)*
G04 Created by KiCad (PCBNEW 8.0.5) date 2024-11-27 11:25:17*
%MOMM*%
%LPD*%
G01*
G04 APERTURE LIST*
G04 Aperture macros list*
%AMRoundRect*
0 Rectangle with rounded corners*
0 $1 Rounding radius*
0 $2 $3 $4 $5 $6 $7 $8 $9 X,Y pos of 4 corners*
0 Add a 4 corners polygon primitive as box body*
4,1,4,$2,$3,$4,$5,$6,$7,$8,$9,$2,$3,0*
0 Add four circle primitives for the rounded corners*
1,1,$1+$1,$2,$3*
1,1,$1+$1,$4,$5*
1,1,$1+$1,$6,$7*
1,1,$1+$1,$8,$9*
0 Add four rect primitives between the rounded corners*
20,1,$1+$1,$2,$3,$4,$5,0*
20,1,$1+$1,$4,$5,$6,$7,0*
20,1,$1+$1,$6,$7,$8,$9,0*
20,1,$1+$1,$8,$9,$2,$3,0*%
G04 Aperture macros list end*
%ADD10R,1.400000X1.200000*%
%ADD11RoundRect,0.160000X-0.160000X0.197500X-0.160000X-0.197500X0.160000X-0.197500X0.160000X0.197500X0*%
%ADD12RoundRect,0.100000X-0.712500X-0.100000X0.712500X-0.100000X0.712500X0.100000X-0.712500X0.100000X0*%
%ADD13RoundRect,0.075000X-0.725000X-0.075000X0.725000X-0.075000X0.725000X0.075000X-0.725000X0.075000X0*%
%ADD14RoundRect,0.075000X-0.075000X-0.725000X0.075000X-0.725000X0.075000X0.725000X-0.075000X0.725000X0*%
%ADD15RoundRect,0.155000X0.212500X0.155000X-0.212500X0.155000X-0.212500X-0.155000X0.212500X-0.155000X0*%
%ADD16RoundRect,0.155000X0.155000X-0.212500X0.155000X0.212500X-0.155000X0.212500X-0.155000X-0.212500X0*%
%ADD17RoundRect,0.160000X-0.197500X-0.160000X0.197500X-0.160000X0.197500X0.160000X-0.197500X0.160000X0*%
%ADD18RoundRect,0.160000X0.197500X0.160000X-0.197500X0.160000X-0.197500X-0.160000X0.197500X-0.160000X0*%
%ADD19RoundRect,0.155000X-0.155000X0.212500X-0.155000X-0.212500X0.155000X-0.212500X0.155000X0.212500X0*%
%ADD20RoundRect,0.225000X0.225000X0.375000X-0.225000X0.375000X-0.225000X-0.375000X0.225000X-0.375000X0*%
%ADD21RoundRect,0.155000X-0.212500X-0.155000X0.212500X-0.155000X0.212500X0.155000X-0.212500X0.155000X0*%
%ADD22R,1.000000X0.800000*%
%ADD23R,0.700000X1.500000*%
%ADD24R,1.300000X0.450000*%
%ADD25RoundRect,0.250000X-0.475000X0.337500X-0.475000X-0.337500X0.475000X-0.337500X0.475000X0.337500X0*%
%ADD26RoundRect,0.225000X0.225000X0.250000X-0.225000X0.250000X-0.225000X-0.250000X0.225000X-0.250000X0*%
%ADD27RoundRect,0.218750X-0.218750X-0.256250X0.218750X-0.256250X0.218750X0.256250X-0.218750X0.256250X0*%
%ADD28RoundRect,0.250000X-0.337500X-0.475000X0.337500X-0.475000X0.337500X0.475000X-0.337500X0.475000X0*%
%ADD29RoundRect,0.067500X-0.137500X-0.067500X0.137500X-0.067500X0.137500X0.067500X-0.137500X0.067500X0*%
%ADD30RoundRect,0.243750X0.456250X-0.243750X0.456250X0.243750X-0.456250X0.243750X-0.456250X-0.243750X0*%
G04 APERTURE END LIST*
D10*
%TO.C,Y1*%
X205800000Y-80000000D03*
X208000000Y-80000000D03*
X208000000Y-78300000D03*
X205800000Y-78300000D03*
%TD*%
D11*
%TO.C,R7*%
X191500000Y-53902500D03*
X191500000Y-55097500D03*
%TD*%
D12*
%TO.C,U3*%
X179387500Y-87025000D03*
X179387500Y-87675000D03*
X179387500Y-88325000D03*
X179387500Y-88975000D03*
X183612500Y-88975000D03*
X183612500Y-88325000D03*
X183612500Y-87675000D03*
X183612500Y-87025000D03*
%TD*%
D13*
%TO.C,U2*%
X216325000Y-68000000D03*
X216325000Y-68500000D03*
X216325000Y-69000000D03*
X216325000Y-69500000D03*
X216325000Y-70000000D03*
X216325000Y-70500000D03*
X216325000Y-71000000D03*
X216325000Y-71500000D03*
X216325000Y-72000000D03*
X216325000Y-72500000D03*
X216325000Y-73000000D03*
X216325000Y-73500000D03*
X216325000Y-74000000D03*
X216325000Y-74500000D03*
X216325000Y-75000000D03*
X216325000Y-75500000D03*
X216325000Y-76000000D03*
X216325000Y-76500000D03*
X216325000Y-77000000D03*
X216325000Y-77500000D03*
X216325000Y-78000000D03*
X216325000Y-78500000D03*
X216325000Y-79000000D03*
X216325000Y-79500000D03*
X216325000Y-80000000D03*
D14*
X218000000Y-81675000D03*
X218500000Y-81675000D03*
X219000000Y-81675000D03*
X219500000Y-81675000D03*
X220000000Y-81675000D03*
X220500000Y-81675000D03*
X221000000Y-81675000D03*
X221500000Y-81675000D03*
X222000000Y-81675000D03*
X222500000Y-81675000D03*
X223000000Y-81675000D03*
X223500000Y-81675000D03*
X224000000Y-81675000D03*
X224500000Y-81675000D03*
X225000000Y-81675000D03*
X225500000Y-81675000D03*
X226000000Y-81675000D03*
X226500000Y-81675000D03*
X227000000Y-81675000D03*
X227500000Y-81675000D03*
X228000000Y-81675000D03*
X228500000Y-81675000D03*
X229000000Y-81675000D03*
X229500000Y-81675000D03*
X230000000Y-81675000D03*
D13*
X231675000Y-80000000D03*
X231675000Y-79500000D03*
X231675000Y-79000000D03*
X231675000Y-78500000D03*
X231675000Y-78000000D03*
X231675000Y-77500000D03*
X231675000Y-77000000D03*
X231675000Y-76500000D03*
X231675000Y-76000000D03*
X231675000Y-75500000D03*
X231675000Y-75000000D03*
X231675000Y-74500000D03*
X231675000Y-74000000D03*
X231675000Y-73500000D03*
X231675000Y-73000000D03*
X231675000Y-72500000D03*
X231675000Y-72000000D03*
X231675000Y-71500000D03*
X231675000Y-71000000D03*
X231675000Y-70500000D03*
X231675000Y-70000000D03*
X231675000Y-69500000D03*
X231675000Y-69000000D03*
X231675000Y-68500000D03*
X231675000Y-68000000D03*
D14*
X230000000Y-66325000D03*
X229500000Y-66325000D03*
X229000000Y-66325000D03*
X228500000Y-66325000D03*
X228000000Y-66325000D03*
X227500000Y-66325000D03*
X227000000Y-66325000D03*
X226500000Y-66325000D03*
X226000000Y-66325000D03*
X225500000Y-66325000D03*
X225000000Y-66325000D03*
X224500000Y-66325000D03*
X224000000Y-66325000D03*
X223500000Y-66325000D03*
X223000000Y-66325000D03*
X222500000Y-66325000D03*
X222000000Y-66325000D03*
X221500000Y-66325000D03*
X221000000Y-66325000D03*
X220500000Y-66325000D03*
X220000000Y-66325000D03*
X219500000Y-66325000D03*
X219000000Y-66325000D03*
X218500000Y-66325000D03*
X218000000Y-66325000D03*
%TD*%
D15*
%TO.C,C10*%
X195135000Y-66000000D03*
X194000000Y-66000000D03*
%TD*%
D16*
%TO.C,C9*%
X235000000Y-69567500D03*
X235000000Y-68432500D03*
%TD*%
D17*
%TO.C,R5*%
X220402500Y-63000000D03*
X221597500Y-63000000D03*
%TD*%
D18*
%TO.C,R4*%
X215097500Y-89500000D03*
X213902500Y-89500000D03*
%TD*%
D19*
%TO.C,C6*%
X212500000Y-69932500D03*
X212500000Y-71067500D03*
%TD*%
D20*
%TO.C,D2*%
X171150000Y-89000000D03*
X167850000Y-89000000D03*
%TD*%
D21*
%TO.C,C11*%
X205500000Y-82000000D03*
X206635000Y-82000000D03*
%TD*%
D22*
%TO.C,SW1*%
X214500000Y-51000000D03*
X214500000Y-48790000D03*
X207200000Y-51000000D03*
X207200000Y-48790000D03*
D23*
X213100000Y-51650000D03*
X210100000Y-51650000D03*
X208600000Y-51650000D03*
%TD*%
D20*
%TO.C,D1*%
X175150000Y-79000000D03*
X171850000Y-79000000D03*
%TD*%
D15*
%TO.C,C3*%
X219567500Y-84000000D03*
X218432500Y-84000000D03*
%TD*%
D19*
%TO.C,C7*%
X214000000Y-65932500D03*
X214000000Y-67067500D03*
%TD*%
D21*
%TO.C,C8*%
X232932500Y-67000000D03*
X234067500Y-67000000D03*
%TD*%
%TO.C,C12*%
X208432500Y-76000000D03*
X209567500Y-76000000D03*
%TD*%
D24*
%TO.C,J5*%
X166900000Y-79200000D03*
X166900000Y-79850000D03*
X166900000Y-80500000D03*
X166900000Y-81150000D03*
X166900000Y-81800000D03*
%TD*%
D16*
%TO.C,C4*%
X213500000Y-79067500D03*
X213500000Y-77932500D03*
%TD*%
D25*
%TO.C,C13*%
X174000000Y-87962500D03*
X174000000Y-90037500D03*
%TD*%
D26*
%TO.C,C1*%
X224775000Y-89500000D03*
X223225000Y-89500000D03*
%TD*%
D17*
%TO.C,R6*%
X191415000Y-86630000D03*
X192610000Y-86630000D03*
%TD*%
%TO.C,R3*%
X213805000Y-87000000D03*
X215000000Y-87000000D03*
%TD*%
D11*
%TO.C,R1*%
X236500000Y-87902500D03*
X236500000Y-89097500D03*
%TD*%
D27*
%TO.C,D3*%
X191212500Y-89500000D03*
X192787500Y-89500000D03*
%TD*%
D28*
%TO.C,C15*%
X185712500Y-87000000D03*
X187787500Y-87000000D03*
%TD*%
D29*
%TO.C,C14*%
X214137500Y-93000000D03*
X214862500Y-93000000D03*
%TD*%
D15*
%TO.C,C2*%
X230567500Y-84500000D03*
X229432500Y-84500000D03*
%TD*%
D30*
%TO.C,D4*%
X191500000Y-52437500D03*
X191500000Y-50562500D03*
%TD*%
D16*
%TO.C,C5*%
X213000000Y-73635000D03*
X213000000Y-72500000D03*
%TD*%
M02*
