%TF.GenerationSoftware,KiCad,Pcbnew,8.0.5*%
%TF.CreationDate,2024-11-27T11:34:08-05:00*%
%TF.ProjectId,Alfond PCB,416c666f-6e64-4205-9043-422e6b696361,rev?*%
%TF.SameCoordinates,Original*%
%TF.FileFunction,Drillmap*%
%TF.FilePolarity,Positive*%
%FSLAX45Y45*%
G04 Gerber Fmt 4.5, Leading zero omitted, Abs format (unit mm)*
G04 Created by KiCad (PCBNEW 8.0.5) date 2024-11-27 11:34:08*
%MOMM*%
%LPD*%
G01*
G04 APERTURE LIST*
%ADD10C,0.100000*%
%ADD11C,0.200000*%
G04 APERTURE END LIST*
D10*
X16100000Y-4800000D02*
X24550000Y-4800000D01*
X24550000Y-9800000D01*
X16100000Y-9800000D01*
X16100000Y-4800000D01*
D11*
D10*
X16540000Y-7760000D02*
X16620000Y-7840000D01*
X16620000Y-7760000D02*
X16540000Y-7840000D01*
X16540000Y-8260000D02*
X16620000Y-8340000D01*
X16620000Y-8260000D02*
X16540000Y-8340000D01*
X20980000Y-4989000D02*
G75*
G02*
X20890000Y-4989000I-45000J0D01*
G01*
X20890000Y-4989000D02*
G75*
G02*
X20980000Y-4989000I45000J0D01*
G01*
X21280000Y-4989000D02*
G75*
G02*
X21190000Y-4989000I-45000J0D01*
G01*
X21190000Y-4989000D02*
G75*
G02*
X21280000Y-4989000I45000J0D01*
G01*
D11*
X16355777Y-10116484D02*
X16355777Y-9916484D01*
X16355777Y-9916484D02*
X16403396Y-9916484D01*
X16403396Y-9916484D02*
X16431967Y-9926008D01*
X16431967Y-9926008D02*
X16451015Y-9945055D01*
X16451015Y-9945055D02*
X16460539Y-9964103D01*
X16460539Y-9964103D02*
X16470062Y-10002198D01*
X16470062Y-10002198D02*
X16470062Y-10030770D01*
X16470062Y-10030770D02*
X16460539Y-10068865D01*
X16460539Y-10068865D02*
X16451015Y-10087912D01*
X16451015Y-10087912D02*
X16431967Y-10106960D01*
X16431967Y-10106960D02*
X16403396Y-10116484D01*
X16403396Y-10116484D02*
X16355777Y-10116484D01*
X16555777Y-10116484D02*
X16555777Y-9983150D01*
X16555777Y-10021246D02*
X16565301Y-10002198D01*
X16565301Y-10002198D02*
X16574824Y-9992674D01*
X16574824Y-9992674D02*
X16593872Y-9983150D01*
X16593872Y-9983150D02*
X16612920Y-9983150D01*
X16679586Y-10116484D02*
X16679586Y-9983150D01*
X16679586Y-9916484D02*
X16670062Y-9926008D01*
X16670062Y-9926008D02*
X16679586Y-9935531D01*
X16679586Y-9935531D02*
X16689110Y-9926008D01*
X16689110Y-9926008D02*
X16679586Y-9916484D01*
X16679586Y-9916484D02*
X16679586Y-9935531D01*
X16803396Y-10116484D02*
X16784348Y-10106960D01*
X16784348Y-10106960D02*
X16774824Y-10087912D01*
X16774824Y-10087912D02*
X16774824Y-9916484D01*
X16908158Y-10116484D02*
X16889110Y-10106960D01*
X16889110Y-10106960D02*
X16879586Y-10087912D01*
X16879586Y-10087912D02*
X16879586Y-9916484D01*
X17136729Y-10116484D02*
X17136729Y-9916484D01*
X17136729Y-9916484D02*
X17203396Y-10059341D01*
X17203396Y-10059341D02*
X17270063Y-9916484D01*
X17270063Y-9916484D02*
X17270063Y-10116484D01*
X17451015Y-10116484D02*
X17451015Y-10011722D01*
X17451015Y-10011722D02*
X17441491Y-9992674D01*
X17441491Y-9992674D02*
X17422444Y-9983150D01*
X17422444Y-9983150D02*
X17384348Y-9983150D01*
X17384348Y-9983150D02*
X17365301Y-9992674D01*
X17451015Y-10106960D02*
X17431967Y-10116484D01*
X17431967Y-10116484D02*
X17384348Y-10116484D01*
X17384348Y-10116484D02*
X17365301Y-10106960D01*
X17365301Y-10106960D02*
X17355777Y-10087912D01*
X17355777Y-10087912D02*
X17355777Y-10068865D01*
X17355777Y-10068865D02*
X17365301Y-10049817D01*
X17365301Y-10049817D02*
X17384348Y-10040293D01*
X17384348Y-10040293D02*
X17431967Y-10040293D01*
X17431967Y-10040293D02*
X17451015Y-10030770D01*
X17546253Y-9983150D02*
X17546253Y-10183150D01*
X17546253Y-9992674D02*
X17565301Y-9983150D01*
X17565301Y-9983150D02*
X17603396Y-9983150D01*
X17603396Y-9983150D02*
X17622444Y-9992674D01*
X17622444Y-9992674D02*
X17631967Y-10002198D01*
X17631967Y-10002198D02*
X17641491Y-10021246D01*
X17641491Y-10021246D02*
X17641491Y-10078389D01*
X17641491Y-10078389D02*
X17631967Y-10097436D01*
X17631967Y-10097436D02*
X17622444Y-10106960D01*
X17622444Y-10106960D02*
X17603396Y-10116484D01*
X17603396Y-10116484D02*
X17565301Y-10116484D01*
X17565301Y-10116484D02*
X17546253Y-10106960D01*
X17727205Y-10097436D02*
X17736729Y-10106960D01*
X17736729Y-10106960D02*
X17727205Y-10116484D01*
X17727205Y-10116484D02*
X17717682Y-10106960D01*
X17717682Y-10106960D02*
X17727205Y-10097436D01*
X17727205Y-10097436D02*
X17727205Y-10116484D01*
X17727205Y-9992674D02*
X17736729Y-10002198D01*
X17736729Y-10002198D02*
X17727205Y-10011722D01*
X17727205Y-10011722D02*
X17717682Y-10002198D01*
X17717682Y-10002198D02*
X17727205Y-9992674D01*
X17727205Y-9992674D02*
X17727205Y-10011722D01*
D10*
X16015000Y-10405000D02*
X16095000Y-10485000D01*
X16095000Y-10405000D02*
X16015000Y-10485000D01*
D11*
X16393872Y-10336484D02*
X16412920Y-10336484D01*
X16412920Y-10336484D02*
X16431967Y-10346008D01*
X16431967Y-10346008D02*
X16441491Y-10355531D01*
X16441491Y-10355531D02*
X16451015Y-10374579D01*
X16451015Y-10374579D02*
X16460539Y-10412674D01*
X16460539Y-10412674D02*
X16460539Y-10460293D01*
X16460539Y-10460293D02*
X16451015Y-10498389D01*
X16451015Y-10498389D02*
X16441491Y-10517436D01*
X16441491Y-10517436D02*
X16431967Y-10526960D01*
X16431967Y-10526960D02*
X16412920Y-10536484D01*
X16412920Y-10536484D02*
X16393872Y-10536484D01*
X16393872Y-10536484D02*
X16374824Y-10526960D01*
X16374824Y-10526960D02*
X16365301Y-10517436D01*
X16365301Y-10517436D02*
X16355777Y-10498389D01*
X16355777Y-10498389D02*
X16346253Y-10460293D01*
X16346253Y-10460293D02*
X16346253Y-10412674D01*
X16346253Y-10412674D02*
X16355777Y-10374579D01*
X16355777Y-10374579D02*
X16365301Y-10355531D01*
X16365301Y-10355531D02*
X16374824Y-10346008D01*
X16374824Y-10346008D02*
X16393872Y-10336484D01*
X16546253Y-10517436D02*
X16555777Y-10526960D01*
X16555777Y-10526960D02*
X16546253Y-10536484D01*
X16546253Y-10536484D02*
X16536729Y-10526960D01*
X16536729Y-10526960D02*
X16546253Y-10517436D01*
X16546253Y-10517436D02*
X16546253Y-10536484D01*
X16670062Y-10422198D02*
X16651015Y-10412674D01*
X16651015Y-10412674D02*
X16641491Y-10403150D01*
X16641491Y-10403150D02*
X16631967Y-10384103D01*
X16631967Y-10384103D02*
X16631967Y-10374579D01*
X16631967Y-10374579D02*
X16641491Y-10355531D01*
X16641491Y-10355531D02*
X16651015Y-10346008D01*
X16651015Y-10346008D02*
X16670062Y-10336484D01*
X16670062Y-10336484D02*
X16708158Y-10336484D01*
X16708158Y-10336484D02*
X16727205Y-10346008D01*
X16727205Y-10346008D02*
X16736729Y-10355531D01*
X16736729Y-10355531D02*
X16746253Y-10374579D01*
X16746253Y-10374579D02*
X16746253Y-10384103D01*
X16746253Y-10384103D02*
X16736729Y-10403150D01*
X16736729Y-10403150D02*
X16727205Y-10412674D01*
X16727205Y-10412674D02*
X16708158Y-10422198D01*
X16708158Y-10422198D02*
X16670062Y-10422198D01*
X16670062Y-10422198D02*
X16651015Y-10431722D01*
X16651015Y-10431722D02*
X16641491Y-10441246D01*
X16641491Y-10441246D02*
X16631967Y-10460293D01*
X16631967Y-10460293D02*
X16631967Y-10498389D01*
X16631967Y-10498389D02*
X16641491Y-10517436D01*
X16641491Y-10517436D02*
X16651015Y-10526960D01*
X16651015Y-10526960D02*
X16670062Y-10536484D01*
X16670062Y-10536484D02*
X16708158Y-10536484D01*
X16708158Y-10536484D02*
X16727205Y-10526960D01*
X16727205Y-10526960D02*
X16736729Y-10517436D01*
X16736729Y-10517436D02*
X16746253Y-10498389D01*
X16746253Y-10498389D02*
X16746253Y-10460293D01*
X16746253Y-10460293D02*
X16736729Y-10441246D01*
X16736729Y-10441246D02*
X16727205Y-10431722D01*
X16727205Y-10431722D02*
X16708158Y-10422198D01*
X16870063Y-10336484D02*
X16889110Y-10336484D01*
X16889110Y-10336484D02*
X16908158Y-10346008D01*
X16908158Y-10346008D02*
X16917682Y-10355531D01*
X16917682Y-10355531D02*
X16927205Y-10374579D01*
X16927205Y-10374579D02*
X16936729Y-10412674D01*
X16936729Y-10412674D02*
X16936729Y-10460293D01*
X16936729Y-10460293D02*
X16927205Y-10498389D01*
X16927205Y-10498389D02*
X16917682Y-10517436D01*
X16917682Y-10517436D02*
X16908158Y-10526960D01*
X16908158Y-10526960D02*
X16889110Y-10536484D01*
X16889110Y-10536484D02*
X16870063Y-10536484D01*
X16870063Y-10536484D02*
X16851015Y-10526960D01*
X16851015Y-10526960D02*
X16841491Y-10517436D01*
X16841491Y-10517436D02*
X16831967Y-10498389D01*
X16831967Y-10498389D02*
X16822444Y-10460293D01*
X16822444Y-10460293D02*
X16822444Y-10412674D01*
X16822444Y-10412674D02*
X16831967Y-10374579D01*
X16831967Y-10374579D02*
X16841491Y-10355531D01*
X16841491Y-10355531D02*
X16851015Y-10346008D01*
X16851015Y-10346008D02*
X16870063Y-10336484D01*
X17060539Y-10336484D02*
X17079586Y-10336484D01*
X17079586Y-10336484D02*
X17098634Y-10346008D01*
X17098634Y-10346008D02*
X17108158Y-10355531D01*
X17108158Y-10355531D02*
X17117682Y-10374579D01*
X17117682Y-10374579D02*
X17127205Y-10412674D01*
X17127205Y-10412674D02*
X17127205Y-10460293D01*
X17127205Y-10460293D02*
X17117682Y-10498389D01*
X17117682Y-10498389D02*
X17108158Y-10517436D01*
X17108158Y-10517436D02*
X17098634Y-10526960D01*
X17098634Y-10526960D02*
X17079586Y-10536484D01*
X17079586Y-10536484D02*
X17060539Y-10536484D01*
X17060539Y-10536484D02*
X17041491Y-10526960D01*
X17041491Y-10526960D02*
X17031967Y-10517436D01*
X17031967Y-10517436D02*
X17022444Y-10498389D01*
X17022444Y-10498389D02*
X17012920Y-10460293D01*
X17012920Y-10460293D02*
X17012920Y-10412674D01*
X17012920Y-10412674D02*
X17022444Y-10374579D01*
X17022444Y-10374579D02*
X17031967Y-10355531D01*
X17031967Y-10355531D02*
X17041491Y-10346008D01*
X17041491Y-10346008D02*
X17060539Y-10336484D01*
X17212920Y-10536484D02*
X17212920Y-10403150D01*
X17212920Y-10422198D02*
X17222444Y-10412674D01*
X17222444Y-10412674D02*
X17241491Y-10403150D01*
X17241491Y-10403150D02*
X17270063Y-10403150D01*
X17270063Y-10403150D02*
X17289110Y-10412674D01*
X17289110Y-10412674D02*
X17298634Y-10431722D01*
X17298634Y-10431722D02*
X17298634Y-10536484D01*
X17298634Y-10431722D02*
X17308158Y-10412674D01*
X17308158Y-10412674D02*
X17327205Y-10403150D01*
X17327205Y-10403150D02*
X17355777Y-10403150D01*
X17355777Y-10403150D02*
X17374825Y-10412674D01*
X17374825Y-10412674D02*
X17384348Y-10431722D01*
X17384348Y-10431722D02*
X17384348Y-10536484D01*
X17479586Y-10536484D02*
X17479586Y-10403150D01*
X17479586Y-10422198D02*
X17489110Y-10412674D01*
X17489110Y-10412674D02*
X17508158Y-10403150D01*
X17508158Y-10403150D02*
X17536729Y-10403150D01*
X17536729Y-10403150D02*
X17555777Y-10412674D01*
X17555777Y-10412674D02*
X17565301Y-10431722D01*
X17565301Y-10431722D02*
X17565301Y-10536484D01*
X17565301Y-10431722D02*
X17574825Y-10412674D01*
X17574825Y-10412674D02*
X17593872Y-10403150D01*
X17593872Y-10403150D02*
X17622444Y-10403150D01*
X17622444Y-10403150D02*
X17641491Y-10412674D01*
X17641491Y-10412674D02*
X17651015Y-10431722D01*
X17651015Y-10431722D02*
X17651015Y-10536484D01*
X18041491Y-10326960D02*
X17870063Y-10584103D01*
X18298634Y-10336484D02*
X18317682Y-10336484D01*
X18317682Y-10336484D02*
X18336729Y-10346008D01*
X18336729Y-10346008D02*
X18346253Y-10355531D01*
X18346253Y-10355531D02*
X18355777Y-10374579D01*
X18355777Y-10374579D02*
X18365301Y-10412674D01*
X18365301Y-10412674D02*
X18365301Y-10460293D01*
X18365301Y-10460293D02*
X18355777Y-10498389D01*
X18355777Y-10498389D02*
X18346253Y-10517436D01*
X18346253Y-10517436D02*
X18336729Y-10526960D01*
X18336729Y-10526960D02*
X18317682Y-10536484D01*
X18317682Y-10536484D02*
X18298634Y-10536484D01*
X18298634Y-10536484D02*
X18279587Y-10526960D01*
X18279587Y-10526960D02*
X18270063Y-10517436D01*
X18270063Y-10517436D02*
X18260539Y-10498389D01*
X18260539Y-10498389D02*
X18251015Y-10460293D01*
X18251015Y-10460293D02*
X18251015Y-10412674D01*
X18251015Y-10412674D02*
X18260539Y-10374579D01*
X18260539Y-10374579D02*
X18270063Y-10355531D01*
X18270063Y-10355531D02*
X18279587Y-10346008D01*
X18279587Y-10346008D02*
X18298634Y-10336484D01*
X18451015Y-10517436D02*
X18460539Y-10526960D01*
X18460539Y-10526960D02*
X18451015Y-10536484D01*
X18451015Y-10536484D02*
X18441491Y-10526960D01*
X18441491Y-10526960D02*
X18451015Y-10517436D01*
X18451015Y-10517436D02*
X18451015Y-10536484D01*
X18584348Y-10336484D02*
X18603396Y-10336484D01*
X18603396Y-10336484D02*
X18622444Y-10346008D01*
X18622444Y-10346008D02*
X18631968Y-10355531D01*
X18631968Y-10355531D02*
X18641491Y-10374579D01*
X18641491Y-10374579D02*
X18651015Y-10412674D01*
X18651015Y-10412674D02*
X18651015Y-10460293D01*
X18651015Y-10460293D02*
X18641491Y-10498389D01*
X18641491Y-10498389D02*
X18631968Y-10517436D01*
X18631968Y-10517436D02*
X18622444Y-10526960D01*
X18622444Y-10526960D02*
X18603396Y-10536484D01*
X18603396Y-10536484D02*
X18584348Y-10536484D01*
X18584348Y-10536484D02*
X18565301Y-10526960D01*
X18565301Y-10526960D02*
X18555777Y-10517436D01*
X18555777Y-10517436D02*
X18546253Y-10498389D01*
X18546253Y-10498389D02*
X18536729Y-10460293D01*
X18536729Y-10460293D02*
X18536729Y-10412674D01*
X18536729Y-10412674D02*
X18546253Y-10374579D01*
X18546253Y-10374579D02*
X18555777Y-10355531D01*
X18555777Y-10355531D02*
X18565301Y-10346008D01*
X18565301Y-10346008D02*
X18584348Y-10336484D01*
X18717682Y-10336484D02*
X18841491Y-10336484D01*
X18841491Y-10336484D02*
X18774825Y-10412674D01*
X18774825Y-10412674D02*
X18803396Y-10412674D01*
X18803396Y-10412674D02*
X18822444Y-10422198D01*
X18822444Y-10422198D02*
X18831968Y-10431722D01*
X18831968Y-10431722D02*
X18841491Y-10450770D01*
X18841491Y-10450770D02*
X18841491Y-10498389D01*
X18841491Y-10498389D02*
X18831968Y-10517436D01*
X18831968Y-10517436D02*
X18822444Y-10526960D01*
X18822444Y-10526960D02*
X18803396Y-10536484D01*
X18803396Y-10536484D02*
X18746253Y-10536484D01*
X18746253Y-10536484D02*
X18727206Y-10526960D01*
X18727206Y-10526960D02*
X18717682Y-10517436D01*
X19031968Y-10536484D02*
X18917682Y-10536484D01*
X18974825Y-10536484D02*
X18974825Y-10336484D01*
X18974825Y-10336484D02*
X18955777Y-10365055D01*
X18955777Y-10365055D02*
X18936729Y-10384103D01*
X18936729Y-10384103D02*
X18917682Y-10393627D01*
X19212920Y-10336484D02*
X19117682Y-10336484D01*
X19117682Y-10336484D02*
X19108158Y-10431722D01*
X19108158Y-10431722D02*
X19117682Y-10422198D01*
X19117682Y-10422198D02*
X19136729Y-10412674D01*
X19136729Y-10412674D02*
X19184349Y-10412674D01*
X19184349Y-10412674D02*
X19203396Y-10422198D01*
X19203396Y-10422198D02*
X19212920Y-10431722D01*
X19212920Y-10431722D02*
X19222444Y-10450770D01*
X19222444Y-10450770D02*
X19222444Y-10498389D01*
X19222444Y-10498389D02*
X19212920Y-10517436D01*
X19212920Y-10517436D02*
X19203396Y-10526960D01*
X19203396Y-10526960D02*
X19184349Y-10536484D01*
X19184349Y-10536484D02*
X19136729Y-10536484D01*
X19136729Y-10536484D02*
X19117682Y-10526960D01*
X19117682Y-10526960D02*
X19108158Y-10517436D01*
X19298634Y-10336484D02*
X19298634Y-10374579D01*
X19374825Y-10336484D02*
X19374825Y-10374579D01*
X19670063Y-10612674D02*
X19660539Y-10603150D01*
X19660539Y-10603150D02*
X19641491Y-10574579D01*
X19641491Y-10574579D02*
X19631968Y-10555531D01*
X19631968Y-10555531D02*
X19622444Y-10526960D01*
X19622444Y-10526960D02*
X19612920Y-10479341D01*
X19612920Y-10479341D02*
X19612920Y-10441246D01*
X19612920Y-10441246D02*
X19622444Y-10393627D01*
X19622444Y-10393627D02*
X19631968Y-10365055D01*
X19631968Y-10365055D02*
X19641491Y-10346008D01*
X19641491Y-10346008D02*
X19660539Y-10317436D01*
X19660539Y-10317436D02*
X19670063Y-10307912D01*
X19736730Y-10355531D02*
X19746253Y-10346008D01*
X19746253Y-10346008D02*
X19765301Y-10336484D01*
X19765301Y-10336484D02*
X19812920Y-10336484D01*
X19812920Y-10336484D02*
X19831968Y-10346008D01*
X19831968Y-10346008D02*
X19841491Y-10355531D01*
X19841491Y-10355531D02*
X19851015Y-10374579D01*
X19851015Y-10374579D02*
X19851015Y-10393627D01*
X19851015Y-10393627D02*
X19841491Y-10422198D01*
X19841491Y-10422198D02*
X19727206Y-10536484D01*
X19727206Y-10536484D02*
X19851015Y-10536484D01*
X20089111Y-10536484D02*
X20089111Y-10336484D01*
X20174825Y-10536484D02*
X20174825Y-10431722D01*
X20174825Y-10431722D02*
X20165301Y-10412674D01*
X20165301Y-10412674D02*
X20146253Y-10403150D01*
X20146253Y-10403150D02*
X20117682Y-10403150D01*
X20117682Y-10403150D02*
X20098634Y-10412674D01*
X20098634Y-10412674D02*
X20089111Y-10422198D01*
X20298634Y-10536484D02*
X20279587Y-10526960D01*
X20279587Y-10526960D02*
X20270063Y-10517436D01*
X20270063Y-10517436D02*
X20260539Y-10498389D01*
X20260539Y-10498389D02*
X20260539Y-10441246D01*
X20260539Y-10441246D02*
X20270063Y-10422198D01*
X20270063Y-10422198D02*
X20279587Y-10412674D01*
X20279587Y-10412674D02*
X20298634Y-10403150D01*
X20298634Y-10403150D02*
X20327206Y-10403150D01*
X20327206Y-10403150D02*
X20346253Y-10412674D01*
X20346253Y-10412674D02*
X20355777Y-10422198D01*
X20355777Y-10422198D02*
X20365301Y-10441246D01*
X20365301Y-10441246D02*
X20365301Y-10498389D01*
X20365301Y-10498389D02*
X20355777Y-10517436D01*
X20355777Y-10517436D02*
X20346253Y-10526960D01*
X20346253Y-10526960D02*
X20327206Y-10536484D01*
X20327206Y-10536484D02*
X20298634Y-10536484D01*
X20479587Y-10536484D02*
X20460539Y-10526960D01*
X20460539Y-10526960D02*
X20451015Y-10507912D01*
X20451015Y-10507912D02*
X20451015Y-10336484D01*
X20631968Y-10526960D02*
X20612920Y-10536484D01*
X20612920Y-10536484D02*
X20574825Y-10536484D01*
X20574825Y-10536484D02*
X20555777Y-10526960D01*
X20555777Y-10526960D02*
X20546253Y-10507912D01*
X20546253Y-10507912D02*
X20546253Y-10431722D01*
X20546253Y-10431722D02*
X20555777Y-10412674D01*
X20555777Y-10412674D02*
X20574825Y-10403150D01*
X20574825Y-10403150D02*
X20612920Y-10403150D01*
X20612920Y-10403150D02*
X20631968Y-10412674D01*
X20631968Y-10412674D02*
X20641492Y-10431722D01*
X20641492Y-10431722D02*
X20641492Y-10450770D01*
X20641492Y-10450770D02*
X20546253Y-10469817D01*
X20717682Y-10526960D02*
X20736730Y-10536484D01*
X20736730Y-10536484D02*
X20774825Y-10536484D01*
X20774825Y-10536484D02*
X20793873Y-10526960D01*
X20793873Y-10526960D02*
X20803396Y-10507912D01*
X20803396Y-10507912D02*
X20803396Y-10498389D01*
X20803396Y-10498389D02*
X20793873Y-10479341D01*
X20793873Y-10479341D02*
X20774825Y-10469817D01*
X20774825Y-10469817D02*
X20746253Y-10469817D01*
X20746253Y-10469817D02*
X20727206Y-10460293D01*
X20727206Y-10460293D02*
X20717682Y-10441246D01*
X20717682Y-10441246D02*
X20717682Y-10431722D01*
X20717682Y-10431722D02*
X20727206Y-10412674D01*
X20727206Y-10412674D02*
X20746253Y-10403150D01*
X20746253Y-10403150D02*
X20774825Y-10403150D01*
X20774825Y-10403150D02*
X20793873Y-10412674D01*
X20870063Y-10612674D02*
X20879587Y-10603150D01*
X20879587Y-10603150D02*
X20898634Y-10574579D01*
X20898634Y-10574579D02*
X20908158Y-10555531D01*
X20908158Y-10555531D02*
X20917682Y-10526960D01*
X20917682Y-10526960D02*
X20927206Y-10479341D01*
X20927206Y-10479341D02*
X20927206Y-10441246D01*
X20927206Y-10441246D02*
X20917682Y-10393627D01*
X20917682Y-10393627D02*
X20908158Y-10365055D01*
X20908158Y-10365055D02*
X20898634Y-10346008D01*
X20898634Y-10346008D02*
X20879587Y-10317436D01*
X20879587Y-10317436D02*
X20870063Y-10307912D01*
X21231968Y-10612674D02*
X21222444Y-10603150D01*
X21222444Y-10603150D02*
X21203396Y-10574579D01*
X21203396Y-10574579D02*
X21193873Y-10555531D01*
X21193873Y-10555531D02*
X21184349Y-10526960D01*
X21184349Y-10526960D02*
X21174825Y-10479341D01*
X21174825Y-10479341D02*
X21174825Y-10441246D01*
X21174825Y-10441246D02*
X21184349Y-10393627D01*
X21184349Y-10393627D02*
X21193873Y-10365055D01*
X21193873Y-10365055D02*
X21203396Y-10346008D01*
X21203396Y-10346008D02*
X21222444Y-10317436D01*
X21222444Y-10317436D02*
X21231968Y-10307912D01*
X21308158Y-10403150D02*
X21308158Y-10536484D01*
X21308158Y-10422198D02*
X21317682Y-10412674D01*
X21317682Y-10412674D02*
X21336730Y-10403150D01*
X21336730Y-10403150D02*
X21365301Y-10403150D01*
X21365301Y-10403150D02*
X21384349Y-10412674D01*
X21384349Y-10412674D02*
X21393873Y-10431722D01*
X21393873Y-10431722D02*
X21393873Y-10536484D01*
X21517682Y-10536484D02*
X21498634Y-10526960D01*
X21498634Y-10526960D02*
X21489111Y-10517436D01*
X21489111Y-10517436D02*
X21479587Y-10498389D01*
X21479587Y-10498389D02*
X21479587Y-10441246D01*
X21479587Y-10441246D02*
X21489111Y-10422198D01*
X21489111Y-10422198D02*
X21498634Y-10412674D01*
X21498634Y-10412674D02*
X21517682Y-10403150D01*
X21517682Y-10403150D02*
X21546254Y-10403150D01*
X21546254Y-10403150D02*
X21565301Y-10412674D01*
X21565301Y-10412674D02*
X21574825Y-10422198D01*
X21574825Y-10422198D02*
X21584349Y-10441246D01*
X21584349Y-10441246D02*
X21584349Y-10498389D01*
X21584349Y-10498389D02*
X21574825Y-10517436D01*
X21574825Y-10517436D02*
X21565301Y-10526960D01*
X21565301Y-10526960D02*
X21546254Y-10536484D01*
X21546254Y-10536484D02*
X21517682Y-10536484D01*
X21641492Y-10403150D02*
X21717682Y-10403150D01*
X21670063Y-10336484D02*
X21670063Y-10507912D01*
X21670063Y-10507912D02*
X21679587Y-10526960D01*
X21679587Y-10526960D02*
X21698634Y-10536484D01*
X21698634Y-10536484D02*
X21717682Y-10536484D01*
X21936730Y-10403150D02*
X21936730Y-10603150D01*
X21936730Y-10412674D02*
X21955777Y-10403150D01*
X21955777Y-10403150D02*
X21993873Y-10403150D01*
X21993873Y-10403150D02*
X22012920Y-10412674D01*
X22012920Y-10412674D02*
X22022444Y-10422198D01*
X22022444Y-10422198D02*
X22031968Y-10441246D01*
X22031968Y-10441246D02*
X22031968Y-10498389D01*
X22031968Y-10498389D02*
X22022444Y-10517436D01*
X22022444Y-10517436D02*
X22012920Y-10526960D01*
X22012920Y-10526960D02*
X21993873Y-10536484D01*
X21993873Y-10536484D02*
X21955777Y-10536484D01*
X21955777Y-10536484D02*
X21936730Y-10526960D01*
X22146254Y-10536484D02*
X22127206Y-10526960D01*
X22127206Y-10526960D02*
X22117682Y-10507912D01*
X22117682Y-10507912D02*
X22117682Y-10336484D01*
X22308158Y-10536484D02*
X22308158Y-10431722D01*
X22308158Y-10431722D02*
X22298635Y-10412674D01*
X22298635Y-10412674D02*
X22279587Y-10403150D01*
X22279587Y-10403150D02*
X22241492Y-10403150D01*
X22241492Y-10403150D02*
X22222444Y-10412674D01*
X22308158Y-10526960D02*
X22289111Y-10536484D01*
X22289111Y-10536484D02*
X22241492Y-10536484D01*
X22241492Y-10536484D02*
X22222444Y-10526960D01*
X22222444Y-10526960D02*
X22212920Y-10507912D01*
X22212920Y-10507912D02*
X22212920Y-10488865D01*
X22212920Y-10488865D02*
X22222444Y-10469817D01*
X22222444Y-10469817D02*
X22241492Y-10460293D01*
X22241492Y-10460293D02*
X22289111Y-10460293D01*
X22289111Y-10460293D02*
X22308158Y-10450770D01*
X22374825Y-10403150D02*
X22451015Y-10403150D01*
X22403396Y-10336484D02*
X22403396Y-10507912D01*
X22403396Y-10507912D02*
X22412920Y-10526960D01*
X22412920Y-10526960D02*
X22431968Y-10536484D01*
X22431968Y-10536484D02*
X22451015Y-10536484D01*
X22593873Y-10526960D02*
X22574825Y-10536484D01*
X22574825Y-10536484D02*
X22536730Y-10536484D01*
X22536730Y-10536484D02*
X22517682Y-10526960D01*
X22517682Y-10526960D02*
X22508158Y-10507912D01*
X22508158Y-10507912D02*
X22508158Y-10431722D01*
X22508158Y-10431722D02*
X22517682Y-10412674D01*
X22517682Y-10412674D02*
X22536730Y-10403150D01*
X22536730Y-10403150D02*
X22574825Y-10403150D01*
X22574825Y-10403150D02*
X22593873Y-10412674D01*
X22593873Y-10412674D02*
X22603396Y-10431722D01*
X22603396Y-10431722D02*
X22603396Y-10450770D01*
X22603396Y-10450770D02*
X22508158Y-10469817D01*
X22774825Y-10536484D02*
X22774825Y-10336484D01*
X22774825Y-10526960D02*
X22755777Y-10536484D01*
X22755777Y-10536484D02*
X22717682Y-10536484D01*
X22717682Y-10536484D02*
X22698634Y-10526960D01*
X22698634Y-10526960D02*
X22689111Y-10517436D01*
X22689111Y-10517436D02*
X22679587Y-10498389D01*
X22679587Y-10498389D02*
X22679587Y-10441246D01*
X22679587Y-10441246D02*
X22689111Y-10422198D01*
X22689111Y-10422198D02*
X22698634Y-10412674D01*
X22698634Y-10412674D02*
X22717682Y-10403150D01*
X22717682Y-10403150D02*
X22755777Y-10403150D01*
X22755777Y-10403150D02*
X22774825Y-10412674D01*
X22851015Y-10612674D02*
X22860539Y-10603150D01*
X22860539Y-10603150D02*
X22879587Y-10574579D01*
X22879587Y-10574579D02*
X22889111Y-10555531D01*
X22889111Y-10555531D02*
X22898634Y-10526960D01*
X22898634Y-10526960D02*
X22908158Y-10479341D01*
X22908158Y-10479341D02*
X22908158Y-10441246D01*
X22908158Y-10441246D02*
X22898634Y-10393627D01*
X22898634Y-10393627D02*
X22889111Y-10365055D01*
X22889111Y-10365055D02*
X22879587Y-10346008D01*
X22879587Y-10346008D02*
X22860539Y-10317436D01*
X22860539Y-10317436D02*
X22851015Y-10307912D01*
D10*
X16095000Y-10709000D02*
G75*
G02*
X16005000Y-10709000I-45000J0D01*
G01*
X16005000Y-10709000D02*
G75*
G02*
X16095000Y-10709000I45000J0D01*
G01*
D11*
X16393872Y-10600484D02*
X16412920Y-10600484D01*
X16412920Y-10600484D02*
X16431967Y-10610008D01*
X16431967Y-10610008D02*
X16441491Y-10619531D01*
X16441491Y-10619531D02*
X16451015Y-10638579D01*
X16451015Y-10638579D02*
X16460539Y-10676674D01*
X16460539Y-10676674D02*
X16460539Y-10724293D01*
X16460539Y-10724293D02*
X16451015Y-10762389D01*
X16451015Y-10762389D02*
X16441491Y-10781436D01*
X16441491Y-10781436D02*
X16431967Y-10790960D01*
X16431967Y-10790960D02*
X16412920Y-10800484D01*
X16412920Y-10800484D02*
X16393872Y-10800484D01*
X16393872Y-10800484D02*
X16374824Y-10790960D01*
X16374824Y-10790960D02*
X16365301Y-10781436D01*
X16365301Y-10781436D02*
X16355777Y-10762389D01*
X16355777Y-10762389D02*
X16346253Y-10724293D01*
X16346253Y-10724293D02*
X16346253Y-10676674D01*
X16346253Y-10676674D02*
X16355777Y-10638579D01*
X16355777Y-10638579D02*
X16365301Y-10619531D01*
X16365301Y-10619531D02*
X16374824Y-10610008D01*
X16374824Y-10610008D02*
X16393872Y-10600484D01*
X16546253Y-10781436D02*
X16555777Y-10790960D01*
X16555777Y-10790960D02*
X16546253Y-10800484D01*
X16546253Y-10800484D02*
X16536729Y-10790960D01*
X16536729Y-10790960D02*
X16546253Y-10781436D01*
X16546253Y-10781436D02*
X16546253Y-10800484D01*
X16651015Y-10800484D02*
X16689110Y-10800484D01*
X16689110Y-10800484D02*
X16708158Y-10790960D01*
X16708158Y-10790960D02*
X16717682Y-10781436D01*
X16717682Y-10781436D02*
X16736729Y-10752865D01*
X16736729Y-10752865D02*
X16746253Y-10714770D01*
X16746253Y-10714770D02*
X16746253Y-10638579D01*
X16746253Y-10638579D02*
X16736729Y-10619531D01*
X16736729Y-10619531D02*
X16727205Y-10610008D01*
X16727205Y-10610008D02*
X16708158Y-10600484D01*
X16708158Y-10600484D02*
X16670062Y-10600484D01*
X16670062Y-10600484D02*
X16651015Y-10610008D01*
X16651015Y-10610008D02*
X16641491Y-10619531D01*
X16641491Y-10619531D02*
X16631967Y-10638579D01*
X16631967Y-10638579D02*
X16631967Y-10686198D01*
X16631967Y-10686198D02*
X16641491Y-10705246D01*
X16641491Y-10705246D02*
X16651015Y-10714770D01*
X16651015Y-10714770D02*
X16670062Y-10724293D01*
X16670062Y-10724293D02*
X16708158Y-10724293D01*
X16708158Y-10724293D02*
X16727205Y-10714770D01*
X16727205Y-10714770D02*
X16736729Y-10705246D01*
X16736729Y-10705246D02*
X16746253Y-10686198D01*
X16870063Y-10600484D02*
X16889110Y-10600484D01*
X16889110Y-10600484D02*
X16908158Y-10610008D01*
X16908158Y-10610008D02*
X16917682Y-10619531D01*
X16917682Y-10619531D02*
X16927205Y-10638579D01*
X16927205Y-10638579D02*
X16936729Y-10676674D01*
X16936729Y-10676674D02*
X16936729Y-10724293D01*
X16936729Y-10724293D02*
X16927205Y-10762389D01*
X16927205Y-10762389D02*
X16917682Y-10781436D01*
X16917682Y-10781436D02*
X16908158Y-10790960D01*
X16908158Y-10790960D02*
X16889110Y-10800484D01*
X16889110Y-10800484D02*
X16870063Y-10800484D01*
X16870063Y-10800484D02*
X16851015Y-10790960D01*
X16851015Y-10790960D02*
X16841491Y-10781436D01*
X16841491Y-10781436D02*
X16831967Y-10762389D01*
X16831967Y-10762389D02*
X16822444Y-10724293D01*
X16822444Y-10724293D02*
X16822444Y-10676674D01*
X16822444Y-10676674D02*
X16831967Y-10638579D01*
X16831967Y-10638579D02*
X16841491Y-10619531D01*
X16841491Y-10619531D02*
X16851015Y-10610008D01*
X16851015Y-10610008D02*
X16870063Y-10600484D01*
X17060539Y-10600484D02*
X17079586Y-10600484D01*
X17079586Y-10600484D02*
X17098634Y-10610008D01*
X17098634Y-10610008D02*
X17108158Y-10619531D01*
X17108158Y-10619531D02*
X17117682Y-10638579D01*
X17117682Y-10638579D02*
X17127205Y-10676674D01*
X17127205Y-10676674D02*
X17127205Y-10724293D01*
X17127205Y-10724293D02*
X17117682Y-10762389D01*
X17117682Y-10762389D02*
X17108158Y-10781436D01*
X17108158Y-10781436D02*
X17098634Y-10790960D01*
X17098634Y-10790960D02*
X17079586Y-10800484D01*
X17079586Y-10800484D02*
X17060539Y-10800484D01*
X17060539Y-10800484D02*
X17041491Y-10790960D01*
X17041491Y-10790960D02*
X17031967Y-10781436D01*
X17031967Y-10781436D02*
X17022444Y-10762389D01*
X17022444Y-10762389D02*
X17012920Y-10724293D01*
X17012920Y-10724293D02*
X17012920Y-10676674D01*
X17012920Y-10676674D02*
X17022444Y-10638579D01*
X17022444Y-10638579D02*
X17031967Y-10619531D01*
X17031967Y-10619531D02*
X17041491Y-10610008D01*
X17041491Y-10610008D02*
X17060539Y-10600484D01*
X17212920Y-10800484D02*
X17212920Y-10667150D01*
X17212920Y-10686198D02*
X17222444Y-10676674D01*
X17222444Y-10676674D02*
X17241491Y-10667150D01*
X17241491Y-10667150D02*
X17270063Y-10667150D01*
X17270063Y-10667150D02*
X17289110Y-10676674D01*
X17289110Y-10676674D02*
X17298634Y-10695722D01*
X17298634Y-10695722D02*
X17298634Y-10800484D01*
X17298634Y-10695722D02*
X17308158Y-10676674D01*
X17308158Y-10676674D02*
X17327205Y-10667150D01*
X17327205Y-10667150D02*
X17355777Y-10667150D01*
X17355777Y-10667150D02*
X17374825Y-10676674D01*
X17374825Y-10676674D02*
X17384348Y-10695722D01*
X17384348Y-10695722D02*
X17384348Y-10800484D01*
X17479586Y-10800484D02*
X17479586Y-10667150D01*
X17479586Y-10686198D02*
X17489110Y-10676674D01*
X17489110Y-10676674D02*
X17508158Y-10667150D01*
X17508158Y-10667150D02*
X17536729Y-10667150D01*
X17536729Y-10667150D02*
X17555777Y-10676674D01*
X17555777Y-10676674D02*
X17565301Y-10695722D01*
X17565301Y-10695722D02*
X17565301Y-10800484D01*
X17565301Y-10695722D02*
X17574825Y-10676674D01*
X17574825Y-10676674D02*
X17593872Y-10667150D01*
X17593872Y-10667150D02*
X17622444Y-10667150D01*
X17622444Y-10667150D02*
X17641491Y-10676674D01*
X17641491Y-10676674D02*
X17651015Y-10695722D01*
X17651015Y-10695722D02*
X17651015Y-10800484D01*
X18041491Y-10590960D02*
X17870063Y-10848103D01*
X18298634Y-10600484D02*
X18317682Y-10600484D01*
X18317682Y-10600484D02*
X18336729Y-10610008D01*
X18336729Y-10610008D02*
X18346253Y-10619531D01*
X18346253Y-10619531D02*
X18355777Y-10638579D01*
X18355777Y-10638579D02*
X18365301Y-10676674D01*
X18365301Y-10676674D02*
X18365301Y-10724293D01*
X18365301Y-10724293D02*
X18355777Y-10762389D01*
X18355777Y-10762389D02*
X18346253Y-10781436D01*
X18346253Y-10781436D02*
X18336729Y-10790960D01*
X18336729Y-10790960D02*
X18317682Y-10800484D01*
X18317682Y-10800484D02*
X18298634Y-10800484D01*
X18298634Y-10800484D02*
X18279587Y-10790960D01*
X18279587Y-10790960D02*
X18270063Y-10781436D01*
X18270063Y-10781436D02*
X18260539Y-10762389D01*
X18260539Y-10762389D02*
X18251015Y-10724293D01*
X18251015Y-10724293D02*
X18251015Y-10676674D01*
X18251015Y-10676674D02*
X18260539Y-10638579D01*
X18260539Y-10638579D02*
X18270063Y-10619531D01*
X18270063Y-10619531D02*
X18279587Y-10610008D01*
X18279587Y-10610008D02*
X18298634Y-10600484D01*
X18451015Y-10781436D02*
X18460539Y-10790960D01*
X18460539Y-10790960D02*
X18451015Y-10800484D01*
X18451015Y-10800484D02*
X18441491Y-10790960D01*
X18441491Y-10790960D02*
X18451015Y-10781436D01*
X18451015Y-10781436D02*
X18451015Y-10800484D01*
X18584348Y-10600484D02*
X18603396Y-10600484D01*
X18603396Y-10600484D02*
X18622444Y-10610008D01*
X18622444Y-10610008D02*
X18631968Y-10619531D01*
X18631968Y-10619531D02*
X18641491Y-10638579D01*
X18641491Y-10638579D02*
X18651015Y-10676674D01*
X18651015Y-10676674D02*
X18651015Y-10724293D01*
X18651015Y-10724293D02*
X18641491Y-10762389D01*
X18641491Y-10762389D02*
X18631968Y-10781436D01*
X18631968Y-10781436D02*
X18622444Y-10790960D01*
X18622444Y-10790960D02*
X18603396Y-10800484D01*
X18603396Y-10800484D02*
X18584348Y-10800484D01*
X18584348Y-10800484D02*
X18565301Y-10790960D01*
X18565301Y-10790960D02*
X18555777Y-10781436D01*
X18555777Y-10781436D02*
X18546253Y-10762389D01*
X18546253Y-10762389D02*
X18536729Y-10724293D01*
X18536729Y-10724293D02*
X18536729Y-10676674D01*
X18536729Y-10676674D02*
X18546253Y-10638579D01*
X18546253Y-10638579D02*
X18555777Y-10619531D01*
X18555777Y-10619531D02*
X18565301Y-10610008D01*
X18565301Y-10610008D02*
X18584348Y-10600484D01*
X18717682Y-10600484D02*
X18841491Y-10600484D01*
X18841491Y-10600484D02*
X18774825Y-10676674D01*
X18774825Y-10676674D02*
X18803396Y-10676674D01*
X18803396Y-10676674D02*
X18822444Y-10686198D01*
X18822444Y-10686198D02*
X18831968Y-10695722D01*
X18831968Y-10695722D02*
X18841491Y-10714770D01*
X18841491Y-10714770D02*
X18841491Y-10762389D01*
X18841491Y-10762389D02*
X18831968Y-10781436D01*
X18831968Y-10781436D02*
X18822444Y-10790960D01*
X18822444Y-10790960D02*
X18803396Y-10800484D01*
X18803396Y-10800484D02*
X18746253Y-10800484D01*
X18746253Y-10800484D02*
X18727206Y-10790960D01*
X18727206Y-10790960D02*
X18717682Y-10781436D01*
X19022444Y-10600484D02*
X18927206Y-10600484D01*
X18927206Y-10600484D02*
X18917682Y-10695722D01*
X18917682Y-10695722D02*
X18927206Y-10686198D01*
X18927206Y-10686198D02*
X18946253Y-10676674D01*
X18946253Y-10676674D02*
X18993872Y-10676674D01*
X18993872Y-10676674D02*
X19012920Y-10686198D01*
X19012920Y-10686198D02*
X19022444Y-10695722D01*
X19022444Y-10695722D02*
X19031968Y-10714770D01*
X19031968Y-10714770D02*
X19031968Y-10762389D01*
X19031968Y-10762389D02*
X19022444Y-10781436D01*
X19022444Y-10781436D02*
X19012920Y-10790960D01*
X19012920Y-10790960D02*
X18993872Y-10800484D01*
X18993872Y-10800484D02*
X18946253Y-10800484D01*
X18946253Y-10800484D02*
X18927206Y-10790960D01*
X18927206Y-10790960D02*
X18917682Y-10781436D01*
X19203396Y-10667150D02*
X19203396Y-10800484D01*
X19155777Y-10590960D02*
X19108158Y-10733817D01*
X19108158Y-10733817D02*
X19231968Y-10733817D01*
X19298634Y-10600484D02*
X19298634Y-10638579D01*
X19374825Y-10600484D02*
X19374825Y-10638579D01*
X19670063Y-10876674D02*
X19660539Y-10867150D01*
X19660539Y-10867150D02*
X19641491Y-10838579D01*
X19641491Y-10838579D02*
X19631968Y-10819531D01*
X19631968Y-10819531D02*
X19622444Y-10790960D01*
X19622444Y-10790960D02*
X19612920Y-10743341D01*
X19612920Y-10743341D02*
X19612920Y-10705246D01*
X19612920Y-10705246D02*
X19622444Y-10657627D01*
X19622444Y-10657627D02*
X19631968Y-10629055D01*
X19631968Y-10629055D02*
X19641491Y-10610008D01*
X19641491Y-10610008D02*
X19660539Y-10581436D01*
X19660539Y-10581436D02*
X19670063Y-10571912D01*
X19736730Y-10619531D02*
X19746253Y-10610008D01*
X19746253Y-10610008D02*
X19765301Y-10600484D01*
X19765301Y-10600484D02*
X19812920Y-10600484D01*
X19812920Y-10600484D02*
X19831968Y-10610008D01*
X19831968Y-10610008D02*
X19841491Y-10619531D01*
X19841491Y-10619531D02*
X19851015Y-10638579D01*
X19851015Y-10638579D02*
X19851015Y-10657627D01*
X19851015Y-10657627D02*
X19841491Y-10686198D01*
X19841491Y-10686198D02*
X19727206Y-10800484D01*
X19727206Y-10800484D02*
X19851015Y-10800484D01*
X20089111Y-10800484D02*
X20089111Y-10600484D01*
X20174825Y-10800484D02*
X20174825Y-10695722D01*
X20174825Y-10695722D02*
X20165301Y-10676674D01*
X20165301Y-10676674D02*
X20146253Y-10667150D01*
X20146253Y-10667150D02*
X20117682Y-10667150D01*
X20117682Y-10667150D02*
X20098634Y-10676674D01*
X20098634Y-10676674D02*
X20089111Y-10686198D01*
X20298634Y-10800484D02*
X20279587Y-10790960D01*
X20279587Y-10790960D02*
X20270063Y-10781436D01*
X20270063Y-10781436D02*
X20260539Y-10762389D01*
X20260539Y-10762389D02*
X20260539Y-10705246D01*
X20260539Y-10705246D02*
X20270063Y-10686198D01*
X20270063Y-10686198D02*
X20279587Y-10676674D01*
X20279587Y-10676674D02*
X20298634Y-10667150D01*
X20298634Y-10667150D02*
X20327206Y-10667150D01*
X20327206Y-10667150D02*
X20346253Y-10676674D01*
X20346253Y-10676674D02*
X20355777Y-10686198D01*
X20355777Y-10686198D02*
X20365301Y-10705246D01*
X20365301Y-10705246D02*
X20365301Y-10762389D01*
X20365301Y-10762389D02*
X20355777Y-10781436D01*
X20355777Y-10781436D02*
X20346253Y-10790960D01*
X20346253Y-10790960D02*
X20327206Y-10800484D01*
X20327206Y-10800484D02*
X20298634Y-10800484D01*
X20479587Y-10800484D02*
X20460539Y-10790960D01*
X20460539Y-10790960D02*
X20451015Y-10771912D01*
X20451015Y-10771912D02*
X20451015Y-10600484D01*
X20631968Y-10790960D02*
X20612920Y-10800484D01*
X20612920Y-10800484D02*
X20574825Y-10800484D01*
X20574825Y-10800484D02*
X20555777Y-10790960D01*
X20555777Y-10790960D02*
X20546253Y-10771912D01*
X20546253Y-10771912D02*
X20546253Y-10695722D01*
X20546253Y-10695722D02*
X20555777Y-10676674D01*
X20555777Y-10676674D02*
X20574825Y-10667150D01*
X20574825Y-10667150D02*
X20612920Y-10667150D01*
X20612920Y-10667150D02*
X20631968Y-10676674D01*
X20631968Y-10676674D02*
X20641492Y-10695722D01*
X20641492Y-10695722D02*
X20641492Y-10714770D01*
X20641492Y-10714770D02*
X20546253Y-10733817D01*
X20717682Y-10790960D02*
X20736730Y-10800484D01*
X20736730Y-10800484D02*
X20774825Y-10800484D01*
X20774825Y-10800484D02*
X20793873Y-10790960D01*
X20793873Y-10790960D02*
X20803396Y-10771912D01*
X20803396Y-10771912D02*
X20803396Y-10762389D01*
X20803396Y-10762389D02*
X20793873Y-10743341D01*
X20793873Y-10743341D02*
X20774825Y-10733817D01*
X20774825Y-10733817D02*
X20746253Y-10733817D01*
X20746253Y-10733817D02*
X20727206Y-10724293D01*
X20727206Y-10724293D02*
X20717682Y-10705246D01*
X20717682Y-10705246D02*
X20717682Y-10695722D01*
X20717682Y-10695722D02*
X20727206Y-10676674D01*
X20727206Y-10676674D02*
X20746253Y-10667150D01*
X20746253Y-10667150D02*
X20774825Y-10667150D01*
X20774825Y-10667150D02*
X20793873Y-10676674D01*
X20870063Y-10876674D02*
X20879587Y-10867150D01*
X20879587Y-10867150D02*
X20898634Y-10838579D01*
X20898634Y-10838579D02*
X20908158Y-10819531D01*
X20908158Y-10819531D02*
X20917682Y-10790960D01*
X20917682Y-10790960D02*
X20927206Y-10743341D01*
X20927206Y-10743341D02*
X20927206Y-10705246D01*
X20927206Y-10705246D02*
X20917682Y-10657627D01*
X20917682Y-10657627D02*
X20908158Y-10629055D01*
X20908158Y-10629055D02*
X20898634Y-10610008D01*
X20898634Y-10610008D02*
X20879587Y-10581436D01*
X20879587Y-10581436D02*
X20870063Y-10571912D01*
X21231968Y-10876674D02*
X21222444Y-10867150D01*
X21222444Y-10867150D02*
X21203396Y-10838579D01*
X21203396Y-10838579D02*
X21193873Y-10819531D01*
X21193873Y-10819531D02*
X21184349Y-10790960D01*
X21184349Y-10790960D02*
X21174825Y-10743341D01*
X21174825Y-10743341D02*
X21174825Y-10705246D01*
X21174825Y-10705246D02*
X21184349Y-10657627D01*
X21184349Y-10657627D02*
X21193873Y-10629055D01*
X21193873Y-10629055D02*
X21203396Y-10610008D01*
X21203396Y-10610008D02*
X21222444Y-10581436D01*
X21222444Y-10581436D02*
X21231968Y-10571912D01*
X21308158Y-10667150D02*
X21308158Y-10800484D01*
X21308158Y-10686198D02*
X21317682Y-10676674D01*
X21317682Y-10676674D02*
X21336730Y-10667150D01*
X21336730Y-10667150D02*
X21365301Y-10667150D01*
X21365301Y-10667150D02*
X21384349Y-10676674D01*
X21384349Y-10676674D02*
X21393873Y-10695722D01*
X21393873Y-10695722D02*
X21393873Y-10800484D01*
X21517682Y-10800484D02*
X21498634Y-10790960D01*
X21498634Y-10790960D02*
X21489111Y-10781436D01*
X21489111Y-10781436D02*
X21479587Y-10762389D01*
X21479587Y-10762389D02*
X21479587Y-10705246D01*
X21479587Y-10705246D02*
X21489111Y-10686198D01*
X21489111Y-10686198D02*
X21498634Y-10676674D01*
X21498634Y-10676674D02*
X21517682Y-10667150D01*
X21517682Y-10667150D02*
X21546254Y-10667150D01*
X21546254Y-10667150D02*
X21565301Y-10676674D01*
X21565301Y-10676674D02*
X21574825Y-10686198D01*
X21574825Y-10686198D02*
X21584349Y-10705246D01*
X21584349Y-10705246D02*
X21584349Y-10762389D01*
X21584349Y-10762389D02*
X21574825Y-10781436D01*
X21574825Y-10781436D02*
X21565301Y-10790960D01*
X21565301Y-10790960D02*
X21546254Y-10800484D01*
X21546254Y-10800484D02*
X21517682Y-10800484D01*
X21641492Y-10667150D02*
X21717682Y-10667150D01*
X21670063Y-10600484D02*
X21670063Y-10771912D01*
X21670063Y-10771912D02*
X21679587Y-10790960D01*
X21679587Y-10790960D02*
X21698634Y-10800484D01*
X21698634Y-10800484D02*
X21717682Y-10800484D01*
X21936730Y-10667150D02*
X21936730Y-10867150D01*
X21936730Y-10676674D02*
X21955777Y-10667150D01*
X21955777Y-10667150D02*
X21993873Y-10667150D01*
X21993873Y-10667150D02*
X22012920Y-10676674D01*
X22012920Y-10676674D02*
X22022444Y-10686198D01*
X22022444Y-10686198D02*
X22031968Y-10705246D01*
X22031968Y-10705246D02*
X22031968Y-10762389D01*
X22031968Y-10762389D02*
X22022444Y-10781436D01*
X22022444Y-10781436D02*
X22012920Y-10790960D01*
X22012920Y-10790960D02*
X21993873Y-10800484D01*
X21993873Y-10800484D02*
X21955777Y-10800484D01*
X21955777Y-10800484D02*
X21936730Y-10790960D01*
X22146254Y-10800484D02*
X22127206Y-10790960D01*
X22127206Y-10790960D02*
X22117682Y-10771912D01*
X22117682Y-10771912D02*
X22117682Y-10600484D01*
X22308158Y-10800484D02*
X22308158Y-10695722D01*
X22308158Y-10695722D02*
X22298635Y-10676674D01*
X22298635Y-10676674D02*
X22279587Y-10667150D01*
X22279587Y-10667150D02*
X22241492Y-10667150D01*
X22241492Y-10667150D02*
X22222444Y-10676674D01*
X22308158Y-10790960D02*
X22289111Y-10800484D01*
X22289111Y-10800484D02*
X22241492Y-10800484D01*
X22241492Y-10800484D02*
X22222444Y-10790960D01*
X22222444Y-10790960D02*
X22212920Y-10771912D01*
X22212920Y-10771912D02*
X22212920Y-10752865D01*
X22212920Y-10752865D02*
X22222444Y-10733817D01*
X22222444Y-10733817D02*
X22241492Y-10724293D01*
X22241492Y-10724293D02*
X22289111Y-10724293D01*
X22289111Y-10724293D02*
X22308158Y-10714770D01*
X22374825Y-10667150D02*
X22451015Y-10667150D01*
X22403396Y-10600484D02*
X22403396Y-10771912D01*
X22403396Y-10771912D02*
X22412920Y-10790960D01*
X22412920Y-10790960D02*
X22431968Y-10800484D01*
X22431968Y-10800484D02*
X22451015Y-10800484D01*
X22593873Y-10790960D02*
X22574825Y-10800484D01*
X22574825Y-10800484D02*
X22536730Y-10800484D01*
X22536730Y-10800484D02*
X22517682Y-10790960D01*
X22517682Y-10790960D02*
X22508158Y-10771912D01*
X22508158Y-10771912D02*
X22508158Y-10695722D01*
X22508158Y-10695722D02*
X22517682Y-10676674D01*
X22517682Y-10676674D02*
X22536730Y-10667150D01*
X22536730Y-10667150D02*
X22574825Y-10667150D01*
X22574825Y-10667150D02*
X22593873Y-10676674D01*
X22593873Y-10676674D02*
X22603396Y-10695722D01*
X22603396Y-10695722D02*
X22603396Y-10714770D01*
X22603396Y-10714770D02*
X22508158Y-10733817D01*
X22774825Y-10800484D02*
X22774825Y-10600484D01*
X22774825Y-10790960D02*
X22755777Y-10800484D01*
X22755777Y-10800484D02*
X22717682Y-10800484D01*
X22717682Y-10800484D02*
X22698634Y-10790960D01*
X22698634Y-10790960D02*
X22689111Y-10781436D01*
X22689111Y-10781436D02*
X22679587Y-10762389D01*
X22679587Y-10762389D02*
X22679587Y-10705246D01*
X22679587Y-10705246D02*
X22689111Y-10686198D01*
X22689111Y-10686198D02*
X22698634Y-10676674D01*
X22698634Y-10676674D02*
X22717682Y-10667150D01*
X22717682Y-10667150D02*
X22755777Y-10667150D01*
X22755777Y-10667150D02*
X22774825Y-10676674D01*
X22851015Y-10876674D02*
X22860539Y-10867150D01*
X22860539Y-10867150D02*
X22879587Y-10838579D01*
X22879587Y-10838579D02*
X22889111Y-10819531D01*
X22889111Y-10819531D02*
X22898634Y-10790960D01*
X22898634Y-10790960D02*
X22908158Y-10743341D01*
X22908158Y-10743341D02*
X22908158Y-10705246D01*
X22908158Y-10705246D02*
X22898634Y-10657627D01*
X22898634Y-10657627D02*
X22889111Y-10629055D01*
X22889111Y-10629055D02*
X22879587Y-10610008D01*
X22879587Y-10610008D02*
X22860539Y-10581436D01*
X22860539Y-10581436D02*
X22851015Y-10571912D01*
M02*
